<?xml version="1.0" encoding="utf-8"?>
<!-- Generator: Adobe Illustrator 23.1.0, SVG Export Plug-In . SVG Version: 6.00 Build 0)  -->
<svg version="1.1" id="Layer_1" xmlns="http://www.w3.org/2000/svg" xmlns:xlink="http://www.w3.org/1999/xlink" x="0px" y="0px"
	 viewBox="0 0 336 447" style="enable-background:new 0 0 336 447;" xml:space="preserve">
<style type="text/css">
	.st0{enable-background:new    ;}
	.st1{fill:none;stroke:#93F5CC;stroke-width:2;}
	.st2{fill:none;stroke:#000000;stroke-width:2;stroke-miterlimit:10;}
	.st3{fill:none;}
</style>
<g id="Group_411" transform="translate(-891 -89)">
	<g class="st0">
		<path d="M958.3,410.5h-2.1l-2.6-10.2l-2.6,10.2h-2.1l-3.6-12.6h2l2.8,10.3l2.5-10.3h2.2l2.5,10.3l2.9-10.3h1.8L958.3,410.5z"/>
		<path d="M969.6,409.8c-0.7,0.5-1.7,0.8-3.1,0.8c-1.6,0-2.9-0.5-3.8-1.6c-0.6-0.8-0.9-1.7-0.9-3c0-1.2,0.3-2.2,0.9-2.9
			c0.8-1,2-1.6,3.7-1.6c1.8,0,3,0.6,3.7,1.6c0.7,0.8,0.9,2.3,0.8,3.6h-7.5c0,0.7,0.3,1.2,0.8,1.7c0.5,0.5,1.3,0.8,2.2,0.8
			c0.9,0,1.6-0.2,2-0.5c0.5-0.3,0.7-0.8,0.7-1h1.7C970.9,408.3,970.4,409.2,969.6,409.8z M968.6,403.7c-0.5-0.5-1.2-0.8-2.2-0.8
			c-1,0-1.7,0.3-2.2,0.8c-0.4,0.4-0.7,1-0.7,1.6h5.7C969.2,404.7,969.1,404.2,968.6,403.7z"/>
		<path d="M985.5,410.5h-1.7c-0.1,0,0-0.2,0-5.5c0-1.1-0.6-1.9-2.2-1.9c-1.4,0-2.5,0.8-2.5,2v5.4h-1.7v-12.8h1.7v5.3
			c0.4-0.9,1.5-1.5,3.1-1.5c2.2,0,3.3,1.2,3.3,3.2C985.4,410.3,985.4,410.5,985.5,410.5z"/>
		<path d="M994.3,410.5c-0.1,0-0.2-0.5-0.2-1.1c-0.5,0.7-1.5,1.2-3.5,1.2c-2.1,0-3.4-0.8-3.4-2.3c0-0.1,0-0.3,0-0.5
			c0-1.4,1.2-2.7,4.4-2.7c0.8,0,1.6,0,2.5,0.1c0-0.2,0-0.7,0-1c-0.1-0.8-0.8-1.3-2.3-1.3c-1,0-1.6,0.2-2,0.5
			c-0.4,0.3-0.5,0.7-0.5,1.2h-1.6c0-0.6,0.3-1.4,0.6-1.8c0.7-0.9,1.8-1.3,3.5-1.3c2.6,0,3.8,1,3.9,2.4c0,0.4,0.1,1.7,0,2.4
			c0,0.6,0,1.8,0,2.4c0,0.7,0.1,1.6,0.2,1.8H994.3z M992.1,406.4c-1.1,0-2,0.1-2.6,0.5c-0.4,0.2-0.6,0.6-0.6,1
			c0,0.4,0.1,0.6,0.3,0.8c0.3,0.3,1,0.5,1.9,0.5c0.8,0,1.4-0.1,2.1-0.5c0.4-0.2,0.8-0.7,0.9-1.4c0-0.4,0.1-0.7,0.1-0.9
			C993.4,406.4,992.8,406.4,992.1,406.4z"/>
		<path d="M1002.7,410.5h-2.1l-3.8-8.8h1.9l3,7.2l3-7.2h1.8L1002.7,410.5z"/>
		<path d="M1014.8,409.8c-0.7,0.5-1.7,0.8-3.1,0.8c-1.6,0-2.9-0.5-3.8-1.6c-0.6-0.8-0.9-1.7-0.9-3c0-1.2,0.3-2.2,0.9-2.9
			c0.8-1,2-1.6,3.7-1.6c1.8,0,3,0.6,3.7,1.6c0.7,0.8,0.9,2.3,0.8,3.6h-7.5c0,0.7,0.3,1.2,0.8,1.7c0.5,0.5,1.3,0.8,2.2,0.8
			c0.9,0,1.6-0.2,2-0.5c0.5-0.3,0.7-0.8,0.7-1h1.7C1016.1,408.3,1015.7,409.2,1014.8,409.8z M1013.9,403.7c-0.5-0.5-1.2-0.8-2.2-0.8
			c-1,0-1.7,0.3-2.2,0.8c-0.4,0.4-0.7,1-0.7,1.6h5.7C1014.5,404.7,1014.3,404.2,1013.9,403.7z"/>
		<path d="M1029.8,409.8c-0.7,0.5-1.7,0.8-3.1,0.8c-1.6,0-2.9-0.5-3.8-1.6c-0.6-0.8-0.9-1.7-0.9-3c0-1.2,0.3-2.2,0.9-2.9
			c0.8-1,2-1.6,3.7-1.6c1.8,0,3,0.6,3.7,1.6c0.7,0.8,0.9,2.3,0.8,3.6h-7.5c0,0.7,0.3,1.2,0.8,1.7c0.5,0.5,1.3,0.8,2.2,0.8
			c0.9,0,1.6-0.2,2-0.5c0.5-0.3,0.7-0.8,0.7-1h1.7C1031.1,408.3,1030.6,409.2,1029.8,409.8z M1028.8,403.7c-0.5-0.5-1.2-0.8-2.2-0.8
			c-1,0-1.7,0.3-2.2,0.8c-0.4,0.4-0.7,1-0.7,1.6h5.7C1029.4,404.7,1029.3,404.2,1028.8,403.7z"/>
		<path d="M1039.5,410.5c-0.1,0-0.2-0.5-0.2-1.1c-0.5,0.7-1.5,1.2-3.5,1.2c-2.1,0-3.4-0.8-3.4-2.3c0-0.1,0-0.3,0-0.5
			c0-1.4,1.2-2.7,4.4-2.7c0.8,0,1.6,0,2.5,0.1c0-0.2,0-0.7,0-1c-0.1-0.8-0.8-1.3-2.3-1.3c-1,0-1.6,0.2-2,0.5
			c-0.4,0.3-0.5,0.7-0.5,1.2h-1.6c0-0.6,0.3-1.4,0.6-1.8c0.7-0.9,1.8-1.3,3.5-1.3c2.6,0,3.8,1,3.9,2.4c0,0.4,0.1,1.7,0,2.4
			c0,0.6,0,1.8,0,2.4c0,0.7,0.1,1.6,0.2,1.8H1039.5z M1037.3,406.4c-1.1,0-2,0.1-2.6,0.5c-0.4,0.2-0.6,0.6-0.6,1
			c0,0.4,0.1,0.6,0.3,0.8c0.3,0.3,1,0.5,1.9,0.5c0.8,0,1.4-0.1,2.1-0.5c0.4-0.2,0.8-0.7,0.9-1.4c0-0.4,0.1-0.7,0.1-0.9
			C1038.6,406.4,1038,406.4,1037.3,406.4z"/>
		<path d="M1049.5,403.5c-0.5-0.2-1.2-0.3-2-0.3c-1.5,0-2.6,1-2.6,2.7v4.6h-1.7v-8.8h1.7v1.5c0.2-1,1.6-1.7,3-1.7
			c0.8,0,1.3,0.1,1.6,0.2V403.5z"/>
		<path d="M1051,410.5c0,0,0-0.1,0-0.6c0-1.2,0-9.7,0-11.2c0-0.4,0-0.8,0-0.9h1.7c0,0.1,0,0.4,0,0.8c0,1.3,0,9.2,0,11.2
			c0,0.4,0,0.7,0,0.8H1051z"/>
		<path d="M1058.5,413.3h-1.8l1.2-2.8l-4-8.8h1.9c0,0,3,7,3,7.1c0-0.1,3-7.1,3-7.1h1.8L1058.5,413.3z"/>
		<path d="M1069.7,410.5c0,0,0-0.1,0-0.6c0-1.2,0-9.7,0-11.2c0-0.4,0-0.8,0-0.9h1.7c0,0.1,0,0.4,0,0.8c0,1.3,0,9.2,0,11.2
			c0,0.4,0,0.7,0,0.8H1069.7z"/>
		<path d="M1073.7,400.6v-2h1.8v2H1073.7z M1073.8,410.5c-0.1,0-0.1-0.2-0.1-0.8c0-1.7,0-8,0-8h1.7c0,0,0,6.6,0,8
			c0,0.6,0,0.8,0.1,0.8H1073.8z"/>
		<path d="M1086,410.5h-1.7c-0.1,0-0.1-0.1-0.1-5.5c0-1.2-0.7-1.9-2.2-1.9c-1.3,0-2.5,0.7-2.5,2v5.3h-1.7v-8.8h1.7v1.4
			c0.5-1.1,1.9-1.6,3.2-1.6c2.4,0,3.3,1.4,3.3,3.1C1086,410.2,1086,410.5,1086,410.5z"/>
		<path d="M1094.7,410.5l-2.8-4.6l-1.9,1.8v2.9h-1.7v-12.8h1.7v8l4.3-4h2.1l-3.2,3l3.6,5.8H1094.7z"/>
		<path d="M1101.8,410.6c-2.7,0-4-0.5-4.3-1.9c-0.1-0.4-0.1-0.6-0.1-0.9h1.7c0,0.1,0,0.3,0.1,0.6c0.2,0.6,1,0.8,2.7,0.8
			c1.7,0,2.3-0.4,2.3-1.2c0-0.8-0.6-1-2.1-1.2c-0.2,0-1.5-0.2-1.8-0.3c-2-0.3-2.8-1-2.8-2.5c0-1.4,1.2-2.5,4-2.5
			c2.3,0,3.6,0.6,4,1.8c0.1,0.4,0.1,0.9,0.1,1.1h-1.7c0-0.1,0-0.5-0.1-0.6c-0.2-0.4-0.8-0.7-2.4-0.7c-1.7,0-2.2,0.4-2.2,1
			c0,0.6,0.4,0.8,1.8,1.1c0.2,0,1.7,0.2,1.9,0.3c2.1,0.3,3,1,3,2.6C1105.8,409.7,1104.7,410.6,1101.8,410.6z"/>
		<path d="M1114.8,403.2v7.3h-1.7v-7.3h-1.6v-1.5h1.6v-1.6c0-1.4,1-2.4,3-2.4c0.6,0,1.2,0.1,1.4,0.1v1.5c-0.3,0-0.8-0.1-1.3-0.1
			c-1,0-1.3,0.6-1.3,1.3v1.2h2.6v1.5H1114.8z"/>
		<path d="M1126.3,409.3c-0.8,0.8-2,1.3-3.5,1.3c-1.6,0-2.8-0.4-3.6-1.3c-0.7-0.8-1.2-1.8-1.2-3.3c0-1.3,0.4-2.4,1.2-3.2
			c0.8-0.8,1.9-1.3,3.6-1.3c1.6,0,2.8,0.5,3.6,1.3c0.8,0.8,1.2,2,1.2,3.3C1127.5,407.5,1127,408.5,1126.3,409.3z M1125.1,403.8
			c-0.5-0.5-1.2-0.8-2.4-0.8c-1.1,0-1.8,0.4-2.3,0.9c-0.5,0.6-0.7,1.3-0.7,2.2c0,1,0.2,1.8,0.6,2.2c0.5,0.6,1.3,0.9,2.4,0.9
			c1,0,1.8-0.3,2.3-0.9c0.4-0.5,0.7-1.2,0.7-2.2C1125.8,405.2,1125.6,404.3,1125.1,403.8z"/>
		<path d="M1135.6,403.5c-0.5-0.2-1.2-0.3-2-0.3c-1.5,0-2.6,1-2.6,2.7v4.6h-1.7v-8.8h1.7v1.5c0.2-1,1.6-1.7,3-1.7
			c0.8,0,1.3,0.1,1.6,0.2V403.5z"/>
		<path d="M1149.6,410.5l-4.7-5.9l-1.2,1.2v4.7h-1.9v-12.6h1.9v5.8l5.8-5.8h2.2l-5.5,5.5l5.6,7.1H1149.6z"/>
		<path d="M1153.1,400.6v-2h1.8v2H1153.1z M1153.3,410.5c-0.1,0-0.1-0.2-0.1-0.8c0-1.7,0-8,0-8h1.7c0,0,0,6.6,0,8
			c0,0.6,0,0.8,0.1,0.8H1153.3z"/>
		<path d="M1159.4,403.2c0,0.9,0,3.8,0,4.6c0,1,0.4,1.3,1.4,1.3c0.4,0,1,0,1.2-0.1v1.5c-0.4,0.1-1.1,0.2-1.9,0.2
			c-1.4,0-2.5-0.5-2.5-2.3c0-1,0-4,0-5.2h-1.5v-1.5h1.5c0.1-0.1,0.1-1.9,0.1-1.9l1.7,0c0,0,0,1.7,0,1.9h2.7v1.5H1159.4z"/>
		<path d="M1171.9,410.5h-1.7c-0.1,0,0-0.2,0-5.5c0-1.1-0.6-1.9-2.2-1.9c-1.4,0-2.5,0.8-2.5,2v5.4h-1.7v-12.8h1.7v5.3
			c0.4-0.9,1.5-1.5,3.1-1.5c2.2,0,3.3,1.2,3.3,3.2C1171.8,410.3,1171.8,410.5,1171.9,410.5z"/>
	</g>
	<g class="st0">
		<path d="M952.5,423.8v3h-1.5v-3h-3.3v-1.4h3.3v-3h1.5v3h3.2v1.4H952.5z"/>
		<path d="M973.8,423.9c0-1.1-0.4-1.8-2-1.8c-1.2,0-2.1,0.7-2.1,1.9v5.5h-1.6c0-0.2,0-4.8,0-5.7c0-1.1-0.7-1.7-1.9-1.7
			c-1.3,0-2.2,1-2.2,1.9v5.5h-1.7v-8.8h1.7v1.3c0.4-0.9,1.6-1.5,2.9-1.5s2.3,0.5,2.6,1.6c0.4-1.1,1.6-1.6,3-1.6c2.1,0,3,1.2,3,2.9
			c0,6,0,6.1,0.1,6.1h-1.6C973.8,429.5,973.8,429.4,973.8,423.9z"/>
		<path d="M984.4,429.5c-0.1,0-0.2-0.5-0.2-1.1c-0.5,0.7-1.5,1.2-3.5,1.2c-2.1,0-3.4-0.8-3.4-2.3c0-0.1,0-0.3,0-0.5
			c0-1.4,1.2-2.7,4.4-2.7c0.8,0,1.6,0,2.5,0.1c0-0.2,0-0.7,0-1c-0.1-0.8-0.8-1.3-2.3-1.3c-1,0-1.6,0.2-2,0.5
			c-0.4,0.3-0.5,0.7-0.5,1.2h-1.6c0-0.6,0.3-1.4,0.6-1.8c0.7-0.9,1.8-1.3,3.5-1.3c2.6,0,3.8,1,3.9,2.4c0,0.4,0.1,1.7,0,2.4
			c0,0.6,0,1.8,0,2.4c0,0.7,0.1,1.6,0.2,1.8H984.4z M982.2,425.4c-1.1,0-2,0.1-2.6,0.5c-0.4,0.2-0.6,0.6-0.6,1
			c0,0.4,0.1,0.6,0.3,0.8c0.3,0.3,1,0.5,1.9,0.5c0.8,0,1.4-0.1,2.1-0.5c0.4-0.2,0.8-0.7,0.9-1.4c0-0.4,0.1-0.7,0.1-0.9
			C983.5,425.4,982.9,425.4,982.2,425.4z"/>
		<path d="M996.2,429.5h-1.7c-0.1,0-0.1-0.1-0.1-5.5c0-1.2-0.7-1.9-2.2-1.9c-1.3,0-2.5,0.7-2.5,2v5.3H988v-8.8h1.7v1.4
			c0.5-1.1,1.9-1.6,3.2-1.6c2.4,0,3.3,1.4,3.3,3.1C996.2,429.2,996.2,429.5,996.2,429.5z"/>
		<path d="M1001.6,432.3h-1.8l1.2-2.8l-4-8.8h1.9c0,0,3,7,3,7.1c0-0.1,3-7.1,3-7.1h1.8L1001.6,432.3z"/>
		<path d="M1020.5,428.3c-0.8,0.8-2,1.3-3.5,1.3c-1.6,0-2.8-0.4-3.6-1.3c-0.7-0.8-1.2-1.8-1.2-3.3c0-1.3,0.4-2.4,1.2-3.2
			c0.8-0.8,1.9-1.3,3.6-1.3c1.6,0,2.8,0.5,3.6,1.3c0.8,0.8,1.2,2,1.2,3.3C1021.7,426.5,1021.2,427.5,1020.5,428.3z M1019.3,422.8
			c-0.5-0.5-1.2-0.8-2.4-0.8c-1.1,0-1.8,0.4-2.3,0.9c-0.5,0.6-0.7,1.3-0.7,2.2c0,1,0.2,1.8,0.6,2.2c0.5,0.6,1.3,0.9,2.4,0.9
			c1,0,1.8-0.3,2.3-0.9c0.4-0.5,0.7-1.2,0.7-2.2C1020,424.2,1019.8,423.3,1019.3,422.8z"/>
		<path d="M1025.6,422.2c0,0.9,0,3.8,0,4.6c0,1,0.4,1.3,1.4,1.3c0.4,0,1,0,1.2-0.1v1.5c-0.4,0.1-1.1,0.2-1.9,0.2
			c-1.4,0-2.5-0.5-2.5-2.3c0-1,0-4,0-5.2h-1.5v-1.5h1.5c0.1-0.1,0.1-1.9,0.1-1.9l1.7,0c0,0,0,1.7,0,1.9h2.7v1.5H1025.6z"/>
		<path d="M1038.1,429.5h-1.7c-0.1,0,0-0.2,0-5.5c0-1.1-0.6-1.9-2.2-1.9c-1.4,0-2.5,0.8-2.5,2v5.4h-1.7v-12.8h1.7v5.3
			c0.4-0.9,1.5-1.5,3.1-1.5c2.2,0,3.3,1.2,3.3,3.2C1038,429.3,1038,429.5,1038.1,429.5z"/>
		<path d="M1047.6,428.8c-0.7,0.5-1.7,0.8-3.1,0.8c-1.6,0-2.9-0.5-3.8-1.6c-0.6-0.8-0.9-1.7-0.9-3c0-1.2,0.3-2.2,0.9-2.9
			c0.8-1,2-1.6,3.7-1.6c1.8,0,3,0.6,3.7,1.6c0.7,0.8,0.9,2.3,0.8,3.6h-7.5c0,0.7,0.3,1.2,0.8,1.7c0.5,0.5,1.3,0.8,2.2,0.8
			c0.9,0,1.6-0.2,2-0.5c0.5-0.3,0.7-0.8,0.7-1h1.7C1048.9,427.3,1048.4,428.2,1047.6,428.8z M1046.6,422.7c-0.5-0.5-1.2-0.8-2.2-0.8
			c-1,0-1.7,0.3-2.2,0.8c-0.4,0.4-0.7,1-0.7,1.6h5.7C1047.2,423.7,1047,423.2,1046.6,422.7z"/>
		<path d="M1057,422.5c-0.5-0.2-1.2-0.3-2-0.3c-1.5,0-2.6,1-2.6,2.7v4.6h-1.7v-8.8h1.7v1.5c0.2-1,1.6-1.7,3-1.7
			c0.8,0,1.3,0.1,1.6,0.2V422.5z"/>
		<path d="M1067,429.6c-2.7,0-4-0.5-4.3-1.9c-0.1-0.4-0.1-0.6-0.1-0.9h1.7c0,0.1,0,0.3,0.1,0.6c0.2,0.6,1,0.8,2.7,0.8
			c1.7,0,2.3-0.4,2.3-1.2c0-0.8-0.6-1-2.1-1.2c-0.2,0-1.5-0.2-1.8-0.3c-2-0.3-2.8-1-2.8-2.5c0-1.4,1.2-2.5,4-2.5
			c2.3,0,3.6,0.6,4,1.8c0.1,0.4,0.1,0.9,0.1,1.1h-1.7c0-0.1,0-0.5-0.1-0.6c-0.2-0.4-0.8-0.7-2.4-0.7c-1.7,0-2.2,0.4-2.2,1
			c0,0.6,0.4,0.8,1.8,1.1c0.2,0,1.7,0.2,1.9,0.3c2.1,0.3,3,1,3,2.6C1071,428.7,1069.9,429.6,1067,429.6z"/>
		<path d="M1072.9,419.6v-2h1.8v2H1072.9z M1073.1,429.5c-0.1,0-0.1-0.2-0.1-0.8c0-1.7,0-8,0-8h1.7c0,0,0,6.6,0,8
			c0,0.6,0,0.8,0.1,0.8H1073.1z"/>
		<path d="M1079.2,422.2c0,0.9,0,3.8,0,4.6c0,1,0.4,1.3,1.4,1.3c0.4,0,1,0,1.2-0.1v1.5c-0.4,0.1-1.1,0.2-1.9,0.2
			c-1.4,0-2.5-0.5-2.5-2.3c0-1,0-4,0-5.2h-1.5v-1.5h1.5c0.1-0.1,0.1-1.9,0.1-1.9l1.7,0c0,0,0,1.7,0,1.9h2.7v1.5H1079.2z"/>
		<path d="M1090.7,428.8c-0.7,0.5-1.7,0.8-3.1,0.8c-1.6,0-2.9-0.5-3.8-1.6c-0.6-0.8-0.9-1.7-0.9-3c0-1.2,0.3-2.2,0.9-2.9
			c0.8-1,2-1.6,3.7-1.6c1.8,0,3,0.6,3.7,1.6c0.7,0.8,0.9,2.3,0.8,3.6h-7.5c0,0.7,0.3,1.2,0.8,1.7c0.5,0.5,1.3,0.8,2.2,0.8
			c0.9,0,1.6-0.2,2-0.5c0.5-0.3,0.7-0.8,0.7-1h1.7C1092,427.3,1091.5,428.2,1090.7,428.8z M1089.8,422.7c-0.5-0.5-1.2-0.8-2.2-0.8
			c-1,0-1.7,0.3-2.2,0.8c-0.4,0.4-0.7,1-0.7,1.6h5.7C1090.3,423.7,1090.2,423.2,1089.8,422.7z"/>
		<path d="M1097.8,429.6c-2.7,0-4-0.5-4.3-1.9c-0.1-0.4-0.1-0.6-0.1-0.9h1.7c0,0.1,0,0.3,0.1,0.6c0.2,0.6,1,0.8,2.7,0.8
			c1.7,0,2.3-0.4,2.3-1.2c0-0.8-0.6-1-2.1-1.2c-0.2,0-1.5-0.2-1.8-0.3c-2-0.3-2.8-1-2.8-2.5c0-1.4,1.2-2.5,4-2.5
			c2.3,0,3.6,0.6,4,1.8c0.1,0.4,0.1,0.9,0.1,1.1h-1.7c0-0.1,0-0.5-0.1-0.6c-0.2-0.4-0.8-0.7-2.4-0.7c-1.7,0-2.2,0.4-2.2,1
			c0,0.6,0.4,0.8,1.8,1.1c0.2,0,1.7,0.2,1.9,0.3c2.1,0.3,3,1,3,2.6C1101.8,428.7,1100.7,429.6,1097.8,429.6z"/>
		<path d="M1105.1,431.2l-1.2-0.2l0.8-1.5l-0.2,0h-0.4v-2.6h2v2.6L1105.1,431.2z"/>
		<path d="M1117.6,429.6c-2.7,0-4-0.5-4.3-1.9c-0.1-0.4-0.1-0.6-0.1-0.9h1.7c0,0.1,0,0.3,0.1,0.6c0.2,0.6,1,0.8,2.7,0.8
			c1.7,0,2.3-0.4,2.3-1.2c0-0.8-0.6-1-2.1-1.2c-0.2,0-1.5-0.2-1.8-0.3c-2-0.3-2.8-1-2.8-2.5c0-1.4,1.2-2.5,4-2.5
			c2.3,0,3.6,0.6,4,1.8c0.1,0.4,0.1,0.9,0.1,1.1h-1.7c0-0.1,0-0.5-0.1-0.6c-0.2-0.4-0.8-0.7-2.4-0.7c-1.7,0-2.2,0.4-2.2,1
			c0,0.6,0.4,0.8,1.8,1.1c0.2,0,1.7,0.2,1.9,0.3c2.1,0.3,3,1,3,2.6C1121.6,428.7,1120.4,429.6,1117.6,429.6z"/>
		<path d="M1131.2,428.3c-0.8,0.8-2,1.3-3.5,1.3c-1.6,0-2.8-0.4-3.6-1.3c-0.7-0.8-1.2-1.8-1.2-3.3c0-1.3,0.4-2.4,1.2-3.2
			c0.8-0.8,1.9-1.3,3.6-1.3c1.6,0,2.8,0.5,3.6,1.3c0.8,0.8,1.2,2,1.2,3.3C1132.4,426.5,1132,427.5,1131.2,428.3z M1130.1,422.8
			c-0.5-0.5-1.2-0.8-2.4-0.8c-1.1,0-1.8,0.4-2.3,0.9c-0.5,0.6-0.7,1.3-0.7,2.2c0,1,0.2,1.8,0.6,2.2c0.5,0.6,1.3,0.9,2.4,0.9
			c1,0,1.8-0.3,2.3-0.9c0.4-0.5,0.7-1.2,0.7-2.2C1130.7,424.2,1130.6,423.3,1130.1,422.8z"/>
		<path d="M1141,422.2c0,0.9,0,3.8,0,4.6c0,1,0.4,1.3,1.4,1.3c0.4,0,1,0,1.2-0.1v1.5c-0.4,0.1-1.1,0.2-1.9,0.2
			c-1.4,0-2.5-0.5-2.5-2.3c0-1,0-4,0-5.2h-1.5v-1.5h1.5c0.1-0.1,0.1-1.9,0.1-1.9l1.7,0c0,0,0,1.7,0,1.9h2.7v1.5H1141z"/>
		<path d="M1153.5,429.5h-1.7c-0.1,0,0-0.2,0-5.5c0-1.1-0.6-1.9-2.2-1.9c-1.4,0-2.5,0.8-2.5,2v5.4h-1.7v-12.8h1.7v5.3
			c0.4-0.9,1.5-1.5,3.1-1.5c2.2,0,3.3,1.2,3.3,3.2C1153.4,429.3,1153.4,429.5,1153.5,429.5z"/>
		<path d="M1162.3,429.5c-0.1,0-0.2-0.5-0.2-1.1c-0.5,0.7-1.5,1.2-3.5,1.2c-2.1,0-3.4-0.8-3.4-2.3c0-0.1,0-0.3,0-0.5
			c0-1.4,1.2-2.7,4.4-2.7c0.8,0,1.6,0,2.5,0.1c0-0.2,0-0.7,0-1c-0.1-0.8-0.8-1.3-2.3-1.3c-1,0-1.6,0.2-2,0.5
			c-0.4,0.3-0.5,0.7-0.5,1.2h-1.6c0-0.6,0.3-1.4,0.6-1.8c0.7-0.9,1.8-1.3,3.5-1.3c2.6,0,3.8,1,3.9,2.4c0,0.4,0.1,1.7,0,2.4
			c0,0.6,0,1.8,0,2.4c0,0.7,0.1,1.6,0.2,1.8H1162.3z M1160.1,425.4c-1.1,0-2,0.1-2.6,0.5c-0.4,0.2-0.6,0.6-0.6,1
			c0,0.4,0.1,0.6,0.3,0.8c0.3,0.3,1,0.5,1.9,0.5c0.8,0,1.4-0.1,2.1-0.5c0.4-0.2,0.8-0.7,0.9-1.4c0-0.4,0.1-0.7,0.1-0.9
			C1161.4,425.4,1160.8,425.4,1160.1,425.4z"/>
		<path d="M1168,422.2c0,0.9,0,3.8,0,4.6c0,1,0.4,1.3,1.4,1.3c0.4,0,1,0,1.2-0.1v1.5c-0.4,0.1-1.1,0.2-1.9,0.2
			c-1.4,0-2.5-0.5-2.5-2.3c0-1,0-4,0-5.2h-1.5v-1.5h1.5c0.1-0.1,0.1-1.9,0.1-1.9l1.7,0c0,0,0,1.7,0,1.9h2.7v1.5H1168z"/>
	</g>
	<g class="st0">
		<path d="M958.4,447.8c-0.7,0.5-1.7,0.8-3.1,0.8c-1.6,0-2.9-0.5-3.8-1.6c-0.6-0.8-0.9-1.7-0.9-3c0-1.2,0.3-2.2,0.9-2.9
			c0.8-1,2-1.6,3.7-1.6c1.8,0,3,0.6,3.7,1.6c0.7,0.8,0.9,2.3,0.8,3.6h-7.5c0,0.7,0.3,1.2,0.8,1.7c0.5,0.5,1.3,0.8,2.2,0.8
			c0.9,0,1.6-0.2,2-0.5c0.5-0.3,0.7-0.8,0.7-1h1.7C959.7,446.3,959.2,447.2,958.4,447.8z M957.4,441.7c-0.5-0.5-1.2-0.8-2.2-0.8
			c-1,0-1.7,0.3-2.2,0.8c-0.4,0.4-0.7,1-0.7,1.6h5.7C958,442.7,957.9,442.2,957.4,441.7z"/>
		<path d="M968.1,448.5c-0.1,0-0.2-0.5-0.2-1.1c-0.5,0.7-1.5,1.2-3.5,1.2c-2.1,0-3.4-0.8-3.4-2.3c0-0.1,0-0.3,0-0.5
			c0-1.4,1.2-2.7,4.4-2.7c0.8,0,1.6,0,2.5,0.1c0-0.2,0-0.7,0-1c-0.1-0.8-0.8-1.3-2.3-1.3c-1,0-1.6,0.2-2,0.5
			c-0.4,0.3-0.5,0.7-0.5,1.2h-1.6c0-0.6,0.3-1.4,0.6-1.8c0.7-0.9,1.8-1.3,3.5-1.3c2.6,0,3.8,1,3.9,2.4c0,0.4,0.1,1.7,0,2.4
			c0,0.6,0,1.8,0,2.4c0,0.7,0.1,1.6,0.2,1.8H968.1z M965.9,444.4c-1.1,0-2,0.1-2.6,0.5c-0.4,0.2-0.6,0.6-0.6,1
			c0,0.4,0.1,0.6,0.3,0.8c0.3,0.3,1,0.5,1.9,0.5c0.8,0,1.4-0.1,2.1-0.5c0.4-0.2,0.8-0.7,0.9-1.4c0-0.4,0.1-0.7,0.1-0.9
			C967.2,444.4,966.6,444.4,965.9,444.4z"/>
		<path d="M978.6,443c0-0.3-0.1-0.9-0.4-1.2c-0.4-0.5-1.2-0.8-2.3-0.8c-1,0-1.7,0.3-2.2,0.8c-0.5,0.5-0.7,1.3-0.7,2.3
			c0,1.1,0.2,1.9,0.8,2.4c0.5,0.5,1.2,0.7,2.2,0.7c1.1,0,1.8-0.3,2.2-0.7c0.3-0.3,0.5-0.8,0.5-1.1h1.7c0,0.8-0.3,1.6-1,2.2
			c-0.7,0.6-1.8,1.1-3.4,1.1c-1.5,0-2.6-0.4-3.4-1.1c-0.8-0.8-1.3-1.9-1.3-3.5c0-1.5,0.4-2.6,1.2-3.3c0.8-0.8,2-1.3,3.6-1.3
			c2,0,3.1,0.7,3.8,1.8c0.4,0.6,0.4,1.3,0.4,1.7H978.6z"/>
		<path d="M990.4,448.5h-1.7c-0.1,0,0-0.2,0-5.5c0-1.1-0.6-1.9-2.2-1.9c-1.4,0-2.5,0.8-2.5,2v5.4h-1.7v-12.8h1.7v5.3
			c0.4-0.9,1.5-1.5,3.1-1.5c2.2,0,3.3,1.2,3.3,3.2C990.3,448.3,990.3,448.5,990.4,448.5z"/>
		<path d="M1008.7,442.9c0-1.1-0.4-1.8-2-1.8c-1.2,0-2.1,0.7-2.1,1.9v5.5h-1.6c0-0.2,0-4.8,0-5.7c0-1.1-0.7-1.7-1.9-1.7
			c-1.3,0-2.2,1-2.2,1.9v5.5h-1.7v-8.8h1.7v1.3c0.4-0.9,1.6-1.5,2.9-1.5s2.3,0.5,2.6,1.6c0.4-1.1,1.6-1.6,3-1.6c2.1,0,3,1.2,3,2.9
			c0,6,0,6.1,0.1,6.1h-1.6C1008.7,448.5,1008.7,448.4,1008.7,442.9z"/>
		<path d="M1019.9,447.8c-0.7,0.5-1.7,0.8-3.1,0.8c-1.6,0-2.9-0.5-3.8-1.6c-0.6-0.8-0.9-1.7-0.9-3c0-1.2,0.3-2.2,0.9-2.9
			c0.8-1,2-1.6,3.7-1.6c1.8,0,3,0.6,3.7,1.6c0.7,0.8,0.9,2.3,0.8,3.6h-7.5c0,0.7,0.3,1.2,0.8,1.7c0.5,0.5,1.3,0.8,2.2,0.8
			c0.9,0,1.6-0.2,2-0.5c0.5-0.3,0.7-0.8,0.7-1h1.7C1021.2,446.3,1020.7,447.2,1019.9,447.8z M1018.9,441.7c-0.5-0.5-1.2-0.8-2.2-0.8
			c-1,0-1.7,0.3-2.2,0.8c-0.4,0.4-0.7,1-0.7,1.6h5.7C1019.5,442.7,1019.4,442.2,1018.9,441.7z"/>
		<path d="M1034.5,442.9c0-1.1-0.4-1.8-2-1.8c-1.2,0-2.1,0.7-2.1,1.9v5.5h-1.6c0-0.2,0-4.8,0-5.7c0-1.1-0.7-1.7-1.9-1.7
			c-1.3,0-2.2,1-2.2,1.9v5.5h-1.7v-8.8h1.7v1.3c0.4-0.9,1.6-1.5,2.9-1.5s2.3,0.5,2.6,1.6c0.4-1.1,1.6-1.6,3-1.6c2.1,0,3,1.2,3,2.9
			c0,6,0,6.1,0.1,6.1h-1.6C1034.5,448.5,1034.5,448.4,1034.5,442.9z"/>
		<path d="M1046.5,440.7c0.7,0.7,1.1,1.8,1.1,3.2c0,1.6-0.4,2.7-1.2,3.4c-0.8,0.8-1.9,1.2-3.1,1.2c-1.4,0-2.5-0.4-3.1-1.2l-0.1,1.2
			h-1.6v-12.8h1.7v5.3c0.3-0.8,1.5-1.6,3.3-1.6C1044.8,439.5,1045.8,439.9,1046.5,440.7z M1040.3,442.6c-0.1,0.4-0.2,0.8-0.2,1.6
			c0,0.8,0.1,1.2,0.3,1.5c0.4,0.8,1.2,1.4,2.6,1.4c1.1,0,1.8-0.4,2.3-1c0.4-0.5,0.6-1.2,0.6-2.1c0-0.8-0.1-1.6-0.5-2
			c-0.5-0.6-1.2-1-2.4-1C1041.5,441,1040.6,441.7,1040.3,442.6z"/>
		<path d="M1056.7,447.8c-0.7,0.5-1.7,0.8-3.1,0.8c-1.6,0-2.9-0.5-3.8-1.6c-0.6-0.8-0.9-1.7-0.9-3c0-1.2,0.3-2.2,0.9-2.9
			c0.8-1,2-1.6,3.7-1.6c1.8,0,3,0.6,3.7,1.6c0.7,0.8,0.9,2.3,0.8,3.6h-7.5c0,0.7,0.3,1.2,0.8,1.7c0.5,0.5,1.3,0.8,2.2,0.8
			c0.9,0,1.6-0.2,2-0.5c0.5-0.3,0.7-0.8,0.7-1h1.7C1058,446.3,1057.5,447.2,1056.7,447.8z M1055.7,441.7c-0.5-0.5-1.2-0.8-2.2-0.8
			c-1,0-1.7,0.3-2.2,0.8c-0.4,0.4-0.7,1-0.7,1.6h5.7C1056.3,442.7,1056.2,442.2,1055.7,441.7z"/>
		<path d="M1066.1,441.5c-0.5-0.2-1.2-0.3-2-0.3c-1.5,0-2.6,1-2.6,2.7v4.6h-1.7v-8.8h1.7v1.5c0.2-1,1.6-1.7,3-1.7
			c0.8,0,1.3,0.1,1.6,0.2V441.5z"/>
		<path d="M1072.1,438.6v-2h1.8v2H1072.1z M1072.2,448.5c-0.1,0-0.1-0.2-0.1-0.8c0-1.7,0-8,0-8h1.7c0,0,0,6.6,0,8
			c0,0.6,0,0.8,0.1,0.8H1072.2z"/>
		<path d="M1080.2,448.6c-2.7,0-4-0.5-4.3-1.9c-0.1-0.4-0.1-0.6-0.1-0.9h1.7c0,0.1,0,0.3,0.1,0.6c0.2,0.6,1,0.8,2.7,0.8
			c1.7,0,2.3-0.4,2.3-1.2c0-0.8-0.6-1-2.1-1.2c-0.2,0-1.5-0.2-1.8-0.3c-2-0.3-2.8-1-2.8-2.5c0-1.4,1.2-2.5,4-2.5
			c2.3,0,3.6,0.6,4,1.8c0.1,0.4,0.1,0.9,0.1,1.1h-1.7c0-0.1,0-0.5-0.1-0.6c-0.2-0.4-0.8-0.7-2.4-0.7c-1.7,0-2.2,0.4-2.2,1
			c0,0.6,0.4,0.8,1.8,1.1c0.2,0,1.7,0.2,1.9,0.3c2.1,0.3,3,1,3,2.6C1084.3,447.7,1083.1,448.6,1080.2,448.6z"/>
		<path d="M1098.8,447.3c-0.7,0.7-1.8,1.2-3.2,1.2c-1.3,0-2.6-0.4-3.1-1.2v3.9h-1.7v-11.6h1.7v1.4c0.3-0.9,1.6-1.6,3.3-1.6
			c1.3,0,2.4,0.4,3.1,1.2c0.7,0.7,1,1.8,1,3.3C1099.9,445.6,1099.5,446.6,1098.8,447.3z M1097.4,441.8c-0.5-0.4-1.2-0.8-2.2-0.8
			c-0.9,0-1.5,0.3-2,0.7c-0.6,0.5-0.8,1.3-0.8,2.4c0,1.1,0.2,1.8,0.8,2.3c0.5,0.5,1.1,0.7,2.1,0.7c1,0,1.8-0.3,2.3-0.9
			c0.4-0.5,0.6-1.2,0.6-2.1C1098.2,443.1,1098,442.3,1097.4,441.8z"/>
		<path d="M1108,441.5c-0.5-0.2-1.2-0.3-2-0.3c-1.5,0-2.6,1-2.6,2.7v4.6h-1.7v-8.8h1.7v1.5c0.2-1,1.6-1.7,3-1.7
			c0.8,0,1.3,0.1,1.6,0.2V441.5z"/>
		<path d="M1116.4,447.8c-0.7,0.5-1.7,0.8-3.1,0.8c-1.6,0-2.9-0.5-3.8-1.6c-0.6-0.8-0.9-1.7-0.9-3c0-1.2,0.3-2.2,0.9-2.9
			c0.8-1,2-1.6,3.7-1.6c1.8,0,3,0.6,3.7,1.6c0.7,0.8,0.9,2.3,0.8,3.6h-7.5c0,0.7,0.3,1.2,0.8,1.7c0.5,0.5,1.3,0.8,2.2,0.8
			c0.9,0,1.6-0.2,2-0.5c0.5-0.3,0.7-0.8,0.7-1h1.7C1117.7,446.3,1117.2,447.2,1116.4,447.8z M1115.4,441.7c-0.5-0.5-1.2-0.8-2.2-0.8
			c-1,0-1.7,0.3-2.2,0.8c-0.4,0.4-0.7,1-0.7,1.6h5.7C1116,442.7,1115.8,442.2,1115.4,441.7z"/>
		<path d="M1127.4,447.3c-0.7,0.7-1.8,1.2-3.2,1.2c-1.3,0-2.6-0.4-3.1-1.2v3.9h-1.7v-11.6h1.7v1.4c0.3-0.9,1.6-1.6,3.3-1.6
			c1.3,0,2.4,0.4,3.1,1.2c0.7,0.7,1,1.8,1,3.3C1128.5,445.6,1128.1,446.6,1127.4,447.3z M1126.1,441.8c-0.5-0.4-1.2-0.8-2.2-0.8
			c-0.9,0-1.5,0.3-2,0.7c-0.6,0.5-0.8,1.3-0.8,2.4c0,1.1,0.2,1.8,0.8,2.3c0.5,0.5,1.1,0.7,2.1,0.7c1,0,1.8-0.3,2.3-0.9
			c0.4-0.5,0.6-1.2,0.6-2.1C1126.8,443.1,1126.6,442.3,1126.1,441.8z"/>
		<path d="M1136.9,448.5c-0.1,0-0.2-0.5-0.2-1.1c-0.5,0.7-1.5,1.2-3.5,1.2c-2.1,0-3.4-0.8-3.4-2.3c0-0.1,0-0.3,0-0.5
			c0-1.4,1.2-2.7,4.4-2.7c0.8,0,1.6,0,2.5,0.1c0-0.2,0-0.7,0-1c-0.1-0.8-0.8-1.3-2.3-1.3c-1,0-1.6,0.2-2,0.5
			c-0.4,0.3-0.5,0.7-0.5,1.2h-1.6c0-0.6,0.3-1.4,0.6-1.8c0.7-0.9,1.8-1.3,3.5-1.3c2.6,0,3.8,1,3.9,2.4c0,0.4,0.1,1.7,0,2.4
			c0,0.6,0,1.8,0,2.4c0,0.7,0.1,1.6,0.2,1.8H1136.9z M1134.8,444.4c-1.1,0-2,0.1-2.6,0.5c-0.4,0.2-0.6,0.6-0.6,1
			c0,0.4,0.1,0.6,0.3,0.8c0.3,0.3,1,0.5,1.9,0.5c0.8,0,1.4-0.1,2.1-0.5c0.4-0.2,0.8-0.7,0.9-1.4c0-0.4,0.1-0.7,0.1-0.9
			C1136.1,444.4,1135.5,444.4,1134.8,444.4z"/>
		<path d="M1147,441.5c-0.5-0.2-1.2-0.3-2-0.3c-1.5,0-2.6,1-2.6,2.7v4.6h-1.7v-8.8h1.7v1.5c0.2-1,1.6-1.7,3-1.7
			c0.8,0,1.3,0.1,1.6,0.2V441.5z"/>
		<path d="M1155.3,447.8c-0.7,0.5-1.7,0.8-3.1,0.8c-1.6,0-2.9-0.5-3.8-1.6c-0.6-0.8-0.9-1.7-0.9-3c0-1.2,0.3-2.2,0.9-2.9
			c0.8-1,2-1.6,3.7-1.6c1.8,0,3,0.6,3.7,1.6c0.7,0.8,0.9,2.3,0.8,3.6h-7.5c0,0.7,0.3,1.2,0.8,1.7c0.5,0.5,1.3,0.8,2.2,0.8
			c0.9,0,1.6-0.2,2-0.5c0.5-0.3,0.7-0.8,0.7-1h1.7C1156.6,446.3,1156.1,447.2,1155.3,447.8z M1154.4,441.7c-0.5-0.5-1.2-0.8-2.2-0.8
			c-1,0-1.7,0.3-2.2,0.8c-0.4,0.4-0.7,1-0.7,1.6h5.7C1155,442.7,1154.8,442.2,1154.4,441.7z"/>
		<path d="M1165.2,440.8v-5h1.7c0,0,0,10,0,11.7c0,0.4,0.1,1,0.1,1h-1.6l-0.2-1.2c-0.5,0.8-1.5,1.3-3.2,1.3c-1.5,0-2.5-0.6-3.1-1.2
			c-0.7-0.8-1.1-1.8-1.1-3.2c0-1.5,0.5-2.6,1.2-3.3c0.7-0.7,1.8-1.2,3.1-1.2C1163.5,439.6,1164.7,439.9,1165.2,440.8z M1160.3,441.9
			c-0.5,0.5-0.8,1.3-0.8,2.2c0,0.9,0.2,1.7,0.6,2.2c0.6,0.6,1.2,0.9,2.3,0.9c1,0,1.7-0.3,2.3-1c0.4-0.4,0.6-1.2,0.6-2.1
			c0-0.8-0.2-1.7-0.5-2.1c-0.6-0.8-1.3-1-2.3-1C1161.6,441.1,1160.8,441.4,1160.3,441.9z"/>
	</g>
	<g class="st0">
		<path d="M995.5,466.3c-0.7,0.7-1.8,1.2-3.2,1.2c-1.3,0-2.6-0.4-3.1-1.2v3.9h-1.7v-11.6h1.7v1.4c0.3-0.9,1.6-1.6,3.3-1.6
			c1.3,0,2.4,0.4,3.1,1.2c0.7,0.7,1,1.8,1,3.3C996.6,464.6,996.1,465.6,995.5,466.3z M994.1,460.8c-0.5-0.4-1.2-0.8-2.2-0.8
			c-0.9,0-1.5,0.3-2,0.7c-0.6,0.5-0.8,1.3-0.8,2.4c0,1.1,0.2,1.8,0.8,2.3c0.5,0.5,1.1,0.7,2.1,0.7c1,0,1.8-0.3,2.3-0.9
			c0.4-0.5,0.6-1.2,0.6-2.1C994.8,462.1,994.6,461.3,994.1,460.8z"/>
		<path d="M1004.7,460.5c-0.5-0.2-1.2-0.3-2-0.3c-1.5,0-2.6,1-2.6,2.7v4.6h-1.7v-8.8h1.7v1.5c0.2-1,1.6-1.7,3-1.7
			c0.8,0,1.3,0.1,1.6,0.2V460.5z"/>
		<path d="M1006,457.6v-2h1.8v2H1006z M1006.2,467.5c-0.1,0-0.1-0.2-0.1-0.8c0-1.7,0-8,0-8h1.7c0,0,0,6.6,0,8c0,0.6,0,0.8,0.1,0.8
			H1006.2z"/>
		<path d="M1017.9,466.3c-0.8,0.8-2,1.3-3.5,1.3c-1.6,0-2.8-0.4-3.6-1.3c-0.7-0.8-1.2-1.8-1.2-3.3c0-1.3,0.4-2.4,1.2-3.2
			c0.8-0.8,1.9-1.3,3.6-1.3c1.6,0,2.8,0.5,3.6,1.3c0.8,0.8,1.2,2,1.2,3.3C1019.1,464.5,1018.7,465.5,1017.9,466.3z M1016.8,460.8
			c-0.5-0.5-1.2-0.8-2.4-0.8c-1.1,0-1.8,0.4-2.3,0.9c-0.5,0.6-0.7,1.3-0.7,2.2c0,1,0.2,1.8,0.6,2.2c0.5,0.6,1.3,0.9,2.4,0.9
			c1,0,1.8-0.3,2.3-0.9c0.4-0.5,0.7-1.2,0.7-2.2C1017.4,462.2,1017.3,461.3,1016.8,460.8z"/>
		<path d="M1027.3,460.5c-0.5-0.2-1.2-0.3-2-0.3c-1.5,0-2.6,1-2.6,2.7v4.6h-1.7v-8.8h1.7v1.5c0.2-1,1.6-1.7,3-1.7
			c0.8,0,1.3,0.1,1.6,0.2V460.5z"/>
		<path d="M1035.4,460.2c0,0.9,0,3.8,0,4.6c0,1,0.4,1.3,1.4,1.3c0.4,0,1,0,1.2-0.1v1.5c-0.4,0.1-1.1,0.2-1.9,0.2
			c-1.4,0-2.5-0.5-2.5-2.3c0-1,0-4,0-5.2h-1.5v-1.5h1.5c0.1-0.1,0.1-1.9,0.1-1.9l1.7,0c0,0,0,1.7,0,1.9h2.7v1.5H1035.4z"/>
		<path d="M1047.4,466.3c-0.8,0.8-2,1.3-3.5,1.3c-1.6,0-2.8-0.4-3.6-1.3c-0.7-0.8-1.2-1.8-1.2-3.3c0-1.3,0.4-2.4,1.2-3.2
			c0.8-0.8,1.9-1.3,3.6-1.3c1.6,0,2.8,0.5,3.6,1.3c0.8,0.8,1.2,2,1.2,3.3C1048.6,464.5,1048.1,465.5,1047.4,466.3z M1046.2,460.8
			c-0.5-0.5-1.2-0.8-2.4-0.8c-1.1,0-1.8,0.4-2.3,0.9c-0.5,0.6-0.7,1.3-0.7,2.2c0,1,0.2,1.8,0.6,2.2c0.5,0.6,1.3,0.9,2.4,0.9
			c1,0,1.8-0.3,2.3-0.9c0.4-0.5,0.7-1.2,0.7-2.2C1046.9,462.2,1046.7,461.3,1046.2,460.8z"/>
		<path d="M1061.3,460.5c-0.5-0.2-1.2-0.3-2-0.3c-1.5,0-2.6,1-2.6,2.7v4.6h-1.7v-8.8h1.7v1.5c0.2-1,1.6-1.7,3-1.7
			c0.8,0,1.3,0.1,1.6,0.2V460.5z"/>
		<path d="M1069.7,466.8c-0.7,0.5-1.7,0.8-3.1,0.8c-1.6,0-2.9-0.5-3.8-1.6c-0.6-0.8-0.9-1.7-0.9-3c0-1.2,0.3-2.2,0.9-2.9
			c0.8-1,2-1.6,3.7-1.6c1.8,0,3,0.6,3.7,1.6c0.7,0.8,0.9,2.3,0.8,3.6h-7.5c0,0.7,0.3,1.2,0.8,1.7c0.5,0.5,1.3,0.8,2.2,0.8
			c0.9,0,1.6-0.2,2-0.5c0.5-0.3,0.7-0.8,0.7-1h1.7C1071,465.3,1070.5,466.2,1069.7,466.8z M1068.7,460.7c-0.5-0.5-1.2-0.8-2.2-0.8
			c-1,0-1.7,0.3-2.2,0.8c-0.4,0.4-0.7,1-0.7,1.6h5.7C1069.3,461.7,1069.1,461.2,1068.7,460.7z"/>
		<path d="M1072.8,467.5c0,0,0-0.1,0-0.6c0-1.2,0-9.7,0-11.2c0-0.4,0-0.8,0-0.9h1.7c0,0.1,0,0.4,0,0.8c0,1.3,0,9.2,0,11.2
			c0,0.4,0,0.7,0,0.8H1072.8z"/>
		<path d="M1084,466.8c-0.7,0.5-1.7,0.8-3.1,0.8c-1.6,0-2.9-0.5-3.8-1.6c-0.6-0.8-0.9-1.7-0.9-3c0-1.2,0.3-2.2,0.9-2.9
			c0.8-1,2-1.6,3.7-1.6c1.8,0,3,0.6,3.7,1.6c0.7,0.8,0.9,2.3,0.8,3.6h-7.5c0,0.7,0.3,1.2,0.8,1.7c0.5,0.5,1.3,0.8,2.2,0.8
			c0.9,0,1.6-0.2,2-0.5c0.5-0.3,0.7-0.8,0.7-1h1.7C1085.3,465.3,1084.9,466.2,1084,466.8z M1083.1,460.7c-0.5-0.5-1.2-0.8-2.2-0.8
			c-1,0-1.7,0.3-2.2,0.8c-0.4,0.4-0.7,1-0.7,1.6h5.7C1083.7,461.7,1083.5,461.2,1083.1,460.7z"/>
		<path d="M1093.7,467.5c-0.1,0-0.2-0.5-0.2-1.1c-0.5,0.7-1.5,1.2-3.5,1.2c-2.1,0-3.4-0.8-3.4-2.3c0-0.1,0-0.3,0-0.5
			c0-1.4,1.2-2.7,4.4-2.7c0.8,0,1.6,0,2.5,0.1c0-0.2,0-0.7,0-1c-0.1-0.8-0.8-1.3-2.3-1.3c-1,0-1.6,0.2-2,0.5
			c-0.4,0.3-0.5,0.7-0.5,1.2h-1.6c0-0.6,0.3-1.4,0.6-1.8c0.7-0.9,1.8-1.3,3.5-1.3c2.6,0,3.8,1,3.9,2.4c0,0.4,0.1,1.7,0,2.4
			c0,0.6,0,1.8,0,2.4c0,0.7,0.1,1.6,0.2,1.8H1093.7z M1091.6,463.4c-1.1,0-2,0.1-2.6,0.5c-0.4,0.2-0.6,0.6-0.6,1
			c0,0.4,0.1,0.6,0.3,0.8c0.3,0.3,1,0.5,1.9,0.5c0.8,0,1.4-0.1,2.1-0.5c0.4-0.2,0.8-0.7,0.9-1.4c0-0.4,0.1-0.7,0.1-0.9
			C1092.9,463.4,1092.2,463.4,1091.6,463.4z"/>
		<path d="M1101.4,467.6c-2.7,0-4-0.5-4.3-1.9c-0.1-0.4-0.1-0.6-0.1-0.9h1.7c0,0.1,0,0.3,0.1,0.6c0.2,0.6,1,0.8,2.7,0.8
			c1.7,0,2.3-0.4,2.3-1.2c0-0.8-0.6-1-2.1-1.2c-0.2,0-1.5-0.2-1.8-0.3c-2-0.3-2.8-1-2.8-2.5c0-1.4,1.2-2.5,4-2.5
			c2.3,0,3.6,0.6,4,1.8c0.1,0.4,0.1,0.9,0.1,1.1h-1.7c0-0.1,0-0.5-0.1-0.6c-0.2-0.4-0.8-0.7-2.4-0.7c-1.7,0-2.2,0.4-2.2,1
			c0,0.6,0.4,0.8,1.8,1.1c0.2,0,1.7,0.2,1.9,0.3c2.1,0.3,3,1,3,2.6C1105.5,466.7,1104.3,467.6,1101.4,467.6z"/>
		<path d="M1114.7,466.8c-0.7,0.5-1.7,0.8-3.1,0.8c-1.6,0-2.9-0.5-3.8-1.6c-0.6-0.8-0.9-1.7-0.9-3c0-1.2,0.3-2.2,0.9-2.9
			c0.8-1,2-1.6,3.7-1.6c1.8,0,3,0.6,3.7,1.6c0.7,0.8,0.9,2.3,0.8,3.6h-7.5c0,0.7,0.3,1.2,0.8,1.7c0.5,0.5,1.3,0.8,2.2,0.8
			c0.9,0,1.6-0.2,2-0.5c0.5-0.3,0.7-0.8,0.7-1h1.7C1116,465.3,1115.5,466.2,1114.7,466.8z M1113.7,460.7c-0.5-0.5-1.2-0.8-2.2-0.8
			c-1,0-1.7,0.3-2.2,0.8c-0.4,0.4-0.7,1-0.7,1.6h5.7C1114.3,461.7,1114.1,461.2,1113.7,460.7z"/>
		<path d="M1121.7,467.6c-2.7,0-4-0.5-4.3-1.9c-0.1-0.4-0.1-0.6-0.1-0.9h1.7c0,0.1,0,0.3,0.1,0.6c0.2,0.6,1,0.8,2.7,0.8
			c1.7,0,2.3-0.4,2.3-1.2c0-0.8-0.6-1-2.1-1.2c-0.2,0-1.5-0.2-1.8-0.3c-2-0.3-2.8-1-2.8-2.5c0-1.4,1.2-2.5,4-2.5
			c2.3,0,3.6,0.6,4,1.8c0.1,0.4,0.1,0.9,0.1,1.1h-1.7c0-0.1,0-0.5-0.1-0.6c-0.2-0.4-0.8-0.7-2.4-0.7c-1.7,0-2.2,0.4-2.2,1
			c0,0.6,0.4,0.8,1.8,1.1c0.2,0,1.7,0.2,1.9,0.3c2.1,0.3,3,1,3,2.6C1125.8,466.7,1124.6,467.6,1121.7,467.6z"/>
		<path d="M1128,467.5v-2.6h2.2v2.6H1128z"/>
	</g>
	<g class="st0">
		<path d="M961.3,343v-12.5h15.4v3.3h-10.8v1.4h10.5v3.1h-10.5v1.4h11v3.3H961.3z"/>
		<path d="M984.1,343h-5l8.5-12.5h5.4l8,12.5h-5.2l-1.3-2h-9.1L984.1,343z M990.7,335l-0.6-1.1l-0.7,1.1l-2,3.1h5.4
			C992.7,338.1,990.7,335,990.7,335z"/>
		<path d="M1020.5,336.5c-0.5,0.6-1.3,1.2-2.4,1.3l4.6,5.2h-5.2l-4-4.6h-5.2v4.6h-4.7v-12.5h12c2.3,0,3.8,0.5,4.6,1.2
			c0.6,0.6,1,1.3,1,2.4C1021.2,335.1,1021,336,1020.5,336.5z M1016.6,334.1c-0.3-0.4-0.8-0.5-1.6-0.5h-6.6v2h6.7
			c0.9,0,1.3-0.1,1.5-0.5c0.1-0.2,0.1-0.4,0.1-0.5C1016.7,334.4,1016.7,334.3,1016.6,334.1z"/>
		<path d="M1025.7,343v-12.5h4.7v8.9h9.2v3.6H1025.7z"/>
		<path d="M1050.9,338.9v4.1h-4.7v-4.1l-8.3-8.4h5.6l5.2,5.1l5.2-5.1h5.4L1050.9,338.9z"/>
		<path d="M1071,343v-12.5h4.7v8.9h9.2v3.6H1071z"/>
		<path d="M1088.5,343v-12.5h4.8V343H1088.5z"/>
		<path d="M1110.4,343l-8.2-7.2v7.2h-4.5v-12.5h4.8l8,7v-7h4.5V343H1110.4z"/>
		<path d="M1124.1,338.7v4.3h-4.7v-12.5h4.7v4.3l7.4-4.3h6.4l-8.9,5.5l8.9,7h-6.6l-6.2-4.8L1124.1,338.7z"/>
		<path d="M1148.3,343.2c-5.5,0-7.9-1.5-9-3.3c-0.2-0.4-0.3-0.8-0.4-1.2h5.2c0.1,0.2,0.2,0.4,0.4,0.6c0.5,0.5,2,0.8,4.3,0.8
			c3.2,0,3.8-0.3,3.8-0.9c0-0.6-0.4-0.7-3.1-0.9c-1.2-0.1-2.8-0.2-3.7-0.2c-5.3-0.3-6.8-1.7-6.8-3.6c0-2.3,3.1-4.1,8.9-4.1
			c5.1,0,7.4,1.4,8.4,2.9c0.3,0.5,0.5,1,0.6,1.5l-5.2,0c0-0.2-0.1-0.3-0.4-0.5c-0.5-0.4-1.7-0.8-3.7-0.8c-2.9,0-3.7,0.2-3.7,0.8
			c0,0.5,0.5,0.6,3.6,0.9c1.4,0.1,3.9,0.3,4.4,0.3c4,0.3,5.4,1.5,5.4,3.6C1157.6,341.8,1154.5,343.2,1148.3,343.2z"/>
	</g>
	<path id="Path_146" class="st1" d="M1040.5,369h37.7"/>
	<g id="Group_187" transform="translate(16 -2518.891)">
		<path id="Path_81" class="st2" d="M1053.4,2735.5c-5.3,5.3-14,5.3-19.3,0s-5.3-14,0-19.3c5.3-5.3,14-5.3,19.3,0c2.6,2.6,4,6,4,9.6
			"/>
		<path id="Path_82" class="st2" d="M1038.9,2726.6h4.9v-8.5"/>
		<circle id="Ellipse_23" class="st2" cx="1044.1" cy="2725.8" r="24.4"/>
		<line id="Line_31" class="st2" x1="1043.5" y1="2759.2" x2="1043.5" y2="2781.8"/>
		<path id="Path_83" class="st2" d="M1038.4,2774.6l5,8l5-8"/>
		<circle id="Ellipse_25" class="st2" cx="1043.5" cy="2797.7" r="8.7"/>
		<line id="Line_32" class="st2" x1="1043.5" y1="2692.5" x2="1043.5" y2="2669.9"/>
		<path id="Path_84" class="st2" d="M1048.5,2677.2l-5-8l-5,8"/>
		<circle id="Ellipse_27" class="st2" cx="1043.5" cy="2654.1" r="8.7"/>
		<line id="Line_33" class="st2" x1="1067.1" y1="2749.5" x2="1083" y2="2765.4"/>
		<path id="Path_85" class="st2" d="M1074.4,2763.9l9.2,2.1l-2.1-9.2"/>
		<circle id="Ellipse_29" class="st2" cx="1094.3" cy="2776.6" r="8.7"/>
		<line id="Line_34" class="st2" x1="1019.9" y1="2702.3" x2="1003.9" y2="2686.3"/>
		<path id="Path_86" class="st2" d="M1012.6,2687.9l-9.2-2.1l2.1,9.2"/>
		<circle id="Ellipse_31" class="st2" cx="992.7" cy="2675.1" r="8.7"/>
		<line id="Line_35" class="st2" x1="1076.8" y1="2725.9" x2="1099.4" y2="2725.9"/>
		<path id="Path_87" class="st2" d="M1092.2,2730.9l8-5l-8-5"/>
		<circle id="Ellipse_33" class="st2" cx="1115.3" cy="2725.9" r="8.7"/>
		<line id="Line_36" class="st2" x1="1010.1" y1="2725.9" x2="987.5" y2="2725.9"/>
		<path id="Path_88" class="st2" d="M994.8,2720.8l-8,5l8,5"/>
		<circle id="Ellipse_35" class="st2" cx="971.7" cy="2725.9" r="8.7"/>
		<line id="Line_37" class="st2" x1="1067.1" y1="2702.3" x2="1083" y2="2686.3"/>
		<path id="Path_89" class="st2" d="M1081.5,2695l2.1-9.2l-9.2,2.1"/>
		<circle id="Ellipse_37" class="st2" cx="1094.3" cy="2675.1" r="8.7"/>
		<line id="Line_38" class="st2" x1="1019.9" y1="2749.5" x2="1003.9" y2="2765.4"/>
		<path id="Path_90" class="st2" d="M1005.5,2756.7l-2.1,9.2l9.2-2.1"/>
		<circle id="Ellipse_39" class="st2" cx="992.7" cy="2776.6" r="8.7"/>
		<path id="Path_91" class="st2" d="M1054.1,2723.3l3.7,4.2l2.2-5.2"/>
	</g>
	<g id="Rectangle_79" transform="translate(891 89)">
		<rect class="st3" width="336" height="447"/>
		<rect x="1" y="1" class="st1" width="334" height="445"/>
	</g>
</g>
</svg>
