<?xml version="1.0" encoding="utf-8"?>
<!-- Generator: Adobe Illustrator 23.1.0, SVG Export Plug-In . SVG Version: 6.00 Build 0)  -->
<svg version="1.1" id="Layer_1" xmlns="http://www.w3.org/2000/svg" xmlns:xlink="http://www.w3.org/1999/xlink" x="0px" y="0px"
	 viewBox="0 0 336 447" style="enable-background:new 0 0 336 447;" xml:space="preserve">
<style type="text/css">
	.st0{fill:none;}
	.st1{fill:none;stroke:#93F5CC;stroke-width:2;}
	.st2{enable-background:new    ;}
	.st3{fill:none;stroke:#000000;stroke-width:2;stroke-miterlimit:10;}
	.st4{fill:none;stroke:#000000;stroke-width:2;}
</style>
<g id="Group_413" transform="translate(-421 -611)">
	<g id="Rectangle_76" transform="translate(421 611)">
		<rect class="st0" width="336" height="447"/>
		<rect x="1" y="1" class="st1" width="334" height="445"/>
	</g>
	<g class="st2">
		<path d="M462.6,955.5h-1.9l4.9-12.6h2.3l4.6,12.6h-1.9l-1.2-3.2h-5.6L462.6,955.5z M467,945.7l-0.3-1.1l-0.4,1.1l-1.9,5h4.4
			L467,945.7z"/>
		<path d="M474.1,955.5v-12.6h1.9v12.6H474.1z"/>
		<path d="M488.3,944.5c0.8,1,1.2,2.5,1.2,4.7c0,2.3-0.4,3.8-1.3,4.8c-0.8,1.1-2.3,1.7-4.3,1.7c-2,0-3.5-0.6-4.3-1.7
			c-0.9-1-1.3-2.6-1.3-4.8c0-2.1,0.4-3.6,1.2-4.6c0.9-1.2,2.3-1.8,4.4-1.8S487.4,943.3,488.3,944.5z M486.5,953.1
			c0.8-0.7,1.1-2.2,1.1-3.9c0-1.7-0.3-3.1-1-3.8c-0.7-0.7-1.4-1-2.8-1c-1.4,0-2.2,0.4-2.8,1c-0.6,0.7-1,2.1-1,3.8
			c0,1.8,0.4,3.2,1.2,4c0.6,0.6,1.4,0.9,2.6,0.9C485.1,954,485.9,953.6,486.5,953.1z"/>
		<path d="M504.1,947.7c0.7,0.7,1.1,1.8,1.1,3.2c0,1.6-0.4,2.7-1.2,3.4c-0.8,0.8-1.9,1.2-3.1,1.2c-1.4,0-2.5-0.4-3.1-1.2l-0.1,1.2
			H496v-12.8h1.7v5.3c0.3-0.8,1.5-1.6,3.3-1.6C502.4,946.5,503.4,946.9,504.1,947.7z M497.9,949.6c-0.1,0.4-0.2,0.8-0.2,1.6
			c0,0.8,0.1,1.2,0.3,1.5c0.4,0.8,1.2,1.4,2.6,1.4c1.1,0,1.8-0.4,2.3-1c0.4-0.5,0.6-1.2,0.6-2.1c0-0.8-0.1-1.6-0.5-2
			c-0.5-0.6-1.2-1-2.4-1C499.1,948,498.2,948.7,497.9,949.6z"/>
		<path d="M514.7,954.3c-0.8,0.8-2,1.3-3.5,1.3c-1.6,0-2.8-0.4-3.6-1.3c-0.7-0.8-1.2-1.8-1.2-3.3c0-1.3,0.4-2.4,1.2-3.2
			c0.8-0.8,1.9-1.3,3.6-1.3c1.6,0,2.8,0.5,3.6,1.3c0.8,0.8,1.2,2,1.2,3.3C515.9,952.5,515.5,953.5,514.7,954.3z M513.6,948.8
			c-0.5-0.5-1.2-0.8-2.4-0.8c-1.1,0-1.8,0.4-2.3,0.9c-0.5,0.6-0.7,1.3-0.7,2.2c0,1,0.2,1.8,0.6,2.2c0.5,0.6,1.3,0.9,2.4,0.9
			c1,0,1.8-0.3,2.3-0.9c0.4-0.5,0.7-1.2,0.7-2.2C514.2,950.2,514.1,949.3,513.6,948.8z"/>
		<path d="M519.9,948.2c0,0.9,0,3.8,0,4.6c0,1,0.4,1.3,1.4,1.3c0.4,0,1,0,1.2-0.1v1.5c-0.4,0.1-1.1,0.2-1.9,0.2
			c-1.4,0-2.5-0.5-2.5-2.3c0-1,0-4,0-5.2h-1.5v-1.5h1.5c0.1-0.1,0.1-1.9,0.1-1.9l1.7,0c0,0,0,1.7,0,1.9h2.7v1.5H519.9z"/>
		<path d="M530.9,948.2c0,0.9,0,3.8,0,4.6c0,1,0.4,1.3,1.4,1.3c0.4,0,1,0,1.2-0.1v1.5c-0.4,0.1-1.1,0.2-1.9,0.2
			c-1.4,0-2.5-0.5-2.5-2.3c0-1,0-4,0-5.2h-1.5v-1.5h1.5c0.1-0.1,0.1-1.9,0.1-1.9l1.7,0c0,0,0,1.7,0,1.9h2.7v1.5H530.9z"/>
		<path d="M543.3,955.5h-1.7c-0.1,0,0-0.2,0-5.5c0-1.1-0.6-1.9-2.2-1.9c-1.4,0-2.5,0.8-2.5,2v5.4h-1.7v-12.8h1.7v5.3
			c0.4-0.9,1.5-1.5,3.1-1.5c2.2,0,3.3,1.2,3.3,3.2C543.3,955.3,543.3,955.5,543.3,955.5z"/>
		<path d="M552.1,955.5c-0.1,0-0.2-0.5-0.2-1.1c-0.5,0.7-1.5,1.2-3.5,1.2c-2.1,0-3.4-0.8-3.4-2.3c0-0.1,0-0.3,0-0.5
			c0-1.4,1.2-2.7,4.4-2.7c0.8,0,1.6,0,2.5,0.1c0-0.2,0-0.7,0-1c-0.1-0.8-0.8-1.3-2.3-1.3c-1,0-1.6,0.2-2,0.5
			c-0.4,0.3-0.5,0.7-0.5,1.2h-1.6c0-0.6,0.3-1.4,0.6-1.8c0.7-0.9,1.8-1.3,3.5-1.3c2.6,0,3.8,1,3.9,2.4c0,0.4,0.1,1.7,0,2.4
			c0,0.6,0,1.8,0,2.4c0,0.7,0.1,1.6,0.2,1.8H552.1z M550,951.4c-1.1,0-2,0.1-2.6,0.5c-0.4,0.2-0.6,0.6-0.6,1c0,0.4,0.1,0.6,0.3,0.8
			c0.3,0.3,1,0.5,1.9,0.5c0.8,0,1.4-0.1,2.1-0.5c0.4-0.2,0.8-0.7,0.9-1.4c0-0.4,0.1-0.7,0.1-0.9C551.3,951.4,550.7,951.4,550,951.4z
			"/>
		<path d="M557.9,948.2c0,0.9,0,3.8,0,4.6c0,1,0.4,1.3,1.4,1.3c0.4,0,1,0,1.2-0.1v1.5c-0.4,0.1-1.1,0.2-1.9,0.2
			c-1.4,0-2.5-0.5-2.5-2.3c0-1,0-4,0-5.2h-1.5v-1.5h1.5c0.1-0.1,0.1-1.9,0.1-1.9l1.7,0c0,0,0,1.7,0,1.9h2.7v1.5H557.9z"/>
		<path d="M573.6,950c0-0.3-0.1-0.9-0.4-1.2c-0.4-0.5-1.2-0.8-2.3-0.8c-1,0-1.7,0.3-2.2,0.8c-0.5,0.5-0.7,1.3-0.7,2.3
			c0,1.1,0.2,1.9,0.8,2.4c0.5,0.5,1.2,0.7,2.2,0.7c1.1,0,1.8-0.3,2.2-0.7c0.3-0.3,0.5-0.8,0.5-1.1h1.7c0,0.8-0.3,1.6-1,2.2
			c-0.7,0.6-1.8,1.1-3.4,1.1c-1.5,0-2.6-0.4-3.4-1.1c-0.8-0.8-1.3-1.9-1.3-3.5c0-1.5,0.4-2.6,1.2-3.3c0.8-0.8,2-1.3,3.6-1.3
			c2,0,3.1,0.7,3.8,1.8c0.4,0.6,0.4,1.3,0.4,1.7H573.6z"/>
		<path d="M584.8,954.3c-0.8,0.8-2,1.3-3.5,1.3c-1.6,0-2.8-0.4-3.6-1.3c-0.7-0.8-1.2-1.8-1.2-3.3c0-1.3,0.4-2.4,1.2-3.2
			c0.8-0.8,1.9-1.3,3.6-1.3c1.6,0,2.8,0.5,3.6,1.3c0.8,0.8,1.2,2,1.2,3.3C586,952.5,585.6,953.5,584.8,954.3z M583.7,948.8
			c-0.5-0.5-1.2-0.8-2.4-0.8c-1.1,0-1.8,0.4-2.3,0.9c-0.5,0.6-0.7,1.3-0.7,2.2c0,1,0.2,1.8,0.6,2.2c0.5,0.6,1.3,0.9,2.4,0.9
			c1,0,1.8-0.3,2.3-0.9c0.4-0.5,0.7-1.2,0.7-2.2C584.3,950.2,584.2,949.3,583.7,948.8z"/>
		<path d="M595.6,954.3c-0.8,0.8-2,1.3-3.5,1.3c-1.6,0-2.8-0.4-3.6-1.3c-0.7-0.8-1.2-1.8-1.2-3.3c0-1.3,0.4-2.4,1.2-3.2
			c0.8-0.8,1.9-1.3,3.6-1.3c1.6,0,2.8,0.5,3.6,1.3c0.8,0.8,1.2,2,1.2,3.3C596.8,952.5,596.3,953.5,595.6,954.3z M594.4,948.8
			c-0.5-0.5-1.2-0.8-2.4-0.8c-1.1,0-1.8,0.4-2.3,0.9c-0.5,0.6-0.7,1.3-0.7,2.2c0,1,0.2,1.8,0.6,2.2c0.5,0.6,1.3,0.9,2.4,0.9
			c1,0,1.8-0.3,2.3-0.9c0.4-0.5,0.7-1.2,0.7-2.2C595.1,950.2,594.9,949.3,594.4,948.8z"/>
		<path d="M605.1,955.5l-2.8-4.6l-1.9,1.8v2.9h-1.7v-12.8h1.7v8l4.3-4h2.1l-3.2,3l3.6,5.8H605.1z"/>
		<path d="M612.1,955.6c-2.7,0-4-0.5-4.3-1.9c-0.1-0.4-0.1-0.6-0.1-0.9h1.7c0,0.1,0,0.3,0.1,0.6c0.2,0.6,1,0.8,2.7,0.8
			c1.7,0,2.3-0.4,2.3-1.2c0-0.8-0.6-1-2.1-1.2c-0.2,0-1.5-0.2-1.8-0.3c-2-0.3-2.8-1-2.8-2.5c0-1.4,1.2-2.5,4-2.5
			c2.3,0,3.6,0.6,4,1.8c0.1,0.4,0.1,0.9,0.1,1.1h-1.7c0-0.1,0-0.5-0.1-0.6c-0.2-0.4-0.8-0.7-2.4-0.7c-1.7,0-2.2,0.4-2.2,1
			c0,0.6,0.4,0.8,1.8,1.1c0.2,0,1.7,0.2,1.9,0.3c2.1,0.3,3,1,3,2.6C616.2,954.7,615,955.6,612.1,955.6z"/>
		<path d="M630.7,955.5l-5.9-9.9v9.9H623v-12.6h2.2l5.7,9.7v-9.7h1.8v12.6H630.7z"/>
		<path d="M643,954.3c-0.8,0.8-2,1.3-3.5,1.3c-1.6,0-2.8-0.4-3.6-1.3c-0.7-0.8-1.2-1.8-1.2-3.3c0-1.3,0.4-2.4,1.2-3.2
			c0.8-0.8,1.9-1.3,3.6-1.3c1.6,0,2.8,0.5,3.6,1.3c0.8,0.8,1.2,2,1.2,3.3C644.2,952.5,643.8,953.5,643,954.3z M641.9,948.8
			c-0.5-0.5-1.2-0.8-2.4-0.8c-1.1,0-1.8,0.4-2.3,0.9c-0.5,0.6-0.7,1.3-0.7,2.2c0,1,0.2,1.8,0.6,2.2c0.5,0.6,1.3,0.9,2.4,0.9
			c1,0,1.8-0.3,2.3-0.9c0.4-0.5,0.7-1.2,0.7-2.2C642.5,950.2,642.4,949.3,641.9,948.8z"/>
		<path d="M652.4,948.5c-0.5-0.2-1.2-0.3-2-0.3c-1.5,0-2.6,1-2.6,2.7v4.6H646v-8.8h1.7v1.5c0.2-1,1.6-1.7,3-1.7
			c0.8,0,1.3,0.1,1.6,0.2V948.5z"/>
		<path d="M660.3,947.8v-5h1.7c0,0,0,10,0,11.7c0,0.4,0.1,1,0.1,1h-1.6l-0.2-1.2c-0.5,0.8-1.5,1.3-3.2,1.3c-1.5,0-2.5-0.6-3.1-1.2
			c-0.7-0.8-1.1-1.8-1.1-3.2c0-1.5,0.5-2.6,1.2-3.3c0.7-0.7,1.8-1.2,3.1-1.2C658.6,946.6,659.8,946.9,660.3,947.8z M655.4,948.9
			c-0.5,0.5-0.8,1.3-0.8,2.2c0,0.9,0.2,1.7,0.6,2.2c0.6,0.6,1.2,0.9,2.3,0.9c1,0,1.7-0.3,2.3-1c0.4-0.4,0.6-1.2,0.6-2.1
			c0-0.8-0.2-1.7-0.5-2.1c-0.6-0.8-1.3-1-2.3-1C656.7,948.1,655.9,948.4,655.4,948.9z"/>
		<path d="M668.3,955.6c-2.7,0-4-0.5-4.3-1.9c-0.1-0.4-0.1-0.6-0.1-0.9h1.7c0,0.1,0,0.3,0.1,0.6c0.2,0.6,1,0.8,2.7,0.8
			c1.7,0,2.3-0.4,2.3-1.2c0-0.8-0.6-1-2.1-1.2c-0.2,0-1.5-0.2-1.8-0.3c-2-0.3-2.8-1-2.8-2.5c0-1.4,1.2-2.5,4-2.5
			c2.3,0,3.6,0.6,4,1.8c0.1,0.4,0.1,0.9,0.1,1.1h-1.7c0-0.1,0-0.5-0.1-0.6c-0.2-0.4-0.8-0.7-2.4-0.7c-1.7,0-2.2,0.4-2.2,1
			c0,0.6,0.4,0.8,1.8,1.1c0.2,0,1.7,0.2,1.9,0.3c2.1,0.3,3,1,3,2.6C672.4,954.7,671.2,955.6,668.3,955.6z"/>
		<path d="M676.4,948.2c0,0.9,0,3.8,0,4.6c0,1,0.4,1.3,1.4,1.3c0.4,0,1,0,1.2-0.1v1.5c-0.4,0.1-1.1,0.2-1.9,0.2
			c-1.4,0-2.5-0.5-2.5-2.3c0-1,0-4,0-5.2h-1.5v-1.5h1.5c0.1-0.1,0.1-1.9,0.1-1.9l1.7,0c0,0,0,1.7,0,1.9h2.7v1.5H676.4z"/>
		<path d="M687,948.5c-0.5-0.2-1.2-0.3-2-0.3c-1.5,0-2.6,1-2.6,2.7v4.6h-1.7v-8.8h1.7v1.5c0.2-1,1.6-1.7,3-1.7
			c0.8,0,1.3,0.1,1.6,0.2V948.5z"/>
		<path d="M695.9,954.3c-0.8,0.8-2,1.3-3.5,1.3c-1.6,0-2.8-0.4-3.6-1.3c-0.7-0.8-1.2-1.8-1.2-3.3c0-1.3,0.4-2.4,1.2-3.2
			c0.8-0.8,1.9-1.3,3.6-1.3c1.6,0,2.8,0.5,3.6,1.3c0.8,0.8,1.2,2,1.2,3.3C697.1,952.5,696.6,953.5,695.9,954.3z M694.7,948.8
			c-0.5-0.5-1.2-0.8-2.4-0.8c-1.1,0-1.8,0.4-2.3,0.9c-0.5,0.6-0.7,1.3-0.7,2.2c0,1,0.2,1.8,0.6,2.2c0.5,0.6,1.3,0.9,2.4,0.9
			c1,0,1.8-0.3,2.3-0.9c0.4-0.5,0.7-1.2,0.7-2.2C695.4,950.2,695.2,949.3,694.7,948.8z"/>
		<path d="M710.4,949.9c0-1.1-0.4-1.8-2-1.8c-1.2,0-2.1,0.7-2.1,1.9v5.5h-1.6c0-0.2,0-4.8,0-5.7c0-1.1-0.7-1.7-1.9-1.7
			c-1.3,0-2.2,1-2.2,1.9v5.5h-1.7v-8.8h1.7v1.3c0.4-0.9,1.6-1.5,2.9-1.5c1.3,0,2.3,0.5,2.6,1.6c0.4-1.1,1.6-1.6,3-1.6
			c2.1,0,3,1.2,3,2.9c0,6,0,6.1,0.1,6.1h-1.6C710.4,955.5,710.4,955.4,710.4,949.9z"/>
		<path d="M715.7,957.2l-1.2-0.2l0.8-1.5l-0.2,0h-0.4v-2.6h2v2.6L715.7,957.2z"/>
	</g>
	<g class="st2">
		<path d="M476.9,963.5v11H475v-11h-4.2v-1.7h10.3v1.7H476.9z"/>
		<path d="M488,973.3c-0.8,0.8-2,1.3-3.5,1.3c-1.6,0-2.8-0.4-3.6-1.3c-0.7-0.8-1.2-1.8-1.2-3.3c0-1.3,0.4-2.4,1.2-3.2
			c0.8-0.8,1.9-1.3,3.6-1.3c1.6,0,2.8,0.5,3.6,1.3c0.8,0.8,1.2,2,1.2,3.3C489.2,971.5,488.8,972.5,488,973.3z M486.9,967.8
			c-0.5-0.5-1.2-0.8-2.4-0.8c-1.1,0-1.8,0.4-2.3,0.9c-0.5,0.6-0.7,1.3-0.7,2.2c0,1,0.2,1.8,0.6,2.2c0.5,0.6,1.3,0.9,2.4,0.9
			c1,0,1.8-0.3,2.3-0.9c0.4-0.5,0.7-1.2,0.7-2.2C487.5,969.2,487.4,968.3,486.9,967.8z"/>
		<path d="M499,973.3c-0.7,0.7-1.8,1.2-3.2,1.2c-1.3,0-2.6-0.4-3.1-1.2v3.9H491v-11.6h1.7v1.4c0.3-0.9,1.6-1.6,3.3-1.6
			c1.3,0,2.4,0.4,3.1,1.2c0.7,0.7,1,1.8,1,3.3C500.2,971.6,499.7,972.6,499,973.3z M497.7,967.8c-0.5-0.4-1.2-0.8-2.2-0.8
			c-0.9,0-1.5,0.3-2,0.7c-0.6,0.5-0.8,1.3-0.8,2.4c0,1.1,0.2,1.8,0.8,2.3c0.5,0.5,1.1,0.7,2.1,0.7c1,0,1.8-0.3,2.3-0.9
			c0.4-0.5,0.6-1.2,0.6-2.1C498.4,969.1,498.2,968.3,497.7,967.8z"/>
		<path d="M509.9,973.3c-0.7,0.7-1.8,1.2-3.2,1.2c-1.3,0-2.6-0.4-3.1-1.2v3.9h-1.7v-11.6h1.7v1.4c0.3-0.9,1.6-1.6,3.3-1.6
			c1.3,0,2.4,0.4,3.1,1.2c0.7,0.7,1,1.8,1,3.3C511,971.6,510.6,972.6,509.9,973.3z M508.6,967.8c-0.5-0.4-1.2-0.8-2.2-0.8
			c-0.9,0-1.5,0.3-2,0.7c-0.6,0.5-0.8,1.3-0.8,2.4c0,1.1,0.2,1.8,0.8,2.3c0.5,0.5,1.1,0.7,2.1,0.7c1,0,1.8-0.3,2.3-0.9
			c0.4-0.5,0.6-1.2,0.6-2.1C509.3,969.1,509.1,968.3,508.6,967.8z"/>
		<path d="M516.8,974.6c-2.7,0-4-0.5-4.3-1.9c-0.1-0.4-0.1-0.6-0.1-0.9h1.7c0,0.1,0,0.3,0.1,0.6c0.2,0.6,1,0.8,2.7,0.8
			c1.7,0,2.3-0.4,2.3-1.2c0-0.8-0.6-1-2.1-1.2c-0.2,0-1.5-0.2-1.8-0.3c-2-0.3-2.8-1-2.8-2.5c0-1.4,1.2-2.5,4-2.5
			c2.3,0,3.6,0.6,4,1.8c0.1,0.4,0.1,0.9,0.1,1.1h-1.7c0-0.1,0-0.5-0.1-0.6c-0.2-0.4-0.8-0.7-2.4-0.7c-1.7,0-2.2,0.4-2.2,1
			c0,0.6,0.4,0.8,1.8,1.1c0.2,0,1.7,0.2,1.9,0.3c2.1,0.3,3,1,3,2.6C520.9,973.7,519.7,974.6,516.8,974.6z"/>
		<path d="M524.1,976.2L523,976l0.8-1.5l-0.2,0h-0.4v-2.6h2v2.6L524.1,976.2z"/>
		<path d="M537.9,974.7c-3.6,0-5.8-1.6-5.8-6.5c0-4.4,1.7-6.5,5.7-6.5c4.2,0,5.3,2.4,5.4,4.8h-1.9c-0.1-2-1.1-3-3.6-3
			c-2.7,0-3.7,1.4-3.7,4.7c0,4,1.8,4.9,3.8,4.9c2.4,0,3.3-1.3,3.5-3h1.9C543.1,972.5,541.6,974.7,537.9,974.7z"/>
		<path d="M550.4,974.7c-3.6,0-5.8-1.6-5.8-6.5c0-4.4,1.7-6.5,5.7-6.5c4.2,0,5.3,2.4,5.4,4.8h-1.9c-0.1-2-1.1-3-3.6-3
			c-2.7,0-3.7,1.4-3.7,4.7c0,4,1.8,4.9,3.8,4.9c2.4,0,3.3-1.3,3.5-3h1.9C555.6,972.5,554.1,974.7,550.4,974.7z"/>
		<path d="M562.7,974.7c-3.2,0-4.7-1-5.2-2.6c-0.1-0.4-0.2-0.9-0.2-1.3h1.9c0,0.2,0.1,0.7,0.2,0.9c0.4,1,1.5,1.4,3.3,1.4
			c2.2,0,3-0.8,3-1.9c0-1.3-0.8-1.8-2.8-2.2c-0.4-0.1-1.2-0.2-1.9-0.4c-2.5-0.5-3.7-1.5-3.7-3.5c0-1.9,1.5-3.4,4.9-3.4
			c2.9,0,4.4,1,5,2.6c0.1,0.4,0.2,0.9,0.2,1.1h-1.9c0-0.2,0-0.5-0.1-0.7c-0.4-1-1.2-1.4-3.2-1.4c-2.2,0-2.9,0.7-2.9,1.7
			c0,1.1,0.7,1.6,2.8,2c0.6,0.1,1.3,0.3,1.8,0.4c2.3,0.4,3.7,1.5,3.7,3.5C567.6,973.2,566,974.7,562.7,974.7z"/>
		<path d="M579.3,974.7c-3.2,0-4.7-1-5.2-2.6c-0.1-0.4-0.2-0.9-0.2-1.3h1.9c0,0.2,0.1,0.7,0.2,0.9c0.4,1,1.5,1.4,3.3,1.4
			c2.2,0,3-0.8,3-1.9c0-1.3-0.8-1.8-2.8-2.2c-0.4-0.1-1.2-0.2-1.9-0.4c-2.5-0.5-3.7-1.5-3.7-3.5c0-1.9,1.5-3.4,4.9-3.4
			c2.9,0,4.4,1,5,2.6c0.1,0.4,0.2,0.9,0.2,1.1h-1.9c0-0.2,0-0.5-0.1-0.7c-0.4-1-1.2-1.4-3.2-1.4c-2.2,0-2.9,0.7-2.9,1.7
			c0,1.1,0.7,1.6,2.8,2c0.6,0.1,1.3,0.3,1.8,0.4c2.3,0.4,3.7,1.5,3.7,3.5C584.3,973.2,582.7,974.7,579.3,974.7z"/>
		<path d="M592.8,974.5l-2.8-4.6l-1.9,1.8v2.9h-1.7v-12.8h1.7v8l4.3-4h2.1l-3.2,3l3.6,5.8H592.8z"/>
		<path d="M602.5,974.5c-0.1,0-0.2-0.5-0.2-1.1c-0.5,0.7-1.5,1.2-3.5,1.2c-2.1,0-3.4-0.8-3.4-2.3c0-0.1,0-0.3,0-0.5
			c0-1.4,1.2-2.7,4.4-2.7c0.8,0,1.6,0,2.5,0.1c0-0.2,0-0.7,0-1c-0.1-0.8-0.8-1.3-2.3-1.3c-1,0-1.6,0.2-2,0.5
			c-0.4,0.3-0.5,0.7-0.5,1.2h-1.6c0-0.6,0.3-1.4,0.6-1.8c0.7-0.9,1.8-1.3,3.5-1.3c2.6,0,3.8,1,3.9,2.4c0,0.4,0.1,1.7,0,2.4
			c0,0.6,0,1.8,0,2.4c0,0.7,0.1,1.6,0.2,1.8H602.5z M600.3,970.4c-1.1,0-2,0.1-2.6,0.5c-0.4,0.2-0.6,0.6-0.6,1
			c0,0.4,0.1,0.6,0.3,0.8c0.3,0.3,1,0.5,1.9,0.5c0.8,0,1.4-0.1,2.1-0.5c0.4-0.2,0.8-0.7,0.9-1.4c0-0.4,0.1-0.7,0.1-0.9
			C601.6,970.4,601,970.4,600.3,970.4z"/>
		<path d="M608.3,967.2c0,0.9,0,3.8,0,4.6c0,1,0.4,1.3,1.4,1.3c0.4,0,1,0,1.2-0.1v1.5c-0.4,0.1-1.1,0.2-1.9,0.2
			c-1.4,0-2.5-0.5-2.5-2.3c0-1,0-4,0-5.2H605v-1.5h1.5c0.1-0.1,0.1-1.9,0.1-1.9l1.7,0c0,0,0,1.7,0,1.9h2.7v1.5H608.3z"/>
		<path d="M619.8,973.8c-0.7,0.5-1.7,0.8-3.1,0.8c-1.6,0-2.9-0.5-3.8-1.6c-0.6-0.8-0.9-1.7-0.9-3c0-1.2,0.3-2.2,0.9-2.9
			c0.8-1,2-1.6,3.7-1.6c1.8,0,3,0.6,3.7,1.6c0.7,0.8,0.9,2.3,0.8,3.6h-7.5c0,0.7,0.3,1.2,0.8,1.7c0.5,0.5,1.3,0.8,2.2,0.8
			c0.9,0,1.6-0.2,2-0.5c0.5-0.3,0.7-0.8,0.7-1h1.7C621.1,972.3,620.6,973.2,619.8,973.8z M618.8,967.7c-0.5-0.5-1.2-0.8-2.2-0.8
			c-1,0-1.7,0.3-2.2,0.8c-0.4,0.4-0.7,1-0.7,1.6h5.7C619.4,968.7,619.2,968.2,618.8,967.7z"/>
		<path d="M635.7,971.5c0.7-0.7,1.1-1.6,1.2-2.8h1.7c0,1.6-0.6,2.9-1.6,3.9c0.8,0.6,1.6,1.2,2.5,1.9h-2.7c-0.4-0.3-0.8-0.6-1.2-0.9
			c-1.2,0.7-2.6,1-3.9,1c-3,0-4.9-0.7-5-2.9c0-0.2,0-0.4,0-0.5c0-1.3,1.3-2.4,3-3c-1-1.3-1.3-2.2-1.3-3.2c0-0.1,0-0.4,0-0.5
			c0-1.5,1.4-2.8,3.6-2.8c2,0,3.2,1.4,3.3,2.8c0,0.1,0,0.4,0,0.5c0,1.6-1.2,2.8-2.9,3.7C633.1,969.5,634.1,970.4,635.7,971.5z
			 M628.5,971.5c0,1.2,1.2,1.6,3.1,1.6c0.9,0,1.8-0.2,2.6-0.6c-1.6-1.2-2.7-2.2-3.6-3.1C629.3,970,628.5,970.7,628.5,971.5z
			 M633.3,965.1c0-0.1,0-0.3,0-0.3c0-0.8-0.5-1.5-1.6-1.5c-1.2,0-1.7,0.7-1.8,1.5c0,0.1,0,0.2,0,0.3c0,0.7,0.4,1.5,1.2,2.4
			C632.5,966.8,633.3,966.1,633.3,965.1z"/>
		<path d="M652.1,974.5c-0.1,0-0.2-0.5-0.2-1.1c-0.5,0.7-1.5,1.2-3.5,1.2c-2.1,0-3.4-0.8-3.4-2.3c0-0.1,0-0.3,0-0.5
			c0-1.4,1.2-2.7,4.4-2.7c0.8,0,1.6,0,2.5,0.1c0-0.2,0-0.7,0-1c-0.1-0.8-0.8-1.3-2.3-1.3c-1,0-1.6,0.2-2,0.5
			c-0.4,0.3-0.5,0.7-0.5,1.2h-1.6c0-0.6,0.3-1.4,0.6-1.8c0.7-0.9,1.8-1.3,3.5-1.3c2.6,0,3.8,1,3.9,2.4c0,0.4,0.1,1.7,0,2.4
			c0,0.6,0,1.8,0,2.4c0,0.7,0.1,1.6,0.2,1.8H652.1z M650,970.4c-1.1,0-2,0.1-2.6,0.5c-0.4,0.2-0.6,0.6-0.6,1c0,0.4,0.1,0.6,0.3,0.8
			c0.3,0.3,1,0.5,1.9,0.5c0.8,0,1.4-0.1,2.1-0.5c0.4-0.2,0.8-0.7,0.9-1.4c0-0.4,0.1-0.7,0.1-0.9C651.3,970.4,650.6,970.4,650,970.4z
			"/>
		<path d="M664,974.5h-1.7c-0.1,0-0.1-0.1-0.1-5.5c0-1.2-0.7-1.9-2.2-1.9c-1.3,0-2.5,0.7-2.5,2v5.3h-1.7v-8.8h1.7v1.4
			c0.5-1.1,1.9-1.6,3.2-1.6c2.4,0,3.3,1.4,3.3,3.1C664,974.2,664,974.5,664,974.5z"/>
		<path d="M673.1,966.8v-5h1.7c0,0,0,10,0,11.7c0,0.4,0.1,1,0.1,1h-1.6l-0.2-1.2c-0.5,0.8-1.5,1.3-3.2,1.3c-1.5,0-2.5-0.6-3.1-1.2
			c-0.7-0.8-1.1-1.8-1.1-3.2c0-1.5,0.5-2.6,1.2-3.3c0.7-0.7,1.8-1.2,3.1-1.2C671.3,965.6,672.5,965.9,673.1,966.8z M668.2,967.9
			c-0.5,0.5-0.8,1.3-0.8,2.2c0,0.9,0.2,1.7,0.6,2.2c0.6,0.6,1.2,0.9,2.3,0.9c1,0,1.7-0.3,2.3-1c0.4-0.4,0.6-1.2,0.6-2.1
			c0-0.8-0.2-1.7-0.5-2.1c-0.6-0.8-1.3-1-2.3-1C669.4,967.1,668.7,967.4,668.2,967.9z"/>
		<path d="M692.7,974.5h-2c0,0-2.2-6.1-2.2-6.3c0-0.1-0.1-0.7-0.1-0.7s-0.1,0.6-0.1,0.7c0,0.2-2.2,6.3-2.2,6.3H684l-3.3-8.8h1.8
			l2.5,7.2l2.4-7.2h1.9l2.4,7.2l2.5-7.2h1.7L692.7,974.5z"/>
		<path d="M697.2,964.6v-2h1.8v2H697.2z M697.4,974.5c-0.1,0-0.1-0.2-0.1-0.8c0-1.7,0-8,0-8h1.7c0,0,0,6.6,0,8c0,0.6,0,0.8,0.1,0.8
			H697.4z"/>
		<path d="M701.4,974.5c0,0,0-0.1,0-0.6c0-1.2,0-9.7,0-11.2c0-0.4,0-0.8,0-0.9h1.7c0,0.1,0,0.4,0,0.8c0,1.3,0,9.2,0,11.2
			c0,0.4,0,0.7,0,0.8H701.4z"/>
		<path d="M705.5,974.5c0,0,0-0.1,0-0.6c0-1.2,0-9.7,0-11.2c0-0.4,0-0.8,0-0.9h1.7c0,0.1,0,0.4,0,0.8c0,1.3,0,9.2,0,11.2
			c0,0.4,0,0.7,0,0.8H705.5z"/>
	</g>
	<g class="st2">
		<path d="M509.9,993.5h-1.7c-0.1,0,0-0.2,0-5.5c0-1.1-0.6-1.9-2.2-1.9c-1.4,0-2.5,0.8-2.5,2v5.4h-1.7v-12.8h1.7v5.3
			c0.4-0.9,1.5-1.5,3.1-1.5c2.2,0,3.3,1.2,3.3,3.2C509.8,993.3,509.8,993.5,509.9,993.5z"/>
		<path d="M518.7,993.5c-0.1,0-0.2-0.5-0.2-1.1c-0.5,0.7-1.5,1.2-3.5,1.2c-2.1,0-3.4-0.8-3.4-2.3c0-0.1,0-0.3,0-0.5
			c0-1.4,1.2-2.7,4.4-2.7c0.8,0,1.6,0,2.5,0.1c0-0.2,0-0.7,0-1c-0.1-0.8-0.8-1.3-2.3-1.3c-1,0-1.6,0.2-2,0.5
			c-0.4,0.3-0.5,0.7-0.5,1.2h-1.6c0-0.6,0.3-1.4,0.6-1.8c0.7-0.9,1.8-1.3,3.5-1.3c2.6,0,3.8,1,3.9,2.4c0,0.4,0.1,1.7,0,2.4
			c0,0.6,0,1.8,0,2.4c0,0.7,0.1,1.6,0.2,1.8H518.7z M516.6,989.4c-1.1,0-2,0.1-2.6,0.5c-0.4,0.2-0.6,0.6-0.6,1
			c0,0.4,0.1,0.6,0.3,0.8c0.3,0.3,1,0.5,1.9,0.5c0.8,0,1.4-0.1,2.1-0.5c0.4-0.2,0.8-0.7,0.9-1.4c0-0.4,0.1-0.7,0.1-0.9
			C517.9,989.4,517.2,989.4,516.6,989.4z"/>
		<path d="M527.1,993.5H525l-3.8-8.8h1.9l3,7.2l3-7.2h1.8L527.1,993.5z"/>
		<path d="M539.3,992.8c-0.7,0.5-1.7,0.8-3.1,0.8c-1.6,0-2.9-0.5-3.8-1.6c-0.6-0.8-0.9-1.7-0.9-3c0-1.2,0.3-2.2,0.9-2.9
			c0.8-1,2-1.6,3.7-1.6c1.8,0,3,0.6,3.7,1.6c0.7,0.8,0.9,2.3,0.8,3.6h-7.5c0,0.7,0.3,1.2,0.8,1.7c0.5,0.5,1.3,0.8,2.2,0.8
			c0.9,0,1.6-0.2,2-0.5c0.5-0.3,0.7-0.8,0.7-1h1.7C540.6,991.3,540.1,992.2,539.3,992.8z M538.3,986.7c-0.5-0.5-1.2-0.8-2.2-0.8
			c-1,0-1.7,0.3-2.2,0.8c-0.4,0.4-0.7,1-0.7,1.6h5.7C538.9,987.7,538.7,987.2,538.3,986.7z"/>
		<path d="M555.1,993.5h-1.7c-0.1,0-0.1-0.1-0.1-5.5c0-1.2-0.7-1.9-2.2-1.9c-1.3,0-2.5,0.7-2.5,2v5.3h-1.7v-8.8h1.7v1.4
			c0.5-1.1,1.9-1.6,3.2-1.6c2.4,0,3.3,1.4,3.3,3.1C555.1,993.2,555.1,993.5,555.1,993.5z"/>
		<path d="M564.6,992.8c-0.7,0.5-1.7,0.8-3.1,0.8c-1.6,0-2.9-0.5-3.8-1.6c-0.6-0.8-0.9-1.7-0.9-3c0-1.2,0.3-2.2,0.9-2.9
			c0.8-1,2-1.6,3.7-1.6c1.8,0,3,0.6,3.7,1.6c0.7,0.8,0.9,2.3,0.8,3.6h-7.5c0,0.7,0.3,1.2,0.8,1.7c0.5,0.5,1.3,0.8,2.2,0.8
			c0.9,0,1.6-0.2,2-0.5c0.5-0.3,0.7-0.8,0.7-1h1.7C565.9,991.3,565.4,992.2,564.6,992.8z M563.7,986.7c-0.5-0.5-1.2-0.8-2.2-0.8
			c-1,0-1.7,0.3-2.2,0.8c-0.4,0.4-0.7,1-0.7,1.6h5.7C564.2,987.7,564.1,987.2,563.7,986.7z"/>
		<path d="M578.5,993.5h-2c0,0-2.2-6.1-2.2-6.3c0-0.1-0.1-0.7-0.1-0.7s-0.1,0.6-0.1,0.7c0,0.2-2.2,6.3-2.2,6.3h-2.1l-3.2-8.8h1.8
			l2.5,7.2l2.4-7.2h1.9l2.4,7.2l2.5-7.2h1.7L578.5,993.5z"/>
		<path d="M591.7,993.6c-2.7,0-4-0.5-4.3-1.9c-0.1-0.4-0.1-0.6-0.1-0.9h1.7c0,0.1,0,0.3,0.1,0.6c0.2,0.6,1,0.8,2.7,0.8
			c1.7,0,2.3-0.4,2.3-1.2c0-0.8-0.6-1-2.1-1.2c-0.2,0-1.5-0.2-1.8-0.3c-2-0.3-2.8-1-2.8-2.5c0-1.4,1.2-2.5,4-2.5
			c2.3,0,3.6,0.6,4,1.8c0.1,0.4,0.1,0.9,0.1,1.1h-1.7c0-0.1,0-0.5-0.1-0.6c-0.2-0.4-0.8-0.7-2.4-0.7c-1.7,0-2.2,0.4-2.2,1
			c0,0.6,0.4,0.8,1.8,1.1c0.2,0,1.7,0.2,1.9,0.3c2.1,0.3,3,1,3,2.6C595.7,992.7,594.6,993.6,591.7,993.6z"/>
		<path d="M597.6,983.6v-2h1.8v2H597.6z M597.8,993.5c-0.1,0-0.1-0.2-0.1-0.8c0-1.7,0-8,0-8h1.7c0,0,0,6.6,0,8c0,0.6,0,0.8,0.1,0.8
			H597.8z"/>
		<path d="M603.9,986.2c0,0.9,0,3.8,0,4.6c0,1,0.4,1.3,1.4,1.3c0.4,0,1,0,1.2-0.1v1.5c-0.4,0.1-1.1,0.2-1.9,0.2
			c-1.4,0-2.5-0.5-2.5-2.3c0-1,0-4,0-5.2h-1.5v-1.5h1.5c0.1-0.1,0.1-1.9,0.1-1.9l1.7,0c0,0,0,1.7,0,1.9h2.7v1.5H603.9z"/>
		<path d="M615.4,992.8c-0.7,0.5-1.7,0.8-3.1,0.8c-1.6,0-2.9-0.5-3.8-1.6c-0.6-0.8-0.9-1.7-0.9-3c0-1.2,0.3-2.2,0.9-2.9
			c0.8-1,2-1.6,3.7-1.6c1.8,0,3,0.6,3.7,1.6c0.7,0.8,0.9,2.3,0.8,3.6h-7.5c0,0.7,0.3,1.2,0.8,1.7c0.5,0.5,1.3,0.8,2.2,0.8
			c0.9,0,1.6-0.2,2-0.5c0.5-0.3,0.7-0.8,0.7-1h1.7C616.7,991.3,616.2,992.2,615.4,992.8z M614.5,986.7c-0.5-0.5-1.2-0.8-2.2-0.8
			c-1,0-1.7,0.3-2.2,0.8c-0.4,0.4-0.7,1-0.7,1.6h5.7C615.1,987.7,614.9,987.2,614.5,986.7z"/>
		<path d="M622.5,993.6c-2.7,0-4-0.5-4.3-1.9c-0.1-0.4-0.1-0.6-0.1-0.9h1.7c0,0.1,0,0.3,0.1,0.6c0.2,0.6,1,0.8,2.7,0.8
			c1.7,0,2.3-0.4,2.3-1.2c0-0.8-0.6-1-2.1-1.2c-0.2,0-1.5-0.2-1.8-0.3c-2-0.3-2.8-1-2.8-2.5c0-1.4,1.2-2.5,4-2.5
			c2.3,0,3.6,0.6,4,1.8c0.1,0.4,0.1,0.9,0.1,1.1h-1.7c0-0.1,0-0.5-0.1-0.6c-0.2-0.4-0.8-0.7-2.4-0.7c-1.7,0-2.2,0.4-2.2,1
			c0,0.6,0.4,0.8,1.8,1.1c0.2,0,1.7,0.2,1.9,0.3c2.1,0.3,3,1,3,2.6C626.5,992.7,625.4,993.6,622.5,993.6z"/>
		<path d="M637.1,993.6c-2.7,0-4-0.5-4.3-1.9c-0.1-0.4-0.1-0.6-0.1-0.9h1.7c0,0.1,0,0.3,0.1,0.6c0.2,0.6,1,0.8,2.7,0.8
			c1.7,0,2.3-0.4,2.3-1.2c0-0.8-0.6-1-2.1-1.2c-0.2,0-1.5-0.2-1.8-0.3c-2-0.3-2.8-1-2.8-2.5c0-1.4,1.2-2.5,4-2.5
			c2.3,0,3.6,0.6,4,1.8c0.1,0.4,0.1,0.9,0.1,1.1h-1.7c0-0.1,0-0.5-0.1-0.6c-0.2-0.4-0.8-0.7-2.4-0.7c-1.7,0-2.2,0.4-2.2,1
			c0,0.6,0.4,0.8,1.8,1.1c0.2,0,1.7,0.2,1.9,0.3c2.1,0.3,3,1,3,2.6C641.1,992.7,640,993.6,637.1,993.6z"/>
		<path d="M650.8,992.3c-0.8,0.8-2,1.3-3.5,1.3c-1.6,0-2.8-0.4-3.6-1.3c-0.7-0.8-1.2-1.8-1.2-3.3c0-1.3,0.4-2.4,1.2-3.2
			c0.8-0.8,1.9-1.3,3.6-1.3c1.6,0,2.8,0.5,3.6,1.3c0.8,0.8,1.2,2,1.2,3.3C652,990.5,651.5,991.5,650.8,992.3z M649.6,986.8
			c-0.5-0.5-1.2-0.8-2.4-0.8c-1.1,0-1.8,0.4-2.3,0.9c-0.5,0.6-0.7,1.3-0.7,2.2c0,1,0.2,1.8,0.6,2.2c0.5,0.6,1.3,0.9,2.4,0.9
			c1,0,1.8-0.3,2.3-0.9c0.4-0.5,0.7-1.2,0.7-2.2C650.3,988.2,650.1,987.3,649.6,986.8z"/>
		<path d="M661.5,992.3c-0.8,0.8-2,1.3-3.5,1.3c-1.6,0-2.8-0.4-3.6-1.3c-0.7-0.8-1.2-1.8-1.2-3.3c0-1.3,0.4-2.4,1.2-3.2
			c0.8-0.8,1.9-1.3,3.6-1.3c1.6,0,2.8,0.5,3.6,1.3c0.8,0.8,1.2,2,1.2,3.3C662.7,990.5,662.2,991.5,661.5,992.3z M660.3,986.8
			c-0.5-0.5-1.2-0.8-2.4-0.8c-1.1,0-1.8,0.4-2.3,0.9c-0.5,0.6-0.7,1.3-0.7,2.2c0,1,0.2,1.8,0.6,2.2c0.5,0.6,1.3,0.9,2.4,0.9
			c1,0,1.8-0.3,2.3-0.9c0.4-0.5,0.7-1.2,0.7-2.2C661,988.2,660.8,987.3,660.3,986.8z"/>
		<path d="M672.7,993.5H671c-0.1,0-0.1-0.1-0.1-5.5c0-1.2-0.7-1.9-2.2-1.9c-1.3,0-2.5,0.7-2.5,2v5.3h-1.7v-8.8h1.7v1.4
			c0.5-1.1,1.9-1.6,3.2-1.6c2.4,0,3.3,1.4,3.3,3.1C672.7,993.2,672.7,993.5,672.7,993.5z"/>
		<path d="M676.9,990.2h-1.6l-0.2-9.3h2.1L676.9,990.2z M675.1,993.5v-2.4h1.9v2.4H675.1z"/>
	</g>
	<g class="st2">
		<path d="M504.7,863.5V851h15.4v3.3h-10.8v1.4h10.5v3.1h-10.5v1.4h11v3.3H504.7z"/>
		<path d="M541.8,863.5h-5.6l-4-3.7l-4.2,3.7h-5.3l6.9-6.2L523,851h5.7l3.8,3.6l4-3.6h5.3l-6.7,6.1L541.8,863.5z"/>
		<path d="M562,859.9c-1.2,2.5-4,3.8-9.4,3.8c-4.7,0-7.5-1.2-8.9-3.1c-0.7-0.9-1-2.1-1-3.3c0-1.2,0.3-2.3,1-3.2c1.4-2,4.3-3.3,9-3.3
			c6,0,8.4,2.1,9.3,4c0.3,0.6,0.4,1.2,0.4,1.5h-4.9c0-0.2-0.2-0.4-0.3-0.6c-0.5-0.7-2-1.4-4.5-1.4c-2.3,0-4.1,0.6-4.8,1.7
			c-0.2,0.3-0.3,0.7-0.3,1.2c0,0.4,0.1,0.8,0.3,1.1c0.8,1.2,2.8,1.7,4.8,1.7c2.2,0,4-0.3,4.7-1.4c0.1-0.1,0.2-0.4,0.2-0.5h4.9
			C562.4,858.6,562.3,859.4,562,859.9z"/>
		<path d="M566,863.5V851h4.7v8.9h9.2v3.6H566z"/>
		<path d="M591.2,863.7c-5.2,0-8.8-1.9-8.8-6.2c0-0.8,0-6.5,0-6.5h4.7c0,0,0,6.4,0,6.6c0,1.6,1.5,2.6,4.3,2.6c2.7,0,4.3-1,4.3-2.6
			c0-0.2,0-6.6,0-6.6h4.7c0,0,0,6.4,0,7C600.4,861.8,596.9,863.7,591.2,863.7z"/>
		<path d="M613.4,863.7c-5.5,0-7.9-1.5-9-3.3c-0.2-0.4-0.3-0.8-0.4-1.2h5.2c0.1,0.2,0.2,0.4,0.4,0.6c0.5,0.5,2,0.8,4.3,0.8
			c3.2,0,3.8-0.3,3.8-0.9c0-0.6-0.4-0.7-3.1-0.9c-1.2-0.1-2.8-0.2-3.6-0.2c-5.3-0.3-6.8-1.7-6.8-3.6c0-2.3,3.1-4.1,8.9-4.1
			c5.1,0,7.4,1.4,8.4,2.9c0.3,0.5,0.5,1,0.6,1.5l-5.2,0c0-0.2-0.1-0.3-0.4-0.5c-0.5-0.4-1.7-0.8-3.7-0.8c-2.9,0-3.7,0.2-3.7,0.8
			c0,0.5,0.5,0.6,3.6,0.9c1.4,0.1,3.9,0.3,4.4,0.3c4,0.3,5.4,1.5,5.4,3.6C622.6,862.3,619.5,863.7,613.4,863.7z"/>
		<path d="M626.2,863.5V851h4.8v12.5H626.2z"/>
		<path d="M647.4,863.5h-5.4l-8.1-12.5h5.3l5.7,9l5.9-9h4.8L647.4,863.5z"/>
		<path d="M658.3,863.5V851h15.4v3.3H663v1.4h10.5v3.1H663v1.4h11v3.3H658.3z"/>
	</g>
	<g class="st2">
		<path d="M530.6,887.5h-5L534,875h5.4l8,12.5h-5.2l-1.3-2h-9.1L530.6,887.5z M537.2,879.5l-0.6-1.1l-0.7,1.1l-2,3.1h5.4
			C539.2,882.6,537.2,879.5,537.2,879.5z"/>
		<path d="M550.2,887.5V875h4.8v12.5H550.2z"/>
		<path d="M577.1,877.2c1.1,1.1,1.6,2.4,1.6,4c0,1.7-0.6,3-1.6,4c-1.6,1.7-4.6,2.5-8.5,2.5c-3.8,0-6.7-0.8-8.4-2.5
			c-1.1-1-1.7-2.3-1.7-4c0-1.5,0.5-2.8,1.6-3.8c1.9-1.9,4.7-2.7,8.5-2.7C572.5,874.7,575.3,875.5,577.1,877.2z M573.9,881.2
			c0-1.4-1.4-3-5.3-3c-3.8,0-5.3,1.6-5.3,3c0,1.6,1.6,3,5.3,3C572.3,884.2,573.9,882.8,573.9,881.2z"/>
		<path d="M604.5,887.5H591V875h13.2c1.9,0,3.1,0.4,3.7,1.1c0.6,0.6,0.8,1.3,0.8,2c0,0.7-0.2,1.4-0.5,1.8c-0.4,0.5-0.9,0.8-1.6,0.9
			c1.1,0.1,2,0.6,2.4,1.3c0.4,0.5,0.6,1.1,0.6,1.8c0,0.8-0.2,1.6-0.6,2.2C608.2,887.1,606.6,887.5,604.5,887.5z M603.6,878.3
			c-0.3-0.2-0.7-0.3-1.5-0.3h-6.6v1.8h6.6c0.7,0,1.2-0.1,1.5-0.3c0.2-0.1,0.2-0.4,0.2-0.6C603.9,878.6,603.8,878.5,603.6,878.3z
			 M604.9,883.5c0-0.3-0.1-0.4-0.2-0.6c-0.3-0.2-0.8-0.3-1.7-0.3h-7.3v1.9h7.2c1.1,0,1.6-0.1,1.9-0.4
			C604.8,884,604.9,883.8,604.9,883.5z"/>
		<path d="M630.9,877.2c1.1,1.1,1.6,2.4,1.6,4c0,1.7-0.6,3-1.6,4c-1.6,1.7-4.6,2.5-8.5,2.5c-3.8,0-6.7-0.8-8.4-2.5
			c-1.1-1-1.7-2.3-1.7-4c0-1.5,0.5-2.8,1.6-3.8c1.9-1.9,4.7-2.7,8.5-2.7C626.3,874.7,629.1,875.5,630.9,877.2z M627.7,881.2
			c0-1.4-1.4-3-5.3-3c-3.8,0-5.3,1.6-5.3,3c0,1.6,1.6,3,5.3,3C626.1,884.2,627.7,882.8,627.7,881.2z"/>
		<path d="M645.7,878.3v9.2h-4.8v-9.2h-6.6V875h17.9v3.3H645.7z"/>
	</g>
	<path id="Path_143" class="st1" d="M570.5,915h37.7"/>
	<g id="Group_234" transform="translate(-470 -1643.5)">
		<g id="Group_229" transform="translate(-1863 -235.188)">
			<g id="Group_45" transform="translate(2846 2532.188)">
				<g id="Group_44" transform="translate(15.432 12.506)">
					<rect id="Rectangle_24" x="29.4" y="66.4" class="st3" width="62.4" height="52.2"/>
					<path id="Rectangle_26" class="st3" d="M48,19.3h25.2c6.5,0,11.7,5.2,11.7,11.7v15.9c0,6.5-5.2,11.7-11.7,11.7H48
						c-6.5,0-11.7-5.2-11.7-11.7V31C36.3,24.5,41.5,19.3,48,19.3z"/>
					<line id="Line_16" class="st3" x1="55.9" y1="19.3" x2="55.9" y2="10"/>
					<line id="Line_17" class="st3" x1="65.2" y1="10" x2="65.2" y2="19.3"/>
					<circle id="Ellipse_12" class="st4" cx="60.6" cy="4.9" r="6.9"/>
					<g id="Group_42" transform="translate(6.145 62.589)">
						<path id="Path_28" class="st3" d="M9.4,0v15.4h13.9"/>
						<path id="Path_29" class="st3" d="M23.2,24.8H0V0"/>
					</g>
					<path id="Path_30" class="st3" d="M44.4,81.9h4.2c1.1,0,2,0.9,2,2c0,0,0,0,0,0v8.8c0,1.1,0.9,2,2,2l0,0c1.1,0,2-0.9,2-2V82.1
						c0-1.1,0.9-2,2-2c0,0,0,0,0,0l0,0c1.1,0,2,0.9,2,2v7c0,1.1,0.9,2,2,2l0,0l0,0c1.1,0,2-0.9,2-2c0,0,0,0,0,0v-2c0-1.1,0.9-2,2-2
						c0,0,0,0,0,0l0,0c1.1,0,2,0.9,2,2v5.6c0,1.1,0.9,2,2,2l0,0c1.1,0,2-0.9,2-2v-4.3c0-1.1,0.9-2,2-2c0,0,0,0,0,0h4.5"/>
					<circle id="Ellipse_16" class="st3" cx="68.2" cy="104.3" r="2.4"/>
					<circle id="Ellipse_17" class="st3" cx="76.5" cy="104.3" r="2.4"/>
					<path id="Path_31" class="st3" d="M22.6,51.4c-0.1,6.2-5.2,11.3-11.4,11.2C5,62.5,0.1,57.6,0,51.4"/>
					<g id="Group_43" transform="translate(91.755 78.019)">
						<path id="Path_32" class="st3" d="M13.9,24.8V9.4H0"/>
						<path id="Path_33" class="st3" d="M0,0h23.2v24.8"/>
					</g>
					<path id="Path_34" class="st3" d="M98.5,114c0-6.2,5.1-11.3,11.3-11.3c4.5,0,8.6,2.7,10.4,6.9"/>
				</g>
				<circle id="Ellipse_18" class="st3" cx="76" cy="76" r="76"/>
			</g>
		</g>
		<path id="Path_160" class="st4" d="M1043,2347.1h11.8"/>
		<path id="Path_161" class="st4" d="M1063,2347.1h11.8"/>
	</g>
</g>
</svg>
