<?xml version="1.0" encoding="utf-8"?>
<!-- Generator: Adobe Illustrator 23.1.0, SVG Export Plug-In . SVG Version: 6.00 Build 0)  -->
<svg version="1.1" id="Layer_1" xmlns="http://www.w3.org/2000/svg" xmlns:xlink="http://www.w3.org/1999/xlink" x="0px" y="0px"
	 viewBox="0 0 90.5 79.2" style="enable-background:new 0 0 90.5 79.2;" xml:space="preserve">
<style type="text/css">
	.st0{fill:#FFFFFF;}
</style>
<path class="st0" d="M43.8,79.2H29V59.2c-1.1,0.5-2.1,1-3.1,1.5c-0.3,0.1-0.5,0.4-0.4,0.7c0,4.2,0,8.4,0,12.6v0.5H10.8v-6.3
	l-2.6,1.3c-0.1-0.1-0.1-0.2-0.2-0.3c-1.8-3.7-3.6-7.3-5.4-11C1.7,56.4,0.9,54.7,0,53v-0.1c0.1,0,0.2-0.1,0.3-0.1
	c3.3-1.6,6.6-3.3,10-4.9c0.4-0.1,0.6-0.5,0.6-0.9c0-15.5,0-31,0-46.5V0h14.8v40.3c0.2-0.1,0.3-0.2,0.5-0.2c0.8-0.4,1.7-0.8,2.5-1.2
	c0.3-0.1,0.5-0.4,0.5-0.8c0-11,0-22,0-33V4.5h14.7v26.8c0.6-0.3,1-0.6,1.5-0.7c0.5-0.2,0.6-0.5,0.6-0.9c0-9.4,0-18.7,0-28.1V0.9
	h14.8V23c0.8-0.4,1.6-0.8,2.3-1.1c0.3-0.1,0.6-0.4,0.5-0.8c0-6.5,0-13,0-19.5V0.9h14.8v13.4l4.2-2.1l8.2,16.5
	c-0.1,0.1-0.2,0.1-0.2,0.1c-3.9,1.9-7.8,3.8-11.7,5.8c-0.3,0.1-0.5,0.4-0.5,0.8c0,13.2,0,26.3,0,39.5v0.6H63.4V42.2
	c-0.8,0.4-1.6,0.8-2.4,1.2c-0.3,0.1-0.5,0.4-0.5,0.8c0,10.3,0,20.5,0,30.8v0.6H45.8V50.9c-0.6,0.3-1.1,0.6-1.6,0.8
	c-0.3,0.1-0.5,0.4-0.4,0.7C43.8,61.3,43.8,70.2,43.8,79.2z"/>
</svg>
