<?xml version="1.0" encoding="utf-8"?>
<!-- Generator: Adobe Illustrator 23.1.0, SVG Export Plug-In . SVG Version: 6.00 Build 0)  -->
<svg version="1.1" id="Layer_1" xmlns="http://www.w3.org/2000/svg" xmlns:xlink="http://www.w3.org/1999/xlink" x="0px" y="0px"
	 viewBox="0 0 238.9 33.6" style="enable-background:new 0 0 238.9 33.6;" xml:space="preserve">
<style type="text/css">
	.st0{fill:#FFFFFF;}
</style>
<path class="st0" d="M80.5,23.5v-5.7h3.3V10h-3.3l-0.1-7.8h-8.7l0,7.8h-3.5v7.8h3.5v11.1c0,2.4,1.9,4.3,4.3,4.3h9.3v-7.8h-3
	C81.4,25.4,80.5,24.5,80.5,23.5C80.5,23.5,80.5,23.5,80.5,23.5 M111.4,23.5V0h-8.7v28.9c0,2.4,1.9,4.3,4.3,4.3c0,0,0,0,0,0h12.7
	v-7.8h-6.4C112.2,25.4,111.4,24.5,111.4,23.5 M237.6,9.4h-10.9c-2.4,0-4.3,1.9-4.3,4.3v19.5h8.7V19.1c0-1.1,0.9-1.9,1.9-1.9h4.6
	L237.6,9.4z M8.7,9.9c0-1.1,0.9-1.9,1.9-1.9h6.4V0.1H4.3C1.9,0.1,0,2.1,0,4.5v28.8h8.7V21.4h4.6v-7.8H8.7L8.7,9.9z M27.7,9.1
	c-6.7,0-12.2,5.5-12.2,12.2s5.5,12.2,12.2,12.2s12.2-5.5,12.2-12.2c0,0,0,0,0,0C39.9,14.6,34.4,9.1,27.7,9.1 M27.7,24.8
	c-1.9,0-3.5-1.6-3.5-3.5s1.6-3.5,3.5-3.5s3.5,1.6,3.5,3.5c0,0,0,0,0,0C31.2,23.3,29.6,24.8,27.7,24.8 M54.5,9.1
	c-6.7,0-12.2,5.5-12.2,12.2s5.5,12.2,12.2,12.2s12.2-5.5,12.2-12.2c0,0,0,0,0,0C66.7,14.6,61.2,9.1,54.5,9.1 M54.5,24.8
	c-1.9,0-3.5-1.6-3.5-3.5s1.6-3.5,3.5-3.5s3.5,1.6,3.5,3.5c0,0,0,0,0,0C58,23.3,56.4,24.8,54.5,24.8 M133.9,9.1
	c-6.7,0-12.2,5.5-12.2,12.2s5.5,12.2,12.2,12.2s12.2-5.5,12.2-12.2c0,0,0,0,0,0C146.1,14.6,140.6,9.1,133.9,9.1
	C133.9,9.1,133.9,9.1,133.9,9.1 M133.9,24.8c-1.9,0-3.5-1.6-3.5-3.5s1.6-3.5,3.5-3.5s3.5,1.6,3.5,3.5c0,0,0,0,0,0
	C137.4,23.3,135.8,24.8,133.9,24.8 M161,17.8c1.2,0,2.3,0.6,3,1.6l7.3-4.7c-3.6-5.7-11.2-7.3-16.9-3.7c-5.7,3.6-7.3,11.2-3.7,16.9
	s11.2,7.3,16.9,3.7c1.5-1,2.8-2.2,3.7-3.7l-7.3-4.7c-1,1.6-3.2,2.1-4.9,1.1c-1.6-1-2.1-3.2-1.1-4.9C158.7,18.4,159.8,17.8,161,17.8
	 M195.8,10.9h-9.3l-4.4,5.4V0h-8.7v33.2h8.7v-7.1l0.6,0.7l5.2,6.4h10l-10.2-12.5L195.8,10.9z M217.5,13.8c-2.2-2.8-5.4-4.5-8.9-4.7
	c-6.8-0.5-12.6,4.6-13.1,11.4c0,0.3,0,0.6,0,0.8c0,6.8,5.5,12.3,12.3,12.3c2.7,0,5.3-0.9,7.5-2.5l0,0l0,0c1.1-0.9,2.1-1.9,2.9-3.2
	l-7-4.5c-0.3,0.4-0.6,0.7-0.9,1l0,0c-1.8,1.3-4.3,1-5.6-0.7c0,0,0,0,0,0l15.4-3.4C219.8,17.9,218.9,15.7,217.5,13.8 M203.9,20.2
	c0.4-1.3,1.4-2.3,2.7-2.7c1.5-0.4,3.1,0,4.1,1.2L203.9,20.2z M237.8,30.5c0-0.5-0.4-0.6-0.9-0.6h-1.1v2.4h0.3v-1.1h0.4l0.7,1.1h0.4
	l-0.7-1.1C237.5,31.1,237.8,30.9,237.8,30.5 M236.6,30.8h-0.4v-0.6h0.7c0.3,0,0.6,0,0.6,0.3C237.4,30.8,236.9,30.8,236.6,30.8
	 M236.7,28.8c-1.2,0-2.2,1-2.2,2.2c0,1.2,1,2.2,2.2,2.2c1.2,0,2.2-1,2.2-2.2C238.9,29.8,237.9,28.8,236.7,28.8
	C236.7,28.8,236.7,28.8,236.7,28.8 M236.7,32.9c-1,0-1.9-0.9-1.9-1.9c0-1,0.9-1.9,1.9-1.9c1,0,1.9,0.8,1.9,1.9
	C238.6,32.1,237.7,32.9,236.7,32.9"/>
</svg>
