<?xml version="1.0" encoding="utf-8"?>
<!-- Generator: Adobe Illustrator 23.1.0, SVG Export Plug-In . SVG Version: 6.00 Build 0)  -->
<svg version="1.1" id="Layer_1" xmlns="http://www.w3.org/2000/svg" xmlns:xlink="http://www.w3.org/1999/xlink" x="0px" y="0px"
	 viewBox="0 0 336 447" style="enable-background:new 0 0 336 447;" xml:space="preserve">
<style type="text/css">
	.st0{fill:none;}
	.st1{fill:none;stroke:#93F5CC;stroke-width:2;}
	.st2{enable-background:new    ;}
	.st3{fill:none;stroke:#000000;stroke-width:2;stroke-miterlimit:10;}
</style>
<g id="Group_410" transform="translate(-421 -89)">
	<g id="Rectangle_75" transform="translate(421 89)">
		<rect class="st0" width="336" height="447"/>
		<rect x="1" y="1" class="st1" width="334" height="445"/>
	</g>
	<g class="st2">
		<path d="M464.5,433.5h-1.9l4.9-12.6h2.3l4.6,12.6h-1.9l-1.2-3.2h-5.6L464.5,433.5z M468.9,423.7l-0.3-1.1l-0.4,1.1l-1.9,5h4.4
			L468.9,423.7z"/>
		<path d="M482.4,428c0-0.3-0.1-0.9-0.4-1.2c-0.4-0.5-1.2-0.8-2.3-0.8c-1,0-1.7,0.3-2.2,0.8c-0.5,0.5-0.7,1.3-0.7,2.3
			c0,1.1,0.2,1.9,0.8,2.4c0.5,0.5,1.2,0.7,2.2,0.7c1.1,0,1.8-0.3,2.2-0.7c0.3-0.3,0.5-0.8,0.5-1.1h1.7c0,0.8-0.3,1.6-1,2.2
			c-0.7,0.6-1.8,1.1-3.4,1.1c-1.5,0-2.6-0.4-3.4-1.1c-0.8-0.8-1.3-1.9-1.3-3.5c0-1.5,0.4-2.6,1.2-3.3c0.8-0.8,2-1.3,3.6-1.3
			c2,0,3.1,0.7,3.8,1.8c0.4,0.6,0.4,1.3,0.4,1.7H482.4z"/>
		<path d="M492.7,428c0-0.3-0.1-0.9-0.4-1.2c-0.4-0.5-1.2-0.8-2.3-0.8c-1,0-1.7,0.3-2.2,0.8c-0.5,0.5-0.7,1.3-0.7,2.3
			c0,1.1,0.2,1.9,0.8,2.4c0.5,0.5,1.2,0.7,2.2,0.7c1.1,0,1.8-0.3,2.2-0.7c0.3-0.3,0.5-0.8,0.5-1.1h1.7c0,0.8-0.3,1.6-1,2.2
			c-0.7,0.6-1.8,1.1-3.4,1.1c-1.5,0-2.6-0.4-3.4-1.1c-0.8-0.8-1.3-1.9-1.3-3.5c0-1.5,0.4-2.6,1.2-3.3c0.8-0.8,2-1.3,3.6-1.3
			c2,0,3.1,0.7,3.8,1.8c0.4,0.6,0.4,1.3,0.4,1.7H492.7z"/>
		<path d="M503.5,432.8c-0.7,0.5-1.7,0.8-3.1,0.8c-1.6,0-2.9-0.5-3.8-1.6c-0.6-0.8-0.9-1.7-0.9-3c0-1.2,0.3-2.2,0.9-2.9
			c0.8-1,2-1.6,3.7-1.6c1.8,0,3,0.6,3.7,1.6c0.7,0.8,0.9,2.3,0.8,3.6h-7.5c0,0.7,0.3,1.2,0.8,1.7c0.5,0.5,1.3,0.8,2.2,0.8
			c0.9,0,1.6-0.2,2-0.5c0.5-0.3,0.7-0.8,0.7-1h1.7C504.8,431.3,504.3,432.2,503.5,432.8z M502.6,426.7c-0.5-0.5-1.2-0.8-2.2-0.8
			c-1,0-1.7,0.3-2.2,0.8c-0.4,0.4-0.7,1-0.7,1.6h5.7C503.1,427.7,503,427.2,502.6,426.7z"/>
		<path d="M506.6,433.5c0,0,0-0.1,0-0.6c0-1.2,0-9.7,0-11.2c0-0.4,0-0.8,0-0.9h1.7c0,0.1,0,0.4,0,0.8c0,1.3,0,9.2,0,11.2
			c0,0.4,0,0.7,0,0.8H506.6z"/>
		<path d="M517.9,432.8c-0.7,0.5-1.7,0.8-3.1,0.8c-1.6,0-2.9-0.5-3.8-1.6c-0.6-0.8-0.9-1.7-0.9-3c0-1.2,0.3-2.2,0.9-2.9
			c0.8-1,2-1.6,3.7-1.6c1.8,0,3,0.6,3.7,1.6c0.7,0.8,0.9,2.3,0.8,3.6h-7.5c0,0.7,0.3,1.2,0.8,1.7c0.5,0.5,1.3,0.8,2.2,0.8
			c0.9,0,1.6-0.2,2-0.5c0.5-0.3,0.7-0.8,0.7-1h1.7C519.2,431.3,518.7,432.2,517.9,432.8z M516.9,426.7c-0.5-0.5-1.2-0.8-2.2-0.8
			c-1,0-1.7,0.3-2.2,0.8c-0.4,0.4-0.7,1-0.7,1.6h5.7C517.5,427.7,517.3,427.2,516.9,426.7z"/>
		<path d="M527.3,426.5c-0.5-0.2-1.2-0.3-2-0.3c-1.5,0-2.6,1-2.6,2.7v4.6h-1.7v-8.8h1.7v1.5c0.2-1,1.6-1.7,3-1.7
			c0.8,0,1.3,0.1,1.6,0.2V426.5z"/>
		<path d="M534.9,433.5c-0.1,0-0.2-0.5-0.2-1.1c-0.5,0.7-1.5,1.2-3.5,1.2c-2.1,0-3.4-0.8-3.4-2.3c0-0.1,0-0.3,0-0.5
			c0-1.4,1.2-2.7,4.4-2.7c0.8,0,1.6,0,2.5,0.1c0-0.2,0-0.7,0-1c-0.1-0.8-0.8-1.3-2.3-1.3c-1,0-1.6,0.2-2,0.5
			c-0.4,0.3-0.5,0.7-0.5,1.2h-1.6c0-0.6,0.3-1.4,0.6-1.8c0.7-0.9,1.8-1.3,3.5-1.3c2.6,0,3.8,1,3.9,2.4c0,0.4,0.1,1.7,0,2.4
			c0,0.6,0,1.8,0,2.4c0,0.7,0.1,1.6,0.2,1.8H534.9z M532.8,429.4c-1.1,0-2,0.1-2.6,0.5c-0.4,0.2-0.6,0.6-0.6,1
			c0,0.4,0.1,0.6,0.3,0.8c0.3,0.3,1,0.5,1.9,0.5c0.8,0,1.4-0.1,2.1-0.5c0.4-0.2,0.8-0.7,0.9-1.4c0-0.4,0.1-0.7,0.1-0.9
			C534,429.4,533.4,429.4,532.8,429.4z"/>
		<path d="M540.7,426.2c0,0.9,0,3.8,0,4.6c0,1,0.4,1.3,1.4,1.3c0.4,0,1,0,1.2-0.1v1.5c-0.4,0.1-1.1,0.2-1.9,0.2
			c-1.4,0-2.5-0.5-2.5-2.3c0-1,0-4,0-5.2h-1.5v-1.5h1.5c0.1-0.1,0.1-1.9,0.1-1.9l1.7,0c0,0,0,1.7,0,1.9h2.7v1.5H540.7z"/>
		<path d="M552.2,432.8c-0.7,0.5-1.7,0.8-3.1,0.8c-1.6,0-2.9-0.5-3.8-1.6c-0.6-0.8-0.9-1.7-0.9-3c0-1.2,0.3-2.2,0.9-2.9
			c0.8-1,2-1.6,3.7-1.6c1.8,0,3,0.6,3.7,1.6c0.7,0.8,0.9,2.3,0.8,3.6h-7.5c0,0.7,0.3,1.2,0.8,1.7c0.5,0.5,1.3,0.8,2.2,0.8
			c0.9,0,1.6-0.2,2-0.5c0.5-0.3,0.7-0.8,0.7-1h1.7C553.5,431.3,553,432.2,552.2,432.8z M551.2,426.7c-0.5-0.5-1.2-0.8-2.2-0.8
			c-1,0-1.7,0.3-2.2,0.8c-0.4,0.4-0.7,1-0.7,1.6h5.7C551.8,427.7,551.7,427.2,551.2,426.7z"/>
		<path d="M562.1,425.8v-5h1.7c0,0,0,10,0,11.7c0,0.4,0.1,1,0.1,1h-1.6l-0.2-1.2c-0.5,0.8-1.5,1.3-3.2,1.3c-1.5,0-2.5-0.6-3.1-1.2
			c-0.7-0.8-1.1-1.8-1.1-3.2c0-1.5,0.5-2.6,1.2-3.3c0.7-0.7,1.8-1.2,3.1-1.2C560.4,424.6,561.5,424.9,562.1,425.8z M557.2,426.9
			c-0.5,0.5-0.8,1.3-0.8,2.2c0,0.9,0.2,1.7,0.6,2.2c0.6,0.6,1.2,0.9,2.3,0.9c1,0,1.7-0.3,2.3-1c0.4-0.4,0.6-1.2,0.6-2.1
			c0-0.8-0.2-1.7-0.5-2.1c-0.6-0.8-1.3-1-2.3-1C558.4,426.1,557.7,426.4,557.2,426.9z"/>
		<path d="M582.2,427.9c0-1.1-0.4-1.8-2-1.8c-1.2,0-2.1,0.7-2.1,1.9v5.5h-1.6c0-0.2,0-4.8,0-5.7c0-1.1-0.7-1.7-1.9-1.7
			c-1.3,0-2.2,1-2.2,1.9v5.5h-1.7v-8.8h1.7v1.3c0.4-0.9,1.6-1.5,2.9-1.5s2.3,0.5,2.6,1.6c0.4-1.1,1.6-1.6,3-1.6c2.1,0,3,1.2,3,2.9
			c0,6,0,6.1,0.1,6.1h-1.6C582.2,433.5,582.2,433.4,582.2,427.9z"/>
		<path d="M593.9,432.3c-0.8,0.8-2,1.3-3.5,1.3c-1.6,0-2.8-0.4-3.6-1.3c-0.7-0.8-1.2-1.8-1.2-3.3c0-1.3,0.4-2.4,1.2-3.2
			c0.8-0.8,1.9-1.3,3.6-1.3c1.6,0,2.8,0.5,3.6,1.3c0.8,0.8,1.2,2,1.2,3.3C595.1,430.5,594.6,431.5,593.9,432.3z M592.8,426.8
			c-0.5-0.5-1.2-0.8-2.4-0.8c-1.1,0-1.8,0.4-2.3,0.9c-0.5,0.6-0.7,1.3-0.7,2.2c0,1,0.2,1.8,0.6,2.2c0.5,0.6,1.3,0.9,2.4,0.9
			c1,0,1.8-0.3,2.3-0.9c0.4-0.5,0.7-1.2,0.7-2.2C593.4,428.2,593.3,427.3,592.8,426.8z"/>
		<path d="M605.1,433.5h-1.7c-0.1,0-0.1-0.1-0.1-5.5c0-1.2-0.7-1.9-2.2-1.9c-1.3,0-2.5,0.7-2.5,2v5.3h-1.7v-8.8h1.7v1.4
			c0.5-1.1,1.9-1.6,3.2-1.6c2.4,0,3.3,1.4,3.3,3.1C605.1,433.2,605.1,433.5,605.1,433.5z"/>
		<path d="M607.3,423.6v-2h1.8v2H607.3z M607.4,433.5c-0.1,0-0.1-0.2-0.1-0.8c0-1.7,0-8,0-8h1.7c0,0,0,6.6,0,8c0,0.6,0,0.8,0.1,0.8
			H607.4z"/>
		<path d="M613.6,426.2c0,0.9,0,3.8,0,4.6c0,1,0.4,1.3,1.4,1.3c0.4,0,1,0,1.2-0.1v1.5c-0.4,0.1-1.1,0.2-1.9,0.2
			c-1.4,0-2.5-0.5-2.5-2.3c0-1,0-4,0-5.2h-1.5v-1.5h1.5c0.1-0.1,0.1-1.9,0.1-1.9l1.7,0c0,0,0,1.7,0,1.9h2.7v1.5H613.6z"/>
		<path d="M625.5,432.3c-0.8,0.8-2,1.3-3.5,1.3c-1.6,0-2.8-0.4-3.6-1.3c-0.7-0.8-1.2-1.8-1.2-3.3c0-1.3,0.4-2.4,1.2-3.2
			c0.8-0.8,1.9-1.3,3.6-1.3c1.6,0,2.8,0.5,3.6,1.3c0.8,0.8,1.2,2,1.2,3.3C626.7,430.5,626.3,431.5,625.5,432.3z M624.4,426.8
			c-0.5-0.5-1.2-0.8-2.4-0.8c-1.1,0-1.8,0.4-2.3,0.9c-0.5,0.6-0.7,1.3-0.7,2.2c0,1,0.2,1.8,0.6,2.2c0.5,0.6,1.3,0.9,2.4,0.9
			c1,0,1.8-0.3,2.3-0.9c0.4-0.5,0.7-1.2,0.7-2.2C625,428.2,624.9,427.3,624.4,426.8z"/>
		<path d="M634.9,426.5c-0.5-0.2-1.2-0.3-2-0.3c-1.5,0-2.6,1-2.6,2.7v4.6h-1.7v-8.8h1.7v1.5c0.2-1,1.6-1.7,3-1.7
			c0.8,0,1.3,0.1,1.6,0.2V426.5z"/>
		<path d="M640,433.6c-2.7,0-4-0.5-4.3-1.9c-0.1-0.4-0.1-0.6-0.1-0.9h1.7c0,0.1,0,0.3,0.1,0.6c0.2,0.6,1,0.8,2.7,0.8
			c1.7,0,2.3-0.4,2.3-1.2c0-0.8-0.6-1-2.1-1.2c-0.2,0-1.5-0.2-1.8-0.3c-2-0.3-2.8-1-2.8-2.5c0-1.4,1.2-2.5,4-2.5
			c2.3,0,3.6,0.6,4,1.8c0.1,0.4,0.1,0.9,0.1,1.1H642c0-0.1,0-0.5-0.1-0.6c-0.2-0.4-0.8-0.7-2.4-0.7c-1.7,0-2.2,0.4-2.2,1
			c0,0.6,0.4,0.8,1.8,1.1c0.2,0,1.7,0.2,1.9,0.3c2.1,0.3,3,1,3,2.6C644.1,432.7,642.9,433.6,640,433.6z"/>
		<path d="M652.7,426.2c0,0.9,0,3.8,0,4.6c0,1,0.4,1.3,1.4,1.3c0.4,0,1,0,1.2-0.1v1.5c-0.4,0.1-1.1,0.2-1.9,0.2
			c-1.4,0-2.5-0.5-2.5-2.3c0-1,0-4,0-5.2h-1.5v-1.5h1.5c0.1-0.1,0.1-1.9,0.1-1.9l1.7,0c0,0,0,1.7,0,1.9h2.7v1.5H652.7z"/>
		<path d="M665.2,433.5h-1.7c-0.1,0,0-0.2,0-5.5c0-1.1-0.6-1.9-2.2-1.9c-1.4,0-2.5,0.8-2.5,2v5.4H657v-12.8h1.7v5.3
			c0.4-0.9,1.5-1.5,3.1-1.5c2.2,0,3.3,1.2,3.3,3.2C665.1,433.3,665.1,433.5,665.2,433.5z"/>
		<path d="M674,433.5c-0.1,0-0.2-0.5-0.2-1.1c-0.5,0.7-1.5,1.2-3.5,1.2c-2.1,0-3.4-0.8-3.4-2.3c0-0.1,0-0.3,0-0.5
			c0-1.4,1.2-2.7,4.4-2.7c0.8,0,1.6,0,2.5,0.1c0-0.2,0-0.7,0-1c-0.1-0.8-0.8-1.3-2.3-1.3c-1,0-1.6,0.2-2,0.5
			c-0.4,0.3-0.5,0.7-0.5,1.2h-1.6c0-0.6,0.3-1.4,0.6-1.8c0.7-0.9,1.8-1.3,3.5-1.3c2.6,0,3.8,1,3.9,2.4c0,0.4,0.1,1.7,0,2.4
			c0,0.6,0,1.8,0,2.4c0,0.7,0.1,1.6,0.2,1.8H674z M671.9,429.4c-1.1,0-2,0.1-2.6,0.5c-0.4,0.2-0.6,0.6-0.6,1c0,0.4,0.1,0.6,0.3,0.8
			c0.3,0.3,1,0.5,1.9,0.5c0.8,0,1.4-0.1,2.1-0.5c0.4-0.2,0.8-0.7,0.9-1.4c0-0.4,0.1-0.7,0.1-0.9
			C673.2,429.4,672.5,429.4,671.9,429.4z"/>
		<path d="M679.8,426.2c0,0.9,0,3.8,0,4.6c0,1,0.4,1.3,1.4,1.3c0.4,0,1,0,1.2-0.1v1.5c-0.4,0.1-1.1,0.2-1.9,0.2
			c-1.4,0-2.5-0.5-2.5-2.3c0-1,0-4,0-5.2h-1.5v-1.5h1.5c0.1-0.1,0.1-1.9,0.1-1.9l1.7,0c0,0,0,1.7,0,1.9h2.7v1.5H679.8z"/>
		<path d="M695.3,433.5c-0.1,0-0.2-0.5-0.2-1.1c-0.5,0.7-1.5,1.2-3.5,1.2c-2.1,0-3.4-0.8-3.4-2.3c0-0.1,0-0.3,0-0.5
			c0-1.4,1.2-2.7,4.4-2.7c0.8,0,1.6,0,2.5,0.1c0-0.2,0-0.7,0-1c-0.1-0.8-0.8-1.3-2.3-1.3c-1,0-1.6,0.2-2,0.5
			c-0.4,0.3-0.5,0.7-0.5,1.2h-1.6c0-0.6,0.3-1.4,0.6-1.8c0.7-0.9,1.8-1.3,3.5-1.3c2.6,0,3.8,1,3.9,2.4c0,0.4,0.1,1.7,0,2.4
			c0,0.6,0,1.8,0,2.4c0,0.7,0.1,1.6,0.2,1.8H695.3z M693.1,429.4c-1.1,0-2,0.1-2.6,0.5c-0.4,0.2-0.6,0.6-0.6,1
			c0,0.4,0.1,0.6,0.3,0.8c0.3,0.3,1,0.5,1.9,0.5c0.8,0,1.4-0.1,2.1-0.5c0.4-0.2,0.8-0.7,0.9-1.4c0-0.4,0.1-0.7,0.1-0.9
			C694.4,429.4,693.8,429.4,693.1,429.4z"/>
		<path d="M705.3,426.5c-0.5-0.2-1.2-0.3-2-0.3c-1.5,0-2.6,1-2.6,2.7v4.6H699v-8.8h1.7v1.5c0.2-1,1.6-1.7,3-1.7
			c0.8,0,1.3,0.1,1.6,0.2V426.5z"/>
		<path d="M713.6,432.8c-0.7,0.5-1.7,0.8-3.1,0.8c-1.6,0-2.9-0.5-3.8-1.6c-0.6-0.8-0.9-1.7-0.9-3c0-1.2,0.3-2.2,0.9-2.9
			c0.8-1,2-1.6,3.7-1.6c1.8,0,3,0.6,3.7,1.6c0.7,0.8,0.9,2.3,0.8,3.6h-7.5c0,0.7,0.3,1.2,0.8,1.7c0.5,0.5,1.3,0.8,2.2,0.8
			c0.9,0,1.6-0.2,2-0.5c0.5-0.3,0.7-0.8,0.7-1h1.7C714.9,431.3,714.5,432.2,713.6,432.8z M712.7,426.7c-0.5-0.5-1.2-0.8-2.2-0.8
			c-1,0-1.7,0.3-2.2,0.8c-0.4,0.4-0.7,1-0.7,1.6h5.7C713.3,427.7,713.1,427.2,712.7,426.7z"/>
	</g>
	<g class="st2">
		<path d="M470.5,445.2c0,0.9,0,3.8,0,4.6c0,1,0.4,1.3,1.4,1.3c0.4,0,1,0,1.2-0.1v1.5c-0.4,0.1-1.1,0.2-1.9,0.2
			c-1.4,0-2.5-0.5-2.5-2.3c0-1,0-4,0-5.2h-1.5v-1.5h1.5c0.1-0.1,0.1-1.9,0.1-1.9l1.7,0c0,0,0,1.7,0,1.9h2.7v1.5H470.5z"/>
		<path d="M482.9,452.5h-1.7c-0.1,0,0-0.2,0-5.5c0-1.1-0.6-1.9-2.2-1.9c-1.4,0-2.5,0.8-2.5,2v5.4h-1.7v-12.8h1.7v5.3
			c0.4-0.9,1.5-1.5,3.1-1.5c2.2,0,3.3,1.2,3.3,3.2C482.9,452.3,482.9,452.5,482.9,452.5z"/>
		<path d="M492.4,451.8c-0.7,0.5-1.7,0.8-3.1,0.8c-1.6,0-2.9-0.5-3.8-1.6c-0.6-0.8-0.9-1.7-0.9-3c0-1.2,0.3-2.2,0.9-2.9
			c0.8-1,2-1.6,3.7-1.6c1.8,0,3,0.6,3.7,1.6c0.7,0.8,0.9,2.3,0.8,3.6h-7.5c0,0.7,0.3,1.2,0.8,1.7c0.5,0.5,1.3,0.8,2.2,0.8
			c0.9,0,1.6-0.2,2-0.5c0.5-0.3,0.7-0.8,0.7-1h1.7C493.7,450.3,493.2,451.2,492.4,451.8z M491.5,445.7c-0.5-0.5-1.2-0.8-2.2-0.8
			c-1,0-1.7,0.3-2.2,0.8c-0.4,0.4-0.7,1-0.7,1.6h5.7C492,446.7,491.9,446.2,491.5,445.7z"/>
		<path d="M502.6,445.2v7.3h-1.7v-7.3h-1.6v-1.5h1.6v-1.6c0-1.4,1-2.4,3-2.4c0.6,0,1.2,0.1,1.4,0.1v1.5c-0.3,0-0.8-0.1-1.3-0.1
			c-1,0-1.3,0.6-1.3,1.3v1.2h2.6v1.5H502.6z"/>
		<path d="M512.8,452.5c-0.1,0-0.2-0.5-0.2-1.1c-0.5,0.7-1.5,1.2-3.5,1.2c-2.1,0-3.4-0.8-3.4-2.3c0-0.1,0-0.3,0-0.5
			c0-1.4,1.2-2.7,4.4-2.7c0.8,0,1.6,0,2.5,0.1c0-0.2,0-0.7,0-1c-0.1-0.8-0.8-1.3-2.3-1.3c-1,0-1.6,0.2-2,0.5
			c-0.4,0.3-0.5,0.7-0.5,1.2h-1.6c0-0.6,0.3-1.4,0.6-1.8c0.7-0.9,1.8-1.3,3.5-1.3c2.6,0,3.8,1,3.9,2.4c0,0.4,0.1,1.7,0,2.4
			c0,0.6,0,1.8,0,2.4c0,0.7,0.1,1.6,0.2,1.8H512.8z M510.7,448.4c-1.1,0-2,0.1-2.6,0.5c-0.4,0.2-0.6,0.6-0.6,1
			c0,0.4,0.1,0.6,0.3,0.8c0.3,0.3,1,0.5,1.9,0.5c0.8,0,1.4-0.1,2.1-0.5c0.4-0.2,0.8-0.7,0.9-1.4c0-0.4,0.1-0.7,0.1-0.9
			C512,448.4,511.3,448.4,510.7,448.4z"/>
		<path d="M520.5,452.6c-2.7,0-4-0.5-4.3-1.9c-0.1-0.4-0.1-0.6-0.1-0.9h1.7c0,0.1,0,0.3,0.1,0.6c0.2,0.6,1,0.8,2.7,0.8
			c1.7,0,2.3-0.4,2.3-1.2c0-0.8-0.6-1-2.1-1.2c-0.2,0-1.5-0.2-1.8-0.3c-2-0.3-2.8-1-2.8-2.5c0-1.4,1.2-2.5,4-2.5
			c2.3,0,3.6,0.6,4,1.8c0.1,0.4,0.1,0.9,0.1,1.1h-1.7c0-0.1,0-0.5-0.1-0.6c-0.2-0.4-0.8-0.7-2.4-0.7c-1.7,0-2.2,0.4-2.2,1
			c0,0.6,0.4,0.8,1.8,1.1c0.2,0,1.7,0.2,1.9,0.3c2.1,0.3,3,1,3,2.6C524.6,451.7,523.4,452.6,520.5,452.6z"/>
		<path d="M528.6,445.2c0,0.9,0,3.8,0,4.6c0,1,0.4,1.3,1.4,1.3c0.4,0,1,0,1.2-0.1v1.5c-0.4,0.1-1.1,0.2-1.9,0.2
			c-1.4,0-2.5-0.5-2.5-2.3c0-1,0-4,0-5.2h-1.5v-1.5h1.5c0.1-0.1,0.1-1.9,0.1-1.9l1.7,0c0,0,0,1.7,0,1.9h2.7v1.5H528.6z"/>
		<path d="M540.1,451.8c-0.7,0.5-1.7,0.8-3.1,0.8c-1.6,0-2.9-0.5-3.8-1.6c-0.6-0.8-0.9-1.7-0.9-3c0-1.2,0.3-2.2,0.9-2.9
			c0.8-1,2-1.6,3.7-1.6c1.8,0,3,0.6,3.7,1.6c0.7,0.8,0.9,2.3,0.8,3.6H534c0,0.7,0.3,1.2,0.8,1.7c0.5,0.5,1.3,0.8,2.2,0.8
			c0.9,0,1.6-0.2,2-0.5c0.5-0.3,0.7-0.8,0.7-1h1.7C541.4,450.3,540.9,451.2,540.1,451.8z M539.2,445.7c-0.5-0.5-1.2-0.8-2.2-0.8
			c-1,0-1.7,0.3-2.2,0.8c-0.4,0.4-0.7,1-0.7,1.6h5.7C539.8,446.7,539.6,446.2,539.2,445.7z"/>
		<path d="M547.2,452.6c-2.7,0-4-0.5-4.3-1.9c-0.1-0.4-0.1-0.6-0.1-0.9h1.7c0,0.1,0,0.3,0.1,0.6c0.2,0.6,1,0.8,2.7,0.8
			c1.7,0,2.3-0.4,2.3-1.2c0-0.8-0.6-1-2.1-1.2c-0.2,0-1.5-0.2-1.8-0.3c-2-0.3-2.8-1-2.8-2.5c0-1.4,1.2-2.5,4-2.5
			c2.3,0,3.6,0.6,4,1.8c0.1,0.4,0.1,0.9,0.1,1.1h-1.7c0-0.1,0-0.5-0.1-0.6c-0.2-0.4-0.8-0.7-2.4-0.7c-1.7,0-2.2,0.4-2.2,1
			c0,0.6,0.4,0.8,1.8,1.1c0.2,0,1.7,0.2,1.9,0.3c2.1,0.3,3,1,3,2.6C551.3,451.7,550.1,452.6,547.2,452.6z"/>
		<path d="M555.3,445.2c0,0.9,0,3.8,0,4.6c0,1,0.4,1.3,1.4,1.3c0.4,0,1,0,1.2-0.1v1.5c-0.4,0.1-1.1,0.2-1.9,0.2
			c-1.4,0-2.5-0.5-2.5-2.3c0-1,0-4,0-5.2H552v-1.5h1.5c0.1-0.1,0.1-1.9,0.1-1.9l1.7,0c0,0,0,1.7,0,1.9h2.7v1.5H555.3z"/>
		<path d="M570.8,452.5c-0.1,0-0.2-0.5-0.2-1.1c-0.5,0.7-1.5,1.2-3.5,1.2c-2.1,0-3.4-0.8-3.4-2.3c0-0.1,0-0.3,0-0.5
			c0-1.4,1.2-2.7,4.4-2.7c0.8,0,1.6,0,2.5,0.1c0-0.2,0-0.7,0-1c-0.1-0.8-0.8-1.3-2.3-1.3c-1,0-1.6,0.2-2,0.5
			c-0.4,0.3-0.5,0.7-0.5,1.2h-1.6c0-0.6,0.3-1.4,0.6-1.8c0.7-0.9,1.8-1.3,3.5-1.3c2.6,0,3.8,1,3.9,2.4c0,0.4,0.1,1.7,0,2.4
			c0,0.6,0,1.8,0,2.4c0,0.7,0.1,1.6,0.2,1.8H570.8z M568.6,448.4c-1.1,0-2,0.1-2.6,0.5c-0.4,0.2-0.6,0.6-0.6,1
			c0,0.4,0.1,0.6,0.3,0.8c0.3,0.3,1,0.5,1.9,0.5c0.8,0,1.4-0.1,2.1-0.5c0.4-0.2,0.8-0.7,0.9-1.4c0-0.4,0.1-0.7,0.1-0.9
			C569.9,448.4,569.3,448.4,568.6,448.4z"/>
		<path d="M579.2,452.5h-2.1l-3.8-8.8h1.9l3,7.2l3-7.2h1.8L579.2,452.5z"/>
		<path d="M590.6,452.5c-0.1,0-0.2-0.5-0.2-1.1c-0.5,0.7-1.5,1.2-3.5,1.2c-2.1,0-3.4-0.8-3.4-2.3c0-0.1,0-0.3,0-0.5
			c0-1.4,1.2-2.7,4.4-2.7c0.8,0,1.6,0,2.5,0.1c0-0.2,0-0.7,0-1c-0.1-0.8-0.8-1.3-2.3-1.3c-1,0-1.6,0.2-2,0.5
			c-0.4,0.3-0.5,0.7-0.5,1.2H584c0-0.6,0.3-1.4,0.6-1.8c0.7-0.9,1.8-1.3,3.5-1.3c2.6,0,3.8,1,3.9,2.4c0,0.4,0.1,1.7,0,2.4
			c0,0.6,0,1.8,0,2.4c0,0.7,0.1,1.6,0.2,1.8H590.6z M588.5,448.4c-1.1,0-2,0.1-2.6,0.5c-0.4,0.2-0.6,0.6-0.6,1
			c0,0.4,0.1,0.6,0.3,0.8c0.3,0.3,1,0.5,1.9,0.5c0.8,0,1.4-0.1,2.1-0.5c0.4-0.2,0.8-0.7,0.9-1.4c0-0.4,0.1-0.7,0.1-0.9
			C589.8,448.4,589.2,448.4,588.5,448.4z"/>
		<path d="M594.3,442.6v-2h1.8v2H594.3z M594.5,452.5c-0.1,0-0.1-0.2-0.1-0.8c0-1.7,0-8,0-8h1.7c0,0,0,6.6,0,8c0,0.6,0,0.8,0.1,0.8
			H594.5z"/>
		<path d="M598.5,452.5c0,0,0-0.1,0-0.6c0-1.2,0-9.7,0-11.2c0-0.4,0-0.8,0-0.9h1.7c0,0.1,0,0.4,0,0.8c0,1.3,0,9.2,0,11.2
			c0,0.4,0,0.7,0,0.8H598.5z"/>
		<path d="M609.2,452.5c-0.1,0-0.2-0.5-0.2-1.1c-0.5,0.7-1.5,1.2-3.5,1.2c-2.1,0-3.4-0.8-3.4-2.3c0-0.1,0-0.3,0-0.5
			c0-1.4,1.2-2.7,4.4-2.7c0.8,0,1.6,0,2.5,0.1c0-0.2,0-0.7,0-1c-0.1-0.8-0.8-1.3-2.3-1.3c-1,0-1.6,0.2-2,0.5
			c-0.4,0.3-0.5,0.7-0.5,1.2h-1.6c0-0.6,0.3-1.4,0.6-1.8c0.7-0.9,1.8-1.3,3.5-1.3c2.6,0,3.8,1,3.9,2.4c0,0.4,0.1,1.7,0,2.4
			c0,0.6,0,1.8,0,2.4c0,0.7,0.1,1.6,0.2,1.8H609.2z M607,448.4c-1.1,0-2,0.1-2.6,0.5c-0.4,0.2-0.6,0.6-0.6,1c0,0.4,0.1,0.6,0.3,0.8
			c0.3,0.3,1,0.5,1.9,0.5c0.8,0,1.4-0.1,2.1-0.5c0.4-0.2,0.8-0.7,0.9-1.4c0-0.4,0.1-0.7,0.1-0.9C608.3,448.4,607.7,448.4,607,448.4z
			"/>
		<path d="M620.9,444.7c0.7,0.7,1.1,1.8,1.1,3.2c0,1.6-0.4,2.7-1.2,3.4c-0.8,0.8-1.9,1.2-3.1,1.2c-1.4,0-2.5-0.4-3.1-1.2l-0.1,1.2
			h-1.6v-12.8h1.7v5.3c0.3-0.8,1.5-1.6,3.3-1.6C619.2,443.5,620.2,443.9,620.9,444.7z M614.7,446.6c-0.1,0.4-0.2,0.8-0.2,1.6
			c0,0.8,0.1,1.2,0.3,1.5c0.4,0.8,1.2,1.4,2.6,1.4c1.1,0,1.8-0.4,2.3-1c0.4-0.5,0.6-1.2,0.6-2.1c0-0.8-0.1-1.6-0.5-2
			c-0.5-0.6-1.2-1-2.4-1C615.9,445,615,445.7,614.7,446.6z"/>
		<path d="M623.9,452.5c0,0,0-0.1,0-0.6c0-1.2,0-9.7,0-11.2c0-0.4,0-0.8,0-0.9h1.7c0,0.1,0,0.4,0,0.8c0,1.3,0,9.2,0,11.2
			c0,0.4,0,0.7,0,0.8H623.9z"/>
		<path d="M635.2,451.8c-0.7,0.5-1.7,0.8-3.1,0.8c-1.6,0-2.9-0.5-3.8-1.6c-0.6-0.8-0.9-1.7-0.9-3c0-1.2,0.3-2.2,0.9-2.9
			c0.8-1,2-1.6,3.7-1.6c1.8,0,3,0.6,3.7,1.6c0.7,0.8,0.9,2.3,0.8,3.6H629c0,0.7,0.3,1.2,0.8,1.7c0.5,0.5,1.3,0.8,2.2,0.8
			c0.9,0,1.6-0.2,2-0.5c0.5-0.3,0.7-0.8,0.7-1h1.7C636.4,450.3,636,451.2,635.2,451.8z M634.2,445.7c-0.5-0.5-1.2-0.8-2.2-0.8
			c-1,0-1.7,0.3-2.2,0.8c-0.4,0.4-0.7,1-0.7,1.6h5.7C634.8,446.7,634.6,446.2,634.2,445.7z"/>
		<path d="M639.6,454.2l-1.2-0.2l0.8-1.5l-0.2,0h-0.4v-2.6h2v2.6L639.6,454.2z"/>
		<path d="M654.7,452.5c-0.1,0-0.2-0.5-0.2-1.1c-0.5,0.7-1.5,1.2-3.5,1.2c-2.1,0-3.4-0.8-3.4-2.3c0-0.1,0-0.3,0-0.5
			c0-1.4,1.2-2.7,4.4-2.7c0.8,0,1.6,0,2.5,0.1c0-0.2,0-0.7,0-1c-0.1-0.8-0.8-1.3-2.3-1.3c-1,0-1.6,0.2-2,0.5
			c-0.4,0.3-0.5,0.7-0.5,1.2H648c0-0.6,0.3-1.4,0.6-1.8c0.7-0.9,1.8-1.3,3.5-1.3c2.6,0,3.8,1,3.9,2.4c0,0.4,0.1,1.7,0,2.4
			c0,0.6,0,1.8,0,2.4c0,0.7,0.1,1.6,0.2,1.8H654.7z M652.5,448.4c-1.1,0-2,0.1-2.6,0.5c-0.4,0.2-0.6,0.6-0.6,1
			c0,0.4,0.1,0.6,0.3,0.8c0.3,0.3,1,0.5,1.9,0.5c0.8,0,1.4-0.1,2.1-0.5c0.4-0.2,0.8-0.7,0.9-1.4c0-0.4,0.1-0.7,0.1-0.9
			C653.8,448.4,653.2,448.4,652.5,448.4z"/>
		<path d="M666.5,452.5h-1.7c-0.1,0-0.1-0.1-0.1-5.5c0-1.2-0.7-1.9-2.2-1.9c-1.3,0-2.5,0.7-2.5,2v5.3h-1.7v-8.8h1.7v1.4
			c0.5-1.1,1.9-1.6,3.2-1.6c2.4,0,3.3,1.4,3.3,3.1C666.5,452.2,666.5,452.5,666.5,452.5z"/>
		<path d="M675.6,444.8v-5h1.7c0,0,0,10,0,11.7c0,0.4,0.1,1,0.1,1h-1.6l-0.2-1.2c-0.5,0.8-1.5,1.3-3.2,1.3c-1.5,0-2.5-0.6-3.1-1.2
			c-0.7-0.8-1.1-1.8-1.1-3.2c0-1.5,0.5-2.6,1.2-3.3c0.7-0.7,1.8-1.2,3.1-1.2C673.9,443.6,675,443.9,675.6,444.8z M670.7,445.9
			c-0.5,0.5-0.8,1.3-0.8,2.2c0,0.9,0.2,1.7,0.6,2.2c0.6,0.6,1.2,0.9,2.3,0.9c1,0,1.7-0.3,2.3-1c0.4-0.4,0.6-1.2,0.6-2.1
			c0-0.8-0.2-1.7-0.5-2.1c-0.6-0.8-1.3-1-2.3-1C671.9,445.1,671.2,445.4,670.7,445.9z"/>
		<path d="M695.2,452.5h-2c0,0-2.2-6.1-2.2-6.3c0-0.1-0.1-0.7-0.1-0.7s-0.1,0.6-0.1,0.7c0,0.2-2.2,6.3-2.2,6.3h-2.1l-3.2-8.8h1.8
			l2.5,7.2l2.4-7.2h1.9l2.4,7.2l2.5-7.2h1.7L695.2,452.5z"/>
		<path d="M699.8,442.6v-2h1.8v2H699.8z M699.9,452.5c-0.1,0-0.1-0.2-0.1-0.8c0-1.7,0-8,0-8h1.7c0,0,0,6.6,0,8c0,0.6,0,0.8,0.1,0.8
			H699.9z"/>
		<path d="M704,452.5c0,0,0-0.1,0-0.6c0-1.2,0-9.7,0-11.2c0-0.4,0-0.8,0-0.9h1.7c0,0.1,0,0.4,0,0.8c0,1.3,0,9.2,0,11.2
			c0,0.4,0,0.7,0,0.8H704z"/>
		<path d="M708,452.5c0,0,0-0.1,0-0.6c0-1.2,0-9.7,0-11.2c0-0.4,0-0.8,0-0.9h1.7c0,0.1,0,0.4,0,0.8c0,1.3,0,9.2,0,11.2
			c0,0.4,0,0.7,0,0.8H708z"/>
	</g>
	<g class="st2">
		<path d="M517.6,471.5H516c-0.1,0-0.1-0.1-0.1-5.5c0-1.2-0.7-1.9-2.2-1.9c-1.3,0-2.5,0.7-2.5,2v5.3h-1.7v-8.8h1.7v1.4
			c0.5-1.1,1.9-1.6,3.2-1.6c2.4,0,3.3,1.4,3.3,3.1C517.6,471.2,517.6,471.5,517.6,471.5z"/>
		<path d="M527.6,470.3c-0.8,0.8-2,1.3-3.5,1.3c-1.6,0-2.8-0.4-3.6-1.3c-0.7-0.8-1.2-1.8-1.2-3.3c0-1.3,0.4-2.4,1.2-3.2
			c0.8-0.8,1.9-1.3,3.6-1.3c1.6,0,2.8,0.5,3.6,1.3c0.8,0.8,1.2,2,1.2,3.3C528.8,468.5,528.3,469.5,527.6,470.3z M526.4,464.8
			c-0.5-0.5-1.2-0.8-2.4-0.8c-1.1,0-1.8,0.4-2.3,0.9c-0.5,0.6-0.7,1.3-0.7,2.2c0,1,0.2,1.8,0.6,2.2c0.5,0.6,1.3,0.9,2.4,0.9
			c1,0,1.8-0.3,2.3-0.9c0.4-0.5,0.7-1.2,0.7-2.2C527.1,466.2,526.9,465.3,526.4,464.8z"/>
		<path d="M532.7,464.2c0,0.9,0,3.8,0,4.6c0,1,0.4,1.3,1.4,1.3c0.4,0,1,0,1.2-0.1v1.5c-0.4,0.1-1.1,0.2-1.9,0.2
			c-1.4,0-2.5-0.5-2.5-2.3c0-1,0-4,0-5.2h-1.5v-1.5h1.5c0.1-0.1,0.1-1.9,0.1-1.9l1.7,0c0,0,0,1.7,0,1.9h2.7v1.5H532.7z"/>
		<path d="M553.1,465.9c0-1.1-0.4-1.8-2-1.8c-1.2,0-2.1,0.7-2.1,1.9v5.5h-1.6c0-0.2,0-4.8,0-5.7c0-1.1-0.7-1.7-1.9-1.7
			c-1.3,0-2.2,1-2.2,1.9v5.5h-1.7v-8.8h1.7v1.3c0.4-0.9,1.6-1.5,2.9-1.5s2.3,0.5,2.6,1.6c0.4-1.1,1.6-1.6,3-1.6c2.1,0,3,1.2,3,2.9
			c0,6,0,6.1,0.1,6.1h-1.6C553.1,471.5,553.1,471.4,553.1,465.9z"/>
		<path d="M557,461.6v-2h1.8v2H557z M557.2,471.5c-0.1,0-0.1-0.2-0.1-0.8c0-1.7,0-8,0-8h1.7c0,0,0,6.6,0,8c0,0.6,0,0.8,0.1,0.8
			H557.2z"/>
		<path d="M565.2,471.6c-2.7,0-4-0.5-4.3-1.9c-0.1-0.4-0.1-0.6-0.1-0.9h1.7c0,0.1,0,0.3,0.1,0.6c0.2,0.6,1,0.8,2.7,0.8
			c1.7,0,2.3-0.4,2.3-1.2c0-0.8-0.6-1-2.1-1.2c-0.2,0-1.5-0.2-1.8-0.3c-2-0.3-2.8-1-2.8-2.5c0-1.4,1.2-2.5,4-2.5
			c2.3,0,3.6,0.6,4,1.8c0.1,0.4,0.1,0.9,0.1,1.1h-1.7c0-0.1,0-0.5-0.1-0.6c-0.2-0.4-0.8-0.7-2.4-0.7c-1.7,0-2.2,0.4-2.2,1
			c0,0.6,0.4,0.8,1.8,1.1c0.2,0,1.7,0.2,1.9,0.3c2.1,0.3,3,1,3,2.6C569.3,470.7,568.1,471.6,565.2,471.6z"/>
		<path d="M575.2,471.6c-2.7,0-4-0.5-4.3-1.9c-0.1-0.4-0.1-0.6-0.1-0.9h1.7c0,0.1,0,0.3,0.1,0.6c0.2,0.6,1,0.8,2.7,0.8
			c1.7,0,2.3-0.4,2.3-1.2c0-0.8-0.6-1-2.1-1.2c-0.2,0-1.5-0.2-1.8-0.3c-2-0.3-2.8-1-2.8-2.5c0-1.4,1.2-2.5,4-2.5
			c2.3,0,3.6,0.6,4,1.8c0.1,0.4,0.1,0.9,0.1,1.1h-1.7c0-0.1,0-0.5-0.1-0.6c-0.2-0.4-0.8-0.7-2.4-0.7c-1.7,0-2.2,0.4-2.2,1
			c0,0.6,0.4,0.8,1.8,1.1c0.2,0,1.7,0.2,1.9,0.3c2.1,0.3,3,1,3,2.6C579.2,470.7,578.1,471.6,575.2,471.6z"/>
		<path d="M592.4,471.5c-0.1,0-0.2-0.5-0.2-1.1c-0.5,0.7-1.5,1.2-3.5,1.2c-2.1,0-3.4-0.8-3.4-2.3c0-0.1,0-0.3,0-0.5
			c0-1.4,1.2-2.7,4.4-2.7c0.8,0,1.6,0,2.5,0.1c0-0.2,0-0.7,0-1c-0.1-0.8-0.8-1.3-2.3-1.3c-1,0-1.6,0.2-2,0.5
			c-0.4,0.3-0.5,0.7-0.5,1.2h-1.6c0-0.6,0.3-1.4,0.6-1.8c0.7-0.9,1.8-1.3,3.5-1.3c2.6,0,3.8,1,3.9,2.4c0,0.4,0.1,1.7,0,2.4
			c0,0.6,0,1.8,0,2.4c0,0.7,0.1,1.6,0.2,1.8H592.4z M590.2,467.4c-1.1,0-2,0.1-2.6,0.5c-0.4,0.2-0.6,0.6-0.6,1
			c0,0.4,0.1,0.6,0.3,0.8c0.3,0.3,1,0.5,1.9,0.5c0.8,0,1.4-0.1,2.1-0.5c0.4-0.2,0.8-0.7,0.9-1.4c0-0.4,0.1-0.7,0.1-0.9
			C591.5,467.4,590.9,467.4,590.2,467.4z"/>
		<path d="M607,464.5c-0.5-0.2-1.2-0.3-2-0.3c-1.5,0-2.6,1-2.6,2.7v4.6h-1.7v-8.8h1.7v1.5c0.2-1,1.6-1.7,3-1.7
			c0.8,0,1.3,0.1,1.6,0.2V464.5z"/>
		<path d="M615.4,470.8c-0.7,0.5-1.7,0.8-3.1,0.8c-1.6,0-2.9-0.5-3.8-1.6c-0.6-0.8-0.9-1.7-0.9-3c0-1.2,0.3-2.2,0.9-2.9
			c0.8-1,2-1.6,3.7-1.6c1.8,0,3,0.6,3.7,1.6c0.7,0.8,0.9,2.3,0.8,3.6h-7.5c0,0.7,0.3,1.2,0.8,1.7c0.5,0.5,1.3,0.8,2.2,0.8
			c0.9,0,1.6-0.2,2-0.5c0.5-0.3,0.7-0.8,0.7-1h1.7C616.7,469.3,616.2,470.2,615.4,470.8z M614.4,464.7c-0.5-0.5-1.2-0.8-2.2-0.8
			c-1,0-1.7,0.3-2.2,0.8c-0.4,0.4-0.7,1-0.7,1.6h5.7C615,465.7,614.8,465.2,614.4,464.7z"/>
		<path d="M622.4,471.6c-2.7,0-4-0.5-4.3-1.9c-0.1-0.4-0.1-0.6-0.1-0.9h1.7c0,0.1,0,0.3,0.1,0.6c0.2,0.6,1,0.8,2.7,0.8
			c1.7,0,2.3-0.4,2.3-1.2c0-0.8-0.6-1-2.1-1.2c-0.2,0-1.5-0.2-1.8-0.3c-2-0.3-2.8-1-2.8-2.5c0-1.4,1.2-2.5,4-2.5
			c2.3,0,3.6,0.6,4,1.8c0.1,0.4,0.1,0.9,0.1,1.1h-1.7c0-0.1,0-0.5-0.1-0.6c-0.2-0.4-0.8-0.7-2.4-0.7c-1.7,0-2.2,0.4-2.2,1
			c0,0.6,0.4,0.8,1.8,1.1c0.2,0,1.7,0.2,1.9,0.3c2.1,0.3,3,1,3,2.6C626.5,470.7,625.3,471.6,622.4,471.6z"/>
		<path d="M630.5,464.2c0,0.9,0,3.8,0,4.6c0,1,0.4,1.3,1.4,1.3c0.4,0,1,0,1.2-0.1v1.5c-0.4,0.1-1.1,0.2-1.9,0.2
			c-1.4,0-2.5-0.5-2.5-2.3c0-1,0-4,0-5.2h-1.5v-1.5h1.5c0.1-0.1,0.1-1.9,0.1-1.9l1.7,0c0,0,0,1.7,0,1.9h2.7v1.5H630.5z"/>
		<path d="M642.5,470.3c-0.8,0.8-2,1.3-3.5,1.3c-1.6,0-2.8-0.4-3.6-1.3c-0.7-0.8-1.2-1.8-1.2-3.3c0-1.3,0.4-2.4,1.2-3.2
			c0.8-0.8,1.9-1.3,3.6-1.3c1.6,0,2.8,0.5,3.6,1.3c0.8,0.8,1.2,2,1.2,3.3C643.7,468.5,643.2,469.5,642.5,470.3z M641.3,464.8
			c-0.5-0.5-1.2-0.8-2.4-0.8c-1.1,0-1.8,0.4-2.3,0.9c-0.5,0.6-0.7,1.3-0.7,2.2c0,1,0.2,1.8,0.6,2.2c0.5,0.6,1.3,0.9,2.4,0.9
			c1,0,1.8-0.3,2.3-0.9c0.4-0.5,0.7-1.2,0.7-2.2C642,466.2,641.8,465.3,641.3,464.8z"/>
		<path d="M652.3,466c0-0.3-0.1-0.9-0.4-1.2c-0.4-0.5-1.2-0.8-2.3-0.8c-1,0-1.7,0.3-2.2,0.8c-0.5,0.5-0.7,1.3-0.7,2.3
			c0,1.1,0.2,1.9,0.8,2.4c0.5,0.5,1.2,0.7,2.2,0.7c1.1,0,1.8-0.3,2.2-0.7c0.3-0.3,0.5-0.8,0.5-1.1h1.7c0,0.8-0.3,1.6-1,2.2
			c-0.7,0.6-1.8,1.1-3.4,1.1c-1.5,0-2.6-0.4-3.4-1.1c-0.8-0.8-1.3-1.9-1.3-3.5c0-1.5,0.4-2.6,1.2-3.3c0.8-0.8,2-1.3,3.6-1.3
			c2,0,3.1,0.7,3.8,1.8c0.4,0.6,0.4,1.3,0.4,1.7H652.3z"/>
		<path d="M662.3,471.5l-2.8-4.6l-1.9,1.8v2.9h-1.7v-12.8h1.7v8l4.3-4h2.1l-3.2,3l3.6,5.8H662.3z"/>
		<path d="M666,471.5v-2.6h2.2v2.6H666z"/>
	</g>
	<g class="st2">
		<path d="M480.5,342l-0.1-1.4c-1.2,0.8-3.2,1.6-6.2,1.6c-3,0-5.8-0.8-7.3-2.5c-0.9-1-1.4-2.3-1.4-3.9c0-1.4,0.5-2.7,1.4-3.7
			c1.6-1.7,4.4-2.8,8.3-2.8c4.6,0,7.5,1.4,8.6,3.6c0.2,0.4,0.3,0.8,0.4,1.1h-4.5c0-0.2-0.4-0.4-0.7-0.6c-0.5-0.4-1.8-0.8-3.9-0.8
			s-3.5,0.4-4.3,1.2c-0.4,0.5-0.7,1.1-0.7,1.8c0,0.7,0.2,1.3,0.7,1.8c0.8,0.8,2.2,1.2,4.3,1.2c1.9,0,3.4-0.3,4.2-0.8
			c0.3-0.1,0.6-0.4,0.8-0.7h-5.7v-2.7h10v7.4H480.5z"/>
		<path d="M497.2,342.2c-5.2,0-8.8-1.9-8.8-6.2c0-0.8,0-6.5,0-6.5h4.7c0,0,0,6.4,0,6.6c0,1.6,1.5,2.6,4.3,2.6c2.7,0,4.3-1,4.3-2.6
			c0-0.2,0-6.6,0-6.6h4.7c0,0,0,6.4,0,7C506.4,340.3,502.9,342.2,497.2,342.2z"/>
		<path d="M513.5,342h-5l8.5-12.5h5.4l8,12.5h-5.2l-1.3-2h-9.1L513.5,342z M520.1,334l-0.6-1.1l-0.7,1.1l-2,3.1h5.4
			C522.1,337.1,520.1,334,520.1,334z"/>
		<path d="M549.7,337.2c-1,1.1-2.6,1.6-4.8,1.6c-0.7,0-7.1,0-7.1,0v3.1h-4.7v-12.5h11.7c1.9,0,3.4,0.4,4.4,1.1
			c0.9,0.7,1.5,1.9,1.5,3.6C550.7,335.5,550.3,336.5,549.7,337.2z M545.7,333.2c-0.3-0.4-1-0.6-2-0.6h-5.9v3.3h5.9
			c1.1,0,1.7-0.2,2-0.6c0.2-0.2,0.2-0.6,0.2-1C546,333.8,545.9,333.5,545.7,333.2z"/>
		<path d="M571,337.7v3.8h-3.8v-3.8h-4.8v-3.3h4.8v-3.8h3.8v3.8h4.7v3.3H571z"/>
		<path d="M587.5,342v-3.4l9.7-5.6H588v-3.5h16.9v3.4l-10.2,5.7h10.5v3.5H587.5z"/>
		<path d="M608.5,342v-12.5h15.4v3.3h-10.8v1.4h10.5v3.1h-10.5v1.4h11v3.3H608.5z"/>
		<path d="M644.5,337.2c-1,1.1-2.6,1.6-4.8,1.6c-0.7,0-7.1,0-7.1,0v3.1h-4.7v-12.5h11.7c1.9,0,3.4,0.4,4.4,1.1
			c0.9,0.7,1.5,1.9,1.5,3.6C645.5,335.5,645.1,336.5,644.5,337.2z M640.5,333.2c-0.3-0.4-1-0.6-2-0.6h-5.9v3.3h5.9
			c1.1,0,1.7-0.2,2-0.6c0.2-0.2,0.2-0.6,0.2-1C640.8,333.8,640.7,333.5,640.5,333.2z"/>
		<path d="M662,342v-4.5h-8.4v4.5h-4.7v-12.5h4.7v4.5h8.4v-4.5h4.7V342H662z"/>
		<path d="M682.6,337.9v4.1h-4.7v-4.1l-8.3-8.4h5.6l5.2,5.1l5.2-5.1h5.4L682.6,337.9z"/>
		<path d="M710.7,335.5c-0.5,0.6-1.3,1.2-2.4,1.3l4.6,5.2h-5.2l-4-4.6h-5.2v4.6h-4.7v-12.5h12c2.3,0,3.8,0.5,4.6,1.2
			c0.6,0.6,1,1.3,1,2.4C711.4,334.1,711.2,335,710.7,335.5z M706.8,333.1c-0.3-0.4-0.8-0.5-1.6-0.5h-6.6v2h6.7
			c0.9,0,1.3-0.1,1.5-0.5c0.1-0.2,0.1-0.4,0.1-0.5C706.9,333.4,706.9,333.3,706.8,333.1z"/>
	</g>
	<path id="Path_142" class="st1" d="M570.5,393h37.7"/>
	<g id="Group_374" transform="translate(101.976 -296.907)">
		<g id="Group_364" transform="translate(444.138 462.569)">
			<line id="Line_39" class="st3" x1="5.5" y1="8.1" x2="41.1" y2="8.1"/>
			<line id="Line_40" class="st3" x1="17" y1="22" x2="35.6" y2="22"/>
			<line id="Line_41" class="st3" x1="0" y1="22" x2="10.1" y2="22"/>
			<line id="Line_42" class="st3" x1="5.5" y1="36" x2="41.1" y2="36"/>
			<g id="Group_363" transform="translate(41.702)">
				<circle id="Ellipse_40" class="st3" cx="22" cy="22" r="22"/>
				<ellipse id="Ellipse_41" class="st3" cx="22" cy="22" rx="10.6" ry="22"/>
				<line id="Line_43" class="st3" x1="2.9" y1="11" x2="41.5" y2="11"/>
				<line id="Line_44" class="st3" x1="0" y1="22" x2="44.1" y2="22"/>
				<line id="Line_45" class="st3" x1="2.9" y1="33.1" x2="41.1" y2="33.1"/>
				<line id="Line_46" class="st3" x1="22" y1="0" x2="22" y2="44.1"/>
			</g>
		</g>
		<rect id="Rectangle_84" x="413" y="440.4" class="st3" width="148" height="105.1"/>
		<line id="Line_47" class="st3" x1="413" y1="529.1" x2="561" y2="529.1"/>
		<g id="Group_365" transform="translate(469.352 545.526)">
			<line id="Line_48" class="st3" x1="4" y1="0" x2="0" y2="21.2"/>
			<line id="Line_49" class="st3" x1="31.4" y1="0" x2="35.3" y2="21.2"/>
		</g>
		<line id="Line_50" class="st3" x1="447.3" y1="566.7" x2="526.8" y2="566.7"/>
	</g>
</g>
</svg>
