<?xml version="1.0" encoding="utf-8"?>
<!-- Generator: Adobe Illustrator 23.1.0, SVG Export Plug-In . SVG Version: 6.00 Build 0)  -->
<svg version="1.1" id="Layer_1" xmlns="http://www.w3.org/2000/svg" xmlns:xlink="http://www.w3.org/1999/xlink" x="0px" y="0px"
	 viewBox="0 0 139 59.1" style="enable-background:new 0 0 139 59.1;" xml:space="preserve">
<style type="text/css">
	.st0{fill:#FFFFFF;}
</style>
<path class="st0" d="M0,29.6v29.6h139V0H0V29.6z M18.1,17.7c0,4.4,0,8,0.1,8c0.1,0,2.8-3.6,6.1-8l6-8h4.8c2.6,0,4.8,0,4.8,0.1
	c0,0-2.5,3.4-5.6,7.5l-5.6,7.4l0.2,0.5c0.1,0.3,3.1,5.8,6.5,12.3s6.2,11.8,6.2,11.8s-2.1,0.1-4.7,0l-4.6,0l-4.6-8.9
	c-2.6-4.9-4.7-8.9-4.7-8.9s-1.2,1.3-2.4,3l-2.3,2.9l0,6v6H9.7V9.7h8.3V17.7z M57,29.6v19.8h-8.3V9.7H57V29.6z M92,13.3v3.6H81.8
	v32.6h-8.3V16.8h-10V9.7H92V13.3z M107.1,17.4V25h13.7V9.7h8.3v39.7h-8.5V32.7h-13.6v16.7h-8.3V9.7h8.3V17.4z"/>
</svg>
