<?xml version="1.0" encoding="utf-8"?>
<!-- Generator: Adobe Illustrator 23.1.0, SVG Export Plug-In . SVG Version: 6.00 Build 0)  -->
<svg version="1.1" id="Layer_1" xmlns="http://www.w3.org/2000/svg" xmlns:xlink="http://www.w3.org/1999/xlink" x="0px" y="0px"
	 viewBox="0 0 336 447" style="enable-background:new 0 0 336 447;" xml:space="preserve">
<style type="text/css">
	.st0{fill:none;}
	.st1{fill:none;stroke:#93F5CC;stroke-width:2;}
	.st2{enable-background:new    ;}
	.st3{fill:none;stroke:#000000;stroke-width:2;stroke-miterlimit:10;}
</style>
<g id="Group_415" transform="translate(-891 -1151)">
	<g id="Rectangle_77" transform="translate(891 1151)">
		<rect class="st0" width="336" height="447"/>
		<rect x="1" y="1" class="st1" width="334" height="445"/>
	</g>
	<g class="st2">
		<path d="M952.2,1463.7c-0.6,0.8-1.6,1.2-3.2,1.2c-0.3,0-4.1,0-4.1,0v4.6h-1.9v-12.6h6.1c1.6,0,2.5,0.4,3,1.2
			c0.4,0.7,0.7,1.5,0.7,2.8C952.8,1462.2,952.6,1463.1,952.2,1463.7z M950.6,1459.4c-0.4-0.6-0.8-0.8-1.9-0.8h-3.8v4.7
			c0,0,3.4,0,3.7,0c1.2,0,1.7-0.3,2-0.8c0.2-0.3,0.3-0.8,0.3-1.5C950.9,1460.2,950.8,1459.6,950.6,1459.4z"/>
		<path d="M961,1462.5c-0.5-0.2-1.2-0.3-2-0.3c-1.5,0-2.6,1-2.6,2.7v4.6h-1.7v-8.8h1.7v1.5c0.2-1,1.6-1.7,3-1.7
			c0.8,0,1.3,0.1,1.6,0.2V1462.5z"/>
		<path d="M962.4,1459.6v-2h1.8v2H962.4z M962.6,1469.5c-0.1,0-0.1-0.2-0.1-0.8c0-1.7,0-8,0-8h1.7c0,0,0,6.6,0,8
			c0,0.6,0,0.8,0.1,0.8H962.6z"/>
		<path d="M974.3,1468.3c-0.8,0.8-2,1.3-3.5,1.3c-1.6,0-2.8-0.4-3.6-1.3c-0.7-0.8-1.2-1.8-1.2-3.3c0-1.3,0.4-2.4,1.2-3.2
			c0.8-0.8,1.9-1.3,3.6-1.3c1.6,0,2.8,0.5,3.6,1.3c0.8,0.8,1.2,2,1.2,3.3C975.5,1466.5,975,1467.5,974.3,1468.3z M973.2,1462.8
			c-0.5-0.5-1.2-0.8-2.4-0.8c-1.1,0-1.8,0.4-2.3,0.9c-0.5,0.6-0.7,1.3-0.7,2.2c0,1,0.2,1.8,0.6,2.2c0.5,0.6,1.3,0.9,2.4,0.9
			c1,0,1.8-0.3,2.3-0.9c0.4-0.5,0.7-1.2,0.7-2.2C973.8,1464.2,973.7,1463.3,973.2,1462.8z"/>
		<path d="M983.7,1462.5c-0.5-0.2-1.2-0.3-2-0.3c-1.5,0-2.6,1-2.6,2.7v4.6h-1.7v-8.8h1.7v1.5c0.2-1,1.6-1.7,3-1.7
			c0.8,0,1.3,0.1,1.6,0.2V1462.5z"/>
		<path d="M991.8,1462.2c0,0.9,0,3.8,0,4.6c0,1,0.4,1.3,1.4,1.3c0.4,0,1,0,1.2-0.1v1.5c-0.4,0.1-1.1,0.2-1.9,0.2
			c-1.4,0-2.5-0.5-2.5-2.3c0-1,0-4,0-5.2h-1.5v-1.5h1.5c0.1-0.1,0.1-1.9,0.1-1.9l1.7,0c0,0,0,1.7,0,1.9h2.7v1.5H991.8z"/>
		<path d="M1003.7,1468.3c-0.8,0.8-2,1.3-3.5,1.3c-1.6,0-2.8-0.4-3.6-1.3c-0.7-0.8-1.2-1.8-1.2-3.3c0-1.3,0.4-2.4,1.2-3.2
			c0.8-0.8,1.9-1.3,3.6-1.3c1.6,0,2.8,0.5,3.6,1.3c0.8,0.8,1.2,2,1.2,3.3C1004.9,1466.5,1004.5,1467.5,1003.7,1468.3z
			 M1002.6,1462.8c-0.5-0.5-1.2-0.8-2.4-0.8c-1.1,0-1.8,0.4-2.3,0.9c-0.5,0.6-0.7,1.3-0.7,2.2c0,1,0.2,1.8,0.6,2.2
			c0.5,0.6,1.3,0.9,2.4,0.9c1,0,1.8-0.3,2.3-0.9c0.4-0.5,0.7-1.2,0.7-2.2C1003.2,1464.2,1003.1,1463.3,1002.6,1462.8z"/>
		<path d="M1017.7,1462.5c-0.5-0.2-1.2-0.3-2-0.3c-1.5,0-2.6,1-2.6,2.7v4.6h-1.7v-8.8h1.7v1.5c0.2-1,1.6-1.7,3-1.7
			c0.8,0,1.3,0.1,1.6,0.2V1462.5z"/>
		<path d="M1026,1468.8c-0.7,0.5-1.7,0.8-3.1,0.8c-1.6,0-2.9-0.5-3.8-1.6c-0.6-0.8-0.9-1.7-0.9-3c0-1.2,0.3-2.2,0.9-2.9
			c0.8-1,2-1.6,3.7-1.6c1.8,0,3,0.6,3.7,1.6c0.7,0.8,0.9,2.3,0.8,3.6h-7.5c0,0.7,0.3,1.2,0.8,1.7c0.5,0.5,1.3,0.8,2.2,0.8
			c0.9,0,1.6-0.2,2-0.5c0.5-0.3,0.7-0.8,0.7-1h1.7C1027.3,1467.3,1026.9,1468.2,1026,1468.8z M1025.1,1462.7
			c-0.5-0.5-1.2-0.8-2.2-0.8c-1,0-1.7,0.3-2.2,0.8c-0.4,0.4-0.7,1-0.7,1.6h5.7C1025.7,1463.7,1025.5,1463.2,1025.1,1462.7z"/>
		<path d="M1029.1,1469.5c0,0,0-0.1,0-0.6c0-1.2,0-9.7,0-11.2c0-0.4,0-0.8,0-0.9h1.7c0,0.1,0,0.4,0,0.8c0,1.3,0,9.2,0,11.2
			c0,0.4,0,0.7,0,0.8H1029.1z"/>
		<path d="M1040.4,1468.8c-0.7,0.5-1.7,0.8-3.1,0.8c-1.6,0-2.9-0.5-3.8-1.6c-0.6-0.8-0.9-1.7-0.9-3c0-1.2,0.3-2.2,0.9-2.9
			c0.8-1,2-1.6,3.7-1.6c1.8,0,3,0.6,3.7,1.6c0.7,0.8,0.9,2.3,0.8,3.6h-7.5c0,0.7,0.3,1.2,0.8,1.7c0.5,0.5,1.3,0.8,2.2,0.8
			c0.9,0,1.6-0.2,2-0.5c0.5-0.3,0.7-0.8,0.7-1h1.7C1041.7,1467.3,1041.2,1468.2,1040.4,1468.8z M1039.5,1462.7
			c-0.5-0.5-1.2-0.8-2.2-0.8c-1,0-1.7,0.3-2.2,0.8c-0.4,0.4-0.7,1-0.7,1.6h5.7C1040,1463.7,1039.9,1463.2,1039.5,1462.7z"/>
		<path d="M1050.1,1469.5c-0.1,0-0.2-0.5-0.2-1.1c-0.5,0.7-1.5,1.2-3.5,1.2c-2.1,0-3.4-0.8-3.4-2.3c0-0.1,0-0.3,0-0.5
			c0-1.4,1.2-2.7,4.4-2.7c0.8,0,1.6,0,2.5,0.1c0-0.2,0-0.7,0-1c-0.1-0.8-0.8-1.3-2.3-1.3c-1,0-1.6,0.2-2,0.5
			c-0.4,0.3-0.5,0.7-0.5,1.2h-1.6c0-0.6,0.3-1.4,0.6-1.8c0.7-0.9,1.8-1.3,3.5-1.3c2.6,0,3.8,1,3.9,2.4c0,0.4,0.1,1.7,0,2.4
			c0,0.6,0,1.8,0,2.4c0,0.7,0.1,1.6,0.2,1.8H1050.1z M1048,1465.4c-1.1,0-2,0.1-2.6,0.5c-0.4,0.2-0.6,0.6-0.6,1
			c0,0.4,0.1,0.6,0.3,0.8c0.3,0.3,1,0.5,1.9,0.5c0.8,0,1.4-0.1,2.1-0.5c0.4-0.2,0.8-0.7,0.9-1.4c0-0.4,0.1-0.7,0.1-0.9
			C1049.3,1465.4,1048.6,1465.4,1048,1465.4z"/>
		<path d="M1057.8,1469.6c-2.7,0-4-0.5-4.3-1.9c-0.1-0.4-0.1-0.6-0.1-0.9h1.7c0,0.1,0,0.3,0.1,0.6c0.2,0.6,1,0.8,2.7,0.8
			c1.7,0,2.3-0.4,2.3-1.2c0-0.8-0.6-1-2.1-1.2c-0.2,0-1.5-0.2-1.8-0.3c-2-0.3-2.8-1-2.8-2.5c0-1.4,1.2-2.5,4-2.5
			c2.3,0,3.6,0.6,4,1.8c0.1,0.4,0.1,0.9,0.1,1.1h-1.7c0-0.1,0-0.5-0.1-0.6c-0.2-0.4-0.8-0.7-2.4-0.7c-1.7,0-2.2,0.4-2.2,1
			c0,0.6,0.4,0.8,1.8,1.1c0.2,0,1.7,0.2,1.9,0.3c2.1,0.3,3,1,3,2.6C1061.9,1468.7,1060.7,1469.6,1057.8,1469.6z"/>
		<path d="M1071,1468.8c-0.7,0.5-1.7,0.8-3.1,0.8c-1.6,0-2.9-0.5-3.8-1.6c-0.6-0.8-0.9-1.7-0.9-3c0-1.2,0.3-2.2,0.9-2.9
			c0.8-1,2-1.6,3.7-1.6c1.8,0,3,0.6,3.7,1.6c0.7,0.8,0.9,2.3,0.8,3.6h-7.5c0,0.7,0.3,1.2,0.8,1.7c0.5,0.5,1.3,0.8,2.2,0.8
			c0.9,0,1.6-0.2,2-0.5c0.5-0.3,0.7-0.8,0.7-1h1.7C1072.3,1467.3,1071.9,1468.2,1071,1468.8z M1070.1,1462.7
			c-0.5-0.5-1.2-0.8-2.2-0.8c-1,0-1.7,0.3-2.2,0.8c-0.4,0.4-0.7,1-0.7,1.6h5.7C1070.7,1463.7,1070.5,1463.2,1070.1,1462.7z"/>
		<path d="M1078.1,1469.6c-2.7,0-4-0.5-4.3-1.9c-0.1-0.4-0.1-0.6-0.1-0.9h1.7c0,0.1,0,0.3,0.1,0.6c0.2,0.6,1,0.8,2.7,0.8
			c1.7,0,2.3-0.4,2.3-1.2c0-0.8-0.6-1-2.1-1.2c-0.2,0-1.5-0.2-1.8-0.3c-2-0.3-2.8-1-2.8-2.5c0-1.4,1.2-2.5,4-2.5
			c2.3,0,3.6,0.6,4,1.8c0.1,0.4,0.1,0.9,0.1,1.1h-1.7c0-0.1,0-0.5-0.1-0.6c-0.2-0.4-0.8-0.7-2.4-0.7c-1.7,0-2.2,0.4-2.2,1
			c0,0.6,0.4,0.8,1.8,1.1c0.2,0,1.7,0.2,1.9,0.3c2.1,0.3,3,1,3,2.6C1082.2,1468.7,1081,1469.6,1078.1,1469.6z"/>
		<path d="M1085.5,1471.2l-1.2-0.2l0.8-1.5l-0.2,0h-0.4v-2.6h2v2.6L1085.5,1471.2z"/>
		<path d="M1104.9,1469.5h-2c0,0-2.2-6.1-2.2-6.3c0-0.1-0.1-0.7-0.1-0.7s-0.1,0.6-0.1,0.7c0,0.2-2.2,6.3-2.2,6.3h-2.1l-3.3-8.8h1.8
			l2.5,7.2l2.4-7.2h1.9l2.4,7.2l2.5-7.2h1.7L1104.9,1469.5z"/>
		<path d="M1116.5,1468.8c-0.7,0.5-1.7,0.8-3.1,0.8c-1.6,0-2.9-0.5-3.8-1.6c-0.6-0.8-0.9-1.7-0.9-3c0-1.2,0.3-2.2,0.9-2.9
			c0.8-1,2-1.6,3.7-1.6c1.8,0,3,0.6,3.7,1.6c0.7,0.8,0.9,2.3,0.8,3.6h-7.5c0,0.7,0.3,1.2,0.8,1.7c0.5,0.5,1.3,0.8,2.2,0.8
			c0.9,0,1.6-0.2,2-0.5c0.5-0.3,0.7-0.8,0.7-1h1.7C1117.8,1467.3,1117.3,1468.2,1116.5,1468.8z M1115.5,1462.7
			c-0.5-0.5-1.2-0.8-2.2-0.8c-1,0-1.7,0.3-2.2,0.8c-0.4,0.4-0.7,1-0.7,1.6h5.7C1116.1,1463.7,1116,1463.2,1115.5,1462.7z"/>
		<path d="M1132.4,1469.5h-1.7c-0.1,0,0-0.2,0-5.5c0-1.1-0.6-1.9-2.2-1.9c-1.4,0-2.5,0.8-2.5,2v5.4h-1.7v-12.8h1.7v5.3
			c0.4-0.9,1.5-1.5,3.1-1.5c2.2,0,3.3,1.2,3.3,3.2C1132.3,1469.3,1132.3,1469.5,1132.4,1469.5z"/>
		<path d="M1142.3,1468.3c-0.8,0.8-2,1.3-3.5,1.3c-1.6,0-2.8-0.4-3.6-1.3c-0.7-0.8-1.2-1.8-1.2-3.3c0-1.3,0.4-2.4,1.2-3.2
			c0.8-0.8,1.9-1.3,3.6-1.3c1.6,0,2.8,0.5,3.6,1.3c0.8,0.8,1.2,2,1.2,3.3C1143.5,1466.5,1143,1467.5,1142.3,1468.3z M1141.1,1462.8
			c-0.5-0.5-1.2-0.8-2.4-0.8c-1.1,0-1.8,0.4-2.3,0.9c-0.5,0.6-0.7,1.3-0.7,2.2c0,1,0.2,1.8,0.6,2.2c0.5,0.6,1.3,0.9,2.4,0.9
			c1,0,1.8-0.3,2.3-0.9c0.4-0.5,0.7-1.2,0.7-2.2C1141.8,1464.2,1141.6,1463.3,1141.1,1462.8z"/>
		<path d="M1149.3,1469.6c-2.7,0-4-0.5-4.3-1.9c-0.1-0.4-0.1-0.6-0.1-0.9h1.7c0,0.1,0,0.3,0.1,0.6c0.2,0.6,1,0.8,2.7,0.8
			c1.7,0,2.3-0.4,2.3-1.2c0-0.8-0.6-1-2.1-1.2c-0.2,0-1.5-0.2-1.8-0.3c-2-0.3-2.8-1-2.8-2.5c0-1.4,1.2-2.5,4-2.5
			c2.3,0,3.6,0.6,4,1.8c0.1,0.4,0.1,0.9,0.1,1.1h-1.7c0-0.1,0-0.5-0.1-0.6c-0.2-0.4-0.8-0.7-2.4-0.7c-1.7,0-2.2,0.4-2.2,1
			c0,0.6,0.4,0.8,1.8,1.1c0.2,0,1.7,0.2,1.9,0.3c2.1,0.3,3,1,3,2.6C1153.3,1468.7,1152.2,1469.6,1149.3,1469.6z"/>
		<path d="M1157.4,1462.2c0,0.9,0,3.8,0,4.6c0,1,0.4,1.3,1.4,1.3c0.4,0,1,0,1.2-0.1v1.5c-0.4,0.1-1.1,0.2-1.9,0.2
			c-1.4,0-2.5-0.5-2.5-2.3c0-1,0-4,0-5.2h-1.5v-1.5h1.5c0.1-0.1,0.1-1.9,0.1-1.9l1.7,0c0,0,0,1.7,0,1.9h2.7v1.5H1157.4z"/>
		<path d="M1172.9,1469.5c-0.1,0-0.2-0.5-0.2-1.1c-0.5,0.7-1.5,1.2-3.5,1.2c-2.1,0-3.4-0.8-3.4-2.3c0-0.1,0-0.3,0-0.5
			c0-1.4,1.2-2.7,4.4-2.7c0.8,0,1.6,0,2.5,0.1c0-0.2,0-0.7,0-1c-0.1-0.8-0.8-1.3-2.3-1.3c-1,0-1.6,0.2-2,0.5
			c-0.4,0.3-0.5,0.7-0.5,1.2h-1.6c0-0.6,0.3-1.4,0.6-1.8c0.7-0.9,1.8-1.3,3.5-1.3c2.6,0,3.8,1,3.9,2.4c0,0.4,0.1,1.7,0,2.4
			c0,0.6,0,1.8,0,2.4c0,0.7,0.1,1.6,0.2,1.8H1172.9z M1170.7,1465.4c-1.1,0-2,0.1-2.6,0.5c-0.4,0.2-0.6,0.6-0.6,1
			c0,0.4,0.1,0.6,0.3,0.8c0.3,0.3,1,0.5,1.9,0.5c0.8,0,1.4-0.1,2.1-0.5c0.4-0.2,0.8-0.7,0.9-1.4c0-0.4,0.1-0.7,0.1-0.9
			C1172,1465.4,1171.4,1465.4,1170.7,1465.4z"/>
	</g>
	<g class="st2">
		<path d="M941.6,1488.8c0.4,0.2,0.8,0.4,1.2,0.5l-1,1.4c-0.4-0.1-1.2-0.4-1.9-0.9c-0.6-0.4-1.2-0.9-1.5-1.2c-0.2,0-0.5,0-0.7,0
			c-1.2-0.1-2.5-0.6-3.3-1.7c-0.9-1.1-1.3-2.5-1.3-4.8c0-2,0.3-3.4,1.3-4.6c0.8-1.1,2.2-1.8,4.4-1.8c2.1,0,3.5,0.6,4.4,1.7
			c0.9,1.2,1.2,2.6,1.2,4.7c0,2.1-0.5,4-1.3,4.8c-0.7,0.7-1.6,1.2-2.3,1.3C940.9,1488.5,941.3,1488.6,941.6,1488.8z M941.4,1486.1
			c0.8-0.8,1.1-2.3,1.1-3.9c0-1.5-0.2-2.9-1-3.8c-0.6-0.6-1.4-1.1-2.8-1.1c-1.3,0-2,0.4-2.7,1c-0.8,0.7-1.1,2.2-1.1,3.9
			c0,1.7,0.4,3.2,1.1,3.9c0.6,0.6,1.4,0.9,2.6,0.9C940.1,1487,940.9,1486.7,941.4,1486.1z"/>
		<path d="M954.6,1485.5c0.7-0.7,1.1-1.6,1.2-2.8h1.7c0,1.6-0.6,2.9-1.6,3.9c0.8,0.6,1.6,1.2,2.5,1.9h-2.7c-0.4-0.3-0.8-0.6-1.2-0.9
			c-1.2,0.7-2.6,1-3.9,1c-3,0-4.9-0.7-5-2.9c0-0.2,0-0.4,0-0.5c0-1.3,1.3-2.4,3-3c-1-1.3-1.3-2.2-1.3-3.2c0-0.1,0-0.4,0-0.5
			c0-1.5,1.4-2.8,3.6-2.8c2,0,3.2,1.4,3.3,2.8c0,0.1,0,0.4,0,0.5c0,1.6-1.2,2.8-2.9,3.7C951.9,1483.5,953,1484.4,954.6,1485.5z
			 M947.3,1485.5c0,1.2,1.2,1.6,3.1,1.6c0.9,0,1.8-0.2,2.6-0.6c-1.6-1.2-2.7-2.2-3.6-3.1C948.2,1484,947.3,1484.7,947.3,1485.5z
			 M952.2,1479.1c0-0.1,0-0.3,0-0.3c0-0.8-0.5-1.5-1.6-1.5c-1.2,0-1.7,0.7-1.8,1.5c0,0.1,0,0.2,0,0.3c0,0.7,0.4,1.5,1.2,2.4
			C951.4,1480.8,952.2,1480.1,952.2,1479.1z"/>
		<path d="M961.1,1488.5h-1.9l4.8-12.6h2.3l4.6,12.6H969l-1.2-3.2h-5.6L961.1,1488.5z M965.5,1478.7l-0.3-1.1l-0.4,1.1l-1.9,5h4.4
			L965.5,1478.7z"/>
		<path d="M987.9,1488.5h-2c0,0-2.2-6.1-2.2-6.3c0-0.1-0.1-0.7-0.1-0.7s-0.1,0.6-0.1,0.7c0,0.2-2.2,6.3-2.2,6.3h-2.1l-3.2-8.8h1.8
			l2.5,7.2l2.4-7.2h1.9l2.4,7.2l2.5-7.2h1.7L987.9,1488.5z"/>
		<path d="M1000.7,1488.5h-1.7c-0.1,0,0-0.2,0-5.5c0-1.1-0.6-1.9-2.2-1.9c-1.4,0-2.5,0.8-2.5,2v5.4h-1.7v-12.8h1.7v5.3
			c0.4-0.9,1.5-1.5,3.1-1.5c2.2,0,3.3,1.2,3.3,3.2C1000.6,1488.3,1000.6,1488.5,1000.7,1488.5z"/>
		<path d="M1010.1,1487.8c-0.7,0.5-1.7,0.8-3.1,0.8c-1.6,0-2.9-0.5-3.8-1.6c-0.6-0.8-0.9-1.7-0.9-3c0-1.2,0.3-2.2,0.9-2.9
			c0.8-1,2-1.6,3.7-1.6c1.8,0,3,0.6,3.7,1.6c0.7,0.8,0.9,2.3,0.8,3.6h-7.5c0,0.7,0.3,1.2,0.8,1.7c0.5,0.5,1.3,0.8,2.2,0.8
			c0.9,0,1.6-0.2,2-0.5c0.5-0.3,0.7-0.8,0.7-1h1.7C1011.4,1486.3,1010.9,1487.2,1010.1,1487.8z M1009.2,1481.7
			c-0.5-0.5-1.2-0.8-2.2-0.8c-1,0-1.7,0.3-2.2,0.8c-0.4,0.4-0.7,1-0.7,1.6h5.7C1009.8,1482.7,1009.6,1482.2,1009.2,1481.7z"/>
		<path d="M1019.5,1481.5c-0.5-0.2-1.2-0.3-2-0.3c-1.5,0-2.6,1-2.6,2.7v4.6h-1.7v-8.8h1.7v1.5c0.2-1,1.6-1.7,3-1.7
			c0.8,0,1.3,0.1,1.6,0.2V1481.5z"/>
		<path d="M1027.9,1487.8c-0.7,0.5-1.7,0.8-3.1,0.8c-1.6,0-2.9-0.5-3.8-1.6c-0.6-0.8-0.9-1.7-0.9-3c0-1.2,0.3-2.2,0.9-2.9
			c0.8-1,2-1.6,3.7-1.6c1.8,0,3,0.6,3.7,1.6c0.7,0.8,0.9,2.3,0.8,3.6h-7.5c0,0.7,0.3,1.2,0.8,1.7c0.5,0.5,1.3,0.8,2.2,0.8
			c0.9,0,1.6-0.2,2-0.5c0.5-0.3,0.7-0.8,0.7-1h1.7C1029.2,1486.3,1028.7,1487.2,1027.9,1487.8z M1026.9,1481.7
			c-0.5-0.5-1.2-0.8-2.2-0.8c-1,0-1.7,0.3-2.2,0.8c-0.4,0.4-0.7,1-0.7,1.6h5.7C1027.5,1482.7,1027.3,1482.2,1026.9,1481.7z"/>
		<path d="M1043.3,1487.3c-0.8,0.8-2,1.3-3.5,1.3c-1.6,0-2.8-0.4-3.6-1.3c-0.7-0.8-1.2-1.8-1.2-3.3c0-1.3,0.4-2.4,1.2-3.2
			c0.8-0.8,1.9-1.3,3.6-1.3c1.6,0,2.8,0.5,3.6,1.3c0.8,0.8,1.2,2,1.2,3.3C1044.5,1485.5,1044,1486.5,1043.3,1487.3z M1042.1,1481.8
			c-0.5-0.5-1.2-0.8-2.4-0.8c-1.1,0-1.8,0.4-2.3,0.9c-0.5,0.6-0.7,1.3-0.7,2.2c0,1,0.2,1.8,0.6,2.2c0.5,0.6,1.3,0.9,2.4,0.9
			c1,0,1.8-0.3,2.3-0.9c0.4-0.5,0.7-1.2,0.7-2.2C1042.8,1483.2,1042.6,1482.3,1042.1,1481.8z"/>
		<path d="M1054.4,1488.5h-1.7l0-1.1c-0.6,1-1.9,1.3-3.1,1.3c-2,0-3.4-1.1-3.4-3c0-5.5,0-6,0-6h1.7c0,0,0,0.1,0,5.5
			c0,1.4,0.9,2,2.4,2c1.4,0,2.3-0.7,2.3-1.9v-5.6h1.7v7.3C1054.4,1488.3,1054.4,1488.5,1054.4,1488.5z"/>
		<path d="M1063,1481.5c-0.5-0.2-1.2-0.3-2-0.3c-1.5,0-2.6,1-2.6,2.7v4.6h-1.7v-8.8h1.7v1.5c0.2-1,1.6-1.7,3-1.7
			c0.8,0,1.3,0.1,1.6,0.2V1481.5z"/>
		<path d="M1073,1488.6c-2.7,0-4-0.5-4.3-1.9c-0.1-0.4-0.1-0.6-0.1-0.9h1.7c0,0.1,0,0.3,0.1,0.6c0.2,0.6,1,0.8,2.7,0.8
			c1.7,0,2.3-0.4,2.3-1.2c0-0.8-0.6-1-2.1-1.2c-0.2,0-1.5-0.2-1.8-0.3c-2-0.3-2.8-1-2.8-2.5c0-1.4,1.2-2.5,4-2.5
			c2.3,0,3.6,0.6,4,1.8c0.1,0.4,0.1,0.9,0.1,1.1h-1.7c0-0.1,0-0.5-0.1-0.6c-0.2-0.4-0.8-0.7-2.4-0.7c-1.7,0-2.2,0.4-2.2,1
			c0,0.6,0.4,0.8,1.8,1.1c0.2,0,1.7,0.2,1.9,0.3c2.1,0.3,3,1,3,2.6C1077,1487.7,1075.9,1488.6,1073,1488.6z"/>
		<path d="M1081.1,1481.2c0,0.9,0,3.8,0,4.6c0,1,0.4,1.3,1.4,1.3c0.4,0,1,0,1.2-0.1v1.5c-0.4,0.1-1.1,0.2-1.9,0.2
			c-1.4,0-2.5-0.5-2.5-2.3c0-1,0-4,0-5.2h-1.5v-1.5h1.5c0.1-0.1,0.1-1.9,0.1-1.9l1.7,0c0,0,0,1.7,0,1.9h2.7v1.5H1081.1z"/>
		<path d="M1091.9,1488.5c-0.1,0-0.2-0.5-0.2-1.1c-0.5,0.7-1.5,1.2-3.5,1.2c-2.1,0-3.4-0.8-3.4-2.3c0-0.1,0-0.3,0-0.5
			c0-1.4,1.2-2.7,4.4-2.7c0.8,0,1.6,0,2.5,0.1c0-0.2,0-0.7,0-1c-0.1-0.8-0.8-1.3-2.3-1.3c-1,0-1.6,0.2-2,0.5
			c-0.4,0.3-0.5,0.7-0.5,1.2h-1.6c0-0.6,0.3-1.4,0.6-1.8c0.7-0.9,1.8-1.3,3.5-1.3c2.6,0,3.8,1,3.9,2.4c0,0.4,0.1,1.7,0,2.4
			c0,0.6,0,1.8,0,2.4c0,0.7,0.1,1.6,0.2,1.8H1091.9z M1089.8,1484.4c-1.1,0-2,0.1-2.6,0.5c-0.4,0.2-0.6,0.6-0.6,1
			c0,0.4,0.1,0.6,0.3,0.8c0.3,0.3,1,0.5,1.9,0.5c0.8,0,1.4-0.1,2.1-0.5c0.4-0.2,0.8-0.7,0.9-1.4c0-0.4,0.1-0.7,0.1-0.9
			C1091.1,1484.4,1090.4,1484.4,1089.8,1484.4z"/>
		<path d="M1098.1,1488.5h-1.8v-7.3h-1.6v-1.5h1.6v-1.6c0-1.4,0.7-2.4,2.7-2.4c0.6,0,1.6,0.1,1.8,0.1v1.5c-0.2,0-0.9-0.1-1.3-0.1
			c-1.1,0-1.5,0.5-1.5,1.2v1.4h3.8v-1.4c0-1.4,0.7-2.6,2.6-2.6c0.7,0,1.6,0.1,1.8,0.1v1.5c-0.2,0-0.9-0.1-1.3-0.1
			c-1.1,0-1.5,0.5-1.5,1.1v1.4h2.7v1.5h-2.7v7.3h-1.7v-7.3h-3.7V1488.5z"/>
		<path d="M1119,1488.5c-0.1,0-0.2-0.5-0.2-1.1c-0.5,0.7-1.5,1.2-3.5,1.2c-2.1,0-3.4-0.8-3.4-2.3c0-0.1,0-0.3,0-0.5
			c0-1.4,1.2-2.7,4.4-2.7c0.8,0,1.6,0,2.5,0.1c0-0.2,0-0.7,0-1c-0.1-0.8-0.8-1.3-2.3-1.3c-1,0-1.6,0.2-2,0.5
			c-0.4,0.3-0.5,0.7-0.5,1.2h-1.6c0-0.6,0.3-1.4,0.6-1.8c0.7-0.9,1.8-1.3,3.5-1.3c2.6,0,3.8,1,3.9,2.4c0,0.4,0.1,1.7,0,2.4
			c0,0.6,0,1.8,0,2.4c0,0.7,0.1,1.6,0.2,1.8H1119z M1116.8,1484.4c-1.1,0-2,0.1-2.6,0.5c-0.4,0.2-0.6,0.6-0.6,1
			c0,0.4,0.1,0.6,0.3,0.8c0.3,0.3,1,0.5,1.9,0.5c0.8,0,1.4-0.1,2.1-0.5c0.4-0.2,0.8-0.7,0.9-1.4c0-0.4,0.1-0.7,0.1-0.9
			C1118.1,1484.4,1117.5,1484.4,1116.8,1484.4z"/>
		<path d="M1130.8,1488.5h-1.7c-0.1,0-0.1-0.1-0.1-5.5c0-1.2-0.7-1.9-2.2-1.9c-1.3,0-2.5,0.7-2.5,2v5.3h-1.7v-8.8h1.7v1.4
			c0.5-1.1,1.9-1.6,3.2-1.6c2.4,0,3.3,1.4,3.3,3.1C1130.8,1488.2,1130.8,1488.5,1130.8,1488.5z"/>
		<path d="M1137.1,1488.6c-2.7,0-4-0.5-4.3-1.9c-0.1-0.4-0.1-0.6-0.1-0.9h1.7c0,0.1,0,0.3,0.1,0.6c0.2,0.6,1,0.8,2.7,0.8
			c1.7,0,2.3-0.4,2.3-1.2c0-0.8-0.6-1-2.1-1.2c-0.2,0-1.5-0.2-1.8-0.3c-2-0.3-2.8-1-2.8-2.5c0-1.4,1.2-2.5,4-2.5
			c2.3,0,3.6,0.6,4,1.8c0.1,0.4,0.1,0.9,0.1,1.1h-1.7c0-0.1,0-0.5-0.1-0.6c-0.2-0.4-0.8-0.7-2.4-0.7c-1.7,0-2.2,0.4-2.2,1
			c0,0.6,0.4,0.8,1.8,1.1c0.2,0,1.7,0.2,1.9,0.3c2.1,0.3,3,1,3,2.6C1141.1,1487.7,1140,1488.6,1137.1,1488.6z"/>
		<path d="M1153.8,1488.5h-2c0,0-2.2-6.1-2.2-6.3c0-0.1-0.1-0.7-0.1-0.7s-0.1,0.6-0.1,0.7c0,0.2-2.2,6.3-2.2,6.3h-2.1l-3.3-8.8h1.8
			l2.5,7.2l2.4-7.2h1.9l2.4,7.2l2.5-7.2h1.7L1153.8,1488.5z"/>
		<path d="M1165.4,1487.8c-0.7,0.5-1.7,0.8-3.1,0.8c-1.6,0-2.9-0.5-3.8-1.6c-0.6-0.8-0.9-1.7-0.9-3c0-1.2,0.3-2.2,0.9-2.9
			c0.8-1,2-1.6,3.7-1.6c1.8,0,3,0.6,3.7,1.6c0.7,0.8,0.9,2.3,0.8,3.6h-7.5c0,0.7,0.3,1.2,0.8,1.7c0.5,0.5,1.3,0.8,2.2,0.8
			c0.9,0,1.6-0.2,2-0.5c0.5-0.3,0.7-0.8,0.7-1h1.7C1166.7,1486.3,1166.2,1487.2,1165.4,1487.8z M1164.4,1481.7
			c-0.5-0.5-1.2-0.8-2.2-0.8c-1,0-1.7,0.3-2.2,0.8c-0.4,0.4-0.7,1-0.7,1.6h5.7C1165,1482.7,1164.8,1482.2,1164.4,1481.7z"/>
		<path d="M1174.8,1481.5c-0.5-0.2-1.2-0.3-2-0.3c-1.5,0-2.6,1-2.6,2.7v4.6h-1.7v-8.8h1.7v1.5c0.2-1,1.6-1.7,3-1.7
			c0.8,0,1.3,0.1,1.6,0.2V1481.5z"/>
		<path d="M1179.9,1488.6c-2.7,0-4-0.5-4.3-1.9c-0.1-0.4-0.1-0.6-0.1-0.9h1.7c0,0.1,0,0.3,0.1,0.6c0.2,0.6,1,0.8,2.7,0.8
			c1.7,0,2.3-0.4,2.3-1.2c0-0.8-0.6-1-2.1-1.2c-0.2,0-1.5-0.2-1.8-0.3c-2-0.3-2.8-1-2.8-2.5c0-1.4,1.2-2.5,4-2.5
			c2.3,0,3.6,0.6,4,1.8c0.1,0.4,0.1,0.9,0.1,1.1h-1.7c0-0.1,0-0.5-0.1-0.6c-0.2-0.4-0.8-0.7-2.4-0.7c-1.7,0-2.2,0.4-2.2,1
			c0,0.6,0.4,0.8,1.8,1.1c0.2,0,1.7,0.2,1.9,0.3c2.1,0.3,3,1,3,2.6C1183.9,1487.7,1182.8,1488.6,1179.9,1488.6z"/>
	</g>
	<g class="st2">
		<path d="M954.1,1506.3c-0.8,0.8-2,1.3-3.5,1.3c-1.6,0-2.8-0.4-3.6-1.3c-0.7-0.8-1.2-1.8-1.2-3.3c0-1.3,0.4-2.4,1.2-3.2
			c0.8-0.8,1.9-1.3,3.6-1.3c1.6,0,2.8,0.5,3.6,1.3c0.8,0.8,1.2,2,1.2,3.3C955.3,1504.5,954.8,1505.5,954.1,1506.3z M953,1500.8
			c-0.5-0.5-1.2-0.8-2.4-0.8c-1.1,0-1.8,0.4-2.3,0.9c-0.5,0.6-0.7,1.3-0.7,2.2c0,1,0.2,1.8,0.6,2.2c0.5,0.6,1.3,0.9,2.4,0.9
			c1,0,1.8-0.3,2.3-0.9c0.4-0.5,0.7-1.2,0.7-2.2C953.6,1502.2,953.4,1501.3,953,1500.8z"/>
		<path d="M965.2,1507.5h-1.7l0-1.1c-0.6,1-1.9,1.3-3.1,1.3c-2,0-3.4-1.1-3.4-3c0-5.5,0-6,0-6h1.7c0,0,0,0.1,0,5.5
			c0,1.4,0.9,2,2.4,2c1.4,0,2.3-0.7,2.3-1.9v-5.6h1.7v7.3C965.2,1507.3,965.2,1507.5,965.2,1507.5z"/>
		<path d="M973.8,1500.5c-0.5-0.2-1.2-0.3-2-0.3c-1.5,0-2.6,1-2.6,2.7v4.6h-1.7v-8.8h1.7v1.5c0.2-1,1.6-1.7,3-1.7
			c0.8,0,1.3,0.1,1.6,0.2V1500.5z"/>
		<path d="M991.3,1501.9c0-1.1-0.4-1.8-2-1.8c-1.2,0-2.1,0.7-2.1,1.9v5.5h-1.6c0-0.2,0-4.8,0-5.7c0-1.1-0.7-1.7-1.9-1.7
			c-1.3,0-2.2,1-2.2,1.9v5.5h-1.7v-8.8h1.7v1.3c0.4-0.9,1.6-1.5,2.9-1.5s2.3,0.5,2.6,1.6c0.4-1.1,1.6-1.6,3-1.6c2.1,0,3,1.2,3,2.9
			c0,6,0,6.1,0.1,6.1h-1.6C991.3,1507.5,991.3,1507.4,991.3,1501.9z"/>
		<path d="M1002.5,1506.8c-0.7,0.5-1.7,0.8-3.1,0.8c-1.6,0-2.9-0.5-3.8-1.6c-0.6-0.8-0.9-1.7-0.9-3c0-1.2,0.3-2.2,0.9-2.9
			c0.8-1,2-1.6,3.7-1.6c1.8,0,3,0.6,3.7,1.6c0.7,0.8,0.9,2.3,0.8,3.6h-7.5c0,0.7,0.3,1.2,0.8,1.7c0.5,0.5,1.3,0.8,2.2,0.8
			c0.9,0,1.6-0.2,2-0.5c0.5-0.3,0.7-0.8,0.7-1h1.7C1003.8,1505.3,1003.4,1506.2,1002.5,1506.8z M1001.6,1500.7
			c-0.5-0.5-1.2-0.8-2.2-0.8c-1,0-1.7,0.3-2.2,0.8c-0.4,0.4-0.7,1-0.7,1.6h5.7C1002.2,1501.7,1002,1501.2,1001.6,1500.7z"/>
		<path d="M1017.1,1501.9c0-1.1-0.4-1.8-2-1.8c-1.2,0-2.1,0.7-2.1,1.9v5.5h-1.6c0-0.2,0-4.8,0-5.7c0-1.1-0.7-1.7-1.9-1.7
			c-1.3,0-2.2,1-2.2,1.9v5.5h-1.7v-8.8h1.7v1.3c0.4-0.9,1.6-1.5,2.9-1.5s2.3,0.5,2.6,1.6c0.4-1.1,1.6-1.6,3-1.6c2.1,0,3,1.2,3,2.9
			c0,6,0,6.1,0.1,6.1h-1.6C1017.1,1507.5,1017.1,1507.4,1017.1,1501.9z"/>
		<path d="M1029.1,1499.7c0.7,0.7,1.1,1.8,1.1,3.2c0,1.6-0.4,2.7-1.2,3.4c-0.8,0.8-1.9,1.2-3.1,1.2c-1.4,0-2.5-0.4-3.1-1.2l-0.1,1.2
			h-1.6v-12.8h1.7v5.3c0.3-0.8,1.5-1.6,3.3-1.6C1027.4,1498.5,1028.4,1498.9,1029.1,1499.7z M1022.9,1501.6
			c-0.1,0.4-0.2,0.8-0.2,1.6c0,0.8,0.1,1.2,0.3,1.5c0.4,0.8,1.2,1.4,2.6,1.4c1.1,0,1.8-0.4,2.3-1c0.4-0.5,0.6-1.2,0.6-2.1
			c0-0.8-0.1-1.6-0.5-2c-0.5-0.6-1.2-1-2.4-1C1024.1,1500,1023.3,1500.7,1022.9,1501.6z"/>
		<path d="M1039.3,1506.8c-0.7,0.5-1.7,0.8-3.1,0.8c-1.6,0-2.9-0.5-3.8-1.6c-0.6-0.8-0.9-1.7-0.9-3c0-1.2,0.3-2.2,0.9-2.9
			c0.8-1,2-1.6,3.7-1.6c1.8,0,3,0.6,3.7,1.6c0.7,0.8,0.9,2.3,0.8,3.6h-7.5c0,0.7,0.3,1.2,0.8,1.7c0.5,0.5,1.3,0.8,2.2,0.8
			c0.9,0,1.6-0.2,2-0.5c0.5-0.3,0.7-0.8,0.7-1h1.7C1040.6,1505.3,1040.2,1506.2,1039.3,1506.8z M1038.4,1500.7
			c-0.5-0.5-1.2-0.8-2.2-0.8c-1,0-1.7,0.3-2.2,0.8c-0.4,0.4-0.7,1-0.7,1.6h5.7C1039,1501.7,1038.8,1501.2,1038.4,1500.7z"/>
		<path d="M1048.7,1500.5c-0.5-0.2-1.2-0.3-2-0.3c-1.5,0-2.6,1-2.6,2.7v4.6h-1.7v-8.8h1.7v1.5c0.2-1,1.6-1.7,3-1.7
			c0.8,0,1.3,0.1,1.6,0.2V1500.5z"/>
		<path d="M1050.1,1494.8h2.2v2.6l-1.3,1.7l-0.9-0.5l0.6-1.1l-0.1,0h-0.5V1494.8z"/>
		<path d="M1057.6,1507.6c-2.7,0-4-0.5-4.3-1.9c-0.1-0.4-0.1-0.6-0.1-0.9h1.7c0,0.1,0,0.3,0.1,0.6c0.2,0.6,1,0.8,2.7,0.8
			c1.7,0,2.3-0.4,2.3-1.2c0-0.8-0.6-1-2.1-1.2c-0.2,0-1.5-0.2-1.8-0.3c-2-0.3-2.8-1-2.8-2.5c0-1.4,1.2-2.5,4-2.5
			c2.3,0,3.6,0.6,4,1.8c0.1,0.4,0.1,0.9,0.1,1.1h-1.7c0-0.1,0-0.5-0.1-0.6c-0.2-0.4-0.8-0.7-2.4-0.7c-1.7,0-2.2,0.4-2.2,1
			c0,0.6,0.4,0.8,1.8,1.1c0.2,0,1.7,0.2,1.9,0.3c2.1,0.3,3,1,3,2.6C1061.7,1506.7,1060.5,1507.6,1057.6,1507.6z"/>
		<path d="M1075.1,1510.3l-0.1-0.1v-3.9c-0.5,0.8-1.6,1.4-3.1,1.4c-1.2,0-2.3-0.4-3.1-1.2c-0.7-0.7-1.1-1.8-1.1-3.2
			c0-1.5,0.4-2.6,1.2-3.4c0.6-0.7,1.8-1.3,3.1-1.3c1.4,0,2.6,0.4,3.2,1.4v-1.2h1.6c0,0,0,7.6,0,10.4c0,0.6,0,1.1,0.1,1.2H1075.1z
			 M1074.5,1501c-0.4-0.6-1.2-1-2.2-1c-1,0-1.7,0.3-2.2,0.8c-0.5,0.5-0.7,1.2-0.7,2.2c0,0.9,0.2,1.6,0.6,2.1
			c0.5,0.6,1.2,0.9,2.2,0.9c1.1,0,1.8-0.5,2.2-1c0.4-0.4,0.6-1.3,0.6-2.1C1075.1,1502.2,1074.9,1501.5,1074.5,1501z"/>
		<path d="M1087.1,1507.5h-1.7l0-1.1c-0.6,1-1.9,1.3-3.1,1.3c-2,0-3.4-1.1-3.4-3c0-5.5,0-6,0-6h1.7c0,0,0,0.1,0,5.5
			c0,1.4,0.9,2,2.4,2c1.4,0,2.3-0.7,2.3-1.9v-5.6h1.7v7.3C1087.1,1507.3,1087.1,1507.5,1087.1,1507.5z"/>
		<path d="M1096.6,1506.8c-0.7,0.5-1.7,0.8-3.1,0.8c-1.6,0-2.9-0.5-3.8-1.6c-0.6-0.8-0.9-1.7-0.9-3c0-1.2,0.3-2.2,0.9-2.9
			c0.8-1,2-1.6,3.7-1.6c1.8,0,3,0.6,3.7,1.6c0.7,0.8,0.9,2.3,0.8,3.6h-7.5c0,0.7,0.3,1.2,0.8,1.7c0.5,0.5,1.3,0.8,2.2,0.8
			c0.9,0,1.6-0.2,2-0.5c0.5-0.3,0.7-0.8,0.7-1h1.7C1097.9,1505.3,1097.4,1506.2,1096.6,1506.8z M1095.7,1500.7
			c-0.5-0.5-1.2-0.8-2.2-0.8c-1,0-1.7,0.3-2.2,0.8c-0.4,0.4-0.7,1-0.7,1.6h5.7C1096.3,1501.7,1096.1,1501.2,1095.7,1500.7z"/>
		<path d="M1103.7,1507.6c-2.7,0-4-0.5-4.3-1.9c-0.1-0.4-0.1-0.6-0.1-0.9h1.7c0,0.1,0,0.3,0.1,0.6c0.2,0.6,1,0.8,2.7,0.8
			c1.7,0,2.3-0.4,2.3-1.2c0-0.8-0.6-1-2.1-1.2c-0.2,0-1.5-0.2-1.8-0.3c-2-0.3-2.8-1-2.8-2.5c0-1.4,1.2-2.5,4-2.5
			c2.3,0,3.6,0.6,4,1.8c0.1,0.4,0.1,0.9,0.1,1.1h-1.7c0-0.1,0-0.5-0.1-0.6c-0.2-0.4-0.8-0.7-2.4-0.7c-1.7,0-2.2,0.4-2.2,1
			c0,0.6,0.4,0.8,1.8,1.1c0.2,0,1.7,0.2,1.9,0.3c2.1,0.3,3,1,3,2.6C1107.7,1506.7,1106.6,1507.6,1103.7,1507.6z"/>
		<path d="M1111.8,1500.2c0,0.9,0,3.8,0,4.6c0,1,0.4,1.3,1.4,1.3c0.4,0,1,0,1.2-0.1v1.5c-0.4,0.1-1.1,0.2-1.9,0.2
			c-1.4,0-2.5-0.5-2.5-2.3c0-1,0-4,0-5.2h-1.5v-1.5h1.5c0.1-0.1,0.1-1.9,0.1-1.9l1.7,0c0,0,0,1.7,0,1.9h2.7v1.5H1111.8z"/>
		<path d="M1116,1497.6v-2h1.8v2H1116z M1116.2,1507.5c-0.1,0-0.1-0.2-0.1-0.8c0-1.7,0-8,0-8h1.7c0,0,0,6.6,0,8c0,0.6,0,0.8,0.1,0.8
			H1116.2z"/>
		<path d="M1127.9,1506.3c-0.8,0.8-2,1.3-3.5,1.3c-1.6,0-2.8-0.4-3.6-1.3c-0.7-0.8-1.2-1.8-1.2-3.3c0-1.3,0.4-2.4,1.2-3.2
			c0.8-0.8,1.9-1.3,3.6-1.3c1.6,0,2.8,0.5,3.6,1.3c0.8,0.8,1.2,2,1.2,3.3C1129.1,1504.5,1128.6,1505.5,1127.9,1506.3z
			 M1126.8,1500.8c-0.5-0.5-1.2-0.8-2.4-0.8c-1.1,0-1.8,0.4-2.3,0.9c-0.5,0.6-0.7,1.3-0.7,2.2c0,1,0.2,1.8,0.6,2.2
			c0.5,0.6,1.3,0.9,2.4,0.9c1,0,1.8-0.3,2.3-0.9c0.4-0.5,0.7-1.2,0.7-2.2C1127.4,1502.2,1127.3,1501.3,1126.8,1500.8z"/>
		<path d="M1139.1,1507.5h-1.7c-0.1,0-0.1-0.1-0.1-5.5c0-1.2-0.7-1.9-2.2-1.9c-1.3,0-2.5,0.7-2.5,2v5.3h-1.7v-8.8h1.7v1.4
			c0.5-1.1,1.9-1.6,3.2-1.6c2.4,0,3.3,1.4,3.3,3.1C1139.1,1507.2,1139.1,1507.5,1139.1,1507.5z"/>
		<path d="M1145.3,1507.6c-2.7,0-4-0.5-4.3-1.9c-0.1-0.4-0.1-0.6-0.1-0.9h1.7c0,0.1,0,0.3,0.1,0.6c0.2,0.6,1,0.8,2.7,0.8
			c1.7,0,2.3-0.4,2.3-1.2c0-0.8-0.6-1-2.1-1.2c-0.2,0-1.5-0.2-1.8-0.3c-2-0.3-2.8-1-2.8-2.5c0-1.4,1.2-2.5,4-2.5
			c2.3,0,3.6,0.6,4,1.8c0.1,0.4,0.1,0.9,0.1,1.1h-1.7c0-0.1,0-0.5-0.1-0.6c-0.2-0.4-0.8-0.7-2.4-0.7c-1.7,0-2.2,0.4-2.2,1
			c0,0.6,0.4,0.8,1.8,1.1c0.2,0,1.7,0.2,1.9,0.3c2.1,0.3,3,1,3,2.6C1149.4,1506.7,1148.2,1507.6,1145.3,1507.6z"/>
		<path d="M1158,1500.2c0,0.9,0,3.8,0,4.6c0,1,0.4,1.3,1.4,1.3c0.4,0,1,0,1.2-0.1v1.5c-0.4,0.1-1.1,0.2-1.9,0.2
			c-1.4,0-2.5-0.5-2.5-2.3c0-1,0-4,0-5.2h-1.5v-1.5h1.5c0.1-0.1,0.1-1.9,0.1-1.9l1.7,0c0,0,0,1.7,0,1.9h2.7v1.5H1158z"/>
		<path d="M1170,1506.3c-0.8,0.8-2,1.3-3.5,1.3c-1.6,0-2.8-0.4-3.6-1.3c-0.7-0.8-1.2-1.8-1.2-3.3c0-1.3,0.4-2.4,1.2-3.2
			c0.8-0.8,1.9-1.3,3.6-1.3c1.6,0,2.8,0.5,3.6,1.3c0.8,0.8,1.2,2,1.2,3.3C1171.2,1504.5,1170.7,1505.5,1170,1506.3z M1168.8,1500.8
			c-0.5-0.5-1.2-0.8-2.4-0.8c-1.1,0-1.8,0.4-2.3,0.9c-0.5,0.6-0.7,1.3-0.7,2.2c0,1,0.2,1.8,0.6,2.2c0.5,0.6,1.3,0.9,2.4,0.9
			c1,0,1.8-0.3,2.3-0.9c0.4-0.5,0.7-1.2,0.7-2.2C1169.5,1502.2,1169.3,1501.3,1168.8,1500.8z"/>
	</g>
	<g class="st2">
		<path d="M947.1,1520.9c0-1.1-0.4-1.8-2-1.8c-1.2,0-2.1,0.7-2.1,1.9v5.5h-1.6c0-0.2,0-4.8,0-5.7c0-1.1-0.7-1.7-1.9-1.7
			c-1.3,0-2.2,1-2.2,1.9v5.5h-1.7v-8.8h1.7v1.3c0.4-0.9,1.6-1.5,2.9-1.5s2.3,0.5,2.6,1.6c0.4-1.1,1.6-1.6,3-1.6c2.1,0,3,1.2,3,2.9
			c0,6,0,6.1,0.1,6.1h-1.6C947.1,1526.5,947.1,1526.4,947.1,1520.9z"/>
		<path d="M957.7,1526.5c-0.1,0-0.2-0.5-0.2-1.1c-0.5,0.7-1.5,1.2-3.5,1.2c-2.1,0-3.4-0.8-3.4-2.3c0-0.1,0-0.3,0-0.5
			c0-1.4,1.2-2.7,4.4-2.7c0.8,0,1.6,0,2.5,0.1c0-0.2,0-0.7,0-1c-0.1-0.8-0.8-1.3-2.3-1.3c-1,0-1.6,0.2-2,0.5
			c-0.4,0.3-0.5,0.7-0.5,1.2h-1.6c0-0.6,0.3-1.4,0.6-1.8c0.7-0.9,1.8-1.3,3.5-1.3c2.6,0,3.8,1,3.9,2.4c0,0.4,0.1,1.7,0,2.4
			c0,0.6,0,1.8,0,2.4c0,0.7,0.1,1.6,0.2,1.8H957.7z M955.6,1522.4c-1.1,0-2,0.1-2.6,0.5c-0.4,0.2-0.6,0.6-0.6,1
			c0,0.4,0.1,0.6,0.3,0.8c0.3,0.3,1,0.5,1.9,0.5c0.8,0,1.4-0.1,2.1-0.5c0.4-0.2,0.8-0.7,0.9-1.4c0-0.4,0.1-0.7,0.1-0.9
			C956.9,1522.4,956.2,1522.4,955.6,1522.4z"/>
		<path d="M967.9,1526.5l-2.8-4.6l-1.9,1.8v2.9h-1.7v-12.8h1.7v8l4.3-4h2.1l-3.2,3l3.6,5.8H967.9z"/>
		<path d="M978.1,1525.8c-0.7,0.5-1.7,0.8-3.1,0.8c-1.6,0-2.9-0.5-3.8-1.6c-0.6-0.8-0.9-1.7-0.9-3c0-1.2,0.3-2.2,0.9-2.9
			c0.8-1,2-1.6,3.7-1.6c1.8,0,3,0.6,3.7,1.6c0.7,0.8,0.9,2.3,0.8,3.6H972c0,0.7,0.3,1.2,0.8,1.7c0.5,0.5,1.3,0.8,2.2,0.8
			c0.9,0,1.6-0.2,2-0.5c0.5-0.3,0.7-0.8,0.7-1h1.7C979.4,1524.3,978.9,1525.2,978.1,1525.8z M977.2,1519.7c-0.5-0.5-1.2-0.8-2.2-0.8
			c-1,0-1.7,0.3-2.2,0.8c-0.4,0.4-0.7,1-0.7,1.6h5.7C977.7,1520.7,977.6,1520.2,977.2,1519.7z"/>
		<path d="M989.8,1526.6c-2.7,0-4-0.5-4.3-1.9c-0.1-0.4-0.1-0.6-0.1-0.9h1.7c0,0.1,0,0.3,0.1,0.6c0.2,0.6,1,0.8,2.7,0.8
			c1.7,0,2.3-0.4,2.3-1.2c0-0.8-0.6-1-2.1-1.2c-0.2,0-1.5-0.2-1.8-0.3c-2-0.3-2.8-1-2.8-2.5c0-1.4,1.2-2.5,4-2.5
			c2.3,0,3.6,0.6,4,1.8c0.1,0.4,0.1,0.9,0.1,1.1h-1.7c0-0.1,0-0.5-0.1-0.6c-0.2-0.4-0.8-0.7-2.4-0.7c-1.7,0-2.2,0.4-2.2,1
			c0,0.6,0.4,0.8,1.8,1.1c0.2,0,1.7,0.2,1.9,0.3c2.1,0.3,3,1,3,2.6C993.8,1525.7,992.7,1526.6,989.8,1526.6z"/>
		<path d="M1003.9,1526.5h-1.7l0-1.1c-0.6,1-1.9,1.3-3.1,1.3c-2,0-3.4-1.1-3.4-3c0-5.5,0-6,0-6h1.7c0,0,0,0.1,0,5.5
			c0,1.4,0.9,2,2.4,2c1.4,0,2.3-0.7,2.3-1.9v-5.6h1.7v7.3C1003.8,1526.3,1003.8,1526.5,1003.9,1526.5z"/>
		<path d="M1012.4,1519.5c-0.5-0.2-1.2-0.3-2-0.3c-1.5,0-2.6,1-2.6,2.7v4.6h-1.7v-8.8h1.7v1.5c0.2-1,1.6-1.7,3-1.7
			c0.8,0,1.3,0.1,1.6,0.2V1519.5z"/>
		<path d="M1020.8,1525.8c-0.7,0.5-1.7,0.8-3.1,0.8c-1.6,0-2.9-0.5-3.8-1.6c-0.6-0.8-0.9-1.7-0.9-3c0-1.2,0.3-2.2,0.9-2.9
			c0.8-1,2-1.6,3.7-1.6c1.8,0,3,0.6,3.7,1.6c0.7,0.8,0.9,2.3,0.8,3.6h-7.5c0,0.7,0.3,1.2,0.8,1.7c0.5,0.5,1.3,0.8,2.2,0.8
			c0.9,0,1.6-0.2,2-0.5c0.5-0.3,0.7-0.8,0.7-1h1.7C1022.1,1524.3,1021.6,1525.2,1020.8,1525.8z M1019.8,1519.7
			c-0.5-0.5-1.2-0.8-2.2-0.8c-1,0-1.7,0.3-2.2,0.8c-0.4,0.4-0.7,1-0.7,1.6h5.7C1020.4,1520.7,1020.3,1520.2,1019.8,1519.7z"/>
		<path d="M1035.7,1525.8c-0.7,0.5-1.7,0.8-3.1,0.8c-1.6,0-2.9-0.5-3.8-1.6c-0.6-0.8-0.9-1.7-0.9-3c0-1.2,0.3-2.2,0.9-2.9
			c0.8-1,2-1.6,3.7-1.6c1.8,0,3,0.6,3.7,1.6c0.7,0.8,0.9,2.3,0.8,3.6h-7.5c0,0.7,0.3,1.2,0.8,1.7c0.5,0.5,1.3,0.8,2.2,0.8
			c0.9,0,1.6-0.2,2-0.5c0.5-0.3,0.7-0.8,0.7-1h1.7C1037,1524.3,1036.5,1525.2,1035.7,1525.8z M1034.8,1519.7
			c-0.5-0.5-1.2-0.8-2.2-0.8c-1,0-1.7,0.3-2.2,0.8c-0.4,0.4-0.7,1-0.7,1.6h5.7C1035.4,1520.7,1035.2,1520.2,1034.8,1519.7z"/>
		<path d="M1043.5,1526.5h-2.1l-3.8-8.8h1.9l3,7.2l3-7.2h1.8L1043.5,1526.5z"/>
		<path d="M1055.6,1525.8c-0.7,0.5-1.7,0.8-3.1,0.8c-1.6,0-2.9-0.5-3.8-1.6c-0.6-0.8-0.9-1.7-0.9-3c0-1.2,0.3-2.2,0.9-2.9
			c0.8-1,2-1.6,3.7-1.6c1.8,0,3,0.6,3.7,1.6c0.7,0.8,0.9,2.3,0.8,3.6h-7.5c0,0.7,0.3,1.2,0.8,1.7c0.5,0.5,1.3,0.8,2.2,0.8
			c0.9,0,1.6-0.2,2-0.5c0.5-0.3,0.7-0.8,0.7-1h1.7C1056.9,1524.3,1056.5,1525.2,1055.6,1525.8z M1054.7,1519.7
			c-0.5-0.5-1.2-0.8-2.2-0.8c-1,0-1.7,0.3-2.2,0.8c-0.4,0.4-0.7,1-0.7,1.6h5.7C1055.3,1520.7,1055.1,1520.2,1054.7,1519.7z"/>
		<path d="M1065.1,1519.5c-0.5-0.2-1.2-0.3-2-0.3c-1.5,0-2.6,1-2.6,2.7v4.6h-1.7v-8.8h1.7v1.5c0.2-1,1.6-1.7,3-1.7
			c0.8,0,1.3,0.1,1.6,0.2V1519.5z"/>
		<path d="M1070.2,1529.3h-1.8l1.2-2.8l-4-8.8h1.9c0,0,3,7,3,7.1c0-0.1,3-7.1,3-7.1h1.8L1070.2,1529.3z"/>
		<path d="M1084.1,1525.3c-0.8,0.8-2,1.3-3.5,1.3c-1.6,0-2.8-0.4-3.6-1.3c-0.7-0.8-1.2-1.8-1.2-3.3c0-1.3,0.4-2.4,1.2-3.2
			c0.8-0.8,1.9-1.3,3.6-1.3c1.6,0,2.8,0.5,3.6,1.3c0.8,0.8,1.2,2,1.2,3.3C1085.3,1523.5,1084.9,1524.5,1084.1,1525.3z M1083,1519.8
			c-0.5-0.5-1.2-0.8-2.4-0.8c-1.1,0-1.8,0.4-2.3,0.9c-0.5,0.6-0.7,1.3-0.7,2.2c0,1,0.2,1.8,0.6,2.2c0.5,0.6,1.3,0.9,2.4,0.9
			c1,0,1.8-0.3,2.3-0.9c0.4-0.5,0.7-1.2,0.7-2.2C1083.6,1521.2,1083.5,1520.3,1083,1519.8z"/>
		<path d="M1095.3,1526.5h-1.7c-0.1,0-0.1-0.1-0.1-5.5c0-1.2-0.7-1.9-2.2-1.9c-1.3,0-2.5,0.7-2.5,2v5.3h-1.7v-8.8h1.7v1.4
			c0.5-1.1,1.9-1.6,3.2-1.6c2.4,0,3.3,1.4,3.3,3.1C1095.3,1526.2,1095.3,1526.5,1095.3,1526.5z"/>
		<path d="M1104.8,1525.8c-0.7,0.5-1.7,0.8-3.1,0.8c-1.6,0-2.9-0.5-3.8-1.6c-0.6-0.8-0.9-1.7-0.9-3c0-1.2,0.3-2.2,0.9-2.9
			c0.8-1,2-1.6,3.7-1.6c1.8,0,3,0.6,3.7,1.6c0.7,0.8,0.9,2.3,0.8,3.6h-7.5c0,0.7,0.3,1.2,0.8,1.7c0.5,0.5,1.3,0.8,2.2,0.8
			c0.9,0,1.6-0.2,2-0.5c0.5-0.3,0.7-0.8,0.7-1h1.7C1106.1,1524.3,1105.6,1525.2,1104.8,1525.8z M1103.9,1519.7
			c-0.5-0.5-1.2-0.8-2.2-0.8c-1,0-1.7,0.3-2.2,0.8c-0.4,0.4-0.7,1-0.7,1.6h5.7C1104.5,1520.7,1104.3,1520.2,1103.9,1519.7z"/>
		<path d="M1112.5,1516.6v-2h1.8v2H1112.5z M1112.6,1526.5c-0.1,0-0.1-0.2-0.1-0.8c0-1.7,0-8,0-8h1.7c0,0,0,6.6,0,8
			c0,0.6,0,0.8,0.1,0.8H1112.6z"/>
		<path d="M1120.7,1526.6c-2.7,0-4-0.5-4.3-1.9c-0.1-0.4-0.1-0.6-0.1-0.9h1.7c0,0.1,0,0.3,0.1,0.6c0.2,0.6,1,0.8,2.7,0.8
			c1.7,0,2.3-0.4,2.3-1.2c0-0.8-0.6-1-2.1-1.2c-0.2,0-1.5-0.2-1.8-0.3c-2-0.3-2.8-1-2.8-2.5c0-1.4,1.2-2.5,4-2.5
			c2.3,0,3.6,0.6,4,1.8c0.1,0.4,0.1,0.9,0.1,1.1h-1.7c0-0.1,0-0.5-0.1-0.6c-0.2-0.4-0.8-0.7-2.4-0.7c-1.7,0-2.2,0.4-2.2,1
			c0,0.6,0.4,0.8,1.8,1.1c0.2,0,1.7,0.2,1.9,0.3c2.1,0.3,3,1,3,2.6C1124.7,1525.7,1123.5,1526.6,1120.7,1526.6z"/>
		<path d="M1135.2,1526.6c-2.7,0-4-0.5-4.3-1.9c-0.1-0.4-0.1-0.6-0.1-0.9h1.7c0,0.1,0,0.3,0.1,0.6c0.2,0.6,1,0.8,2.7,0.8
			c1.7,0,2.3-0.4,2.3-1.2c0-0.8-0.6-1-2.1-1.2c-0.2,0-1.5-0.2-1.8-0.3c-2-0.3-2.8-1-2.8-2.5c0-1.4,1.2-2.5,4-2.5
			c2.3,0,3.6,0.6,4,1.8c0.1,0.4,0.1,0.9,0.1,1.1h-1.7c0-0.1,0-0.5-0.1-0.6c-0.2-0.4-0.8-0.7-2.4-0.7c-1.7,0-2.2,0.4-2.2,1
			c0,0.6,0.4,0.8,1.8,1.1c0.2,0,1.7,0.2,1.9,0.3c2.1,0.3,3,1,3,2.6C1139.3,1525.7,1138.1,1526.6,1135.2,1526.6z"/>
		<path d="M1148.5,1525.8c-0.7,0.5-1.7,0.8-3.1,0.8c-1.6,0-2.9-0.5-3.8-1.6c-0.6-0.8-0.9-1.7-0.9-3c0-1.2,0.3-2.2,0.9-2.9
			c0.8-1,2-1.6,3.7-1.6c1.8,0,3,0.6,3.7,1.6c0.7,0.8,0.9,2.3,0.8,3.6h-7.5c0,0.7,0.3,1.2,0.8,1.7c0.5,0.5,1.3,0.8,2.2,0.8
			c0.9,0,1.6-0.2,2-0.5c0.5-0.3,0.7-0.8,0.7-1h1.7C1149.8,1524.3,1149.3,1525.2,1148.5,1525.8z M1147.5,1519.7
			c-0.5-0.5-1.2-0.8-2.2-0.8c-1,0-1.7,0.3-2.2,0.8c-0.4,0.4-0.7,1-0.7,1.6h5.7C1148.1,1520.7,1147.9,1520.2,1147.5,1519.7z"/>
		<path d="M1153.7,1519.2c0,0.9,0,3.8,0,4.6c0,1,0.4,1.3,1.4,1.3c0.4,0,1,0,1.2-0.1v1.5c-0.4,0.1-1.1,0.2-1.9,0.2
			c-1.4,0-2.5-0.5-2.5-2.3c0-1,0-4,0-5.2h-1.5v-1.5h1.5c0.1-0.1,0.1-1.9,0.1-1.9l1.7,0c0,0,0,1.7,0,1.9h2.7v1.5H1153.7z"/>
		<path d="M1170.6,1526.5h-1.7l0-1.1c-0.6,1-1.9,1.3-3.1,1.3c-2,0-3.4-1.1-3.4-3c0-5.5,0-6,0-6h1.7c0,0,0,0.1,0,5.5
			c0,1.4,0.9,2,2.4,2c1.4,0,2.3-0.7,2.3-1.9v-5.6h1.7v7.3C1170.6,1526.3,1170.6,1526.5,1170.6,1526.5z"/>
		<path d="M1180.9,1525.3c-0.7,0.7-1.8,1.2-3.2,1.2c-1.3,0-2.6-0.4-3.1-1.2v3.9h-1.7v-11.6h1.7v1.4c0.3-0.9,1.6-1.6,3.3-1.6
			c1.3,0,2.4,0.4,3.1,1.2c0.7,0.7,1,1.8,1,3.3C1182,1523.6,1181.6,1524.6,1180.9,1525.3z M1179.5,1519.8c-0.5-0.4-1.2-0.8-2.2-0.8
			c-0.9,0-1.5,0.3-2,0.7c-0.6,0.5-0.8,1.3-0.8,2.4c0,1.1,0.2,1.8,0.8,2.3c0.5,0.5,1.1,0.7,2.1,0.7c1,0,1.8-0.3,2.3-0.9
			c0.4-0.5,0.6-1.2,0.6-2.1C1180.2,1521.1,1180,1520.3,1179.5,1519.8z"/>
	</g>
	<g class="st2">
		<path d="M997.7,1538.2v7.3h-1.7v-7.3h-1.6v-1.5h1.6v-1.6c0-1.4,1-2.4,3-2.4c0.6,0,1.2,0.1,1.4,0.1v1.5c-0.3,0-0.8-0.1-1.3-0.1
			c-1,0-1.3,0.6-1.3,1.3v1.2h2.6v1.5H997.7z"/>
		<path d="M1009.1,1544.3c-0.8,0.8-2,1.3-3.5,1.3c-1.6,0-2.8-0.4-3.6-1.3c-0.7-0.8-1.2-1.8-1.2-3.3c0-1.3,0.4-2.4,1.2-3.2
			c0.8-0.8,1.9-1.3,3.6-1.3c1.6,0,2.8,0.5,3.6,1.3c0.8,0.8,1.2,2,1.2,3.3C1010.3,1542.5,1009.9,1543.5,1009.1,1544.3z M1008,1538.8
			c-0.5-0.5-1.2-0.8-2.4-0.8c-1.1,0-1.8,0.4-2.3,0.9c-0.5,0.6-0.7,1.3-0.7,2.2c0,1,0.2,1.8,0.6,2.2c0.5,0.6,1.3,0.9,2.4,0.9
			c1,0,1.8-0.3,2.3-0.9c0.4-0.5,0.7-1.2,0.7-2.2C1008.6,1540.2,1008.5,1539.3,1008,1538.8z"/>
		<path d="M1018.5,1538.5c-0.5-0.2-1.2-0.3-2-0.3c-1.5,0-2.6,1-2.6,2.7v4.6h-1.7v-8.8h1.7v1.5c0.2-1,1.6-1.7,3-1.7
			c0.8,0,1.3,0.1,1.6,0.2V1538.5z"/>
		<path d="M1026.6,1538.2c0,0.9,0,3.8,0,4.6c0,1,0.4,1.3,1.4,1.3c0.4,0,1,0,1.2-0.1v1.5c-0.4,0.1-1.1,0.2-1.9,0.2
			c-1.4,0-2.5-0.5-2.5-2.3c0-1,0-4,0-5.2h-1.5v-1.5h1.5c0.1-0.1,0.1-1.9,0.1-1.9l1.7,0c0,0,0,1.7,0,1.9h2.7v1.5H1026.6z"/>
		<path d="M1039.1,1545.5h-1.7c-0.1,0,0-0.2,0-5.5c0-1.1-0.6-1.9-2.2-1.9c-1.4,0-2.5,0.8-2.5,2v5.4h-1.7v-12.8h1.7v5.3
			c0.4-0.9,1.5-1.5,3.1-1.5c2.2,0,3.3,1.2,3.3,3.2C1039,1545.3,1039,1545.5,1039.1,1545.5z"/>
		<path d="M1048.5,1544.8c-0.7,0.5-1.7,0.8-3.1,0.8c-1.6,0-2.9-0.5-3.8-1.6c-0.6-0.8-0.9-1.7-0.9-3c0-1.2,0.3-2.2,0.9-2.9
			c0.8-1,2-1.6,3.7-1.6c1.8,0,3,0.6,3.7,1.6c0.7,0.8,0.9,2.3,0.8,3.6h-7.5c0,0.7,0.3,1.2,0.8,1.7c0.5,0.5,1.3,0.8,2.2,0.8
			c0.9,0,1.6-0.2,2-0.5c0.5-0.3,0.7-0.8,0.7-1h1.7C1049.8,1543.3,1049.4,1544.2,1048.5,1544.8z M1047.6,1538.7
			c-0.5-0.5-1.2-0.8-2.2-0.8c-1,0-1.7,0.3-2.2,0.8c-0.4,0.4-0.7,1-0.7,1.6h5.7C1048.2,1539.7,1048,1539.2,1047.6,1538.7z"/>
		<path d="M1062.5,1538.5c-0.5-0.2-1.2-0.3-2-0.3c-1.5,0-2.6,1-2.6,2.7v4.6h-1.7v-8.8h1.7v1.5c0.2-1,1.6-1.7,3-1.7
			c0.8,0,1.3,0.1,1.6,0.2V1538.5z"/>
		<path d="M1070.9,1544.8c-0.7,0.5-1.7,0.8-3.1,0.8c-1.6,0-2.9-0.5-3.8-1.6c-0.6-0.8-0.9-1.7-0.9-3c0-1.2,0.3-2.2,0.9-2.9
			c0.8-1,2-1.6,3.7-1.6c1.8,0,3,0.6,3.7,1.6c0.7,0.8,0.9,2.3,0.8,3.6h-7.5c0,0.7,0.3,1.2,0.8,1.7c0.5,0.5,1.3,0.8,2.2,0.8
			c0.9,0,1.6-0.2,2-0.5c0.5-0.3,0.7-0.8,0.7-1h1.7C1072.2,1543.3,1071.7,1544.2,1070.9,1544.8z M1069.9,1538.7
			c-0.5-0.5-1.2-0.8-2.2-0.8c-1,0-1.7,0.3-2.2,0.8c-0.4,0.4-0.7,1-0.7,1.6h5.7C1070.5,1539.7,1070.4,1539.2,1069.9,1538.7z"/>
		<path d="M1074,1545.5c0,0,0-0.1,0-0.6c0-1.2,0-9.7,0-11.2c0-0.4,0-0.8,0-0.9h1.7c0,0.1,0,0.4,0,0.8c0,1.3,0,9.2,0,11.2
			c0,0.4,0,0.7,0,0.8H1074z"/>
		<path d="M1085.3,1544.8c-0.7,0.5-1.7,0.8-3.1,0.8c-1.6,0-2.9-0.5-3.8-1.6c-0.6-0.8-0.9-1.7-0.9-3c0-1.2,0.3-2.2,0.9-2.9
			c0.8-1,2-1.6,3.7-1.6c1.8,0,3,0.6,3.7,1.6c0.7,0.8,0.9,2.3,0.8,3.6h-7.5c0,0.7,0.3,1.2,0.8,1.7c0.5,0.5,1.3,0.8,2.2,0.8
			c0.9,0,1.6-0.2,2-0.5c0.5-0.3,0.7-0.8,0.7-1h1.7C1086.6,1543.3,1086.1,1544.2,1085.3,1544.8z M1084.3,1538.7
			c-0.5-0.5-1.2-0.8-2.2-0.8c-1,0-1.7,0.3-2.2,0.8c-0.4,0.4-0.7,1-0.7,1.6h5.7C1084.9,1539.7,1084.7,1539.2,1084.3,1538.7z"/>
		<path d="M1094.9,1545.5c-0.1,0-0.2-0.5-0.2-1.1c-0.5,0.7-1.5,1.2-3.5,1.2c-2.1,0-3.4-0.8-3.4-2.3c0-0.1,0-0.3,0-0.5
			c0-1.4,1.2-2.7,4.4-2.7c0.8,0,1.6,0,2.5,0.1c0-0.2,0-0.7,0-1c-0.1-0.8-0.8-1.3-2.3-1.3c-1,0-1.6,0.2-2,0.5
			c-0.4,0.3-0.5,0.7-0.5,1.2h-1.6c0-0.6,0.3-1.4,0.6-1.8c0.7-0.9,1.8-1.3,3.5-1.3c2.6,0,3.8,1,3.9,2.4c0,0.4,0.1,1.7,0,2.4
			c0,0.6,0,1.8,0,2.4c0,0.7,0.1,1.6,0.2,1.8H1094.9z M1092.8,1541.4c-1.1,0-2,0.1-2.6,0.5c-0.4,0.2-0.6,0.6-0.6,1
			c0,0.4,0.1,0.6,0.3,0.8c0.3,0.3,1,0.5,1.9,0.5c0.8,0,1.4-0.1,2.1-0.5c0.4-0.2,0.8-0.7,0.9-1.4c0-0.4,0.1-0.7,0.1-0.9
			C1094.1,1541.4,1093.5,1541.4,1092.8,1541.4z"/>
		<path d="M1102.7,1545.6c-2.7,0-4-0.5-4.3-1.9c-0.1-0.4-0.1-0.6-0.1-0.9h1.7c0,0.1,0,0.3,0.1,0.6c0.2,0.6,1,0.8,2.7,0.8
			c1.7,0,2.3-0.4,2.3-1.2c0-0.8-0.6-1-2.1-1.2c-0.2,0-1.5-0.2-1.8-0.3c-2-0.3-2.8-1-2.8-2.5c0-1.4,1.2-2.5,4-2.5
			c2.3,0,3.6,0.6,4,1.8c0.1,0.4,0.1,0.9,0.1,1.1h-1.7c0-0.1,0-0.5-0.1-0.6c-0.2-0.4-0.8-0.7-2.4-0.7c-1.7,0-2.2,0.4-2.2,1
			c0,0.6,0.4,0.8,1.8,1.1c0.2,0,1.7,0.2,1.9,0.3c2.1,0.3,3,1,3,2.6C1106.7,1544.7,1105.6,1545.6,1102.7,1545.6z"/>
		<path d="M1115.9,1544.8c-0.7,0.5-1.7,0.8-3.1,0.8c-1.6,0-2.9-0.5-3.8-1.6c-0.6-0.8-0.9-1.7-0.9-3c0-1.2,0.3-2.2,0.9-2.9
			c0.8-1,2-1.6,3.7-1.6c1.8,0,3,0.6,3.7,1.6c0.7,0.8,0.9,2.3,0.8,3.6h-7.5c0,0.7,0.3,1.2,0.8,1.7c0.5,0.5,1.3,0.8,2.2,0.8
			c0.9,0,1.6-0.2,2-0.5c0.5-0.3,0.7-0.8,0.7-1h1.7C1117.2,1543.3,1116.7,1544.2,1115.9,1544.8z M1114.9,1538.7
			c-0.5-0.5-1.2-0.8-2.2-0.8c-1,0-1.7,0.3-2.2,0.8c-0.4,0.4-0.7,1-0.7,1.6h5.7C1115.5,1539.7,1115.4,1539.2,1114.9,1538.7z"/>
		<path d="M1119.3,1545.5v-2.6h2.2v2.6H1119.3z"/>
	</g>
	<g class="st2">
		<path d="M918.4,1404.5V1392h4.7v8.9h9.2v3.6H918.4z"/>
		<path d="M935.8,1404.5V1392h4.8v12.5H935.8z"/>
		<path d="M957,1404.5h-5.4l-8.1-12.5h5.3l5.7,9l5.9-9h4.8L957,1404.5z"/>
		<path d="M968,1404.5V1392h15.4v3.3h-10.8v1.4h10.5v3.1h-10.5v1.4h11v3.3H968z"/>
		<path d="M1008.2,1404.5h-5.4l-8.1-12.5h5.3l5.7,9l5.9-9h4.8L1008.2,1404.5z"/>
		<path d="M1035.7,1394.2c1.1,1.1,1.6,2.4,1.6,4c0,1.7-0.6,3-1.6,4c-1.6,1.7-4.6,2.5-8.5,2.5c-3.8,0-6.7-0.8-8.4-2.5
			c-1.1-1-1.7-2.3-1.7-4c0-1.5,0.5-2.8,1.6-3.8c1.9-1.9,4.7-2.7,8.5-2.7C1031.1,1391.7,1033.9,1392.5,1035.7,1394.2z M1032.5,1398.2
			c0-1.4-1.4-3-5.3-3c-3.8,0-5.3,1.6-5.3,3c0,1.6,1.6,3,5.3,3C1030.9,1401.2,1032.5,1399.8,1032.5,1398.2z"/>
		<path d="M1040.8,1404.5V1392h4.8v12.5H1040.8z"/>
		<path d="M1068.4,1400.9c-1.2,2.5-4,3.8-9.4,3.8c-4.7,0-7.5-1.2-8.9-3.1c-0.7-0.9-1-2.1-1-3.3c0-1.2,0.3-2.3,1-3.2
			c1.4-2,4.3-3.3,9-3.3c6,0,8.4,2.1,9.3,4c0.3,0.6,0.4,1.2,0.4,1.5h-4.9c0-0.2-0.2-0.4-0.3-0.6c-0.5-0.7-2-1.4-4.5-1.4
			c-2.3,0-4.1,0.6-4.8,1.7c-0.2,0.3-0.3,0.7-0.3,1.2c0,0.4,0.1,0.8,0.3,1.1c0.8,1.2,2.8,1.7,4.8,1.7c2.2,0,4-0.3,4.7-1.4
			c0.1-0.1,0.2-0.4,0.2-0.5h4.9C1068.7,1399.6,1068.6,1400.4,1068.4,1400.9z"/>
		<path d="M1072.3,1404.5V1392h15.4v3.3h-10.8v1.4h10.5v3.1h-10.5v1.4h11v3.3H1072.3z"/>
		<path d="M1109,1404.7c-5.5,0-7.9-1.5-9-3.3c-0.2-0.4-0.3-0.8-0.4-1.2h5.2c0.1,0.2,0.2,0.4,0.4,0.6c0.5,0.5,2,0.8,4.3,0.8
			c3.2,0,3.8-0.3,3.8-0.9c0-0.6-0.4-0.7-3.1-0.9c-1.2-0.1-2.8-0.2-3.7-0.2c-5.3-0.3-6.8-1.7-6.8-3.6c0-2.3,3.1-4.1,8.9-4.1
			c5.1,0,7.4,1.4,8.4,2.9c0.3,0.5,0.5,1,0.6,1.5l-5.2,0c0-0.2-0.1-0.3-0.4-0.5c-0.5-0.4-1.7-0.8-3.7-0.8c-2.9,0-3.7,0.2-3.7,0.8
			c0,0.5,0.5,0.6,3.6,0.9c1.4,0.1,3.9,0.3,4.4,0.3c4,0.3,5.4,1.5,5.4,3.6C1118.2,1403.3,1115.1,1404.7,1109,1404.7z"/>
		<path d="M1121.8,1404.5V1392h15.4v3.3h-10.8v1.4h10.5v3.1h-10.5v1.4h11v3.3H1121.8z"/>
		<path d="M1151,1395.3v9.2h-4.8v-9.2h-6.6v-3.3h17.9v3.3H1151z"/>
		<path d="M1169.4,1404.7c-5.2,0-8.8-1.9-8.8-6.2c0-0.8,0-6.5,0-6.5h4.7c0,0,0,6.4,0,6.6c0,1.6,1.5,2.6,4.3,2.6c2.7,0,4.3-1,4.3-2.6
			c0-0.2,0-6.6,0-6.6h4.7c0,0,0,6.4,0,7C1178.6,1402.8,1175.1,1404.7,1169.4,1404.7z"/>
		<path d="M1199.6,1399.7c-1,1.1-2.6,1.6-4.8,1.6c-0.7,0-7.1,0-7.1,0v3.1h-4.7V1392h11.7c1.9,0,3.4,0.4,4.4,1.1
			c0.9,0.7,1.5,1.9,1.5,3.6C1200.7,1398,1200.3,1399,1199.6,1399.7z M1195.7,1395.7c-0.3-0.4-1-0.6-2-0.6h-5.9v3.3h5.9
			c1.1,0,1.7-0.2,2-0.6c0.2-0.2,0.2-0.6,0.2-1C1195.9,1396.3,1195.8,1396,1195.7,1395.7z"/>
	</g>
	<path id="Path_144" class="st1" d="M1039.5,1429h37.7"/>
	<g id="Group_394" transform="translate(552.265 769.082)">
		<g id="Group_79" transform="translate(440.735 439.025)">
			<path id="Path_78" class="st3" d="M104.4,49V4.1c0-2.3-1.8-4.1-4.1-4.1H4.1C1.8,0,0,1.8,0,4.1l0,0v69.3c0,2.3,1.8,4.1,4.1,4.1h13
				v19.9l20.9-19.9h4.1"/>
			<path id="Path_79" class="st3" d="M126.4,115.6c2.3,0,4.1-1.8,4.1-4.1V57.2c0-2.3-1.8-4.1-4.1-4.1h-76c-2.3,0-4.1,1.8-4.1,4.1
				v54.3c0,2.3,1.8,4.1,4.1,4.1l47.7,0.2l16.9,16.1v-16.1L126.4,115.6z"/>
			<g id="Group_77" transform="translate(20.105 24.449)">
				<line id="Line_25" class="st3" x1="0" y1="0" x2="64.2" y2="0"/>
				<line id="Line_26" class="st3" x1="0" y1="14.3" x2="64.2" y2="14.3"/>
				<line id="Line_27" class="st3" x1="0" y1="28.6" x2="21.8" y2="28.6"/>
			</g>
			<g id="Group_78" transform="translate(63.619 72.931)">
				<line id="Line_28" class="st3" x1="0" y1="0" x2="49.5" y2="0"/>
				<line id="Line_29" class="st3" x1="0" y1="11.4" x2="49.5" y2="11.4"/>
				<line id="Line_30" class="st3" x1="0" y1="22.8" x2="49.5" y2="22.8"/>
			</g>
		</g>
		<path id="Path_80" class="st3" d="M545.1,488v-44.9c0-2.3-1.8-4.1-4.1-4.1h-96.2c-2.3,0-4.1,1.8-4.1,4.1l0,0v69.3
			c0,2.3,1.8,4.1,4.1,4.1h13v19.9l20.9-19.9h4.1"/>
	</g>
</g>
</svg>
