<?xml version="1.0" encoding="utf-8"?>
<!-- Generator: Adobe Illustrator 23.1.0, SVG Export Plug-In . SVG Version: 6.00 Build 0)  -->
<svg version="1.1" id="Layer_1" xmlns="http://www.w3.org/2000/svg" xmlns:xlink="http://www.w3.org/1999/xlink" x="0px" y="0px"
	 viewBox="0 0 336 447" style="enable-background:new 0 0 336 447;" xml:space="preserve">
<style type="text/css">
	.st0{fill:none;}
	.st1{fill:none;stroke:#93F5CC;stroke-width:2;}
	.st2{enable-background:new    ;}
	.st3{fill:none;stroke:#000000;stroke-width:2;}
	.st4{fill:none;stroke:#000000;stroke-width:2;stroke-miterlimit:10;}
</style>
<g id="Group_416" transform="translate(-421 -1673)">
	<g id="Rectangle_77" transform="translate(421 1673)">
		<rect class="st0" width="336" height="447"/>
		<rect x="1" y="1" class="st1" width="334" height="445"/>
	</g>
	<g class="st2">
		<path d="M504.2,2014.5h-2.1l-2.6-10.2l-2.6,10.2h-2.1l-3.6-12.6h2l2.8,10.3l2.5-10.3h2.2l2.5,10.3l2.9-10.3h1.8L504.2,2014.5z"/>
		<path d="M515.9,2013.3c-0.8,0.8-2,1.3-3.5,1.3c-1.6,0-2.8-0.4-3.6-1.3c-0.7-0.8-1.2-1.8-1.2-3.3c0-1.3,0.4-2.4,1.2-3.2
			c0.8-0.8,1.9-1.3,3.6-1.3c1.6,0,2.8,0.5,3.6,1.3c0.8,0.8,1.2,2,1.2,3.3C517.1,2011.5,516.7,2012.5,515.9,2013.3z M514.8,2007.8
			c-0.5-0.5-1.2-0.8-2.4-0.8c-1.1,0-1.8,0.4-2.3,0.9c-0.5,0.6-0.7,1.3-0.7,2.2c0,1,0.2,1.8,0.6,2.2c0.5,0.6,1.3,0.9,2.4,0.9
			c1,0,1.8-0.3,2.3-0.9c0.4-0.5,0.7-1.2,0.7-2.2C515.4,2009.2,515.3,2008.3,514.8,2007.8z"/>
		<path d="M525.3,2007.5c-0.5-0.2-1.2-0.3-2-0.3c-1.5,0-2.6,1-2.6,2.7v4.6h-1.7v-8.8h1.7v1.5c0.2-1,1.6-1.7,3-1.7
			c0.8,0,1.3,0.1,1.6,0.2V2007.5z"/>
		<path d="M526.7,2014.5c0,0,0-0.1,0-0.6c0-1.2,0-9.7,0-11.2c0-0.4,0-0.8,0-0.9h1.7c0,0.1,0,0.4,0,0.8c0,1.3,0,9.2,0,11.2
			c0,0.4,0,0.7,0,0.8H526.7z"/>
		<path d="M537.6,2006.8v-5h1.7c0,0,0,10,0,11.7c0,0.4,0.1,1,0.1,1h-1.6l-0.2-1.2c-0.5,0.8-1.5,1.3-3.2,1.3c-1.5,0-2.5-0.6-3.1-1.2
			c-0.7-0.8-1.1-1.8-1.1-3.2c0-1.5,0.5-2.6,1.2-3.3c0.7-0.7,1.8-1.2,3.1-1.2C535.8,2005.6,537,2005.9,537.6,2006.8z M532.7,2007.9
			c-0.5,0.5-0.8,1.3-0.8,2.2c0,0.9,0.2,1.7,0.6,2.2c0.6,0.6,1.2,0.9,2.3,0.9c1,0,1.7-0.3,2.3-1c0.4-0.4,0.6-1.2,0.6-2.1
			c0-0.8-0.2-1.7-0.5-2.1c-0.6-0.8-1.3-1-2.3-1C533.9,2007.1,533.2,2007.4,532.7,2007.9z"/>
		<path d="M540.7,2009.5v-1.8h6.9v1.8H540.7z"/>
		<path d="M555.9,2009c0-0.3-0.1-0.9-0.4-1.2c-0.4-0.5-1.2-0.8-2.3-0.8c-1,0-1.7,0.3-2.2,0.8c-0.5,0.5-0.7,1.3-0.7,2.3
			c0,1.1,0.2,1.9,0.8,2.4c0.5,0.5,1.2,0.7,2.2,0.7c1.1,0,1.8-0.3,2.2-0.7c0.3-0.3,0.5-0.8,0.5-1.1h1.7c0,0.8-0.3,1.6-1,2.2
			c-0.7,0.6-1.8,1.1-3.4,1.1c-1.5,0-2.6-0.4-3.4-1.1c-0.8-0.8-1.3-1.9-1.3-3.5c0-1.5,0.4-2.6,1.2-3.3c0.8-0.8,2-1.3,3.6-1.3
			c2,0,3.1,0.7,3.8,1.8c0.4,0.6,0.4,1.3,0.4,1.7H555.9z"/>
		<path d="M559.5,2014.5c0,0,0-0.1,0-0.6c0-1.2,0-9.7,0-11.2c0-0.4,0-0.8,0-0.9h1.7c0,0.1,0,0.4,0,0.8c0,1.3,0,9.2,0,11.2
			c0,0.4,0,0.7,0,0.8H559.5z"/>
		<path d="M570.1,2014.5c-0.1,0-0.2-0.5-0.2-1.1c-0.5,0.7-1.5,1.2-3.5,1.2c-2.1,0-3.4-0.8-3.4-2.3c0-0.1,0-0.3,0-0.5
			c0-1.4,1.2-2.7,4.4-2.7c0.8,0,1.6,0,2.5,0.1c0-0.2,0-0.7,0-1c-0.1-0.8-0.8-1.3-2.3-1.3c-1,0-1.6,0.2-2,0.5
			c-0.4,0.3-0.5,0.7-0.5,1.2h-1.6c0-0.6,0.3-1.4,0.6-1.8c0.7-0.9,1.8-1.3,3.5-1.3c2.6,0,3.8,1,3.9,2.4c0,0.4,0.1,1.7,0,2.4
			c0,0.6,0,1.8,0,2.4c0,0.7,0.1,1.6,0.2,1.8H570.1z M568,2010.4c-1.1,0-2,0.1-2.6,0.5c-0.4,0.2-0.6,0.6-0.6,1c0,0.4,0.1,0.6,0.3,0.8
			c0.3,0.3,1,0.5,1.9,0.5c0.8,0,1.4-0.1,2.1-0.5c0.4-0.2,0.8-0.7,0.9-1.4c0-0.4,0.1-0.7,0.1-0.9
			C569.3,2010.4,568.6,2010.4,568,2010.4z"/>
		<path d="M577.8,2014.6c-2.7,0-4-0.5-4.3-1.9c-0.1-0.4-0.1-0.6-0.1-0.9h1.7c0,0.1,0,0.3,0.1,0.6c0.2,0.6,1,0.8,2.7,0.8
			c1.7,0,2.3-0.4,2.3-1.2c0-0.8-0.6-1-2.1-1.2c-0.2,0-1.5-0.2-1.8-0.3c-2-0.3-2.8-1-2.8-2.5c0-1.4,1.2-2.5,4-2.5
			c2.3,0,3.6,0.6,4,1.8c0.1,0.4,0.1,0.9,0.1,1.1h-1.7c0-0.1,0-0.5-0.1-0.6c-0.2-0.4-0.8-0.7-2.4-0.7c-1.7,0-2.2,0.4-2.2,1
			c0,0.6,0.4,0.8,1.8,1.1c0.2,0,1.7,0.2,1.9,0.3c2.1,0.3,3,1,3,2.6C581.9,2013.7,580.7,2014.6,577.8,2014.6z"/>
		<path d="M587.8,2014.6c-2.7,0-4-0.5-4.3-1.9c-0.1-0.4-0.1-0.6-0.1-0.9h1.7c0,0.1,0,0.3,0.1,0.6c0.2,0.6,1,0.8,2.7,0.8
			c1.7,0,2.3-0.4,2.3-1.2c0-0.8-0.6-1-2.1-1.2c-0.2,0-1.5-0.2-1.8-0.3c-2-0.3-2.8-1-2.8-2.5c0-1.4,1.2-2.5,4-2.5
			c2.3,0,3.6,0.6,4,1.8c0.1,0.4,0.1,0.9,0.1,1.1h-1.7c0-0.1,0-0.5-0.1-0.6c-0.2-0.4-0.8-0.7-2.4-0.7c-1.7,0-2.2,0.4-2.2,1
			c0,0.6,0.4,0.8,1.8,1.1c0.2,0,1.7,0.2,1.9,0.3c2.1,0.3,3,1,3,2.6C591.8,2013.7,590.7,2014.6,587.8,2014.6z"/>
		<path d="M598.4,2014.5c0,0,0-0.1,0-0.6c0-1.2,0-9.7,0-11.2c0-0.4,0-0.8,0-0.9h1.7c0,0.1,0,0.4,0,0.8c0,1.3,0,9.2,0,11.2
			c0,0.4,0,0.7,0,0.8H598.4z"/>
		<path d="M609.7,2013.8c-0.7,0.5-1.7,0.8-3.1,0.8c-1.6,0-2.9-0.5-3.8-1.6c-0.6-0.8-0.9-1.7-0.9-3c0-1.2,0.3-2.2,0.9-2.9
			c0.8-1,2-1.6,3.7-1.6c1.8,0,3,0.6,3.7,1.6c0.7,0.8,0.9,2.3,0.8,3.6h-7.5c0,0.7,0.3,1.2,0.8,1.7c0.5,0.5,1.3,0.8,2.2,0.8
			c0.9,0,1.6-0.2,2-0.5c0.5-0.3,0.7-0.8,0.7-1h1.7C611,2012.3,610.5,2013.2,609.7,2013.8z M608.7,2007.7c-0.5-0.5-1.2-0.8-2.2-0.8
			c-1,0-1.7,0.3-2.2,0.8c-0.4,0.4-0.7,1-0.7,1.6h5.7C609.3,2008.7,609.1,2008.2,608.7,2007.7z"/>
		<path d="M617.4,2014.5h-2.1l-3.8-8.8h1.9l3,7.2l3-7.2h1.8L617.4,2014.5z"/>
		<path d="M629.6,2013.8c-0.7,0.5-1.7,0.8-3.1,0.8c-1.6,0-2.9-0.5-3.8-1.6c-0.6-0.8-0.9-1.7-0.9-3c0-1.2,0.3-2.2,0.9-2.9
			c0.8-1,2-1.6,3.7-1.6c1.8,0,3,0.6,3.7,1.6c0.7,0.8,0.9,2.3,0.8,3.6h-7.5c0,0.7,0.3,1.2,0.8,1.7c0.5,0.5,1.3,0.8,2.2,0.8
			c0.9,0,1.6-0.2,2-0.5c0.5-0.3,0.7-0.8,0.7-1h1.7C630.9,2012.3,630.4,2013.2,629.6,2013.8z M628.6,2007.7c-0.5-0.5-1.2-0.8-2.2-0.8
			c-1,0-1.7,0.3-2.2,0.8c-0.4,0.4-0.7,1-0.7,1.6h5.7C629.2,2008.7,629.1,2008.2,628.6,2007.7z"/>
		<path d="M632.7,2014.5c0,0,0-0.1,0-0.6c0-1.2,0-9.7,0-11.2c0-0.4,0-0.8,0-0.9h1.7c0,0.1,0,0.4,0,0.8c0,1.3,0,9.2,0,11.2
			c0,0.4,0,0.7,0,0.8H632.7z"/>
		<path d="M643.4,2007.2c0,0.9,0,3.8,0,4.6c0,1,0.4,1.3,1.4,1.3c0.4,0,1,0,1.2-0.1v1.5c-0.4,0.1-1.1,0.2-1.9,0.2
			c-1.4,0-2.5-0.5-2.5-2.3c0-1,0-4,0-5.2h-1.5v-1.5h1.5c0.1-0.1,0.1-1.9,0.1-1.9l1.7,0c0,0,0,1.7,0,1.9h2.7v1.5H643.4z"/>
		<path d="M654.3,2014.5c-0.1,0-0.2-0.5-0.2-1.1c-0.5,0.7-1.5,1.2-3.5,1.2c-2.1,0-3.4-0.8-3.4-2.3c0-0.1,0-0.3,0-0.5
			c0-1.4,1.2-2.7,4.4-2.7c0.8,0,1.6,0,2.5,0.1c0-0.2,0-0.7,0-1c-0.1-0.8-0.8-1.3-2.3-1.3c-1,0-1.6,0.2-2,0.5
			c-0.4,0.3-0.5,0.7-0.5,1.2h-1.6c0-0.6,0.3-1.4,0.6-1.8c0.7-0.9,1.8-1.3,3.5-1.3c2.6,0,3.8,1,3.9,2.4c0,0.4,0.1,1.7,0,2.4
			c0,0.6,0,1.8,0,2.4c0,0.7,0.1,1.6,0.2,1.8H654.3z M652.2,2010.4c-1.1,0-2,0.1-2.6,0.5c-0.4,0.2-0.6,0.6-0.6,1
			c0,0.4,0.1,0.6,0.3,0.8c0.3,0.3,1,0.5,1.9,0.5c0.8,0,1.4-0.1,2.1-0.5c0.4-0.2,0.8-0.7,0.9-1.4c0-0.4,0.1-0.7,0.1-0.9
			C653.5,2010.4,652.8,2010.4,652.2,2010.4z"/>
		<path d="M658,2014.5c0,0,0-0.1,0-0.6c0-1.2,0-9.7,0-11.2c0-0.4,0-0.8,0-0.9h1.7c0,0.1,0,0.4,0,0.8c0,1.3,0,9.2,0,11.2
			c0,0.4,0,0.7,0,0.8H658z"/>
		<path d="M669.3,2013.8c-0.7,0.5-1.7,0.8-3.1,0.8c-1.6,0-2.9-0.5-3.8-1.6c-0.6-0.8-0.9-1.7-0.9-3c0-1.2,0.3-2.2,0.9-2.9
			c0.8-1,2-1.6,3.7-1.6c1.8,0,3,0.6,3.7,1.6c0.7,0.8,0.9,2.3,0.8,3.6h-7.5c0,0.7,0.3,1.2,0.8,1.7c0.5,0.5,1.3,0.8,2.2,0.8
			c0.9,0,1.6-0.2,2-0.5c0.5-0.3,0.7-0.8,0.7-1h1.7C670.6,2012.3,670.1,2013.2,669.3,2013.8z M668.4,2007.7c-0.5-0.5-1.2-0.8-2.2-0.8
			c-1,0-1.7,0.3-2.2,0.8c-0.4,0.4-0.7,1-0.7,1.6h5.7C668.9,2008.7,668.8,2008.2,668.4,2007.7z"/>
		<path d="M680.6,2014.5h-1.7c-0.1,0-0.1-0.1-0.1-5.5c0-1.2-0.7-1.9-2.2-1.9c-1.3,0-2.5,0.7-2.5,2v5.3h-1.7v-8.8h1.7v1.4
			c0.5-1.1,1.9-1.6,3.2-1.6c2.4,0,3.3,1.4,3.3,3.1C680.5,2014.2,680.5,2014.5,680.6,2014.5z"/>
		<path d="M684.9,2007.2c0,0.9,0,3.8,0,4.6c0,1,0.4,1.3,1.4,1.3c0.4,0,1,0,1.2-0.1v1.5c-0.4,0.1-1.1,0.2-1.9,0.2
			c-1.4,0-2.5-0.5-2.5-2.3c0-1,0-4,0-5.2h-1.5v-1.5h1.5c0.1-0.1,0.1-1.9,0.1-1.9l1.7,0c0,0,0,1.7,0,1.9h2.7v1.5H684.9z"/>
	</g>
	<g class="st2">
		<path d="M471,2028c0-0.3-0.1-0.9-0.4-1.2c-0.4-0.5-1.2-0.8-2.3-0.8c-1,0-1.7,0.3-2.2,0.8c-0.5,0.5-0.7,1.3-0.7,2.3
			c0,1.1,0.2,1.9,0.8,2.4c0.5,0.5,1.2,0.7,2.2,0.7c1.1,0,1.8-0.3,2.2-0.7c0.3-0.3,0.5-0.8,0.5-1.1h1.7c0,0.8-0.3,1.6-1,2.2
			c-0.7,0.6-1.8,1.1-3.4,1.1c-1.5,0-2.6-0.4-3.4-1.1c-0.8-0.8-1.3-1.9-1.3-3.5c0-1.5,0.4-2.6,1.2-3.3c0.8-0.8,2-1.3,3.6-1.3
			c2,0,3.1,0.7,3.8,1.8c0.4,0.6,0.4,1.3,0.4,1.7H471z"/>
		<path d="M482.2,2032.3c-0.8,0.8-2,1.3-3.5,1.3c-1.6,0-2.8-0.4-3.6-1.3c-0.7-0.8-1.2-1.8-1.2-3.3c0-1.3,0.4-2.4,1.2-3.2
			c0.8-0.8,1.9-1.3,3.6-1.3c1.6,0,2.8,0.5,3.6,1.3c0.8,0.8,1.2,2,1.2,3.3C483.4,2030.5,483,2031.5,482.2,2032.3z M481.1,2026.8
			c-0.5-0.5-1.2-0.8-2.4-0.8c-1.1,0-1.8,0.4-2.3,0.9c-0.5,0.6-0.7,1.3-0.7,2.2c0,1,0.2,1.8,0.6,2.2c0.5,0.6,1.3,0.9,2.4,0.9
			c1,0,1.8-0.3,2.3-0.9c0.4-0.5,0.7-1.2,0.7-2.2C481.7,2028.2,481.6,2027.3,481.1,2026.8z"/>
		<path d="M496.8,2027.9c0-1.1-0.4-1.8-2-1.8c-1.2,0-2.1,0.7-2.1,1.9v5.5H491c0-0.2,0-4.8,0-5.7c0-1.1-0.7-1.7-1.9-1.7
			c-1.3,0-2.2,1-2.2,1.9v5.5h-1.7v-8.8h1.7v1.3c0.4-0.9,1.6-1.5,2.9-1.5s2.3,0.5,2.6,1.6c0.4-1.1,1.6-1.6,3-1.6c2.1,0,3,1.2,3,2.9
			c0,6,0,6.1,0.1,6.1h-1.6C496.8,2033.5,496.8,2033.4,496.8,2027.9z"/>
		<path d="M508.7,2032.3c-0.7,0.7-1.8,1.2-3.2,1.2c-1.3,0-2.6-0.4-3.1-1.2v3.9h-1.7v-11.6h1.7v1.4c0.3-0.9,1.6-1.6,3.3-1.6
			c1.3,0,2.4,0.4,3.1,1.2c0.7,0.7,1,1.8,1,3.3C509.8,2030.6,509.4,2031.6,508.7,2032.3z M507.3,2026.8c-0.5-0.4-1.2-0.8-2.2-0.8
			c-0.9,0-1.5,0.3-2,0.7c-0.6,0.5-0.8,1.3-0.8,2.4c0,1.1,0.2,1.8,0.8,2.3c0.5,0.5,1.1,0.7,2.1,0.7c1,0,1.8-0.3,2.3-0.9
			c0.4-0.5,0.6-1.2,0.6-2.1C508,2028.1,507.9,2027.3,507.3,2026.8z"/>
		<path d="M517.9,2026.5c-0.5-0.2-1.2-0.3-2-0.3c-1.5,0-2.6,1-2.6,2.7v4.6h-1.7v-8.8h1.7v1.5c0.2-1,1.6-1.7,3-1.7
			c0.8,0,1.3,0.1,1.6,0.2V2026.5z"/>
		<path d="M519.3,2023.6v-2h1.8v2H519.3z M519.4,2033.5c-0.1,0-0.1-0.2-0.1-0.8c0-1.7,0-8,0-8h1.7c0,0,0,6.6,0,8
			c0,0.6,0,0.8,0.1,0.8H519.4z"/>
		<path d="M527.5,2033.6c-2.7,0-4-0.5-4.3-1.9c-0.1-0.4-0.1-0.6-0.1-0.9h1.7c0,0.1,0,0.3,0.1,0.6c0.2,0.6,1,0.8,2.7,0.8
			c1.7,0,2.3-0.4,2.3-1.2c0-0.8-0.6-1-2.1-1.2c-0.2,0-1.5-0.2-1.8-0.3c-2-0.3-2.8-1-2.8-2.5c0-1.4,1.2-2.5,4-2.5
			c2.3,0,3.6,0.6,4,1.8c0.1,0.4,0.1,0.9,0.1,1.1h-1.7c0-0.1,0-0.5-0.1-0.6c-0.2-0.4-0.8-0.7-2.4-0.7c-1.7,0-2.2,0.4-2.2,1
			c0,0.6,0.4,0.8,1.8,1.1c0.2,0,1.7,0.2,1.9,0.3c2.1,0.3,3,1,3,2.6C531.5,2032.7,530.4,2033.6,527.5,2033.6z"/>
		<path d="M540.7,2032.8c-0.7,0.5-1.7,0.8-3.1,0.8c-1.6,0-2.9-0.5-3.8-1.6c-0.6-0.8-0.9-1.7-0.9-3c0-1.2,0.3-2.2,0.9-2.9
			c0.8-1,2-1.6,3.7-1.6c1.8,0,3,0.6,3.7,1.6c0.7,0.8,0.9,2.3,0.8,3.6h-7.5c0,0.7,0.3,1.2,0.8,1.7c0.5,0.5,1.3,0.8,2.2,0.8
			c0.9,0,1.6-0.2,2-0.5c0.5-0.3,0.7-0.8,0.7-1h1.7C542,2031.3,541.5,2032.2,540.7,2032.8z M539.7,2026.7c-0.5-0.5-1.2-0.8-2.2-0.8
			c-1,0-1.7,0.3-2.2,0.8c-0.4,0.4-0.7,1-0.7,1.6h5.7C540.3,2027.7,540.2,2027.2,539.7,2026.7z"/>
		<path d="M547.8,2033.6c-2.7,0-4-0.5-4.3-1.9c-0.1-0.4-0.1-0.6-0.1-0.9h1.7c0,0.1,0,0.3,0.1,0.6c0.2,0.6,1,0.8,2.7,0.8
			c1.7,0,2.3-0.4,2.3-1.2c0-0.8-0.6-1-2.1-1.2c-0.2,0-1.5-0.2-1.8-0.3c-2-0.3-2.8-1-2.8-2.5c0-1.4,1.2-2.5,4-2.5
			c2.3,0,3.6,0.6,4,1.8c0.1,0.4,0.1,0.9,0.1,1.1h-1.7c0-0.1,0-0.5-0.1-0.6c-0.2-0.4-0.8-0.7-2.4-0.7c-1.7,0-2.2,0.4-2.2,1
			c0,0.6,0.4,0.8,1.8,1.1c0.2,0,1.7,0.2,1.9,0.3c2.1,0.3,3,1,3,2.6C551.8,2032.7,550.7,2033.6,547.8,2033.6z"/>
		<path d="M566,2032.3c-0.8,0.8-2,1.3-3.5,1.3c-1.6,0-2.8-0.4-3.6-1.3c-0.7-0.8-1.2-1.8-1.2-3.3c0-1.3,0.4-2.4,1.2-3.2
			c0.8-0.8,1.9-1.3,3.6-1.3c1.6,0,2.8,0.5,3.6,1.3c0.8,0.8,1.2,2,1.2,3.3C567.2,2030.5,566.8,2031.5,566,2032.3z M564.9,2026.8
			c-0.5-0.5-1.2-0.8-2.4-0.8c-1.1,0-1.8,0.4-2.3,0.9c-0.5,0.6-0.7,1.3-0.7,2.2c0,1,0.2,1.8,0.6,2.2c0.5,0.6,1.3,0.9,2.4,0.9
			c1,0,1.8-0.3,2.3-0.9c0.4-0.5,0.7-1.2,0.7-2.2C565.6,2028.2,565.4,2027.3,564.9,2026.8z"/>
		<path d="M577.2,2033.5h-1.7l0-1.1c-0.6,1-1.9,1.3-3.1,1.3c-2,0-3.4-1.1-3.4-3c0-5.5,0-6,0-6h1.7c0,0,0,0.1,0,5.5
			c0,1.4,0.9,2,2.4,2c1.4,0,2.3-0.7,2.3-1.9v-5.6h1.7v7.3C577.1,2033.3,577.1,2033.5,577.2,2033.5z"/>
		<path d="M585.8,2026.5c-0.5-0.2-1.2-0.3-2-0.3c-1.5,0-2.6,1-2.6,2.7v4.6h-1.7v-8.8h1.7v1.5c0.2-1,1.6-1.7,3-1.7
			c0.8,0,1.3,0.1,1.6,0.2V2026.5z"/>
		<path d="M593.9,2026.2c0,0.9,0,3.8,0,4.6c0,1,0.4,1.3,1.4,1.3c0.4,0,1,0,1.2-0.1v1.5c-0.4,0.1-1.1,0.2-1.9,0.2
			c-1.4,0-2.5-0.5-2.5-2.3c0-1,0-4,0-5.2h-1.5v-1.5h1.5c0.1-0.1,0.1-1.9,0.1-1.9l1.7,0c0,0,0,1.7,0,1.9h2.7v1.5H593.9z"/>
		<path d="M605.4,2032.8c-0.7,0.5-1.7,0.8-3.1,0.8c-1.6,0-2.9-0.5-3.8-1.6c-0.6-0.8-0.9-1.7-0.9-3c0-1.2,0.3-2.2,0.9-2.9
			c0.8-1,2-1.6,3.7-1.6c1.8,0,3,0.6,3.7,1.6c0.7,0.8,0.9,2.3,0.8,3.6h-7.5c0,0.7,0.3,1.2,0.8,1.7c0.5,0.5,1.3,0.8,2.2,0.8
			c0.9,0,1.6-0.2,2-0.5c0.5-0.3,0.7-0.8,0.7-1h1.7C606.7,2031.3,606.2,2032.2,605.4,2032.8z M604.4,2026.7c-0.5-0.5-1.2-0.8-2.2-0.8
			c-1,0-1.7,0.3-2.2,0.8c-0.4,0.4-0.7,1-0.7,1.6h5.7C605,2027.7,604.9,2027.2,604.4,2026.7z"/>
		<path d="M615.1,2033.5c-0.1,0-0.2-0.5-0.2-1.1c-0.5,0.7-1.5,1.2-3.5,1.2c-2.1,0-3.4-0.8-3.4-2.3c0-0.1,0-0.3,0-0.5
			c0-1.4,1.2-2.7,4.4-2.7c0.8,0,1.6,0,2.5,0.1c0-0.2,0-0.7,0-1c-0.1-0.8-0.8-1.3-2.3-1.3c-1,0-1.6,0.2-2,0.5
			c-0.4,0.3-0.5,0.7-0.5,1.2h-1.6c0-0.6,0.3-1.4,0.6-1.8c0.7-0.9,1.8-1.3,3.5-1.3c2.6,0,3.8,1,3.9,2.4c0,0.4,0.1,1.7,0,2.4
			c0,0.6,0,1.8,0,2.4c0,0.7,0.1,1.6,0.2,1.8H615.1z M612.9,2029.4c-1.1,0-2,0.1-2.6,0.5c-0.4,0.2-0.6,0.6-0.6,1
			c0,0.4,0.1,0.6,0.3,0.8c0.3,0.3,1,0.5,1.9,0.5c0.8,0,1.4-0.1,2.1-0.5c0.4-0.2,0.8-0.7,0.9-1.4c0-0.4,0.1-0.7,0.1-0.9
			C614.2,2029.4,613.6,2029.4,612.9,2029.4z"/>
		<path d="M630.3,2027.9c0-1.1-0.4-1.8-2-1.8c-1.2,0-2.1,0.7-2.1,1.9v5.5h-1.6c0-0.2,0-4.8,0-5.7c0-1.1-0.7-1.7-1.9-1.7
			c-1.3,0-2.2,1-2.2,1.9v5.5h-1.7v-8.8h1.7v1.3c0.4-0.9,1.6-1.5,2.9-1.5c1.3,0,2.3,0.5,2.6,1.6c0.4-1.1,1.6-1.6,3-1.6
			c2.1,0,3,1.2,3,2.9c0,6,0,6.1,0.1,6.1h-1.6C630.3,2033.5,630.3,2033.4,630.3,2027.9z"/>
		<path d="M635.6,2035.2l-1.2-0.2l0.8-1.5l-0.2,0h-0.4v-2.6h2v2.6L635.6,2035.2z"/>
		<path d="M650.7,2033.5c-0.1,0-0.2-0.5-0.2-1.1c-0.5,0.7-1.5,1.2-3.5,1.2c-2.1,0-3.4-0.8-3.4-2.3c0-0.1,0-0.3,0-0.5
			c0-1.4,1.2-2.7,4.4-2.7c0.8,0,1.6,0,2.5,0.1c0-0.2,0-0.7,0-1c-0.1-0.8-0.8-1.3-2.3-1.3c-1,0-1.6,0.2-2,0.5
			c-0.4,0.3-0.5,0.7-0.5,1.2h-1.6c0-0.6,0.3-1.4,0.6-1.8c0.7-0.9,1.8-1.3,3.5-1.3c2.6,0,3.8,1,3.9,2.4c0,0.4,0.1,1.7,0,2.4
			c0,0.6,0,1.8,0,2.4c0,0.7,0.1,1.6,0.2,1.8H650.7z M648.6,2029.4c-1.1,0-2,0.1-2.6,0.5c-0.4,0.2-0.6,0.6-0.6,1
			c0,0.4,0.1,0.6,0.3,0.8c0.3,0.3,1,0.5,1.9,0.5c0.8,0,1.4-0.1,2.1-0.5c0.4-0.2,0.8-0.7,0.9-1.4c0-0.4,0.1-0.7,0.1-0.9
			C649.9,2029.4,649.2,2029.4,648.6,2029.4z"/>
		<path d="M662.6,2033.5h-1.7c-0.1,0-0.1-0.1-0.1-5.5c0-1.2-0.7-1.9-2.2-1.9c-1.3,0-2.5,0.7-2.5,2v5.3h-1.7v-8.8h1.7v1.4
			c0.5-1.1,1.9-1.6,3.2-1.6c2.4,0,3.3,1.4,3.3,3.1C662.6,2033.2,662.6,2033.5,662.6,2033.5z"/>
		<path d="M671.6,2025.8v-5h1.7c0,0,0,10,0,11.7c0,0.4,0.1,1,0.1,1h-1.6l-0.2-1.2c-0.5,0.8-1.5,1.3-3.2,1.3c-1.5,0-2.5-0.6-3.1-1.2
			c-0.7-0.8-1.1-1.8-1.1-3.2c0-1.5,0.5-2.6,1.2-3.3c0.7-0.7,1.8-1.2,3.1-1.2C669.9,2024.6,671.1,2024.9,671.6,2025.8z M666.7,2026.9
			c-0.5,0.5-0.8,1.3-0.8,2.2c0,0.9,0.2,1.7,0.6,2.2c0.6,0.6,1.2,0.9,2.3,0.9c1,0,1.7-0.3,2.3-1c0.4-0.4,0.6-1.2,0.6-2.1
			c0-0.8-0.2-1.7-0.5-2.1c-0.6-0.8-1.3-1-2.3-1C668,2026.1,667.2,2026.4,666.7,2026.9z"/>
		<path d="M682.4,2026.2c0,0.9,0,3.8,0,4.6c0,1,0.4,1.3,1.4,1.3c0.4,0,1,0,1.2-0.1v1.5c-0.4,0.1-1.1,0.2-1.9,0.2
			c-1.4,0-2.5-0.5-2.5-2.3c0-1,0-4,0-5.2h-1.5v-1.5h1.5c0.1-0.1,0.1-1.9,0.1-1.9l1.7,0c0,0,0,1.7,0,1.9h2.7v1.5H682.4z"/>
		<path d="M694.9,2033.5h-1.7c-0.1,0,0-0.2,0-5.5c0-1.1-0.6-1.9-2.2-1.9c-1.4,0-2.5,0.8-2.5,2v5.4h-1.7v-12.8h1.7v5.3
			c0.4-0.9,1.5-1.5,3.1-1.5c2.2,0,3.3,1.2,3.3,3.2C694.8,2033.3,694.8,2033.5,694.9,2033.5z"/>
		<path d="M704.3,2032.8c-0.7,0.5-1.7,0.8-3.1,0.8c-1.6,0-2.9-0.5-3.8-1.6c-0.6-0.8-0.9-1.7-0.9-3c0-1.2,0.3-2.2,0.9-2.9
			c0.8-1,2-1.6,3.7-1.6c1.8,0,3,0.6,3.7,1.6c0.7,0.8,0.9,2.3,0.8,3.6h-7.5c0,0.7,0.3,1.2,0.8,1.7c0.5,0.5,1.3,0.8,2.2,0.8
			c0.9,0,1.6-0.2,2-0.5c0.5-0.3,0.7-0.8,0.7-1h1.7C705.6,2031.3,705.1,2032.2,704.3,2032.8z M703.4,2026.7c-0.5-0.5-1.2-0.8-2.2-0.8
			c-1,0-1.7,0.3-2.2,0.8c-0.4,0.4-0.7,1-0.7,1.6h5.7C703.9,2027.7,703.8,2027.2,703.4,2026.7z"/>
		<path d="M710.7,2036.3h-1.8l1.2-2.8l-4-8.8h1.9c0,0,3,7,3,7.1c0-0.1,3-7.1,3-7.1h1.8L710.7,2036.3z"/>
	</g>
	<g class="st2">
		<path d="M460.7,2051.3c-0.7,0.7-1.8,1.2-3.2,1.2c-1.3,0-2.6-0.4-3.1-1.2v3.9h-1.7v-11.6h1.7v1.4c0.3-0.9,1.6-1.6,3.3-1.6
			c1.3,0,2.4,0.4,3.1,1.2c0.7,0.7,1,1.8,1,3.3C461.8,2049.6,461.4,2050.6,460.7,2051.3z M459.3,2045.8c-0.5-0.4-1.2-0.8-2.2-0.8
			c-0.9,0-1.5,0.3-2,0.7c-0.6,0.5-0.8,1.3-0.8,2.4c0,1.1,0.2,1.8,0.8,2.3c0.5,0.5,1.1,0.7,2.1,0.7c1,0,1.8-0.3,2.3-0.9
			c0.4-0.5,0.6-1.2,0.6-2.1C460,2047.1,459.8,2046.3,459.3,2045.8z"/>
		<path d="M469.9,2045.5c-0.5-0.2-1.2-0.3-2-0.3c-1.5,0-2.6,1-2.6,2.7v4.6h-1.7v-8.8h1.7v1.5c0.2-1,1.6-1.7,3-1.7
			c0.8,0,1.3,0.1,1.6,0.2V2045.5z"/>
		<path d="M478.7,2051.3c-0.8,0.8-2,1.3-3.5,1.3c-1.6,0-2.8-0.4-3.6-1.3c-0.7-0.8-1.2-1.8-1.2-3.3c0-1.3,0.4-2.4,1.2-3.2
			c0.8-0.8,1.9-1.3,3.6-1.3c1.6,0,2.8,0.5,3.6,1.3c0.8,0.8,1.2,2,1.2,3.3C479.9,2049.5,479.5,2050.5,478.7,2051.3z M477.6,2045.8
			c-0.5-0.5-1.2-0.8-2.4-0.8c-1.1,0-1.8,0.4-2.3,0.9c-0.5,0.6-0.7,1.3-0.7,2.2c0,1,0.2,1.8,0.6,2.2c0.5,0.6,1.3,0.9,2.4,0.9
			c1,0,1.8-0.3,2.3-0.9c0.4-0.5,0.7-1.2,0.7-2.2C478.2,2047.2,478.1,2046.3,477.6,2045.8z"/>
		<path d="M486.4,2052.5h-2.1l-3.8-8.8h1.9l3,7.2l3-7.2h1.8L486.4,2052.5z"/>
		<path d="M491.5,2042.6v-2h1.8v2H491.5z M491.7,2052.5c-0.1,0-0.1-0.2-0.1-0.8c0-1.7,0-8,0-8h1.7c0,0,0,6.6,0,8
			c0,0.6,0,0.8,0.1,0.8H491.7z"/>
		<path d="M502.5,2044.8v-5h1.7c0,0,0,10,0,11.7c0,0.4,0.1,1,0.1,1h-1.6l-0.2-1.2c-0.5,0.8-1.5,1.3-3.2,1.3c-1.5,0-2.5-0.6-3.1-1.2
			c-0.7-0.8-1.1-1.8-1.1-3.2c0-1.5,0.5-2.6,1.2-3.3c0.7-0.7,1.8-1.2,3.1-1.2C500.8,2043.6,502,2043.9,502.5,2044.8z M497.6,2045.9
			c-0.5,0.5-0.8,1.3-0.8,2.2c0,0.9,0.2,1.7,0.6,2.2c0.6,0.6,1.2,0.9,2.3,0.9c1,0,1.7-0.3,2.3-1c0.4-0.4,0.6-1.2,0.6-2.1
			c0-0.8-0.2-1.7-0.5-2.1c-0.6-0.8-1.3-1-2.3-1C498.9,2045.1,498.1,2045.4,497.6,2045.9z"/>
		<path d="M513.8,2051.8c-0.7,0.5-1.7,0.8-3.1,0.8c-1.6,0-2.9-0.5-3.8-1.6c-0.6-0.8-0.9-1.7-0.9-3c0-1.2,0.3-2.2,0.9-2.9
			c0.8-1,2-1.6,3.7-1.6c1.8,0,3,0.6,3.7,1.6c0.7,0.8,0.9,2.3,0.8,3.6h-7.5c0,0.7,0.3,1.2,0.8,1.7c0.5,0.5,1.3,0.8,2.2,0.8
			c0.9,0,1.6-0.2,2-0.5c0.5-0.3,0.7-0.8,0.7-1h1.7C515.1,2050.3,514.6,2051.2,513.8,2051.8z M512.9,2045.7c-0.5-0.5-1.2-0.8-2.2-0.8
			c-1,0-1.7,0.3-2.2,0.8c-0.4,0.4-0.7,1-0.7,1.6h5.7C513.5,2046.7,513.3,2046.2,512.9,2045.7z"/>
		<path d="M525.5,2052.6c-2.7,0-4-0.5-4.3-1.9c-0.1-0.4-0.1-0.6-0.1-0.9h1.7c0,0.1,0,0.3,0.1,0.6c0.2,0.6,1,0.8,2.7,0.8
			c1.7,0,2.3-0.4,2.3-1.2c0-0.8-0.6-1-2.1-1.2c-0.2,0-1.5-0.2-1.8-0.3c-2-0.3-2.8-1-2.8-2.5c0-1.4,1.2-2.5,4-2.5
			c2.3,0,3.6,0.6,4,1.8c0.1,0.4,0.1,0.9,0.1,1.1h-1.7c0-0.1,0-0.5-0.1-0.6c-0.2-0.4-0.8-0.7-2.4-0.7c-1.7,0-2.2,0.4-2.2,1
			c0,0.6,0.4,0.8,1.8,1.1c0.2,0,1.7,0.2,1.9,0.3c2.1,0.3,3,1,3,2.6C529.6,2051.7,528.4,2052.6,525.5,2052.6z"/>
		<path d="M539.6,2052.5h-1.7l0-1.1c-0.6,1-1.9,1.3-3.1,1.3c-2,0-3.4-1.1-3.4-3c0-5.5,0-6,0-6h1.7c0,0,0,0.1,0,5.5
			c0,1.4,0.9,2,2.4,2c1.4,0,2.3-0.7,2.3-1.9v-5.6h1.7v7.3C539.5,2052.3,539.5,2052.5,539.6,2052.5z"/>
		<path d="M549.8,2051.3c-0.7,0.7-1.8,1.2-3.2,1.2c-1.3,0-2.6-0.4-3.1-1.2v3.9h-1.7v-11.6h1.7v1.4c0.3-0.9,1.6-1.6,3.3-1.6
			c1.3,0,2.4,0.4,3.1,1.2c0.7,0.7,1,1.8,1,3.3C550.9,2049.6,550.5,2050.6,549.8,2051.3z M548.4,2045.8c-0.5-0.4-1.2-0.8-2.2-0.8
			c-0.9,0-1.5,0.3-2,0.7c-0.6,0.5-0.8,1.3-0.8,2.4c0,1.1,0.2,1.8,0.8,2.3c0.5,0.5,1.1,0.7,2.1,0.7c1,0,1.8-0.3,2.3-0.9
			c0.4-0.5,0.6-1.2,0.6-2.1C549.2,2047.1,549,2046.3,548.4,2045.8z"/>
		<path d="M560.7,2051.3c-0.7,0.7-1.8,1.2-3.2,1.2c-1.3,0-2.6-0.4-3.1-1.2v3.9h-1.7v-11.6h1.7v1.4c0.3-0.9,1.6-1.6,3.3-1.6
			c1.3,0,2.4,0.4,3.1,1.2c0.7,0.7,1,1.8,1,3.3C561.8,2049.6,561.4,2050.6,560.7,2051.3z M559.3,2045.8c-0.5-0.4-1.2-0.8-2.2-0.8
			c-0.9,0-1.5,0.3-2,0.7c-0.6,0.5-0.8,1.3-0.8,2.4c0,1.1,0.2,1.8,0.8,2.3c0.5,0.5,1.1,0.7,2.1,0.7c1,0,1.8-0.3,2.3-0.9
			c0.4-0.5,0.6-1.2,0.6-2.1C560,2047.1,559.9,2046.3,559.3,2045.8z"/>
		<path d="M571.3,2051.3c-0.8,0.8-2,1.3-3.5,1.3c-1.6,0-2.8-0.4-3.6-1.3c-0.7-0.8-1.2-1.8-1.2-3.3c0-1.3,0.4-2.4,1.2-3.2
			c0.8-0.8,1.9-1.3,3.6-1.3c1.6,0,2.8,0.5,3.6,1.3c0.8,0.8,1.2,2,1.2,3.3C572.5,2049.5,572,2050.5,571.3,2051.3z M570.2,2045.8
			c-0.5-0.5-1.2-0.8-2.4-0.8c-1.1,0-1.8,0.4-2.3,0.9c-0.5,0.6-0.7,1.3-0.7,2.2c0,1,0.2,1.8,0.6,2.2c0.5,0.6,1.3,0.9,2.4,0.9
			c1,0,1.8-0.3,2.3-0.9c0.4-0.5,0.7-1.2,0.7-2.2C570.8,2047.2,570.7,2046.3,570.2,2045.8z"/>
		<path d="M580.7,2045.5c-0.5-0.2-1.2-0.3-2-0.3c-1.5,0-2.6,1-2.6,2.7v4.6h-1.7v-8.8h1.7v1.5c0.2-1,1.6-1.7,3-1.7
			c0.8,0,1.3,0.1,1.6,0.2V2045.5z"/>
		<path d="M584.7,2045.2c0,0.9,0,3.8,0,4.6c0,1,0.4,1.3,1.4,1.3c0.4,0,1,0,1.2-0.1v1.5c-0.4,0.1-1.1,0.2-1.9,0.2
			c-1.4,0-2.5-0.5-2.5-2.3c0-1,0-4,0-5.2h-1.5v-1.5h1.5c0.1-0.1,0.1-1.9,0.1-1.9l1.7,0c0,0,0,1.7,0,1.9h2.7v1.5H584.7z"/>
		<path d="M595.6,2045.2c0,0.9,0,3.8,0,4.6c0,1,0.4,1.3,1.4,1.3c0.4,0,1,0,1.2-0.1v1.5c-0.4,0.1-1.1,0.2-1.9,0.2
			c-1.4,0-2.5-0.5-2.5-2.3c0-1,0-4,0-5.2h-1.5v-1.5h1.5c0.1-0.1,0.1-1.9,0.1-1.9l1.7,0c0,0,0,1.7,0,1.9h2.7v1.5H595.6z"/>
		<path d="M607.6,2051.3c-0.8,0.8-2,1.3-3.5,1.3c-1.6,0-2.8-0.4-3.6-1.3c-0.7-0.8-1.2-1.8-1.2-3.3c0-1.3,0.4-2.4,1.2-3.2
			c0.8-0.8,1.9-1.3,3.6-1.3c1.6,0,2.8,0.5,3.6,1.3c0.8,0.8,1.2,2,1.2,3.3C608.8,2049.5,608.4,2050.5,607.6,2051.3z M606.5,2045.8
			c-0.5-0.5-1.2-0.8-2.4-0.8c-1.1,0-1.8,0.4-2.3,0.9c-0.5,0.6-0.7,1.3-0.7,2.2c0,1,0.2,1.8,0.6,2.2c0.5,0.6,1.3,0.9,2.4,0.9
			c1,0,1.8-0.3,2.3-0.9c0.4-0.5,0.7-1.2,0.7-2.2C607.1,2047.2,607,2046.3,606.5,2045.8z"/>
		<path d="M622.9,2051.3c-0.8,0.8-2,1.3-3.5,1.3c-1.6,0-2.8-0.4-3.6-1.3c-0.7-0.8-1.2-1.8-1.2-3.3c0-1.3,0.4-2.4,1.2-3.2
			c0.8-0.8,1.9-1.3,3.6-1.3c1.6,0,2.8,0.5,3.6,1.3c0.8,0.8,1.2,2,1.2,3.3C624.1,2049.5,623.7,2050.5,622.9,2051.3z M621.8,2045.8
			c-0.5-0.5-1.2-0.8-2.4-0.8c-1.1,0-1.8,0.4-2.3,0.9c-0.5,0.6-0.7,1.3-0.7,2.2c0,1,0.2,1.8,0.6,2.2c0.5,0.6,1.3,0.9,2.4,0.9
			c1,0,1.8-0.3,2.3-0.9c0.4-0.5,0.7-1.2,0.7-2.2C622.4,2047.2,622.3,2046.3,621.8,2045.8z"/>
		<path d="M634.1,2052.5h-1.7l0-1.1c-0.6,1-1.9,1.3-3.1,1.3c-2,0-3.4-1.1-3.4-3c0-5.5,0-6,0-6h1.7c0,0,0,0.1,0,5.5
			c0,1.4,0.9,2,2.4,2c1.4,0,2.3-0.7,2.3-1.9v-5.6h1.7v7.3C634,2052.3,634,2052.5,634.1,2052.5z"/>
		<path d="M642.7,2045.5c-0.5-0.2-1.2-0.3-2-0.3c-1.5,0-2.6,1-2.6,2.7v4.6h-1.7v-8.8h1.7v1.5c0.2-1,1.6-1.7,3-1.7
			c0.8,0,1.3,0.1,1.6,0.2V2045.5z"/>
		<path d="M660.2,2046.9c0-1.1-0.4-1.8-2-1.8c-1.2,0-2.1,0.7-2.1,1.9v5.5h-1.6c0-0.2,0-4.8,0-5.7c0-1.1-0.7-1.7-1.9-1.7
			c-1.3,0-2.2,1-2.2,1.9v5.5h-1.7v-8.8h1.7v1.3c0.4-0.9,1.6-1.5,2.9-1.5c1.3,0,2.3,0.5,2.6,1.6c0.4-1.1,1.6-1.6,3-1.6
			c2.1,0,3,1.2,3,2.9c0,6,0,6.1,0.1,6.1h-1.6C660.2,2052.5,660.2,2052.4,660.2,2046.9z"/>
		<path d="M671.4,2051.8c-0.7,0.5-1.7,0.8-3.1,0.8c-1.6,0-2.9-0.5-3.8-1.6c-0.6-0.8-0.9-1.7-0.9-3c0-1.2,0.3-2.2,0.9-2.9
			c0.8-1,2-1.6,3.7-1.6c1.8,0,3,0.6,3.7,1.6c0.7,0.8,0.9,2.3,0.8,3.6h-7.5c0,0.7,0.3,1.2,0.8,1.7c0.5,0.5,1.3,0.8,2.2,0.8
			c0.9,0,1.6-0.2,2-0.5c0.5-0.3,0.7-0.8,0.7-1h1.7C672.7,2050.3,672.2,2051.2,671.4,2051.8z M670.4,2045.7c-0.5-0.5-1.2-0.8-2.2-0.8
			c-1,0-1.7,0.3-2.2,0.8c-0.4,0.4-0.7,1-0.7,1.6h5.7C671,2046.7,670.9,2046.2,670.4,2045.7z"/>
		<path d="M686,2046.9c0-1.1-0.4-1.8-2-1.8c-1.2,0-2.1,0.7-2.1,1.9v5.5h-1.6c0-0.2,0-4.8,0-5.7c0-1.1-0.7-1.7-1.9-1.7
			c-1.3,0-2.2,1-2.2,1.9v5.5h-1.7v-8.8h1.7v1.3c0.4-0.9,1.6-1.5,2.9-1.5c1.3,0,2.3,0.5,2.6,1.6c0.4-1.1,1.6-1.6,3-1.6
			c2.1,0,3,1.2,3,2.9c0,6,0,6.1,0.1,6.1h-1.6C686,2052.5,686,2052.4,686,2046.9z"/>
		<path d="M698,2044.7c0.7,0.7,1.1,1.8,1.1,3.2c0,1.6-0.4,2.7-1.2,3.4c-0.8,0.8-1.9,1.2-3.1,1.2c-1.4,0-2.5-0.4-3.1-1.2l-0.1,1.2
			h-1.6v-12.8h1.7v5.3c0.3-0.8,1.5-1.6,3.3-1.6C696.3,2043.5,697.3,2043.9,698,2044.7z M691.8,2046.6c-0.1,0.4-0.2,0.8-0.2,1.6
			c0,0.8,0.1,1.2,0.3,1.5c0.4,0.8,1.2,1.4,2.6,1.4c1.1,0,1.8-0.4,2.3-1c0.4-0.5,0.6-1.2,0.6-2.1c0-0.8-0.1-1.6-0.5-2
			c-0.5-0.6-1.2-1-2.4-1C693,2045,692.1,2045.7,691.8,2046.6z"/>
		<path d="M708.2,2051.8c-0.7,0.5-1.7,0.8-3.1,0.8c-1.6,0-2.9-0.5-3.8-1.6c-0.6-0.8-0.9-1.7-0.9-3c0-1.2,0.3-2.2,0.9-2.9
			c0.8-1,2-1.6,3.7-1.6c1.8,0,3,0.6,3.7,1.6c0.7,0.8,0.9,2.3,0.8,3.6h-7.5c0,0.7,0.3,1.2,0.8,1.7c0.5,0.5,1.3,0.8,2.2,0.8
			c0.9,0,1.6-0.2,2-0.5c0.5-0.3,0.7-0.8,0.7-1h1.7C709.5,2050.3,709,2051.2,708.2,2051.8z M707.2,2045.7c-0.5-0.5-1.2-0.8-2.2-0.8
			c-1,0-1.7,0.3-2.2,0.8c-0.4,0.4-0.7,1-0.7,1.6h5.7C707.8,2046.7,707.7,2046.2,707.2,2045.7z"/>
		<path d="M717.6,2045.5c-0.5-0.2-1.2-0.3-2-0.3c-1.5,0-2.6,1-2.6,2.7v4.6h-1.7v-8.8h1.7v1.5c0.2-1,1.6-1.7,3-1.7
			c0.8,0,1.3,0.1,1.6,0.2V2045.5z"/>
		<path d="M722.7,2052.6c-2.7,0-4-0.5-4.3-1.9c-0.1-0.4-0.1-0.6-0.1-0.9h1.7c0,0.1,0,0.3,0.1,0.6c0.2,0.6,1,0.8,2.7,0.8
			c1.7,0,2.3-0.4,2.3-1.2c0-0.8-0.6-1-2.1-1.2c-0.2,0-1.5-0.2-1.8-0.3c-2-0.3-2.8-1-2.8-2.5c0-1.4,1.2-2.5,4-2.5
			c2.3,0,3.6,0.6,4,1.8c0.1,0.4,0.1,0.9,0.1,1.1h-1.7c0-0.1,0-0.5-0.1-0.6c-0.2-0.4-0.8-0.7-2.4-0.7c-1.7,0-2.2,0.4-2.2,1
			c0,0.6,0.4,0.8,1.8,1.1c0.2,0,1.7,0.2,1.9,0.3c2.1,0.3,3,1,3,2.6C726.8,2051.7,725.6,2052.6,722.7,2052.6z"/>
	</g>
	<g class="st2">
		<path d="M510.2,2064.2c0,0.9,0,3.8,0,4.6c0,1,0.4,1.3,1.4,1.3c0.4,0,1,0,1.2-0.1v1.5c-0.4,0.1-1.1,0.2-1.9,0.2
			c-1.4,0-2.5-0.5-2.5-2.3c0-1,0-4,0-5.2H507v-1.5h1.5c0.1-0.1,0.1-1.9,0.1-1.9l1.7,0c0,0,0,1.7,0,1.9h2.7v1.5H510.2z"/>
		<path d="M522.7,2071.5h-1.7c-0.1,0,0-0.2,0-5.5c0-1.1-0.6-1.9-2.2-1.9c-1.4,0-2.5,0.8-2.5,2v5.4h-1.7v-12.8h1.7v5.3
			c0.4-0.9,1.5-1.5,3.1-1.5c2.2,0,3.3,1.2,3.3,3.2C522.6,2071.3,522.6,2071.5,522.7,2071.5z"/>
		<path d="M531.5,2071.5c-0.1,0-0.2-0.5-0.2-1.1c-0.5,0.7-1.5,1.2-3.5,1.2c-2.1,0-3.4-0.8-3.4-2.3c0-0.1,0-0.3,0-0.5
			c0-1.4,1.2-2.7,4.4-2.7c0.8,0,1.6,0,2.5,0.1c0-0.2,0-0.7,0-1c-0.1-0.8-0.8-1.3-2.3-1.3c-1,0-1.6,0.2-2,0.5
			c-0.4,0.3-0.5,0.7-0.5,1.2h-1.6c0-0.6,0.3-1.4,0.6-1.8c0.7-0.9,1.8-1.3,3.5-1.3c2.6,0,3.8,1,3.9,2.4c0,0.4,0.1,1.7,0,2.4
			c0,0.6,0,1.8,0,2.4c0,0.7,0.1,1.6,0.2,1.8H531.5z M529.3,2067.4c-1.1,0-2,0.1-2.6,0.5c-0.4,0.2-0.6,0.6-0.6,1
			c0,0.4,0.1,0.6,0.3,0.8c0.3,0.3,1,0.5,1.9,0.5c0.8,0,1.4-0.1,2.1-0.5c0.4-0.2,0.8-0.7,0.9-1.4c0-0.4,0.1-0.7,0.1-0.9
			C530.6,2067.4,530,2067.4,529.3,2067.4z"/>
		<path d="M537.3,2064.2c0,0.9,0,3.8,0,4.6c0,1,0.4,1.3,1.4,1.3c0.4,0,1,0,1.2-0.1v1.5c-0.4,0.1-1.1,0.2-1.9,0.2
			c-1.4,0-2.5-0.5-2.5-2.3c0-1,0-4,0-5.2H534v-1.5h1.5c0.1-0.1,0.1-1.9,0.1-1.9l1.7,0c0,0,0,1.7,0,1.9h2.7v1.5H537.3z"/>
		<path d="M546.1,2061.6v-2h1.8v2H546.1z M546.3,2071.5c-0.1,0-0.1-0.2-0.1-0.8c0-1.7,0-8,0-8h1.7c0,0,0,6.6,0,8
			c0,0.6,0,0.8,0.1,0.8H546.3z"/>
		<path d="M554.3,2071.6c-2.7,0-4-0.5-4.3-1.9c-0.1-0.4-0.1-0.6-0.1-0.9h1.7c0,0.1,0,0.3,0.1,0.6c0.2,0.6,1,0.8,2.7,0.8
			c1.7,0,2.3-0.4,2.3-1.2c0-0.8-0.6-1-2.1-1.2c-0.2,0-1.5-0.2-1.8-0.3c-2-0.3-2.8-1-2.8-2.5c0-1.4,1.2-2.5,4-2.5
			c2.3,0,3.6,0.6,4,1.8c0.1,0.4,0.1,0.9,0.1,1.1h-1.7c0-0.1,0-0.5-0.1-0.6c-0.2-0.4-0.8-0.7-2.4-0.7c-1.7,0-2.2,0.4-2.2,1
			c0,0.6,0.4,0.8,1.8,1.1c0.2,0,1.7,0.2,1.9,0.3c2.1,0.3,3,1,3,2.6C558.3,2070.7,557.2,2071.6,554.3,2071.6z"/>
		<path d="M572.9,2071.5h-1.7l0-1.1c-0.6,1-1.9,1.3-3.1,1.3c-2,0-3.4-1.1-3.4-3c0-5.5,0-6,0-6h1.7c0,0,0,0.1,0,5.5
			c0,1.4,0.9,2,2.4,2c1.4,0,2.3-0.7,2.3-1.9v-5.6h1.7v7.3C572.9,2071.3,572.9,2071.5,572.9,2071.5z"/>
		<path d="M583.4,2071.5h-1.7c-0.1,0-0.1-0.1-0.1-5.5c0-1.2-0.7-1.9-2.2-1.9c-1.3,0-2.5,0.7-2.5,2v5.3h-1.7v-8.8h1.7v1.4
			c0.5-1.1,1.9-1.6,3.2-1.6c2.4,0,3.3,1.4,3.3,3.1C583.3,2071.2,583.3,2071.5,583.4,2071.5z"/>
		<path d="M593.6,2070.3c-0.7,0.7-1.8,1.2-3.2,1.2c-1.3,0-2.6-0.4-3.1-1.2v3.9h-1.7v-11.6h1.7v1.4c0.3-0.9,1.6-1.6,3.3-1.6
			c1.3,0,2.4,0.4,3.1,1.2c0.7,0.7,1,1.8,1,3.3C594.7,2068.6,594.3,2069.6,593.6,2070.3z M592.2,2064.8c-0.5-0.4-1.2-0.8-2.2-0.8
			c-0.9,0-1.5,0.3-2,0.7c-0.6,0.5-0.8,1.3-0.8,2.4c0,1.1,0.2,1.8,0.8,2.3c0.5,0.5,1.1,0.7,2.1,0.7c1,0,1.8-0.3,2.3-0.9
			c0.4-0.5,0.6-1.2,0.6-2.1C592.9,2066.1,592.8,2065.3,592.2,2064.8z"/>
		<path d="M603.1,2071.5c-0.1,0-0.2-0.5-0.2-1.1c-0.5,0.7-1.5,1.2-3.5,1.2c-2.1,0-3.4-0.8-3.4-2.3c0-0.1,0-0.3,0-0.5
			c0-1.4,1.2-2.7,4.4-2.7c0.8,0,1.6,0,2.5,0.1c0-0.2,0-0.7,0-1c-0.1-0.8-0.8-1.3-2.3-1.3c-1,0-1.6,0.2-2,0.5
			c-0.4,0.3-0.5,0.7-0.5,1.2h-1.6c0-0.6,0.3-1.4,0.6-1.8c0.7-0.9,1.8-1.3,3.5-1.3c2.6,0,3.8,1,3.9,2.4c0,0.4,0.1,1.7,0,2.4
			c0,0.6,0,1.8,0,2.4c0,0.7,0.1,1.6,0.2,1.8H603.1z M601,2067.4c-1.1,0-2,0.1-2.6,0.5c-0.4,0.2-0.6,0.6-0.6,1c0,0.4,0.1,0.6,0.3,0.8
			c0.3,0.3,1,0.5,1.9,0.5c0.8,0,1.4-0.1,2.1-0.5c0.4-0.2,0.8-0.7,0.9-1.4c0-0.4,0.1-0.7,0.1-0.9
			C602.3,2067.4,601.6,2067.4,601,2067.4z"/>
		<path d="M613.1,2064.5c-0.5-0.2-1.2-0.3-2-0.3c-1.5,0-2.6,1-2.6,2.7v4.6h-1.7v-8.8h1.7v1.5c0.2-1,1.6-1.7,3-1.7
			c0.8,0,1.3,0.1,1.6,0.2V2064.5z"/>
		<path d="M620.8,2071.5c-0.1,0-0.2-0.5-0.2-1.1c-0.5,0.7-1.5,1.2-3.5,1.2c-2.1,0-3.4-0.8-3.4-2.3c0-0.1,0-0.3,0-0.5
			c0-1.4,1.2-2.7,4.4-2.7c0.8,0,1.6,0,2.5,0.1c0-0.2,0-0.7,0-1c-0.1-0.8-0.8-1.3-2.3-1.3c-1,0-1.6,0.2-2,0.5
			c-0.4,0.3-0.5,0.7-0.5,1.2h-1.6c0-0.6,0.3-1.4,0.6-1.8c0.7-0.9,1.8-1.3,3.5-1.3c2.6,0,3.8,1,3.9,2.4c0,0.4,0.1,1.7,0,2.4
			c0,0.6,0,1.8,0,2.4c0,0.7,0.1,1.6,0.2,1.8H620.8z M618.6,2067.4c-1.1,0-2,0.1-2.6,0.5c-0.4,0.2-0.6,0.6-0.6,1
			c0,0.4,0.1,0.6,0.3,0.8c0.3,0.3,1,0.5,1.9,0.5c0.8,0,1.4-0.1,2.1-0.5c0.4-0.2,0.8-0.7,0.9-1.4c0-0.4,0.1-0.7,0.1-0.9
			C619.9,2067.4,619.3,2067.4,618.6,2067.4z"/>
		<path d="M624.5,2071.5c0,0,0-0.1,0-0.6c0-1.2,0-9.7,0-11.2c0-0.4,0-0.8,0-0.9h1.7c0,0.1,0,0.4,0,0.8c0,1.3,0,9.2,0,11.2
			c0,0.4,0,0.7,0,0.8H624.5z"/>
		<path d="M628.5,2071.5c0,0,0-0.1,0-0.6c0-1.2,0-9.7,0-11.2c0-0.4,0-0.8,0-0.9h1.7c0,0.1,0,0.4,0,0.8c0,1.3,0,9.2,0,11.2
			c0,0.4,0,0.7,0,0.8H628.5z"/>
		<path d="M639.8,2070.8c-0.7,0.5-1.7,0.8-3.1,0.8c-1.6,0-2.9-0.5-3.8-1.6c-0.6-0.8-0.9-1.7-0.9-3c0-1.2,0.3-2.2,0.9-2.9
			c0.8-1,2-1.6,3.7-1.6c1.8,0,3,0.6,3.7,1.6c0.7,0.8,0.9,2.3,0.8,3.6h-7.5c0,0.7,0.3,1.2,0.8,1.7c0.5,0.5,1.3,0.8,2.2,0.8
			c0.9,0,1.6-0.2,2-0.5c0.5-0.3,0.7-0.8,0.7-1h1.7C641.1,2069.3,640.6,2070.2,639.8,2070.8z M638.9,2064.7c-0.5-0.5-1.2-0.8-2.2-0.8
			c-1,0-1.7,0.3-2.2,0.8c-0.4,0.4-0.7,1-0.7,1.6h5.7C639.4,2065.7,639.3,2065.2,638.9,2064.7z"/>
		<path d="M642.9,2071.5c0,0,0-0.1,0-0.6c0-1.2,0-9.7,0-11.2c0-0.4,0-0.8,0-0.9h1.7c0,0.1,0,0.4,0,0.8c0,1.3,0,9.2,0,11.2
			c0,0.4,0,0.7,0,0.8H642.9z"/>
		<path d="M654.2,2070.8c-0.7,0.5-1.7,0.8-3.1,0.8c-1.6,0-2.9-0.5-3.8-1.6c-0.6-0.8-0.9-1.7-0.9-3c0-1.2,0.3-2.2,0.9-2.9
			c0.8-1,2-1.6,3.7-1.6c1.8,0,3,0.6,3.7,1.6c0.7,0.8,0.9,2.3,0.8,3.6h-7.5c0,0.7,0.3,1.2,0.8,1.7c0.5,0.5,1.3,0.8,2.2,0.8
			c0.9,0,1.6-0.2,2-0.5c0.5-0.3,0.7-0.8,0.7-1h1.7C655.5,2069.3,655,2070.2,654.2,2070.8z M653.2,2064.7c-0.5-0.5-1.2-0.8-2.2-0.8
			c-1,0-1.7,0.3-2.2,0.8c-0.4,0.4-0.7,1-0.7,1.6h5.7C653.8,2065.7,653.6,2065.2,653.2,2064.7z"/>
		<path d="M664.1,2063.8v-5h1.7c0,0,0,10,0,11.7c0,0.4,0.1,1,0.1,1h-1.6l-0.2-1.2c-0.5,0.8-1.5,1.3-3.2,1.3c-1.5,0-2.5-0.6-3.1-1.2
			c-0.7-0.8-1.1-1.8-1.1-3.2c0-1.5,0.5-2.6,1.2-3.3c0.7-0.7,1.8-1.2,3.1-1.2C662.4,2062.6,663.5,2062.9,664.1,2063.8z M659.2,2064.9
			c-0.5,0.5-0.8,1.3-0.8,2.2c0,0.9,0.2,1.7,0.6,2.2c0.6,0.6,1.2,0.9,2.3,0.9c1,0,1.7-0.3,2.3-1c0.4-0.4,0.6-1.2,0.6-2.1
			c0-0.8-0.2-1.7-0.5-2.1c-0.6-0.8-1.3-1-2.3-1C660.4,2064.1,659.7,2064.4,659.2,2064.9z"/>
		<path d="M668.4,2071.5v-2.6h2.2v2.6H668.4z"/>
	</g>
	<g class="st2">
		<path d="M487.7,1920.7c-1,1.1-2.6,1.6-4.8,1.6c-0.7,0-7.1,0-7.1,0v3.1h-4.7V1913h11.7c1.9,0,3.4,0.4,4.4,1.1
			c0.9,0.7,1.5,1.9,1.5,3.6C488.7,1919,488.3,1920,487.7,1920.7z M483.7,1916.7c-0.3-0.4-1-0.6-2-0.6h-5.9v3.3h5.9
			c1.1,0,1.7-0.2,2-0.6c0.2-0.2,0.2-0.6,0.2-1C484,1917.3,483.9,1917,483.7,1916.7z"/>
		<path d="M509,1919c-0.5,0.6-1.3,1.2-2.4,1.3l4.6,5.2H506l-4-4.6h-5.2v4.6h-4.7V1913h12c2.3,0,3.8,0.5,4.6,1.2c0.6,0.6,1,1.3,1,2.4
			C509.7,1917.6,509.4,1918.5,509,1919z M505,1916.6c-0.3-0.4-0.8-0.5-1.6-0.5h-6.6v2h6.7c0.9,0,1.3-0.1,1.5-0.5
			c0.1-0.2,0.1-0.4,0.1-0.5C505.2,1916.9,505.1,1916.8,505,1916.6z"/>
		<path d="M531.5,1915.2c1.1,1.1,1.6,2.4,1.6,4c0,1.7-0.6,3-1.6,4c-1.6,1.7-4.6,2.5-8.5,2.5c-3.8,0-6.7-0.8-8.4-2.5
			c-1.1-1-1.7-2.3-1.7-4c0-1.5,0.5-2.8,1.6-3.8c1.9-1.9,4.7-2.7,8.5-2.7C526.9,1912.7,529.8,1913.5,531.5,1915.2z M528.4,1919.2
			c0-1.4-1.4-3-5.3-3c-3.8,0-5.3,1.6-5.3,3c0,1.6,1.6,3,5.3,3C526.7,1922.2,528.4,1920.8,528.4,1919.2z"/>
		<path d="M541.4,1916.3v1.6h10v3.2h-10v4.3h-4.7V1913h15.2v3.3H541.4z"/>
		<path d="M555.3,1925.5V1913h15.4v3.3h-10.8v1.4h10.5v3.1h-10.5v1.4h11v3.3H555.3z"/>
		<path d="M583.2,1925.7c-5.5,0-7.9-1.5-9-3.3c-0.2-0.4-0.3-0.8-0.4-1.2h5.2c0.1,0.2,0.2,0.4,0.4,0.6c0.5,0.5,2,0.8,4.3,0.8
			c3.2,0,3.8-0.3,3.8-0.9c0-0.6-0.4-0.7-3.1-0.9c-1.2-0.1-2.8-0.2-3.6-0.2c-5.3-0.3-6.8-1.7-6.8-3.6c0-2.3,3.1-4.1,8.9-4.1
			c5.1,0,7.4,1.4,8.4,2.9c0.3,0.5,0.5,1,0.6,1.5l-5.2,0c0-0.2-0.1-0.3-0.4-0.5c-0.5-0.4-1.7-0.8-3.7-0.8c-2.9,0-3.7,0.2-3.7,0.8
			c0,0.5,0.5,0.6,3.6,0.9c1.4,0.1,3.9,0.3,4.4,0.3c4,0.3,5.4,1.5,5.4,3.6C592.4,1924.3,589.3,1925.7,583.2,1925.7z"/>
		<path d="M604.4,1925.7c-5.5,0-7.9-1.5-9-3.3c-0.2-0.4-0.3-0.8-0.4-1.2h5.2c0.1,0.2,0.2,0.4,0.4,0.6c0.5,0.5,2,0.8,4.3,0.8
			c3.2,0,3.8-0.3,3.8-0.9c0-0.6-0.4-0.7-3.1-0.9c-1.2-0.1-2.8-0.2-3.6-0.2c-5.3-0.3-6.8-1.7-6.8-3.6c0-2.3,3.1-4.1,8.9-4.1
			c5.1,0,7.4,1.4,8.4,2.9c0.3,0.5,0.5,1,0.6,1.5l-5.2,0c0-0.2-0.1-0.3-0.4-0.5c-0.5-0.4-1.7-0.8-3.7-0.8c-2.9,0-3.7,0.2-3.7,0.8
			c0,0.5,0.5,0.6,3.6,0.9c1.4,0.1,3.9,0.3,4.4,0.3c4,0.3,5.4,1.5,5.4,3.6C613.7,1924.3,610.6,1925.7,604.4,1925.7z"/>
		<path d="M617.2,1925.5V1913h4.8v12.5H617.2z"/>
		<path d="M644.1,1915.2c1.1,1.1,1.6,2.4,1.6,4c0,1.7-0.6,3-1.6,4c-1.6,1.7-4.6,2.5-8.5,2.5c-3.8,0-6.7-0.8-8.4-2.5
			c-1.1-1-1.7-2.3-1.7-4c0-1.5,0.5-2.8,1.6-3.8c1.9-1.9,4.7-2.7,8.5-2.7C639.5,1912.7,642.3,1913.5,644.1,1915.2z M640.9,1919.2
			c0-1.4-1.4-3-5.3-3c-3.8,0-5.3,1.6-5.3,3c0,1.6,1.6,3,5.3,3C639.3,1922.2,640.9,1920.8,640.9,1919.2z"/>
		<path d="M661.9,1925.5l-8.2-7.2v7.2h-4.5V1913h4.9l8,7v-7h4.5v12.5H661.9z"/>
		<path d="M674.3,1925.5h-5l8.5-12.5h5.4l8,12.5H686l-1.3-2h-9.1L674.3,1925.5z M680.9,1917.5l-0.6-1.1l-0.7,1.1l-2,3.1h5.4
			C682.9,1920.6,680.9,1917.5,680.9,1917.5z"/>
		<path d="M693.9,1925.5V1913h4.7v8.9h9.2v3.6H693.9z"/>
	</g>
	<g class="st2">
		<path d="M557.9,1938.3v9.2h-4.8v-9.2h-6.6v-3.3h17.9v3.3H557.9z"/>
		<path d="M567.4,1947.5V1935h15.4v3.3h-10.8v1.4h10.5v3.1h-10.5v1.4h11v3.3H567.4z"/>
		<path d="M590.2,1947.5h-5l8.5-12.5h5.4l8,12.5h-5.2l-1.3-2h-9.1L590.2,1947.5z M596.8,1939.5l-0.6-1.1l-0.7,1.1l-2,3.1h5.4
			C598.8,1942.6,596.8,1939.5,596.8,1939.5z"/>
		<path d="M625.5,1947.5v-6.4l-3.7,6.4h-3.9l-3.6-6.4v6.4h-4.5V1935h6l4.1,7.5l4.3-7.5h5.8v12.5H625.5z"/>
	</g>
	<path id="Path_144" class="st1" d="M570.5,1974h37.7"/>
	<g id="Group_393" transform="translate(-164 -1522.551)">
		<g id="Group_76" transform="translate(683 3232.551)">
			<path id="Path_67" class="st3" d="M22,27.3c10.1-10.1,23.8-15.8,38.2-15.8h19c14.3,0,28,5.7,38.2,15.8l0.3,0.3l-9,9
				c-7.7-7.9-18.3-12.4-29.4-12.4h-19c-10.9,0-21.4,4.3-29.1,12.1L22,27.3L22,27.3z"/>
			<g id="Group_75">
				<path id="Path_68" class="st4" d="M6.2,90V65.3c0-29.8,24.2-54,54-54l0,0h19c29.8,0,54,24.2,54,54c0,0,0,0,0,0v52.6
					c0,17.6-14.2,31.8-31.8,31.8c0,0,0,0,0,0h-8.1"/>
				<path id="Path_70" class="st4" d="M37.4,121.2c-17.2,0-31.2-14-31.2-31.2s14-31.2,31.2-31.2V121.2z"/>
				<path id="Path_72" class="st4" d="M102,121.2c17.2,0,31.2-14,31.2-31.2s-14-31.2-31.2-31.2V121.2z"/>
				<line id="Line_23" class="st4" x1="28.4" y1="74.1" x2="28.4" y2="106"/>
				<line id="Line_24" class="st4" x1="111.1" y1="106" x2="111.1" y2="74.1"/>
				<path id="Path_74" class="st4" d="M133.2,83.8c3.4,0,6.2,2.9,6.2,6.3c0,3.4-2.8,6.1-6.2,6.2"/>
				<path id="Path_75" class="st4" d="M6.2,96.3c-3.4,0-6.2-2.9-6.2-6.3c0-3.4,2.8-6.1,6.2-6.2"/>
				<path id="Path_106" class="st3" d="M83.9,141.3c4.6,0,8.3,3.7,8.3,8.3s-3.7,8.3-8.3,8.3c-4.6,0-8.3-3.7-8.3-8.3c0,0,0,0,0,0
					C75.6,145.1,79.3,141.3,83.9,141.3z"/>
				<path id="Path_76" class="st4" d="M6.2,0"/>
			</g>
		</g>
	</g>
</g>
</svg>
