<?xml version="1.0" encoding="utf-8"?>
<!-- Generator: Adobe Illustrator 23.1.0, SVG Export Plug-In . SVG Version: 6.00 Build 0)  -->
<svg version="1.1" id="Layer_1" xmlns="http://www.w3.org/2000/svg" xmlns:xlink="http://www.w3.org/1999/xlink" x="0px" y="0px"
	 viewBox="0 0 336 447" style="enable-background:new 0 0 336 447;" xml:space="preserve">
<style type="text/css">
	.st0{fill:none;}
	.st1{fill:none;stroke:#93F5CC;stroke-width:2;}
	.st2{enable-background:new    ;}
	.st3{fill:none;stroke:#000000;stroke-width:2;stroke-miterlimit:10;}
</style>
<g id="Group_412" transform="translate(-891 -610.999)">
	<g id="Rectangle_74" transform="translate(891 610.999)">
		<rect y="0" class="st0" width="336" height="447"/>
		<rect x="1" y="1" class="st1" width="334" height="445"/>
	</g>
	<g class="st2">
		<path d="M943,953.5v-12.6h8.8v1.7h-6.9v3.7h6.7v1.7h-6.7v3.8h7v1.7H943z"/>
		<path d="M960.3,953.5c-0.1,0-0.2-0.5-0.2-1.1c-0.5,0.7-1.5,1.2-3.5,1.2c-2.1,0-3.4-0.8-3.4-2.3c0-0.1,0-0.3,0-0.5
			c0-1.4,1.2-2.7,4.4-2.7c0.8,0,1.6,0,2.5,0.1c0-0.2,0-0.7,0-1c-0.1-0.8-0.8-1.3-2.3-1.3c-1,0-1.6,0.2-2,0.5
			c-0.4,0.3-0.5,0.7-0.5,1.2h-1.6c0-0.6,0.3-1.4,0.6-1.8c0.7-0.9,1.8-1.3,3.5-1.3c2.6,0,3.8,1,3.9,2.4c0,0.4,0.1,1.7,0,2.4
			c0,0.6,0,1.8,0,2.4c0,0.7,0.1,1.6,0.2,1.8H960.3z M958.1,949.4c-1.1,0-2,0.1-2.6,0.5c-0.4,0.2-0.6,0.6-0.6,1
			c0,0.4,0.1,0.6,0.3,0.8c0.3,0.3,1,0.5,1.9,0.5c0.8,0,1.4-0.1,2.1-0.5c0.4-0.2,0.8-0.7,0.9-1.4c0-0.4,0.1-0.7,0.1-0.9
			C959.4,949.4,958.8,949.4,958.1,949.4z"/>
		<path d="M970.8,948c0-0.3-0.1-0.9-0.4-1.2c-0.4-0.5-1.2-0.8-2.3-0.8c-1,0-1.7,0.3-2.2,0.8c-0.5,0.5-0.7,1.3-0.7,2.3
			c0,1.1,0.2,1.9,0.8,2.4c0.5,0.5,1.2,0.7,2.2,0.7c1.1,0,1.8-0.3,2.2-0.7c0.3-0.3,0.5-0.8,0.5-1.1h1.7c0,0.8-0.3,1.6-1,2.2
			c-0.7,0.6-1.8,1.1-3.4,1.1c-1.5,0-2.6-0.4-3.4-1.1c-0.8-0.8-1.3-1.9-1.3-3.5c0-1.5,0.4-2.6,1.2-3.3c0.8-0.8,2-1.3,3.6-1.3
			c2,0,3.1,0.7,3.8,1.8c0.4,0.6,0.4,1.3,0.4,1.7H970.8z"/>
		<path d="M982.6,953.5h-1.7c-0.1,0,0-0.2,0-5.5c0-1.1-0.6-1.9-2.2-1.9c-1.4,0-2.5,0.8-2.5,2v5.4h-1.7v-12.8h1.7v5.3
			c0.4-0.9,1.5-1.5,3.1-1.5c2.2,0,3.3,1.2,3.3,3.2C982.5,953.3,982.5,953.5,982.6,953.5z"/>
		<path d="M997.4,952.3c-0.7,0.7-1.8,1.2-3.2,1.2c-1.3,0-2.6-0.4-3.1-1.2v3.9h-1.7v-11.6h1.7v1.4c0.3-0.9,1.6-1.6,3.3-1.6
			c1.3,0,2.4,0.4,3.1,1.2c0.7,0.7,1,1.8,1,3.3C998.5,950.6,998.1,951.6,997.4,952.3z M996,946.8c-0.5-0.4-1.2-0.8-2.2-0.8
			c-0.9,0-1.5,0.3-2,0.7c-0.6,0.5-0.8,1.3-0.8,2.4c0,1.1,0.2,1.8,0.8,2.3c0.5,0.5,1.1,0.7,2.1,0.7c1,0,1.8-0.3,2.3-0.9
			c0.4-0.5,0.6-1.2,0.6-2.1C996.7,948.1,996.5,947.3,996,946.8z"/>
		<path d="M1006.6,946.5c-0.5-0.2-1.2-0.3-2-0.3c-1.5,0-2.6,1-2.6,2.7v4.6h-1.7v-8.8h1.7v1.5c0.2-1,1.6-1.7,3-1.7
			c0.8,0,1.3,0.1,1.6,0.2V946.5z"/>
		<path d="M1015.4,952.3c-0.8,0.8-2,1.3-3.5,1.3c-1.6,0-2.8-0.4-3.6-1.3c-0.7-0.8-1.2-1.8-1.2-3.3c0-1.3,0.4-2.4,1.2-3.2
			c0.8-0.8,1.9-1.3,3.6-1.3c1.6,0,2.8,0.5,3.6,1.3c0.8,0.8,1.2,2,1.2,3.3C1016.6,950.5,1016.2,951.5,1015.4,952.3z M1014.3,946.8
			c-0.5-0.5-1.2-0.8-2.4-0.8c-1.1,0-1.8,0.4-2.3,0.9c-0.5,0.6-0.7,1.3-0.7,2.2c0,1,0.2,1.8,0.6,2.2c0.5,0.6,1.3,0.9,2.4,0.9
			c1,0,1.8-0.3,2.3-0.9c0.4-0.5,0.7-1.2,0.7-2.2C1014.9,948.2,1014.8,947.3,1014.3,946.8z"/>
		<path d="M1020.9,946.2v7.3h-1.8v-7.3h-1.6v-1.5h1.6v-1.6c0-1.4,0.7-2.4,2.7-2.4c0.6,0,1.6,0.1,1.8,0.1v1.5c-0.2,0-0.8-0.1-1.3-0.1
			c-1.2,0-1.5,0.5-1.5,1.2v1.3h5.6c0,0,0,6.5,0,7.9c0,0.5,0,0.8,0.1,0.8h-1.8c0-0.1-0.1-0.3-0.1-0.8c0-1.2,0-5.4,0-6.5H1020.9z"/>
		<path d="M1031,946.2c0,0.9,0,3.8,0,4.6c0,1,0.4,1.3,1.4,1.3c0.4,0,1,0,1.2-0.1v1.5c-0.4,0.1-1.1,0.2-1.9,0.2
			c-1.4,0-2.5-0.5-2.5-2.3c0-1,0-4,0-5.2h-1.5v-1.5h1.5c0.1-0.1,0.1-1.9,0.1-1.9l1.7,0c0,0,0,1.7,0,1.9h2.7v1.5H1031z"/>
		<path d="M1041.9,953.5c-0.1,0-0.2-0.5-0.2-1.1c-0.5,0.7-1.5,1.2-3.5,1.2c-2.1,0-3.4-0.8-3.4-2.3c0-0.1,0-0.3,0-0.5
			c0-1.4,1.2-2.7,4.4-2.7c0.8,0,1.6,0,2.5,0.1c0-0.2,0-0.7,0-1c-0.1-0.8-0.8-1.3-2.3-1.3c-1,0-1.6,0.2-2,0.5
			c-0.4,0.3-0.5,0.7-0.5,1.2h-1.6c0-0.6,0.3-1.4,0.6-1.8c0.7-0.9,1.8-1.3,3.5-1.3c2.6,0,3.8,1,3.9,2.4c0,0.4,0.1,1.7,0,2.4
			c0,0.6,0,1.8,0,2.4c0,0.7,0.1,1.6,0.2,1.8H1041.9z M1039.7,949.4c-1.1,0-2,0.1-2.6,0.5c-0.4,0.2-0.6,0.6-0.6,1
			c0,0.4,0.1,0.6,0.3,0.8c0.3,0.3,1,0.5,1.9,0.5c0.8,0,1.4-0.1,2.1-0.5c0.4-0.2,0.8-0.7,0.9-1.4c0-0.4,0.1-0.7,0.1-0.9
			C1041,949.4,1040.4,949.4,1039.7,949.4z"/>
		<path d="M1053.7,945.7c0.7,0.7,1.1,1.8,1.1,3.2c0,1.6-0.4,2.7-1.2,3.4c-0.8,0.8-1.9,1.2-3.1,1.2c-1.4,0-2.5-0.4-3.1-1.2l-0.1,1.2
			h-1.6v-12.8h1.7v5.3c0.3-0.8,1.5-1.6,3.3-1.6C1051.9,944.5,1052.9,944.9,1053.7,945.7z M1047.4,947.6c-0.1,0.4-0.2,0.8-0.2,1.6
			c0,0.8,0.1,1.2,0.3,1.5c0.4,0.8,1.2,1.4,2.6,1.4c1.1,0,1.8-0.4,2.3-1c0.4-0.5,0.6-1.2,0.6-2.1c0-0.8-0.1-1.6-0.5-2
			c-0.5-0.6-1.2-1-2.4-1C1048.6,946,1047.8,946.7,1047.4,947.6z"/>
		<path d="M1056.6,953.5c0,0,0-0.1,0-0.6c0-1.2,0-9.7,0-11.2c0-0.4,0-0.8,0-0.9h1.7c0,0.1,0,0.4,0,0.8c0,1.3,0,9.2,0,11.2
			c0,0.4,0,0.7,0,0.8H1056.6z"/>
		<path d="M1067.9,952.8c-0.7,0.5-1.7,0.8-3.1,0.8c-1.6,0-2.9-0.5-3.8-1.6c-0.6-0.8-0.9-1.7-0.9-3c0-1.2,0.3-2.2,0.9-2.9
			c0.8-1,2-1.6,3.7-1.6c1.8,0,3,0.6,3.7,1.6c0.7,0.8,0.9,2.3,0.8,3.6h-7.5c0,0.7,0.3,1.2,0.8,1.7c0.5,0.5,1.3,0.8,2.2,0.8
			c0.9,0,1.6-0.2,2-0.5c0.5-0.3,0.7-0.8,0.7-1h1.7C1069.2,951.3,1068.7,952.2,1067.9,952.8z M1066.9,946.7c-0.5-0.5-1.2-0.8-2.2-0.8
			c-1,0-1.7,0.3-2.2,0.8c-0.4,0.4-0.7,1-0.7,1.6h5.7C1067.5,947.7,1067.3,947.2,1066.9,946.7z"/>
		<path d="M1079.6,953.6c-2.7,0-4-0.5-4.3-1.9c-0.1-0.4-0.1-0.6-0.1-0.9h1.7c0,0.1,0,0.3,0.1,0.6c0.2,0.6,1,0.8,2.7,0.8
			c1.7,0,2.3-0.4,2.3-1.2c0-0.8-0.6-1-2.1-1.2c-0.2,0-1.5-0.2-1.8-0.3c-2-0.3-2.8-1-2.8-2.5c0-1.4,1.2-2.5,4-2.5
			c2.3,0,3.6,0.6,4,1.8c0.1,0.4,0.1,0.9,0.1,1.1h-1.7c0-0.1,0-0.5-0.1-0.6c-0.2-0.4-0.8-0.7-2.4-0.7c-1.7,0-2.2,0.4-2.2,1
			c0,0.6,0.4,0.8,1.8,1.1c0.2,0,1.7,0.2,1.9,0.3c2.1,0.3,3,1,3,2.6C1083.6,952.7,1082.5,953.6,1079.6,953.6z"/>
		<path d="M1093.7,953.5h-1.7c-0.1,0,0-0.2,0-5.5c0-1.1-0.6-1.9-2.2-1.9c-1.4,0-2.5,0.8-2.5,2v5.4h-1.7v-12.8h1.7v5.3
			c0.4-0.9,1.5-1.5,3.1-1.5c2.2,0,3.3,1.2,3.3,3.2C1093.7,953.3,1093.7,953.5,1093.7,953.5z"/>
		<path d="M1103.6,952.3c-0.8,0.8-2,1.3-3.5,1.3c-1.6,0-2.8-0.4-3.6-1.3c-0.7-0.8-1.2-1.8-1.2-3.3c0-1.3,0.4-2.4,1.2-3.2
			c0.8-0.8,1.9-1.3,3.6-1.3c1.6,0,2.8,0.5,3.6,1.3c0.8,0.8,1.2,2,1.2,3.3C1104.8,950.5,1104.4,951.5,1103.6,952.3z M1102.5,946.8
			c-0.5-0.5-1.2-0.8-2.4-0.8c-1.1,0-1.8,0.4-2.3,0.9c-0.5,0.6-0.7,1.3-0.7,2.2c0,1,0.2,1.8,0.6,2.2c0.5,0.6,1.3,0.9,2.4,0.9
			c1,0,1.8-0.3,2.3-0.9c0.4-0.5,0.7-1.2,0.7-2.2C1103.1,948.2,1103,947.3,1102.5,946.8z"/>
		<path d="M1113.9,952.8c-0.7,0.5-1.7,0.8-3.1,0.8c-1.6,0-2.9-0.5-3.8-1.6c-0.6-0.8-0.9-1.7-0.9-3c0-1.2,0.3-2.2,0.9-2.9
			c0.8-1,2-1.6,3.7-1.6c1.8,0,3,0.6,3.7,1.6c0.7,0.8,0.9,2.3,0.8,3.6h-7.5c0,0.7,0.3,1.2,0.8,1.7c0.5,0.5,1.3,0.8,2.2,0.8
			c0.9,0,1.6-0.2,2-0.5c0.5-0.3,0.7-0.8,0.7-1h1.7C1115.2,951.3,1114.7,952.2,1113.9,952.8z M1113,946.7c-0.5-0.5-1.2-0.8-2.2-0.8
			c-1,0-1.7,0.3-2.2,0.8c-0.4,0.4-0.7,1-0.7,1.6h5.7C1113.6,947.7,1113.4,947.2,1113,946.7z"/>
		<path d="M1129.8,953.5h-1.7c-0.1,0,0-0.2,0-5.5c0-1.1-0.6-1.9-2.2-1.9c-1.4,0-2.5,0.8-2.5,2v5.4h-1.7v-12.8h1.7v5.3
			c0.4-0.9,1.5-1.5,3.1-1.5c2.2,0,3.3,1.2,3.3,3.2C1129.7,953.3,1129.7,953.5,1129.8,953.5z"/>
		<path d="M1138.6,953.5c-0.1,0-0.2-0.5-0.2-1.1c-0.5,0.7-1.5,1.2-3.5,1.2c-2.1,0-3.4-0.8-3.4-2.3c0-0.1,0-0.3,0-0.5
			c0-1.4,1.2-2.7,4.4-2.7c0.8,0,1.6,0,2.5,0.1c0-0.2,0-0.7,0-1c-0.1-0.8-0.8-1.3-2.3-1.3c-1,0-1.6,0.2-2,0.5
			c-0.4,0.3-0.5,0.7-0.5,1.2h-1.6c0-0.6,0.3-1.4,0.6-1.8c0.7-0.9,1.8-1.3,3.5-1.3c2.6,0,3.8,1,3.9,2.4c0,0.4,0.1,1.7,0,2.4
			c0,0.6,0,1.8,0,2.4c0,0.7,0.1,1.6,0.2,1.8H1138.6z M1136.5,949.4c-1.1,0-2,0.1-2.6,0.5c-0.4,0.2-0.6,0.6-0.6,1
			c0,0.4,0.1,0.6,0.3,0.8c0.3,0.3,1,0.5,1.9,0.5c0.8,0,1.4-0.1,2.1-0.5c0.4-0.2,0.8-0.7,0.9-1.4c0-0.4,0.1-0.7,0.1-0.9
			C1137.8,949.4,1137.1,949.4,1136.5,949.4z"/>
		<path d="M1146.3,953.6c-2.7,0-4-0.5-4.3-1.9c-0.1-0.4-0.1-0.6-0.1-0.9h1.7c0,0.1,0,0.3,0.1,0.6c0.2,0.6,1,0.8,2.7,0.8
			c1.7,0,2.3-0.4,2.3-1.2c0-0.8-0.6-1-2.1-1.2c-0.2,0-1.5-0.2-1.8-0.3c-2-0.3-2.8-1-2.8-2.5c0-1.4,1.2-2.5,4-2.5
			c2.3,0,3.6,0.6,4,1.8c0.1,0.4,0.1,0.9,0.1,1.1h-1.7c0-0.1,0-0.5-0.1-0.6c-0.2-0.4-0.8-0.7-2.4-0.7c-1.7,0-2.2,0.4-2.2,1
			c0,0.6,0.4,0.8,1.8,1.1c0.2,0,1.7,0.2,1.9,0.3c2.1,0.3,3,1,3,2.6C1150.4,952.7,1149.2,953.6,1146.3,953.6z"/>
		<path d="M1163.5,953.5c-0.1,0-0.2-0.5-0.2-1.1c-0.5,0.7-1.5,1.2-3.5,1.2c-2.1,0-3.4-0.8-3.4-2.3c0-0.1,0-0.3,0-0.5
			c0-1.4,1.2-2.7,4.4-2.7c0.8,0,1.6,0,2.5,0.1c0-0.2,0-0.7,0-1c-0.1-0.8-0.8-1.3-2.3-1.3c-1,0-1.6,0.2-2,0.5
			c-0.4,0.3-0.5,0.7-0.5,1.2h-1.6c0-0.6,0.3-1.4,0.6-1.8c0.7-0.9,1.8-1.3,3.5-1.3c2.6,0,3.8,1,3.9,2.4c0,0.4,0.1,1.7,0,2.4
			c0,0.6,0,1.8,0,2.4c0,0.7,0.1,1.6,0.2,1.8H1163.5z M1161.4,949.4c-1.1,0-2,0.1-2.6,0.5c-0.4,0.2-0.6,0.6-0.6,1
			c0,0.4,0.1,0.6,0.3,0.8c0.3,0.3,1,0.5,1.9,0.5c0.8,0,1.4-0.1,2.1-0.5c0.4-0.2,0.8-0.7,0.9-1.4c0-0.4,0.1-0.7,0.1-0.9
			C1162.7,949.4,1162,949.4,1161.4,949.4z"/>
		<path d="M1175.4,953.5h-1.7c-0.1,0-0.1-0.1-0.1-5.5c0-1.2-0.7-1.9-2.2-1.9c-1.3,0-2.5,0.7-2.5,2v5.3h-1.7v-8.8h1.7v1.4
			c0.5-1.1,1.9-1.6,3.2-1.6c2.4,0,3.3,1.4,3.3,3.1C1175.4,953.2,1175.4,953.5,1175.4,953.5z"/>
	</g>
	<g class="st2">
		<path d="M956.5,971.8c-0.7,0.5-1.7,0.8-3.1,0.8c-1.6,0-2.9-0.5-3.8-1.6c-0.6-0.8-0.9-1.7-0.9-3c0-1.2,0.3-2.2,0.9-2.9
			c0.8-1,2-1.6,3.7-1.6c1.8,0,3,0.6,3.7,1.6c0.7,0.8,0.9,2.3,0.8,3.6h-7.5c0,0.7,0.3,1.2,0.8,1.7c0.5,0.5,1.3,0.8,2.2,0.8
			c0.9,0,1.6-0.2,2-0.5c0.5-0.3,0.7-0.8,0.7-1h1.7C957.7,970.3,957.3,971.2,956.5,971.8z M955.5,965.7c-0.5-0.5-1.2-0.8-2.2-0.8
			c-1,0-1.7,0.3-2.2,0.8c-0.4,0.4-0.7,1-0.7,1.6h5.7C956.1,966.7,955.9,966.2,955.5,965.7z"/>
		<path d="M965.5,963.7h1.9l-3.6,4.3l3.6,4.5h-2l-2.7-3.3l-2.8,3.3h-1.9l3.7-4.5l-3.5-4.3h2l2.5,3.1L965.5,963.7z"/>
		<path d="M975.3,967c0-0.3-0.1-0.9-0.4-1.2c-0.4-0.5-1.2-0.8-2.3-0.8c-1,0-1.7,0.3-2.2,0.8c-0.5,0.5-0.7,1.3-0.7,2.3
			c0,1.1,0.2,1.9,0.8,2.4c0.5,0.5,1.2,0.7,2.2,0.7c1.1,0,1.8-0.3,2.2-0.7c0.3-0.3,0.5-0.8,0.5-1.1h1.7c0,0.8-0.3,1.6-1,2.2
			c-0.7,0.6-1.8,1.1-3.4,1.1c-1.5,0-2.6-0.4-3.4-1.1c-0.8-0.8-1.3-1.9-1.3-3.5c0-1.5,0.4-2.6,1.2-3.3c0.8-0.8,2-1.3,3.6-1.3
			c2,0,3.1,0.7,3.8,1.8c0.4,0.6,0.4,1.3,0.4,1.7H975.3z"/>
		<path d="M978.9,972.5c0,0,0-0.1,0-0.6c0-1.2,0-9.7,0-11.2c0-0.4,0-0.8,0-0.9h1.7c0,0.1,0,0.4,0,0.8c0,1.3,0,9.2,0,11.2
			c0,0.4,0,0.7,0,0.8H978.9z"/>
		<path d="M991,972.5h-1.7l0-1.1c-0.6,1-1.9,1.3-3.1,1.3c-2,0-3.4-1.1-3.4-3c0-5.5,0-6,0-6h1.7c0,0,0,0.1,0,5.5c0,1.4,0.9,2,2.4,2
			c1.4,0,2.3-0.7,2.3-1.9v-5.6h1.7v7.3C990.9,972.3,990.9,972.5,991,972.5z"/>
		<path d="M997.2,972.6c-2.7,0-4-0.5-4.3-1.9c-0.1-0.4-0.1-0.6-0.1-0.9h1.7c0,0.1,0,0.3,0.1,0.6c0.2,0.6,1,0.8,2.7,0.8
			c1.7,0,2.3-0.4,2.3-1.2c0-0.8-0.6-1-2.1-1.2c-0.2,0-1.5-0.2-1.8-0.3c-2-0.3-2.8-1-2.8-2.5c0-1.4,1.2-2.5,4-2.5
			c2.3,0,3.6,0.6,4,1.8c0.1,0.4,0.1,0.9,0.1,1.1h-1.7c0-0.1,0-0.5-0.1-0.6c-0.2-0.4-0.8-0.7-2.4-0.7c-1.7,0-2.2,0.4-2.2,1
			c0,0.6,0.4,0.8,1.8,1.1c0.2,0,1.7,0.2,1.9,0.3c2.1,0.3,3,1,3,2.6C1001.3,971.7,1000.1,972.6,997.2,972.6z"/>
		<path d="M1003.2,962.6v-2h1.8v2H1003.2z M1003.3,972.5c-0.1,0-0.1-0.2-0.1-0.8c0-1.7,0-8,0-8h1.7c0,0,0,6.6,0,8
			c0,0.6,0,0.8,0.1,0.8H1003.3z"/>
		<path d="M1012.2,972.5h-2.1l-3.8-8.8h1.9l3,7.2l3-7.2h1.8L1012.2,972.5z"/>
		<path d="M1024.4,971.8c-0.7,0.5-1.7,0.8-3.1,0.8c-1.6,0-2.9-0.5-3.8-1.6c-0.6-0.8-0.9-1.7-0.9-3c0-1.2,0.3-2.2,0.9-2.9
			c0.8-1,2-1.6,3.7-1.6c1.8,0,3,0.6,3.7,1.6c0.7,0.8,0.9,2.3,0.8,3.6h-7.5c0,0.7,0.3,1.2,0.8,1.7c0.5,0.5,1.3,0.8,2.2,0.8
			c0.9,0,1.6-0.2,2-0.5c0.5-0.3,0.7-0.8,0.7-1h1.7C1025.7,970.3,1025.2,971.2,1024.4,971.8z M1023.5,965.7c-0.5-0.5-1.2-0.8-2.2-0.8
			c-1,0-1.7,0.3-2.2,0.8c-0.4,0.4-0.7,1-0.7,1.6h5.7C1024,966.7,1023.9,966.2,1023.5,965.7z"/>
		<path d="M1038.9,967c0-0.3-0.1-0.9-0.4-1.2c-0.4-0.5-1.2-0.8-2.3-0.8c-1,0-1.7,0.3-2.2,0.8c-0.5,0.5-0.7,1.3-0.7,2.3
			c0,1.1,0.2,1.9,0.8,2.4c0.5,0.5,1.2,0.7,2.2,0.7c1.1,0,1.8-0.3,2.2-0.7c0.3-0.3,0.5-0.8,0.5-1.1h1.7c0,0.8-0.3,1.6-1,2.2
			c-0.7,0.6-1.8,1.1-3.4,1.1c-1.5,0-2.6-0.4-3.4-1.1c-0.8-0.8-1.3-1.9-1.3-3.5c0-1.5,0.4-2.6,1.2-3.3c0.8-0.8,2-1.3,3.6-1.3
			c2,0,3.1,0.7,3.8,1.8c0.4,0.6,0.4,1.3,0.4,1.7H1038.9z"/>
		<path d="M1050.6,972.5h-1.7c-0.1,0,0-0.2,0-5.5c0-1.1-0.6-1.9-2.2-1.9c-1.4,0-2.5,0.8-2.5,2v5.4h-1.7v-12.8h1.7v5.3
			c0.4-0.9,1.5-1.5,3.1-1.5c2.2,0,3.3,1.2,3.3,3.2C1050.6,972.3,1050.6,972.5,1050.6,972.5z"/>
		<path d="M1059.5,972.5c-0.1,0-0.2-0.5-0.2-1.1c-0.5,0.7-1.5,1.2-3.5,1.2c-2.1,0-3.4-0.8-3.4-2.3c0-0.1,0-0.3,0-0.5
			c0-1.4,1.2-2.7,4.4-2.7c0.8,0,1.6,0,2.5,0.1c0-0.2,0-0.7,0-1c-0.1-0.8-0.8-1.3-2.3-1.3c-1,0-1.6,0.2-2,0.5
			c-0.4,0.3-0.5,0.7-0.5,1.2h-1.6c0-0.6,0.3-1.4,0.6-1.8c0.7-0.9,1.8-1.3,3.5-1.3c2.6,0,3.8,1,3.9,2.4c0,0.4,0.1,1.7,0,2.4
			c0,0.6,0,1.8,0,2.4c0,0.7,0.1,1.6,0.2,1.8H1059.5z M1057.3,968.4c-1.1,0-2,0.1-2.6,0.5c-0.4,0.2-0.6,0.6-0.6,1
			c0,0.4,0.1,0.6,0.3,0.8c0.3,0.3,1,0.5,1.9,0.5c0.8,0,1.4-0.1,2.1-0.5c0.4-0.2,0.8-0.7,0.9-1.4c0-0.4,0.1-0.7,0.1-0.9
			C1058.6,968.4,1058,968.4,1057.3,968.4z"/>
		<path d="M1071.3,972.5h-1.7c-0.1,0-0.1-0.1-0.1-5.5c0-1.2-0.7-1.9-2.2-1.9c-1.3,0-2.5,0.7-2.5,2v5.3h-1.7v-8.8h1.7v1.4
			c0.5-1.1,1.9-1.6,3.2-1.6c2.4,0,3.3,1.4,3.3,3.1C1071.3,972.2,1071.3,972.5,1071.3,972.5z"/>
		<path d="M1081.7,972.5h-1.7c-0.1,0-0.1-0.1-0.1-5.5c0-1.2-0.7-1.9-2.2-1.9c-1.3,0-2.5,0.7-2.5,2v5.3h-1.7v-8.8h1.7v1.4
			c0.5-1.1,1.9-1.6,3.2-1.6c2.4,0,3.3,1.4,3.3,3.1C1081.7,972.2,1081.7,972.5,1081.7,972.5z"/>
		<path d="M1091.2,971.8c-0.7,0.5-1.7,0.8-3.1,0.8c-1.6,0-2.9-0.5-3.8-1.6c-0.6-0.8-0.9-1.7-0.9-3c0-1.2,0.3-2.2,0.9-2.9
			c0.8-1,2-1.6,3.7-1.6c1.8,0,3,0.6,3.7,1.6c0.7,0.8,0.9,2.3,0.8,3.6h-7.5c0,0.7,0.3,1.2,0.8,1.7c0.5,0.5,1.3,0.8,2.2,0.8
			c0.9,0,1.6-0.2,2-0.5c0.5-0.3,0.7-0.8,0.7-1h1.7C1092.5,970.3,1092,971.2,1091.2,971.8z M1090.3,965.7c-0.5-0.5-1.2-0.8-2.2-0.8
			c-1,0-1.7,0.3-2.2,0.8c-0.4,0.4-0.7,1-0.7,1.6h5.7C1090.9,966.7,1090.7,966.2,1090.3,965.7z"/>
		<path d="M1094.3,972.5c0,0,0-0.1,0-0.6c0-1.2,0-9.7,0-11.2c0-0.4,0-0.8,0-0.9h1.7c0,0.1,0,0.4,0,0.8c0,1.3,0,9.2,0,11.2
			c0,0.4,0,0.7,0,0.8H1094.3z"/>
		<path d="M1114,972.5h-2c0,0-2.2-6.1-2.2-6.3c0-0.1-0.1-0.7-0.1-0.7s-0.1,0.6-0.1,0.7c0,0.2-2.2,6.3-2.2,6.3h-2.1l-3.3-8.8h1.8
			l2.5,7.2l2.4-7.2h1.9l2.4,7.2l2.5-7.2h1.7L1114,972.5z"/>
		<path d="M1118.5,962.6v-2h1.8v2H1118.5z M1118.7,972.5c-0.1,0-0.1-0.2-0.1-0.8c0-1.7,0-8,0-8h1.7c0,0,0,6.6,0,8
			c0,0.6,0,0.8,0.1,0.8H1118.7z"/>
		<path d="M1124.8,965.2c0,0.9,0,3.8,0,4.6c0,1,0.4,1.3,1.4,1.3c0.4,0,1,0,1.2-0.1v1.5c-0.4,0.1-1.1,0.2-1.9,0.2
			c-1.4,0-2.5-0.5-2.5-2.3c0-1,0-4,0-5.2h-1.5v-1.5h1.5c0.1-0.1,0.1-1.9,0.1-1.9l1.7,0c0,0,0,1.7,0,1.9h2.7v1.5H1124.8z"/>
		<path d="M1137.3,972.5h-1.7c-0.1,0,0-0.2,0-5.5c0-1.1-0.6-1.9-2.2-1.9c-1.4,0-2.5,0.8-2.5,2v5.4h-1.7v-12.8h1.7v5.3
			c0.4-0.9,1.5-1.5,3.1-1.5c2.2,0,3.3,1.2,3.3,3.2C1137.2,972.3,1137.2,972.5,1137.3,972.5z"/>
		<path d="M1146.2,965.2c0,0.9,0,3.8,0,4.6c0,1,0.4,1.3,1.4,1.3c0.4,0,1,0,1.2-0.1v1.5c-0.4,0.1-1.1,0.2-1.9,0.2
			c-1.4,0-2.5-0.5-2.5-2.3c0-1,0-4,0-5.2h-1.5v-1.5h1.5c0.1-0.1,0.1-1.9,0.1-1.9l1.7,0c0,0,0,1.7,0,1.9h2.7v1.5H1146.2z"/>
		<path d="M1158.7,972.5h-1.7c-0.1,0,0-0.2,0-5.5c0-1.1-0.6-1.9-2.2-1.9c-1.4,0-2.5,0.8-2.5,2v5.4h-1.7v-12.8h1.7v5.3
			c0.4-0.9,1.5-1.5,3.1-1.5c2.2,0,3.3,1.2,3.3,3.2C1158.6,972.3,1158.6,972.5,1158.7,972.5z"/>
		<path d="M1168.1,971.8c-0.7,0.5-1.7,0.8-3.1,0.8c-1.6,0-2.9-0.5-3.8-1.6c-0.6-0.8-0.9-1.7-0.9-3c0-1.2,0.3-2.2,0.9-2.9
			c0.8-1,2-1.6,3.7-1.6c1.8,0,3,0.6,3.7,1.6c0.7,0.8,0.9,2.3,0.8,3.6h-7.5c0,0.7,0.3,1.2,0.8,1.7c0.5,0.5,1.3,0.8,2.2,0.8
			c0.9,0,1.6-0.2,2-0.5c0.5-0.3,0.7-0.8,0.7-1h1.7C1169.4,970.3,1168.9,971.2,1168.1,971.8z M1167.2,965.7c-0.5-0.5-1.2-0.8-2.2-0.8
			c-1,0-1.7,0.3-2.2,0.8c-0.4,0.4-0.7,1-0.7,1.6h5.7C1167.7,966.7,1167.6,966.2,1167.2,965.7z"/>
	</g>
	<g class="st2">
		<path d="M920,981.6v-2h1.8v2H920z M920.2,991.5c-0.1,0-0.1-0.2-0.1-0.8c0-1.7,0-8,0-8h1.7c0,0,0,6.6,0,8c0,0.6,0,0.8,0.1,0.8
			H920.2z"/>
		<path d="M932.4,991.5h-1.7c-0.1,0-0.1-0.1-0.1-5.5c0-1.2-0.7-1.9-2.2-1.9c-1.3,0-2.5,0.7-2.5,2v5.3h-1.7v-8.8h1.7v1.4
			c0.5-1.1,1.9-1.6,3.2-1.6c2.4,0,3.3,1.4,3.3,3.1C932.4,991.2,932.4,991.5,932.4,991.5z"/>
		<path d="M937,984.2v7.3h-1.7v-7.3h-1.6v-1.5h1.6v-1.6c0-1.4,1-2.4,3-2.4c0.6,0,1.2,0.1,1.4,0.1v1.5c-0.3,0-0.8-0.1-1.3-0.1
			c-1,0-1.3,0.6-1.3,1.3v1.2h2.6v1.5H937z"/>
		<path d="M948.5,990.3c-0.8,0.8-2,1.3-3.5,1.3c-1.6,0-2.8-0.4-3.6-1.3c-0.7-0.8-1.2-1.8-1.2-3.3c0-1.3,0.4-2.4,1.2-3.2
			c0.8-0.8,1.9-1.3,3.6-1.3c1.6,0,2.8,0.5,3.6,1.3c0.8,0.8,1.2,2,1.2,3.3C949.7,988.5,949.2,989.5,948.5,990.3z M947.4,984.8
			c-0.5-0.5-1.2-0.8-2.4-0.8c-1.1,0-1.8,0.4-2.3,0.9c-0.5,0.6-0.7,1.3-0.7,2.2c0,1,0.2,1.8,0.6,2.2c0.5,0.6,1.3,0.9,2.4,0.9
			c1,0,1.8-0.3,2.3-0.9c0.4-0.5,0.7-1.2,0.7-2.2C948,986.2,947.9,985.3,947.4,984.8z"/>
		<path d="M957.9,984.5c-0.5-0.2-1.2-0.3-2-0.3c-1.5,0-2.6,1-2.6,2.7v4.6h-1.7v-8.8h1.7v1.5c0.2-1,1.6-1.7,3-1.7
			c0.8,0,1.3,0.1,1.6,0.2V984.5z"/>
		<path d="M970.8,985.9c0-1.1-0.4-1.8-2-1.8c-1.2,0-2.1,0.7-2.1,1.9v5.5H965c0-0.2,0-4.8,0-5.7c0-1.1-0.7-1.7-1.9-1.7
			c-1.3,0-2.2,1-2.2,1.9v5.5h-1.7v-8.8h1.7v1.3c0.4-0.9,1.6-1.5,2.9-1.5s2.3,0.5,2.6,1.6c0.4-1.1,1.6-1.6,3-1.6c2.1,0,3,1.2,3,2.9
			c0,6,0,6.1,0.1,6.1h-1.6C970.8,991.5,970.8,991.4,970.8,985.9z"/>
		<path d="M981.3,991.5c-0.1,0-0.2-0.5-0.2-1.1c-0.5,0.7-1.5,1.2-3.5,1.2c-2.1,0-3.4-0.8-3.4-2.3c0-0.1,0-0.3,0-0.5
			c0-1.4,1.2-2.7,4.4-2.7c0.8,0,1.6,0,2.5,0.1c0-0.2,0-0.7,0-1c-0.1-0.8-0.8-1.3-2.3-1.3c-1,0-1.6,0.2-2,0.5
			c-0.4,0.3-0.5,0.7-0.5,1.2h-1.6c0-0.6,0.3-1.4,0.6-1.8c0.7-0.9,1.8-1.3,3.5-1.3c2.6,0,3.8,1,3.9,2.4c0,0.4,0.1,1.7,0,2.4
			c0,0.6,0,1.8,0,2.4c0,0.7,0.1,1.6,0.2,1.8H981.3z M979.2,987.4c-1.1,0-2,0.1-2.6,0.5c-0.4,0.2-0.6,0.6-0.6,1
			c0,0.4,0.1,0.6,0.3,0.8c0.3,0.3,1,0.5,1.9,0.5c0.8,0,1.4-0.1,2.1-0.5c0.4-0.2,0.8-0.7,0.9-1.4c0-0.4,0.1-0.7,0.1-0.9
			C980.5,987.4,979.9,987.4,979.2,987.4z"/>
		<path d="M987.1,984.2c0,0.9,0,3.8,0,4.6c0,1,0.4,1.3,1.4,1.3c0.4,0,1,0,1.2-0.1v1.5c-0.4,0.1-1.1,0.2-1.9,0.2
			c-1.4,0-2.5-0.5-2.5-2.3c0-1,0-4,0-5.2h-1.5v-1.5h1.5c0.1-0.1,0.1-1.9,0.1-1.9l1.7,0c0,0,0,1.7,0,1.9h2.7v1.5H987.1z"/>
		<path d="M991.3,981.6v-2h1.8v2H991.3z M991.5,991.5c-0.1,0-0.1-0.2-0.1-0.8c0-1.7,0-8,0-8h1.7c0,0,0,6.6,0,8c0,0.6,0,0.8,0.1,0.8
			H991.5z"/>
		<path d="M1003.2,990.3c-0.8,0.8-2,1.3-3.5,1.3c-1.6,0-2.8-0.4-3.6-1.3c-0.7-0.8-1.2-1.8-1.2-3.3c0-1.3,0.4-2.4,1.2-3.2
			c0.8-0.8,1.9-1.3,3.6-1.3c1.6,0,2.8,0.5,3.6,1.3c0.8,0.8,1.2,2,1.2,3.3C1004.4,988.5,1004,989.5,1003.2,990.3z M1002.1,984.8
			c-0.5-0.5-1.2-0.8-2.4-0.8c-1.1,0-1.8,0.4-2.3,0.9c-0.5,0.6-0.7,1.3-0.7,2.2c0,1,0.2,1.8,0.6,2.2c0.5,0.6,1.3,0.9,2.4,0.9
			c1,0,1.8-0.3,2.3-0.9c0.4-0.5,0.7-1.2,0.7-2.2C1002.7,986.2,1002.6,985.3,1002.1,984.8z"/>
		<path d="M1014.4,991.5h-1.7c-0.1,0-0.1-0.1-0.1-5.5c0-1.2-0.7-1.9-2.2-1.9c-1.3,0-2.5,0.7-2.5,2v5.3h-1.7v-8.8h1.7v1.4
			c0.5-1.1,1.9-1.6,3.2-1.6c2.4,0,3.3,1.4,3.3,3.1C1014.4,991.2,1014.4,991.5,1014.4,991.5z"/>
		<path d="M1029.4,991.5h-1.7c-0.1,0-0.1-0.1-0.1-5.5c0-1.2-0.7-1.9-2.2-1.9c-1.3,0-2.5,0.7-2.5,2v5.3h-1.7v-8.8h1.7v1.4
			c0.5-1.1,1.9-1.6,3.2-1.6c2.4,0,3.3,1.4,3.3,3.1C1029.4,991.2,1029.4,991.5,1029.4,991.5z"/>
		<path d="M1038.9,990.8c-0.7,0.5-1.7,0.8-3.1,0.8c-1.6,0-2.9-0.5-3.8-1.6c-0.6-0.8-0.9-1.7-0.9-3c0-1.2,0.3-2.2,0.9-2.9
			c0.8-1,2-1.6,3.7-1.6c1.8,0,3,0.6,3.7,1.6c0.7,0.8,0.9,2.3,0.8,3.6h-7.5c0,0.7,0.3,1.2,0.8,1.7c0.5,0.5,1.3,0.8,2.2,0.8
			c0.9,0,1.6-0.2,2-0.5c0.5-0.3,0.7-0.8,0.7-1h1.7C1040.2,989.3,1039.7,990.2,1038.9,990.8z M1038,984.7c-0.5-0.5-1.2-0.8-2.2-0.8
			c-1,0-1.7,0.3-2.2,0.8c-0.4,0.4-0.7,1-0.7,1.6h5.7C1038.6,985.7,1038.4,985.2,1038,984.7z"/>
		<path d="M1049.3,990.8c-0.7,0.5-1.7,0.8-3.1,0.8c-1.6,0-2.9-0.5-3.8-1.6c-0.6-0.8-0.9-1.7-0.9-3c0-1.2,0.3-2.2,0.9-2.9
			c0.8-1,2-1.6,3.7-1.6c1.8,0,3,0.6,3.7,1.6c0.7,0.8,0.9,2.3,0.8,3.6h-7.5c0,0.7,0.3,1.2,0.8,1.7c0.5,0.5,1.3,0.8,2.2,0.8
			c0.9,0,1.6-0.2,2-0.5c0.5-0.3,0.7-0.8,0.7-1h1.7C1050.6,989.3,1050.1,990.2,1049.3,990.8z M1048.3,984.7c-0.5-0.5-1.2-0.8-2.2-0.8
			c-1,0-1.7,0.3-2.2,0.8c-0.4,0.4-0.7,1-0.7,1.6h5.7C1048.9,985.7,1048.7,985.2,1048.3,984.7z"/>
		<path d="M1059.2,983.8v-5h1.7c0,0,0,10,0,11.7c0,0.4,0.1,1,0.1,1h-1.6l-0.2-1.2c-0.5,0.8-1.5,1.3-3.2,1.3c-1.5,0-2.5-0.6-3.1-1.2
			c-0.7-0.8-1.1-1.8-1.1-3.2c0-1.5,0.5-2.6,1.2-3.3c0.7-0.7,1.8-1.2,3.1-1.2C1057.4,982.6,1058.6,982.9,1059.2,983.8z M1054.3,984.9
			c-0.5,0.5-0.8,1.3-0.8,2.2c0,0.9,0.2,1.7,0.6,2.2c0.6,0.6,1.2,0.9,2.3,0.9c1,0,1.7-0.3,2.3-1c0.4-0.4,0.6-1.2,0.6-2.1
			c0-0.8-0.2-1.7-0.5-2.1c-0.6-0.8-1.3-1-2.3-1C1055.5,984.1,1054.8,984.4,1054.3,984.9z"/>
		<path d="M1070.4,990.8c-0.7,0.5-1.7,0.8-3.1,0.8c-1.6,0-2.9-0.5-3.8-1.6c-0.6-0.8-0.9-1.7-0.9-3c0-1.2,0.3-2.2,0.9-2.9
			c0.8-1,2-1.6,3.7-1.6c1.8,0,3,0.6,3.7,1.6c0.7,0.8,0.9,2.3,0.8,3.6h-7.5c0,0.7,0.3,1.2,0.8,1.7c0.5,0.5,1.3,0.8,2.2,0.8
			c0.9,0,1.6-0.2,2-0.5c0.5-0.3,0.7-0.8,0.7-1h1.7C1071.7,989.3,1071.3,990.2,1070.4,990.8z M1069.5,984.7c-0.5-0.5-1.2-0.8-2.2-0.8
			c-1,0-1.7,0.3-2.2,0.8c-0.4,0.4-0.7,1-0.7,1.6h5.7C1070.1,985.7,1069.9,985.2,1069.5,984.7z"/>
		<path d="M1080.3,983.8v-5h1.7c0,0,0,10,0,11.7c0,0.4,0.1,1,0.1,1h-1.6l-0.2-1.2c-0.5,0.8-1.5,1.3-3.2,1.3c-1.5,0-2.5-0.6-3.1-1.2
			c-0.7-0.8-1.1-1.8-1.1-3.2c0-1.5,0.5-2.6,1.2-3.3c0.7-0.7,1.8-1.2,3.1-1.2C1078.6,982.6,1079.8,982.9,1080.3,983.8z M1075.4,984.9
			c-0.5,0.5-0.8,1.3-0.8,2.2c0,0.9,0.2,1.7,0.6,2.2c0.6,0.6,1.2,0.9,2.3,0.9c1,0,1.7-0.3,2.3-1c0.4-0.4,0.6-1.2,0.6-2.1
			c0-0.8-0.2-1.7-0.5-2.1c-0.6-0.8-1.3-1-2.3-1C1076.7,984.1,1075.9,984.4,1075.4,984.9z"/>
		<path d="M1091.4,984.2v7.3h-1.7v-7.3h-1.6v-1.5h1.6v-1.6c0-1.4,1-2.4,3-2.4c0.6,0,1.2,0.1,1.4,0.1v1.5c-0.3,0-0.8-0.1-1.3-0.1
			c-1,0-1.3,0.6-1.3,1.3v1.2h2.6v1.5H1091.4z"/>
		<path d="M1102.9,990.3c-0.8,0.8-2,1.3-3.5,1.3c-1.6,0-2.8-0.4-3.6-1.3c-0.7-0.8-1.2-1.8-1.2-3.3c0-1.3,0.4-2.4,1.2-3.2
			c0.8-0.8,1.9-1.3,3.6-1.3c1.6,0,2.8,0.5,3.6,1.3c0.8,0.8,1.2,2,1.2,3.3C1104.1,988.5,1103.6,989.5,1102.9,990.3z M1101.8,984.8
			c-0.5-0.5-1.2-0.8-2.4-0.8c-1.1,0-1.8,0.4-2.3,0.9c-0.5,0.6-0.7,1.3-0.7,2.2c0,1,0.2,1.8,0.6,2.2c0.5,0.6,1.3,0.9,2.4,0.9
			c1,0,1.8-0.3,2.3-0.9c0.4-0.5,0.7-1.2,0.7-2.2C1102.4,986.2,1102.2,985.3,1101.8,984.8z"/>
		<path d="M1112.2,984.5c-0.5-0.2-1.2-0.3-2-0.3c-1.5,0-2.6,1-2.6,2.7v4.6h-1.7v-8.8h1.7v1.5c0.2-1,1.6-1.7,3-1.7
			c0.8,0,1.3,0.1,1.6,0.2V984.5z"/>
		<path d="M1125.5,990.8c-0.7,0.5-1.7,0.8-3.1,0.8c-1.6,0-2.9-0.5-3.8-1.6c-0.6-0.8-0.9-1.7-0.9-3c0-1.2,0.3-2.2,0.9-2.9
			c0.8-1,2-1.6,3.7-1.6c1.8,0,3,0.6,3.7,1.6c0.7,0.8,0.9,2.3,0.8,3.6h-7.5c0,0.7,0.3,1.2,0.8,1.7c0.5,0.5,1.3,0.8,2.2,0.8
			c0.9,0,1.6-0.2,2-0.5c0.5-0.3,0.7-0.8,0.7-1h1.7C1126.8,989.3,1126.3,990.2,1125.5,990.8z M1124.6,984.7c-0.5-0.5-1.2-0.8-2.2-0.8
			c-1,0-1.7,0.3-2.2,0.8c-0.4,0.4-0.7,1-0.7,1.6h5.7C1125.1,985.7,1125,985.2,1124.6,984.7z"/>
		<path d="M1135.2,991.5c-0.1,0-0.2-0.5-0.2-1.1c-0.5,0.7-1.5,1.2-3.5,1.2c-2.1,0-3.4-0.8-3.4-2.3c0-0.1,0-0.3,0-0.5
			c0-1.4,1.2-2.7,4.4-2.7c0.8,0,1.6,0,2.5,0.1c0-0.2,0-0.7,0-1c-0.1-0.8-0.8-1.3-2.3-1.3c-1,0-1.6,0.2-2,0.5
			c-0.4,0.3-0.5,0.7-0.5,1.2h-1.6c0-0.6,0.3-1.4,0.6-1.8c0.7-0.9,1.8-1.3,3.5-1.3c2.6,0,3.8,1,3.9,2.4c0,0.4,0.1,1.7,0,2.4
			c0,0.6,0,1.8,0,2.4c0,0.7,0.1,1.6,0.2,1.8H1135.2z M1133.1,987.4c-1.1,0-2,0.1-2.6,0.5c-0.4,0.2-0.6,0.6-0.6,1
			c0,0.4,0.1,0.6,0.3,0.8c0.3,0.3,1,0.5,1.9,0.5c0.8,0,1.4-0.1,2.1-0.5c0.4-0.2,0.8-0.7,0.9-1.4c0-0.4,0.1-0.7,0.1-0.9
			C1134.4,987.4,1133.7,987.4,1133.1,987.4z"/>
		<path d="M1145.8,986c0-0.3-0.1-0.9-0.4-1.2c-0.4-0.5-1.2-0.8-2.3-0.8c-1,0-1.7,0.3-2.2,0.8c-0.5,0.5-0.7,1.3-0.7,2.3
			c0,1.1,0.2,1.9,0.8,2.4c0.5,0.5,1.2,0.7,2.2,0.7c1.1,0,1.8-0.3,2.2-0.7c0.3-0.3,0.5-0.8,0.5-1.1h1.7c0,0.8-0.3,1.6-1,2.2
			c-0.7,0.6-1.8,1.1-3.4,1.1c-1.5,0-2.6-0.4-3.4-1.1c-0.8-0.8-1.3-1.9-1.3-3.5c0-1.5,0.4-2.6,1.2-3.3c0.8-0.8,2-1.3,3.6-1.3
			c2,0,3.1,0.7,3.8,1.8c0.4,0.6,0.4,1.3,0.4,1.7H1145.8z"/>
		<path d="M1157.5,991.5h-1.7c-0.1,0,0-0.2,0-5.5c0-1.1-0.6-1.9-2.2-1.9c-1.4,0-2.5,0.8-2.5,2v5.4h-1.7v-12.8h1.7v5.3
			c0.4-0.9,1.5-1.5,3.1-1.5c2.2,0,3.3,1.2,3.3,3.2C1157.4,991.3,1157.4,991.5,1157.5,991.5z"/>
		<path d="M1168.3,991.6c-2.7,0-4-0.5-4.3-1.9c-0.1-0.4-0.1-0.6-0.1-0.9h1.7c0,0.1,0,0.3,0.1,0.6c0.2,0.6,1,0.8,2.7,0.8
			c1.7,0,2.3-0.4,2.3-1.2c0-0.8-0.6-1-2.1-1.2c-0.2,0-1.5-0.2-1.8-0.3c-2-0.3-2.8-1-2.8-2.5c0-1.4,1.2-2.5,4-2.5
			c2.3,0,3.6,0.6,4,1.8c0.1,0.4,0.1,0.9,0.1,1.1h-1.7c0-0.1,0-0.5-0.1-0.6c-0.2-0.4-0.8-0.7-2.4-0.7c-1.7,0-2.2,0.4-2.2,1
			c0,0.6,0.4,0.8,1.8,1.1c0.2,0,1.7,0.2,1.9,0.3c2.1,0.3,3,1,3,2.6C1172.3,990.7,1171.2,991.6,1168.3,991.6z"/>
		<path d="M1174.2,981.6v-2h1.8v2H1174.2z M1174.4,991.5c-0.1,0-0.1-0.2-0.1-0.8c0-1.7,0-8,0-8h1.7c0,0,0,6.6,0,8
			c0,0.6,0,0.8,0.1,0.8H1174.4z"/>
		<path d="M1180.5,984.2c0,0.9,0,3.8,0,4.6c0,1,0.4,1.3,1.4,1.3c0.4,0,1,0,1.2-0.1v1.5c-0.4,0.1-1.1,0.2-1.9,0.2
			c-1.4,0-2.5-0.5-2.5-2.3c0-1,0-4,0-5.2h-1.5v-1.5h1.5c0.1-0.1,0.1-1.9,0.1-1.9l1.7,0c0,0,0,1.7,0,1.9h2.7v1.5H1180.5z"/>
		<path d="M1192,990.8c-0.7,0.5-1.7,0.8-3.1,0.8c-1.6,0-2.9-0.5-3.8-1.6c-0.6-0.8-0.9-1.7-0.9-3c0-1.2,0.3-2.2,0.9-2.9
			c0.8-1,2-1.6,3.7-1.6c1.8,0,3,0.6,3.7,1.6c0.7,0.8,0.9,2.3,0.8,3.6h-7.5c0,0.7,0.3,1.2,0.8,1.7c0.5,0.5,1.3,0.8,2.2,0.8
			c0.9,0,1.6-0.2,2-0.5c0.5-0.3,0.7-0.8,0.7-1h1.7C1193.3,989.3,1192.8,990.2,1192,990.8z M1191.1,984.7c-0.5-0.5-1.2-0.8-2.2-0.8
			c-1,0-1.7,0.3-2.2,0.8c-0.4,0.4-0.7,1-0.7,1.6h5.7C1191.7,985.7,1191.5,985.2,1191.1,984.7z"/>
		<path d="M1195.4,991.5v-2.6h2.2v2.6H1195.4z"/>
	</g>
	<g class="st2">
		<path d="M933.4,1010.5v-12.6h1.9v12.6H933.4z"/>
		<path d="M946.2,1010.5h-1.7c-0.1,0-0.1-0.1-0.1-5.5c0-1.2-0.7-1.9-2.2-1.9c-1.3,0-2.5,0.7-2.5,2v5.3H938v-8.8h1.7v1.4
			c0.5-1.1,1.9-1.6,3.2-1.6c2.4,0,3.3,1.4,3.3,3.1C946.1,1010.2,946.1,1010.5,946.2,1010.5z"/>
		<path d="M955.2,1005c0-0.3-0.1-0.9-0.4-1.2c-0.4-0.5-1.2-0.8-2.3-0.8c-1,0-1.7,0.3-2.2,0.8c-0.5,0.5-0.7,1.3-0.7,2.3
			c0,1.1,0.2,1.9,0.8,2.4c0.5,0.5,1.2,0.7,2.2,0.7c1.1,0,1.8-0.3,2.2-0.7c0.3-0.3,0.5-0.8,0.5-1.1h1.7c0,0.8-0.3,1.6-1,2.2
			c-0.7,0.6-1.8,1.1-3.4,1.1c-1.5,0-2.6-0.4-3.4-1.1c-0.8-0.8-1.3-1.9-1.3-3.5c0-1.5,0.4-2.6,1.2-3.3c0.8-0.8,2-1.3,3.6-1.3
			c2,0,3.1,0.7,3.8,1.8c0.4,0.6,0.4,1.3,0.4,1.7H955.2z"/>
		<path d="M958.8,1010.5c0,0,0-0.1,0-0.6c0-1.2,0-9.7,0-11.2c0-0.4,0-0.8,0-0.9h1.7c0,0.1,0,0.4,0,0.8c0,1.3,0,9.2,0,11.2
			c0,0.4,0,0.7,0,0.8H958.8z"/>
		<path d="M970.9,1010.5h-1.7l0-1.1c-0.6,1-1.9,1.3-3.1,1.3c-2,0-3.4-1.1-3.4-3c0-5.5,0-6,0-6h1.7c0,0,0,0.1,0,5.5
			c0,1.4,0.9,2,2.4,2c1.4,0,2.3-0.7,2.3-1.9v-5.6h1.7v7.3C970.8,1010.3,970.8,1010.5,970.9,1010.5z"/>
		<path d="M980,1002.8v-5h1.7c0,0,0,10,0,11.7c0,0.4,0.1,1,0.1,1h-1.6l-0.2-1.2c-0.5,0.8-1.5,1.3-3.2,1.3c-1.5,0-2.5-0.6-3.1-1.2
			c-0.7-0.8-1.1-1.8-1.1-3.2c0-1.5,0.5-2.6,1.2-3.3c0.7-0.7,1.8-1.2,3.1-1.2C978.2,1001.6,979.4,1001.9,980,1002.8z M975.1,1003.9
			c-0.5,0.5-0.8,1.3-0.8,2.2c0,0.9,0.2,1.7,0.6,2.2c0.6,0.6,1.2,0.9,2.3,0.9c1,0,1.7-0.3,2.3-1c0.4-0.4,0.6-1.2,0.6-2.1
			c0-0.8-0.2-1.7-0.5-2.1c-0.6-0.8-1.3-1-2.3-1C976.3,1003.1,975.6,1003.4,975.1,1003.9z"/>
		<path d="M991.2,1009.8c-0.7,0.5-1.7,0.8-3.1,0.8c-1.6,0-2.9-0.5-3.8-1.6c-0.6-0.8-0.9-1.7-0.9-3c0-1.2,0.3-2.2,0.9-2.9
			c0.8-1,2-1.6,3.7-1.6c1.8,0,3,0.6,3.7,1.6c0.7,0.8,0.9,2.3,0.8,3.6h-7.5c0,0.7,0.3,1.2,0.8,1.7c0.5,0.5,1.3,0.8,2.2,0.8
			c0.9,0,1.6-0.2,2-0.5c0.5-0.3,0.7-0.8,0.7-1h1.7C992.5,1008.3,992.1,1009.2,991.2,1009.8z M990.3,1003.7c-0.5-0.5-1.2-0.8-2.2-0.8
			c-1,0-1.7,0.3-2.2,0.8c-0.4,0.4-0.7,1-0.7,1.6h5.7C990.9,1004.7,990.7,1004.2,990.3,1003.7z"/>
		<path d="M998.3,1010.6c-2.7,0-4-0.5-4.3-1.9c-0.1-0.4-0.1-0.6-0.1-0.9h1.7c0,0.1,0,0.3,0.1,0.6c0.2,0.6,1,0.8,2.7,0.8
			c1.7,0,2.3-0.4,2.3-1.2c0-0.8-0.6-1-2.1-1.2c-0.2,0-1.5-0.2-1.8-0.3c-2-0.3-2.8-1-2.8-2.5c0-1.4,1.2-2.5,4-2.5
			c2.3,0,3.6,0.6,4,1.8c0.1,0.4,0.1,0.9,0.1,1.1h-1.7c0-0.1,0-0.5-0.1-0.6c-0.2-0.4-0.8-0.7-2.4-0.7c-1.7,0-2.2,0.4-2.2,1
			c0,0.6,0.4,0.8,1.8,1.1c0.2,0,1.7,0.2,1.9,0.3c2.1,0.3,3,1,3,2.6C1002.4,1009.7,1001.2,1010.6,998.3,1010.6z"/>
		<path d="M1016.2,1009.8c-0.7,0.5-1.7,0.8-3.1,0.8c-1.6,0-2.9-0.5-3.8-1.6c-0.6-0.8-0.9-1.7-0.9-3c0-1.2,0.3-2.2,0.9-2.9
			c0.8-1,2-1.6,3.7-1.6c1.8,0,3,0.6,3.7,1.6c0.7,0.8,0.9,2.3,0.8,3.6h-7.5c0,0.7,0.3,1.2,0.8,1.7c0.5,0.5,1.3,0.8,2.2,0.8
			c0.9,0,1.6-0.2,2-0.5c0.5-0.3,0.7-0.8,0.7-1h1.7C1017.5,1008.3,1017,1009.2,1016.2,1009.8z M1015.2,1003.7
			c-0.5-0.5-1.2-0.8-2.2-0.8c-1,0-1.7,0.3-2.2,0.8c-0.4,0.4-0.7,1-0.7,1.6h5.7C1015.8,1004.7,1015.6,1004.2,1015.2,1003.7z"/>
		<path d="M1025.8,1010.5c-0.1,0-0.2-0.5-0.2-1.1c-0.5,0.7-1.5,1.2-3.5,1.2c-2.1,0-3.4-0.8-3.4-2.3c0-0.1,0-0.3,0-0.5
			c0-1.4,1.2-2.7,4.4-2.7c0.8,0,1.6,0,2.5,0.1c0-0.2,0-0.7,0-1c-0.1-0.8-0.8-1.3-2.3-1.3c-1,0-1.6,0.2-2,0.5
			c-0.4,0.3-0.5,0.7-0.5,1.2h-1.6c0-0.6,0.3-1.4,0.6-1.8c0.7-0.9,1.8-1.3,3.5-1.3c2.6,0,3.8,1,3.9,2.4c0,0.4,0.1,1.7,0,2.4
			c0,0.6,0,1.8,0,2.4c0,0.7,0.1,1.6,0.2,1.8H1025.8z M1023.7,1006.4c-1.1,0-2,0.1-2.6,0.5c-0.4,0.2-0.6,0.6-0.6,1
			c0,0.4,0.1,0.6,0.3,0.8c0.3,0.3,1,0.5,1.9,0.5c0.8,0,1.4-0.1,2.1-0.5c0.4-0.2,0.8-0.7,0.9-1.4c0-0.4,0.1-0.7,0.1-0.9
			C1025,1006.4,1024.4,1006.4,1023.7,1006.4z"/>
		<path d="M1035.9,1003.5c-0.5-0.2-1.2-0.3-2-0.3c-1.5,0-2.6,1-2.6,2.7v4.6h-1.7v-8.8h1.7v1.5c0.2-1,1.6-1.7,3-1.7
			c0.8,0,1.3,0.1,1.6,0.2V1003.5z"/>
		<path d="M1037.3,1010.5c0,0,0-0.1,0-0.6c0-1.2,0-9.7,0-11.2c0-0.4,0-0.8,0-0.9h1.7c0,0.1,0,0.4,0,0.8c0,1.3,0,9.2,0,11.2
			c0,0.4,0,0.7,0,0.8H1037.3z"/>
		<path d="M1044.9,1013.3h-1.8l1.2-2.8l-4-8.8h1.9c0,0,3,7,3,7.1c0-0.1,3-7.1,3-7.1h1.8L1044.9,1013.3z"/>
		<path d="M1056.1,1010.5c0,0,0-0.1,0-0.6c0-1.2,0-9.7,0-11.2c0-0.4,0-0.8,0-0.9h1.7c0,0.1,0,0.4,0,0.8c0,1.3,0,9.2,0,11.2
			c0,0.4,0,0.7,0,0.8H1056.1z"/>
		<path d="M1060,1000.6v-2h1.8v2H1060z M1060.2,1010.5c-0.1,0-0.1-0.2-0.1-0.8c0-1.7,0-8,0-8h1.7c0,0,0,6.6,0,8c0,0.6,0,0.8,0.1,0.8
			H1060.2z"/>
		<path d="M1072.4,1010.5h-1.7c-0.1,0-0.1-0.1-0.1-5.5c0-1.2-0.7-1.9-2.2-1.9c-1.3,0-2.5,0.7-2.5,2v5.3h-1.7v-8.8h1.7v1.4
			c0.5-1.1,1.9-1.6,3.2-1.6c2.4,0,3.3,1.4,3.3,3.1C1072.3,1010.2,1072.3,1010.5,1072.4,1010.5z"/>
		<path d="M1081.1,1010.5l-2.8-4.6l-1.9,1.8v2.9h-1.7v-12.8h1.7v8l4.3-4h2.1l-3.2,3l3.6,5.8H1081.1z"/>
		<path d="M1088.1,1010.6c-2.7,0-4-0.5-4.3-1.9c-0.1-0.4-0.1-0.6-0.1-0.9h1.7c0,0.1,0,0.3,0.1,0.6c0.2,0.6,1,0.8,2.7,0.8
			c1.7,0,2.3-0.4,2.3-1.2c0-0.8-0.6-1-2.1-1.2c-0.2,0-1.5-0.2-1.8-0.3c-2-0.3-2.8-1-2.8-2.5c0-1.4,1.2-2.5,4-2.5
			c2.3,0,3.6,0.6,4,1.8c0.1,0.4,0.1,0.9,0.1,1.1h-1.7c0-0.1,0-0.5-0.1-0.6c-0.2-0.4-0.8-0.7-2.4-0.7c-1.7,0-2.2,0.4-2.2,1
			c0,0.6,0.4,0.8,1.8,1.1c0.2,0,1.7,0.2,1.9,0.3c2.1,0.3,3,1,3,2.6C1092.2,1009.7,1091,1010.6,1088.1,1010.6z"/>
		<path d="M1103.1,1004.8v3h-1.5v-3h-3.3v-1.4h3.3v-3h1.5v3h3.3v1.4H1103.1z"/>
		<path d="M1117.8,1010.5h-2.1l-3.8-8.8h1.9l3,7.2l3-7.2h1.8L1117.8,1010.5z"/>
		<path d="M1129.3,1010.5c-0.1,0-0.2-0.5-0.2-1.1c-0.5,0.7-1.5,1.2-3.5,1.2c-2.1,0-3.4-0.8-3.4-2.3c0-0.1,0-0.3,0-0.5
			c0-1.4,1.2-2.7,4.4-2.7c0.8,0,1.6,0,2.5,0.1c0-0.2,0-0.7,0-1c-0.1-0.8-0.8-1.3-2.3-1.3c-1,0-1.6,0.2-2,0.5
			c-0.4,0.3-0.5,0.7-0.5,1.2h-1.6c0-0.6,0.3-1.4,0.6-1.8c0.7-0.9,1.8-1.3,3.5-1.3c2.6,0,3.8,1,3.9,2.4c0,0.4,0.1,1.7,0,2.4
			c0,0.6,0,1.8,0,2.4c0,0.7,0.1,1.6,0.2,1.8H1129.3z M1127.1,1006.4c-1.1,0-2,0.1-2.6,0.5c-0.4,0.2-0.6,0.6-0.6,1
			c0,0.4,0.1,0.6,0.3,0.8c0.3,0.3,1,0.5,1.9,0.5c0.8,0,1.4-0.1,2.1-0.5c0.4-0.2,0.8-0.7,0.9-1.4c0-0.4,0.1-0.7,0.1-0.9
			C1128.4,1006.4,1127.8,1006.4,1127.1,1006.4z"/>
		<path d="M1139.3,1003.5c-0.5-0.2-1.2-0.3-2-0.3c-1.5,0-2.6,1-2.6,2.7v4.6h-1.7v-8.8h1.7v1.5c0.2-1,1.6-1.7,3-1.7
			c0.8,0,1.3,0.1,1.6,0.2V1003.5z"/>
		<path d="M1140.7,1000.6v-2h1.8v2H1140.7z M1140.9,1010.5c-0.1,0-0.1-0.2-0.1-0.8c0-1.7,0-8,0-8h1.7c0,0,0,6.6,0,8
			c0,0.6,0,0.8,0.1,0.8H1140.9z"/>
		<path d="M1151.5,1010.5c-0.1,0-0.2-0.5-0.2-1.1c-0.5,0.7-1.5,1.2-3.5,1.2c-2.1,0-3.4-0.8-3.4-2.3c0-0.1,0-0.3,0-0.5
			c0-1.4,1.2-2.7,4.4-2.7c0.8,0,1.6,0,2.5,0.1c0-0.2,0-0.7,0-1c-0.1-0.8-0.8-1.3-2.3-1.3c-1,0-1.6,0.2-2,0.5
			c-0.4,0.3-0.5,0.7-0.5,1.2h-1.6c0-0.6,0.3-1.4,0.6-1.8c0.7-0.9,1.8-1.3,3.5-1.3c2.6,0,3.8,1,3.9,2.4c0,0.4,0.1,1.7,0,2.4
			c0,0.6,0,1.8,0,2.4c0,0.7,0.1,1.6,0.2,1.8H1151.5z M1149.4,1006.4c-1.1,0-2,0.1-2.6,0.5c-0.4,0.2-0.6,0.6-0.6,1
			c0,0.4,0.1,0.6,0.3,0.8c0.3,0.3,1,0.5,1.9,0.5c0.8,0,1.4-0.1,2.1-0.5c0.4-0.2,0.8-0.7,0.9-1.4c0-0.4,0.1-0.7,0.1-0.9
			C1150.6,1006.4,1150,1006.4,1149.4,1006.4z"/>
		<path d="M1163.4,1010.5h-1.7c-0.1,0-0.1-0.1-0.1-5.5c0-1.2-0.7-1.9-2.2-1.9c-1.3,0-2.5,0.7-2.5,2v5.3h-1.7v-8.8h1.7v1.4
			c0.5-1.1,1.9-1.6,3.2-1.6c2.4,0,3.3,1.4,3.3,3.1C1163.4,1010.2,1163.4,1010.5,1163.4,1010.5z"/>
		<path d="M1167.7,1003.2c0,0.9,0,3.8,0,4.6c0,1,0.4,1.3,1.4,1.3c0.4,0,1,0,1.2-0.1v1.5c-0.4,0.1-1.1,0.2-1.9,0.2
			c-1.4,0-2.5-0.5-2.5-2.3c0-1,0-4,0-5.2h-1.5v-1.5h1.5c0.1-0.1,0.1-1.9,0.1-1.9l1.7,0c0,0,0,1.7,0,1.9h2.7v1.5H1167.7z"/>
		<path d="M1176,1010.6c-2.7,0-4-0.5-4.3-1.9c-0.1-0.4-0.1-0.6-0.1-0.9h1.7c0,0.1,0,0.3,0.1,0.6c0.2,0.6,1,0.8,2.7,0.8
			c1.7,0,2.3-0.4,2.3-1.2c0-0.8-0.6-1-2.1-1.2c-0.2,0-1.5-0.2-1.8-0.3c-2-0.3-2.8-1-2.8-2.5c0-1.4,1.2-2.5,4-2.5
			c2.3,0,3.6,0.6,4,1.8c0.1,0.4,0.1,0.9,0.1,1.1h-1.7c0-0.1,0-0.5-0.1-0.6c-0.2-0.4-0.8-0.7-2.4-0.7c-1.7,0-2.2,0.4-2.2,1
			c0,0.6,0.4,0.8,1.8,1.1c0.2,0,1.7,0.2,1.9,0.3c2.1,0.3,3,1,3,2.6C1180.1,1009.7,1178.9,1010.6,1176,1010.6z"/>
		<path d="M1182.3,1010.5v-2.6h2.2v2.6H1182.3z"/>
	</g>
	<g class="st2">
		<path d="M1007.2,858c-0.5,0.6-1.3,1.2-2.4,1.3l4.6,5.2h-5.2l-4-4.6h-5.2v4.6h-4.7V852h12c2.3,0,3.8,0.5,4.6,1.2
			c0.6,0.6,1,1.3,1,2.4C1007.9,856.6,1007.7,857.5,1007.2,858z M1003.3,855.6c-0.3-0.4-0.8-0.5-1.6-0.5h-6.6v2h6.7
			c0.9,0,1.3-0.1,1.5-0.5c0.1-0.2,0.1-0.4,0.1-0.5C1003.4,855.9,1003.4,855.8,1003.3,855.6z"/>
		<path d="M1012.4,864.5V852h15.4v3.3h-10.8v1.4h10.5v3.1h-10.5v1.4h11v3.3H1012.4z"/>
		<path d="M1031.9,864.5V852h4.7v8.9h9.2v3.6H1031.9z"/>
		<path d="M1049.3,864.5V852h15.4v3.3H1054v1.4h10.5v3.1H1054v1.4h11v3.3H1049.3z"/>
		<path d="M1072.1,864.5h-5l8.5-12.5h5.4l8,12.5h-5.2l-1.3-2h-9.1L1072.1,864.5z M1078.7,856.5l-0.6-1.1l-0.7,1.1l-2,3.1h5.4
			C1080.7,859.6,1078.7,856.5,1078.7,856.5z"/>
		<path d="M1099.8,864.7c-5.5,0-7.9-1.5-9-3.3c-0.2-0.4-0.3-0.8-0.4-1.2h5.2c0.1,0.2,0.2,0.4,0.4,0.6c0.5,0.5,2,0.8,4.3,0.8
			c3.2,0,3.8-0.3,3.8-0.9c0-0.6-0.4-0.7-3.1-0.9c-1.2-0.1-2.8-0.2-3.6-0.2c-5.3-0.3-6.8-1.7-6.8-3.6c0-2.3,3.1-4.1,8.9-4.1
			c5.1,0,7.4,1.4,8.4,2.9c0.3,0.5,0.5,1,0.6,1.5l-5.2,0c0-0.2-0.1-0.3-0.4-0.5c-0.5-0.4-1.7-0.8-3.7-0.8c-2.9,0-3.7,0.2-3.7,0.8
			c0,0.5,0.5,0.6,3.6,0.9c1.4,0.1,3.9,0.3,4.4,0.3c4,0.3,5.4,1.5,5.4,3.6C1109,863.3,1106,864.7,1099.8,864.7z"/>
		<path d="M1112.6,864.5V852h15.4v3.3h-10.8v1.4h10.5v3.1h-10.5v1.4h11v3.3H1112.6z"/>
	</g>
	<g class="st2">
		<path d="M995.4,882.8c-1.2,2.5-4,3.8-9.4,3.8c-4.7,0-7.5-1.2-8.9-3.1c-0.7-0.9-1-2.1-1-3.3c0-1.2,0.3-2.3,1-3.2
			c1.4-2,4.3-3.3,9-3.3c6,0,8.4,2.1,9.3,4c0.3,0.6,0.4,1.2,0.4,1.5h-4.9c0-0.2-0.2-0.4-0.3-0.6c-0.5-0.7-2-1.4-4.5-1.4
			c-2.3,0-4.1,0.6-4.8,1.7c-0.2,0.3-0.3,0.7-0.3,1.2c0,0.4,0.1,0.8,0.3,1.1c0.8,1.2,2.8,1.7,4.8,1.7c2.2,0,4-0.3,4.7-1.4
			c0.1-0.1,0.2-0.4,0.2-0.5h4.9C995.8,881.6,995.6,882.4,995.4,882.8z"/>
		<path d="M1012.4,886.5V882h-8.4v4.5h-4.7V874h4.7v4.5h8.4V874h4.7v12.5H1012.4z"/>
		<path d="M1024.8,886.5h-5l8.5-12.5h5.4l8,12.5h-5.2l-1.3-2h-9.1L1024.8,886.5z M1031.4,878.5l-0.6-1.1l-0.7,1.1l-2,3.1h5.4
			C1033.4,881.6,1031.4,878.5,1031.4,878.5z"/>
		<path d="M1057.1,886.5l-8.2-7.2v7.2h-4.5V874h4.9l8,7v-7h4.5v12.5H1057.1z"/>
		<path d="M1078.9,886.5l-8.2-7.2v7.2h-4.5V874h4.9l8,7v-7h4.5v12.5H1078.9z"/>
		<path d="M1087.9,886.5V874h15.4v3.3h-10.8v1.4h10.5v3.1h-10.5v1.4h11v3.3H1087.9z"/>
		<path d="M1107.3,886.5V874h4.7v8.9h9.2v3.6H1107.3z"/>
		<path d="M1132.6,886.7c-5.5,0-7.9-1.5-9-3.3c-0.2-0.4-0.3-0.8-0.4-1.2h5.2c0.1,0.2,0.2,0.4,0.4,0.6c0.5,0.5,2,0.8,4.3,0.8
			c3.2,0,3.8-0.3,3.8-0.9c0-0.6-0.4-0.7-3.1-0.9c-1.2-0.1-2.8-0.2-3.7-0.2c-5.3-0.3-6.8-1.7-6.8-3.6c0-2.3,3.1-4.1,8.9-4.1
			c5.1,0,7.4,1.4,8.4,2.9c0.3,0.5,0.5,1,0.6,1.5l-5.2,0c0-0.2-0.1-0.3-0.4-0.5c-0.5-0.4-1.7-0.8-3.7-0.8c-2.9,0-3.7,0.2-3.7,0.8
			c0,0.5,0.5,0.6,3.6,0.9c1.4,0.1,3.9,0.3,4.4,0.3c4,0.3,5.4,1.5,5.4,3.6C1141.9,885.3,1138.8,886.7,1132.6,886.7z"/>
	</g>
	<path id="Path_141" class="st1" d="M1040.5,913h37.7"/>
	<g id="Group_182" transform="translate(552.322 231.344)">
		<rect id="Rectangle_18" x="467.7" y="422.2" class="st3" width="77.6" height="47.1"/>
		<line id="Line_13" class="st3" x1="506.5" y1="469.3" x2="506.5" y2="541.8"/>
		<path id="Path_21" class="st3" d="M499.1,531.1l7.4,11.7l7.4-11.7"/>
		<g id="Group_36" transform="translate(439.012 495.07)">
			<path id="Path_22" class="st3" d="M7.4,46.7V0h120.1v46.7"/>
			<path id="Path_23" class="st3" d="M0,36.1l7.4,11.7l7.4-11.7"/>
			<path id="Path_24" class="st3" d="M120.1,36.1l7.4,11.7l7.4-11.7"/>
		</g>
		<circle id="Ellipse_5" class="st3" cx="506.5" cy="565.1" r="12.7"/>
		<circle id="Ellipse_7" class="st3" cx="446.4" cy="565.1" r="12.7"/>
		<circle id="Ellipse_9" class="st3" cx="566.5" cy="565.1" r="12.7"/>
		<path id="Path_25" class="st3" d="M506.5,457.6c6.6,0,11.9-5.3,11.9-11.9c0-6.6-5.3-11.9-11.9-11.9c-6.6,0-11.9,5.3-11.9,11.9
			c0,3.2,1.3,6.2,3.5,8.4l-3.5,3.5H506.5z"/>
		<g id="Group_37" transform="translate(506.467 439.474)">
			<line id="Line_14" class="st3" x1="0" y1="4.9" x2="0" y2="12.5"/>
			<line id="Line_15" class="st3" x1="0" y1="0" x2="0" y2="3.2"/>
		</g>
	</g>
</g>
</svg>
