<?xml version="1.0" encoding="utf-8"?>
<!-- Generator: Adobe Illustrator 23.1.0, SVG Export Plug-In . SVG Version: 6.00 Build 0)  -->
<svg version="1.1" id="Layer_1" xmlns="http://www.w3.org/2000/svg" xmlns:xlink="http://www.w3.org/1999/xlink" x="0px" y="0px"
	 viewBox="0 0 336 447" style="enable-background:new 0 0 336 447;" xml:space="preserve">
<style type="text/css">
	.st0{fill:none;}
	.st1{fill:none;stroke:#93F5CC;stroke-width:2;}
	.st2{enable-background:new    ;}
	.st3{fill:none;stroke:#000000;stroke-width:2;}
	.st4{fill:none;stroke:#000000;stroke-width:2;stroke-miterlimit:10;}
</style>
<g id="Group_414" transform="translate(-423 -1151.001)">
	<g id="Rectangle_77" transform="translate(423 1151.001)">
		<rect class="st0" width="336" height="447"/>
		<rect x="1" y="1" class="st1" width="334" height="445"/>
	</g>
	<g class="st2">
		<path d="M492.9,1469.5H491l4.9-12.6h2.3l4.6,12.6h-1.9l-1.2-3.2h-5.6L492.9,1469.5z M497.4,1459.7l-0.3-1.1l-0.4,1.1l-1.9,5h4.4
			L497.4,1459.7z"/>
		<path d="M515.5,1461.8v-5h1.7c0,0,0,10,0,11.7c0,0.4,0.1,1,0.1,1h-1.6l-0.2-1.2c-0.5,0.8-1.5,1.3-3.2,1.3c-1.5,0-2.5-0.6-3.1-1.2
			c-0.7-0.8-1.1-1.8-1.1-3.2c0-1.5,0.5-2.6,1.2-3.3c0.7-0.7,1.8-1.2,3.1-1.2C513.8,1460.6,515,1460.9,515.5,1461.8z M510.6,1462.9
			c-0.5,0.5-0.8,1.3-0.8,2.2c0,0.9,0.2,1.7,0.6,2.2c0.6,0.6,1.2,0.9,2.3,0.9c1,0,1.7-0.3,2.3-1c0.4-0.4,0.6-1.2,0.6-2.1
			c0-0.8-0.2-1.7-0.5-2.1c-0.6-0.8-1.3-1-2.3-1C511.9,1462.1,511.1,1462.4,510.6,1462.9z"/>
		<path d="M519.5,1459.6v-2h1.8v2H519.5z M519.7,1469.5c-0.1,0-0.1-0.2-0.1-0.8c0-1.7,0-8,0-8h1.7c0,0,0,6.6,0,8
			c0,0.6,0,0.8,0.1,0.8H519.7z"/>
		<path d="M528.6,1469.5h-2.1l-3.8-8.8h1.9l3,7.2l3-7.2h1.8L528.6,1469.5z"/>
		<path d="M540.8,1468.8c-0.7,0.5-1.7,0.8-3.1,0.8c-1.6,0-2.9-0.5-3.8-1.6c-0.6-0.8-0.9-1.7-0.9-3c0-1.2,0.3-2.2,0.9-2.9
			c0.8-1,2-1.6,3.7-1.6c1.8,0,3,0.6,3.7,1.6c0.7,0.8,0.9,2.3,0.8,3.6h-7.5c0,0.7,0.3,1.2,0.8,1.7c0.5,0.5,1.3,0.8,2.2,0.8
			c0.9,0,1.6-0.2,2-0.5c0.5-0.3,0.7-0.8,0.7-1h1.7C542.1,1467.3,541.6,1468.2,540.8,1468.8z M539.8,1462.7c-0.5-0.5-1.2-0.8-2.2-0.8
			c-1,0-1.7,0.3-2.2,0.8c-0.4,0.4-0.7,1-0.7,1.6h5.7C540.4,1463.7,540.2,1463.2,539.8,1462.7z"/>
		<path d="M550.2,1462.5c-0.5-0.2-1.2-0.3-2-0.3c-1.5,0-2.6,1-2.6,2.7v4.6h-1.7v-8.8h1.7v1.5c0.2-1,1.6-1.7,3-1.7
			c0.8,0,1.3,0.1,1.6,0.2V1462.5z"/>
		<path d="M555.3,1469.6c-2.7,0-4-0.5-4.3-1.9c-0.1-0.4-0.1-0.6-0.1-0.9h1.7c0,0.1,0,0.3,0.1,0.6c0.2,0.6,1,0.8,2.7,0.8
			c1.7,0,2.3-0.4,2.3-1.2c0-0.8-0.6-1-2.1-1.2c-0.2,0-1.5-0.2-1.8-0.3c-2-0.3-2.8-1-2.8-2.5c0-1.4,1.2-2.5,4-2.5
			c2.3,0,3.6,0.6,4,1.8c0.1,0.4,0.1,0.9,0.1,1.1h-1.7c0-0.1,0-0.5-0.1-0.6c-0.2-0.4-0.8-0.7-2.4-0.7c-1.7,0-2.2,0.4-2.2,1
			c0,0.6,0.4,0.8,1.8,1.1c0.2,0,1.7,0.2,1.9,0.3c2.1,0.3,3,1,3,2.6C559.4,1468.7,558.2,1469.6,555.3,1469.6z"/>
		<path d="M568.5,1468.8c-0.7,0.5-1.7,0.8-3.1,0.8c-1.6,0-2.9-0.5-3.8-1.6c-0.6-0.8-0.9-1.7-0.9-3c0-1.2,0.3-2.2,0.9-2.9
			c0.8-1,2-1.6,3.7-1.6c1.8,0,3,0.6,3.7,1.6c0.7,0.8,0.9,2.3,0.8,3.6h-7.5c0,0.7,0.3,1.2,0.8,1.7c0.5,0.5,1.3,0.8,2.2,0.8
			c0.9,0,1.6-0.2,2-0.5c0.5-0.3,0.7-0.8,0.7-1h1.7C569.8,1467.3,569.4,1468.2,568.5,1468.8z M567.6,1462.7c-0.5-0.5-1.2-0.8-2.2-0.8
			c-1,0-1.7,0.3-2.2,0.8c-0.4,0.4-0.7,1-0.7,1.6h5.7C568.2,1463.7,568,1463.2,567.6,1462.7z"/>
		<path d="M576.2,1469.5c0,0,0-0.1,0-0.6c0-1.2,0-9.7,0-11.2c0-0.4,0-0.8,0-0.9h1.7c0,0.1,0,0.4,0,0.8c0,1.3,0,9.2,0,11.2
			c0,0.4,0,0.7,0,0.8H576.2z"/>
		<path d="M580.2,1459.6v-2h1.8v2H580.2z M580.4,1469.5c-0.1,0-0.1-0.2-0.1-0.8c0-1.7,0-8,0-8h1.7c0,0,0,6.6,0,8
			c0,0.6,0,0.8,0.1,0.8H580.4z"/>
		<path d="M592.5,1461.7c0.7,0.7,1.1,1.8,1.1,3.2c0,1.6-0.4,2.7-1.2,3.4c-0.8,0.8-1.9,1.2-3.1,1.2c-1.4,0-2.5-0.4-3.1-1.2l-0.1,1.2
			h-1.6v-12.8h1.7v5.3c0.3-0.8,1.5-1.6,3.3-1.6C590.7,1460.5,591.8,1460.9,592.5,1461.7z M586.2,1463.6c-0.1,0.4-0.2,0.8-0.2,1.6
			c0,0.8,0.1,1.2,0.3,1.5c0.4,0.8,1.2,1.4,2.6,1.4c1.1,0,1.8-0.4,2.3-1c0.4-0.5,0.6-1.2,0.6-2.1c0-0.8-0.1-1.6-0.5-2
			c-0.5-0.6-1.2-1-2.4-1C587.4,1462,586.6,1462.7,586.2,1463.6z"/>
		<path d="M601.7,1462.5c-0.5-0.2-1.2-0.3-2-0.3c-1.5,0-2.6,1-2.6,2.7v4.6h-1.7v-8.8h1.7v1.5c0.2-1,1.6-1.7,3-1.7
			c0.8,0,1.3,0.1,1.6,0.2V1462.5z"/>
		<path d="M609.3,1469.5c-0.1,0-0.2-0.5-0.2-1.1c-0.5,0.7-1.5,1.2-3.5,1.2c-2.1,0-3.4-0.8-3.4-2.3c0-0.1,0-0.3,0-0.5
			c0-1.4,1.2-2.7,4.4-2.7c0.8,0,1.6,0,2.5,0.1c0-0.2,0-0.7,0-1c-0.1-0.8-0.8-1.3-2.3-1.3c-1,0-1.6,0.2-2,0.5
			c-0.4,0.3-0.5,0.7-0.5,1.2h-1.6c0-0.6,0.3-1.4,0.6-1.8c0.7-0.9,1.8-1.3,3.5-1.3c2.6,0,3.8,1,3.9,2.4c0,0.4,0.1,1.7,0,2.4
			c0,0.6,0,1.8,0,2.4c0,0.7,0.1,1.6,0.2,1.8H609.3z M607.2,1465.4c-1.1,0-2,0.1-2.6,0.5c-0.4,0.2-0.6,0.6-0.6,1
			c0,0.4,0.1,0.6,0.3,0.8c0.3,0.3,1,0.5,1.9,0.5c0.8,0,1.4-0.1,2.1-0.5c0.4-0.2,0.8-0.7,0.9-1.4c0-0.4,0.1-0.7,0.1-0.9
			C608.5,1465.4,607.8,1465.4,607.2,1465.4z"/>
		<path d="M619.4,1462.5c-0.5-0.2-1.2-0.3-2-0.3c-1.5,0-2.6,1-2.6,2.7v4.6H613v-8.8h1.7v1.5c0.2-1,1.6-1.7,3-1.7
			c0.8,0,1.3,0.1,1.6,0.2V1462.5z"/>
		<path d="M624.6,1472.3h-1.8l1.2-2.8l-4-8.8h1.9c0,0,3,7,3,7.1c0-0.1,3-7.1,3-7.1h1.8L624.6,1472.3z"/>
		<path d="M643.4,1468.3c-0.8,0.8-2,1.3-3.5,1.3c-1.6,0-2.8-0.4-3.6-1.3c-0.7-0.8-1.2-1.8-1.2-3.3c0-1.3,0.4-2.4,1.2-3.2
			c0.8-0.8,1.9-1.3,3.6-1.3c1.6,0,2.8,0.5,3.6,1.3c0.8,0.8,1.2,2,1.2,3.3C644.6,1466.5,644.2,1467.5,643.4,1468.3z M642.3,1462.8
			c-0.5-0.5-1.2-0.8-2.4-0.8c-1.1,0-1.8,0.4-2.3,0.9c-0.5,0.6-0.7,1.3-0.7,2.2c0,1,0.2,1.8,0.6,2.2c0.5,0.6,1.3,0.9,2.4,0.9
			c1,0,1.8-0.3,2.3-0.9c0.4-0.5,0.7-1.2,0.7-2.2C642.9,1464.2,642.8,1463.3,642.3,1462.8z"/>
		<path d="M648.9,1462.2v7.3h-1.7v-7.3h-1.6v-1.5h1.6v-1.6c0-1.4,1-2.4,3-2.4c0.6,0,1.2,0.1,1.4,0.1v1.5c-0.3,0-0.8-0.1-1.3-0.1
			c-1,0-1.3,0.6-1.3,1.3v1.2h2.6v1.5H648.9z"/>
		<path d="M665.7,1461.7c0.7,0.7,1.1,1.8,1.1,3.2c0,1.6-0.4,2.7-1.2,3.4c-0.8,0.8-1.9,1.2-3.1,1.2c-1.4,0-2.5-0.4-3.1-1.2l-0.1,1.2
			h-1.6v-12.8h1.7v5.3c0.3-0.8,1.5-1.6,3.3-1.6C663.9,1460.5,664.9,1460.9,665.7,1461.7z M659.4,1463.6c-0.1,0.4-0.2,0.8-0.2,1.6
			c0,0.8,0.1,1.2,0.3,1.5c0.4,0.8,1.2,1.4,2.6,1.4c1.1,0,1.8-0.4,2.3-1c0.4-0.5,0.6-1.2,0.6-2.1c0-0.8-0.1-1.6-0.5-2
			c-0.5-0.6-1.2-1-2.4-1C660.6,1462,659.8,1462.7,659.4,1463.6z"/>
		<path d="M676.3,1468.3c-0.8,0.8-2,1.3-3.5,1.3c-1.6,0-2.8-0.4-3.6-1.3c-0.7-0.8-1.2-1.8-1.2-3.3c0-1.3,0.4-2.4,1.2-3.2
			c0.8-0.8,1.9-1.3,3.6-1.3c1.6,0,2.8,0.5,3.6,1.3c0.8,0.8,1.2,2,1.2,3.3C677.5,1466.5,677,1467.5,676.3,1468.3z M675.2,1462.8
			c-0.5-0.5-1.2-0.8-2.4-0.8c-1.1,0-1.8,0.4-2.3,0.9c-0.5,0.6-0.7,1.3-0.7,2.2c0,1,0.2,1.8,0.6,2.2c0.5,0.6,1.3,0.9,2.4,0.9
			c1,0,1.8-0.3,2.3-0.9c0.4-0.5,0.7-1.2,0.7-2.2C675.8,1464.2,675.7,1463.3,675.2,1462.8z"/>
		<path d="M681.4,1462.2c0,0.9,0,3.8,0,4.6c0,1,0.4,1.3,1.4,1.3c0.4,0,1,0,1.2-0.1v1.5c-0.4,0.1-1.1,0.2-1.9,0.2
			c-1.4,0-2.5-0.5-2.5-2.3c0-1,0-4,0-5.2h-1.5v-1.5h1.5c0.1-0.1,0.1-1.9,0.1-1.9l1.7,0c0,0,0,1.7,0,1.9h2.7v1.5H681.4z"/>
		<path d="M684.9,1464.5v-1.8h6.9v1.8H684.9z"/>
	</g>
	<g class="st2">
		<path d="M467.4,1488.6c-2.7,0-4-0.5-4.3-1.9c-0.1-0.4-0.1-0.6-0.1-0.9h1.7c0,0.1,0,0.3,0.1,0.6c0.2,0.6,1,0.8,2.7,0.8
			c1.7,0,2.3-0.4,2.3-1.2c0-0.8-0.6-1-2.1-1.2c-0.2,0-1.5-0.2-1.8-0.3c-2-0.3-2.8-1-2.8-2.5c0-1.4,1.2-2.5,4-2.5
			c2.3,0,3.6,0.6,4,1.8c0.1,0.4,0.1,0.9,0.1,1.1h-1.7c0-0.1,0-0.5-0.1-0.6c-0.2-0.4-0.8-0.7-2.4-0.7c-1.7,0-2.2,0.4-2.2,1
			c0,0.6,0.4,0.8,1.8,1.1c0.2,0,1.7,0.2,1.9,0.3c2.1,0.3,3,1,3,2.6C471.5,1487.7,470.3,1488.6,467.4,1488.6z"/>
		<path d="M481.4,1487.3c-0.7,0.7-1.8,1.2-3.2,1.2c-1.3,0-2.6-0.4-3.1-1.2v3.9h-1.7v-11.6h1.7v1.4c0.3-0.9,1.6-1.6,3.3-1.6
			c1.3,0,2.4,0.4,3.1,1.2c0.7,0.7,1,1.8,1,3.3C482.5,1485.6,482.1,1486.6,481.4,1487.3z M480,1481.8c-0.5-0.4-1.2-0.8-2.2-0.8
			c-0.9,0-1.5,0.3-2,0.7c-0.6,0.5-0.8,1.3-0.8,2.4c0,1.1,0.2,1.8,0.8,2.3c0.5,0.5,1.1,0.7,2.1,0.7c1,0,1.8-0.3,2.3-0.9
			c0.4-0.5,0.6-1.2,0.6-2.1C480.8,1483.1,480.6,1482.3,480,1481.8z"/>
		<path d="M491.6,1487.8c-0.7,0.5-1.7,0.8-3.1,0.8c-1.6,0-2.9-0.5-3.8-1.6c-0.6-0.8-0.9-1.7-0.9-3c0-1.2,0.3-2.2,0.9-2.9
			c0.8-1,2-1.6,3.7-1.6c1.8,0,3,0.6,3.7,1.6c0.7,0.8,0.9,2.3,0.8,3.6h-7.5c0,0.7,0.3,1.2,0.8,1.7c0.5,0.5,1.3,0.8,2.2,0.8
			c0.9,0,1.6-0.2,2-0.5c0.5-0.3,0.7-0.8,0.7-1h1.7C492.9,1486.3,492.4,1487.2,491.6,1487.8z M490.6,1481.7c-0.5-0.5-1.2-0.8-2.2-0.8
			c-1,0-1.7,0.3-2.2,0.8c-0.4,0.4-0.7,1-0.7,1.6h5.7C491.2,1482.7,491,1482.2,490.6,1481.7z"/>
		<path d="M501.5,1483c0-0.3-0.1-0.9-0.4-1.2c-0.4-0.5-1.2-0.8-2.3-0.8c-1,0-1.7,0.3-2.2,0.8c-0.5,0.5-0.7,1.3-0.7,2.3
			c0,1.1,0.2,1.9,0.8,2.4c0.5,0.5,1.2,0.7,2.2,0.7c1.1,0,1.8-0.3,2.2-0.7c0.3-0.3,0.5-0.8,0.5-1.1h1.7c0,0.8-0.3,1.6-1,2.2
			c-0.7,0.6-1.8,1.1-3.4,1.1c-1.5,0-2.6-0.4-3.4-1.1c-0.8-0.8-1.3-1.9-1.3-3.5c0-1.5,0.4-2.6,1.2-3.3c0.8-0.8,2-1.3,3.6-1.3
			c2,0,3.1,0.7,3.8,1.8c0.4,0.6,0.4,1.3,0.4,1.7H501.5z"/>
		<path d="M504.9,1478.6v-2h1.8v2H504.9z M505.1,1488.5c-0.1,0-0.1-0.2-0.1-0.8c0-1.7,0-8,0-8h1.7c0,0,0,6.6,0,8
			c0,0.6,0,0.8,0.1,0.8H505.1z"/>
		<path d="M511.6,1481.2v7.3h-1.8v-7.3h-1.6v-1.5h1.6v-1.6c0-1.4,0.7-2.4,2.7-2.4c0.6,0,1.6,0.1,1.8,0.1v1.5c-0.2,0-0.8-0.1-1.3-0.1
			c-1.2,0-1.5,0.5-1.5,1.2v1.3h5.6c0,0,0,6.5,0,7.9c0,0.5,0,0.8,0.1,0.8h-1.8c0-0.1-0.1-0.3-0.1-0.8c0-1.2,0-5.4,0-6.5H511.6z"/>
		<path d="M526.4,1483c0-0.3-0.1-0.9-0.4-1.2c-0.4-0.5-1.2-0.8-2.3-0.8c-1,0-1.7,0.3-2.2,0.8c-0.5,0.5-0.7,1.3-0.7,2.3
			c0,1.1,0.2,1.9,0.8,2.4c0.5,0.5,1.2,0.7,2.2,0.7c1.1,0,1.8-0.3,2.2-0.7c0.3-0.3,0.5-0.8,0.5-1.1h1.7c0,0.8-0.3,1.6-1,2.2
			c-0.7,0.6-1.8,1.1-3.4,1.1c-1.5,0-2.6-0.4-3.4-1.1c-0.8-0.8-1.3-1.9-1.3-3.5c0-1.5,0.4-2.6,1.2-3.3c0.8-0.8,2-1.3,3.6-1.3
			c2,0,3.1,0.7,3.8,1.8c0.4,0.6,0.4,1.3,0.4,1.7H526.4z"/>
		<path d="M541.1,1480.2c0.5-0.4,1.6-0.6,2.3-0.6v1.3c-0.3,0-1.3,0-1.6,0.2c0.1,0.2,0.4,0.7,0.4,1.3c0,0.2,0,0.4,0,0.6
			c-0.3,1.8-1.9,2.6-4,2.6c-0.9,0-1.8-0.3-2.2-0.5c-0.3,0-0.4,0.2-0.4,0.5c0,0.5,0.5,0.7,2.8,0.7c3.7,0,4.8,0.8,4.8,2.3
			c0,1.6-1.3,2.5-4.9,2.5c-3.4,0-4.6-0.7-4.6-2.1c0-1.1,1-1.5,1.5-1.7c-0.6,0-1.1-0.7-1.1-1.3c0-0.6,0.4-1.2,1-1.3
			c-0.5-0.3-1-1.1-1-1.9c0-0.2,0-0.5,0-0.7c0.1-1.4,1.4-2.8,4-2.8C539.7,1479.5,540.6,1479.9,541.1,1480.2z M541.5,1488.7
			c0-0.7-0.5-0.9-2.9-1c-0.9,0-1.8,0-2,0c-0.7,0.1-1.3,0.5-1.3,1c0,0.6,0.7,1.2,3,1.2S541.5,1489.4,541.5,1488.7z M535.8,1482.4
			c0,0.2,0,0.4,0,0.5c0,0.8,0.7,1.5,2.4,1.5c1.7,0,2.2-0.7,2.4-1.5c0-0.2,0-0.3,0-0.5c-0.1-0.9-0.8-1.5-2.4-1.5
			C536.7,1480.9,535.9,1481.7,535.8,1482.4z"/>
		<path d="M552.5,1488.5h-1.7l0-1.1c-0.6,1-1.9,1.3-3.1,1.3c-2,0-3.4-1.1-3.4-3c0-5.5,0-6,0-6h1.7c0,0,0,0.1,0,5.5
			c0,1.4,0.9,2,2.4,2c1.4,0,2.3-0.7,2.3-1.9v-5.6h1.7v7.3C552.5,1488.3,552.5,1488.5,552.5,1488.5z"/>
		<path d="M554.7,1478.6v-2h1.8v2H554.7z M554.9,1488.5c-0.1,0-0.1-0.2-0.1-0.8c0-1.7,0-8,0-8h1.7c0,0,0,6.6,0,8
			c0,0.6,0,0.8,0.1,0.8H554.9z"/>
		<path d="M565.8,1480.8v-5h1.7c0,0,0,10,0,11.7c0,0.4,0.1,1,0.1,1h-1.6l-0.2-1.2c-0.5,0.8-1.5,1.3-3.2,1.3c-1.5,0-2.5-0.6-3.1-1.2
			c-0.7-0.8-1.1-1.8-1.1-3.2c0-1.5,0.5-2.6,1.2-3.3c0.7-0.7,1.8-1.2,3.1-1.2C564,1479.6,565.2,1479.9,565.8,1480.8z M560.9,1481.9
			c-0.5,0.5-0.8,1.3-0.8,2.2c0,0.9,0.2,1.7,0.6,2.2c0.6,0.6,1.2,0.9,2.3,0.9c1,0,1.7-0.3,2.3-1c0.4-0.4,0.6-1.2,0.6-2.1
			c0-0.8-0.2-1.7-0.5-2.1c-0.6-0.8-1.3-1-2.3-1C562.1,1481.1,561.3,1481.4,560.9,1481.9z"/>
		<path d="M577,1487.8c-0.7,0.5-1.7,0.8-3.1,0.8c-1.6,0-2.9-0.5-3.8-1.6c-0.6-0.8-0.9-1.7-0.9-3c0-1.2,0.3-2.2,0.9-2.9
			c0.8-1,2-1.6,3.7-1.6c1.8,0,3,0.6,3.7,1.6c0.7,0.8,0.9,2.3,0.8,3.6h-7.5c0,0.7,0.3,1.2,0.8,1.7c0.5,0.5,1.3,0.8,2.2,0.8
			c0.9,0,1.6-0.2,2-0.5c0.5-0.3,0.7-0.8,0.7-1h1.7C578.3,1486.3,577.8,1487.2,577,1487.8z M576.1,1481.7c-0.5-0.5-1.2-0.8-2.2-0.8
			c-1,0-1.7,0.3-2.2,0.8c-0.4,0.4-0.7,1-0.7,1.6h5.7C576.7,1482.7,576.5,1482.2,576.1,1481.7z"/>
		<path d="M584.1,1488.6c-2.7,0-4-0.5-4.3-1.9c-0.1-0.4-0.1-0.6-0.1-0.9h1.7c0,0.1,0,0.3,0.1,0.6c0.2,0.6,1,0.8,2.7,0.8
			c1.7,0,2.3-0.4,2.3-1.2c0-0.8-0.6-1-2.1-1.2c-0.2,0-1.5-0.2-1.8-0.3c-2-0.3-2.8-1-2.8-2.5c0-1.4,1.2-2.5,4-2.5
			c2.3,0,3.6,0.6,4,1.8c0.1,0.4,0.1,0.9,0.1,1.1h-1.7c0-0.1,0-0.5-0.1-0.6c-0.2-0.4-0.8-0.7-2.4-0.7c-1.7,0-2.2,0.4-2.2,1
			c0,0.6,0.4,0.8,1.8,1.1c0.2,0,1.7,0.2,1.9,0.3c2.1,0.3,3,1,3,2.6C588.2,1487.7,587,1488.6,584.1,1488.6z"/>
		<path d="M591.4,1490.2l-1.2-0.2l0.8-1.5l-0.2,0h-0.4v-2.6h2v2.6L591.4,1490.2z"/>
		<path d="M603.9,1488.6c-2.7,0-4-0.5-4.3-1.9c-0.1-0.4-0.1-0.6-0.1-0.9h1.7c0,0.1,0,0.3,0.1,0.6c0.2,0.6,1,0.8,2.7,0.8
			c1.7,0,2.3-0.4,2.3-1.2c0-0.8-0.6-1-2.1-1.2c-0.2,0-1.5-0.2-1.8-0.3c-2-0.3-2.8-1-2.8-2.5c0-1.4,1.2-2.5,4-2.5
			c2.3,0,3.6,0.6,4,1.8c0.1,0.4,0.1,0.9,0.1,1.1h-1.7c0-0.1,0-0.5-0.1-0.6c-0.2-0.4-0.8-0.7-2.4-0.7c-1.7,0-2.2,0.4-2.2,1
			c0,0.6,0.4,0.8,1.8,1.1c0.2,0,1.7,0.2,1.9,0.3c2.1,0.3,3,1,3,2.6C607.9,1487.7,606.8,1488.6,603.9,1488.6z"/>
		<path d="M617.6,1487.3c-0.8,0.8-2,1.3-3.5,1.3c-1.6,0-2.8-0.4-3.6-1.3c-0.7-0.8-1.2-1.8-1.2-3.3c0-1.3,0.4-2.4,1.2-3.2
			c0.8-0.8,1.9-1.3,3.6-1.3c1.6,0,2.8,0.5,3.6,1.3c0.8,0.8,1.2,2,1.2,3.3C618.8,1485.5,618.3,1486.5,617.6,1487.3z M616.4,1481.8
			c-0.5-0.5-1.2-0.8-2.4-0.8c-1.1,0-1.8,0.4-2.3,0.9c-0.5,0.6-0.7,1.3-0.7,2.2c0,1,0.2,1.8,0.6,2.2c0.5,0.6,1.3,0.9,2.4,0.9
			c1,0,1.8-0.3,2.3-0.9c0.4-0.5,0.7-1.2,0.7-2.2C617.1,1483.2,616.9,1482.3,616.4,1481.8z"/>
		<path d="M632.5,1487.8c-0.7,0.5-1.7,0.8-3.1,0.8c-1.6,0-2.9-0.5-3.8-1.6c-0.6-0.8-0.9-1.7-0.9-3c0-1.2,0.3-2.2,0.9-2.9
			c0.8-1,2-1.6,3.7-1.6c1.8,0,3,0.6,3.7,1.6c0.7,0.8,0.9,2.3,0.8,3.6h-7.5c0,0.7,0.3,1.2,0.8,1.7c0.5,0.5,1.3,0.8,2.2,0.8
			c0.9,0,1.6-0.2,2-0.5c0.5-0.3,0.7-0.8,0.7-1h1.7C633.8,1486.3,633.3,1487.2,632.5,1487.8z M631.5,1481.7c-0.5-0.5-1.2-0.8-2.2-0.8
			c-1,0-1.7,0.3-2.2,0.8c-0.4,0.4-0.7,1-0.7,1.6h5.7C632.1,1482.7,631.9,1482.2,631.5,1481.7z"/>
		<path d="M642.1,1488.5c-0.1,0-0.2-0.5-0.2-1.1c-0.5,0.7-1.5,1.2-3.5,1.2c-2.1,0-3.4-0.8-3.4-2.3c0-0.1,0-0.3,0-0.5
			c0-1.4,1.2-2.7,4.4-2.7c0.8,0,1.6,0,2.5,0.1c0-0.2,0-0.7,0-1c-0.1-0.8-0.8-1.3-2.3-1.3c-1,0-1.6,0.2-2,0.5
			c-0.4,0.3-0.5,0.7-0.5,1.2h-1.6c0-0.6,0.3-1.4,0.6-1.8c0.7-0.9,1.8-1.3,3.5-1.3c2.6,0,3.8,1,3.9,2.4c0,0.4,0.1,1.7,0,2.4
			c0,0.6,0,1.8,0,2.4c0,0.7,0.1,1.6,0.2,1.8H642.1z M640,1484.4c-1.1,0-2,0.1-2.6,0.5c-0.4,0.2-0.6,0.6-0.6,1c0,0.4,0.1,0.6,0.3,0.8
			c0.3,0.3,1,0.5,1.9,0.5c0.8,0,1.4-0.1,2.1-0.5c0.4-0.2,0.8-0.7,0.9-1.4c0-0.4,0.1-0.7,0.1-0.9
			C641.3,1484.4,640.7,1484.4,640,1484.4z"/>
		<path d="M652.7,1483c0-0.3-0.1-0.9-0.4-1.2c-0.4-0.5-1.2-0.8-2.3-0.8c-1,0-1.7,0.3-2.2,0.8c-0.5,0.5-0.7,1.3-0.7,2.3
			c0,1.1,0.2,1.9,0.8,2.4c0.5,0.5,1.2,0.7,2.2,0.7c1.1,0,1.8-0.3,2.2-0.7c0.3-0.3,0.5-0.8,0.5-1.1h1.7c0,0.8-0.3,1.6-1,2.2
			c-0.7,0.6-1.8,1.1-3.4,1.1c-1.5,0-2.6-0.4-3.4-1.1c-0.8-0.8-1.3-1.9-1.3-3.5c0-1.5,0.4-2.6,1.2-3.3c0.8-0.8,2-1.3,3.6-1.3
			c2,0,3.1,0.7,3.8,1.8c0.4,0.6,0.4,1.3,0.4,1.7H652.7z"/>
		<path d="M664.4,1488.5h-1.7c-0.1,0,0-0.2,0-5.5c0-1.1-0.6-1.9-2.2-1.9c-1.4,0-2.5,0.8-2.5,2v5.4h-1.7v-12.8h1.7v5.3
			c0.4-0.9,1.5-1.5,3.1-1.5c2.2,0,3.3,1.2,3.3,3.2C664.4,1488.3,664.4,1488.5,664.4,1488.5z"/>
		<path d="M678.9,1487.3c-0.8,0.8-2,1.3-3.5,1.3c-1.6,0-2.8-0.4-3.6-1.3c-0.7-0.8-1.2-1.8-1.2-3.3c0-1.3,0.4-2.4,1.2-3.2
			c0.8-0.8,1.9-1.3,3.6-1.3c1.6,0,2.8,0.5,3.6,1.3c0.8,0.8,1.2,2,1.2,3.3C680.1,1485.5,679.7,1486.5,678.9,1487.3z M677.8,1481.8
			c-0.5-0.5-1.2-0.8-2.4-0.8c-1.1,0-1.8,0.4-2.3,0.9c-0.5,0.6-0.7,1.3-0.7,2.2c0,1,0.2,1.8,0.6,2.2c0.5,0.6,1.3,0.9,2.4,0.9
			c1,0,1.8-0.3,2.3-0.9c0.4-0.5,0.7-1.2,0.7-2.2C678.4,1483.2,678.3,1482.3,677.8,1481.8z"/>
		<path d="M684.4,1481.2v7.3h-1.7v-7.3h-1.6v-1.5h1.6v-1.6c0-1.4,1-2.4,3-2.4c0.6,0,1.2,0.1,1.4,0.1v1.5c-0.3,0-0.8-0.1-1.3-0.1
			c-1,0-1.3,0.6-1.3,1.3v1.2h2.6v1.5H684.4z"/>
		<path d="M700.8,1487.3c-0.8,0.8-2,1.3-3.5,1.3c-1.6,0-2.8-0.4-3.6-1.3c-0.7-0.8-1.2-1.8-1.2-3.3c0-1.3,0.4-2.4,1.2-3.2
			c0.8-0.8,1.9-1.3,3.6-1.3c1.6,0,2.8,0.5,3.6,1.3c0.8,0.8,1.2,2,1.2,3.3C702,1485.5,701.6,1486.5,700.8,1487.3z M699.7,1481.8
			c-0.5-0.5-1.2-0.8-2.4-0.8c-1.1,0-1.8,0.4-2.3,0.9c-0.5,0.6-0.7,1.3-0.7,2.2c0,1,0.2,1.8,0.6,2.2c0.5,0.6,1.3,0.9,2.4,0.9
			c1,0,1.8-0.3,2.3-0.9c0.4-0.5,0.7-1.2,0.7-2.2C700.3,1483.2,700.2,1482.3,699.7,1481.8z"/>
		<path d="M711.9,1488.5h-1.7l0-1.1c-0.6,1-1.9,1.3-3.1,1.3c-2,0-3.4-1.1-3.4-3c0-5.5,0-6,0-6h1.7c0,0,0,0.1,0,5.5
			c0,1.4,0.9,2,2.4,2c1.4,0,2.3-0.7,2.3-1.9v-5.6h1.7v7.3C711.9,1488.3,711.9,1488.5,711.9,1488.5z"/>
		<path d="M720.5,1481.5c-0.5-0.2-1.2-0.3-2-0.3c-1.5,0-2.6,1-2.6,2.7v4.6h-1.7v-8.8h1.7v1.5c0.2-1,1.6-1.7,3-1.7
			c0.8,0,1.3,0.1,1.6,0.2V1481.5z"/>
	</g>
	<g class="st2">
		<path d="M473.1,1501.9c0-1.1-0.4-1.8-2-1.8c-1.2,0-2.1,0.7-2.1,1.9v5.5h-1.6c0-0.2,0-4.8,0-5.7c0-1.1-0.7-1.7-1.9-1.7
			c-1.3,0-2.2,1-2.2,1.9v5.5h-1.7v-8.8h1.7v1.3c0.4-0.9,1.6-1.5,2.9-1.5s2.3,0.5,2.6,1.6c0.4-1.1,1.6-1.6,3-1.6c2.1,0,3,1.2,3,2.9
			c0,6,0,6.1,0.1,6.1h-1.6C473.1,1507.5,473.1,1507.4,473.1,1501.9z"/>
		<path d="M484.3,1506.8c-0.7,0.5-1.7,0.8-3.1,0.8c-1.6,0-2.9-0.5-3.8-1.6c-0.6-0.8-0.9-1.7-0.9-3c0-1.2,0.3-2.2,0.9-2.9
			c0.8-1,2-1.6,3.7-1.6c1.8,0,3,0.6,3.7,1.6c0.7,0.8,0.9,2.3,0.8,3.6h-7.5c0,0.7,0.3,1.2,0.8,1.7c0.5,0.5,1.3,0.8,2.2,0.8
			c0.9,0,1.6-0.2,2-0.5c0.5-0.3,0.7-0.8,0.7-1h1.7C485.6,1505.3,485.1,1506.2,484.3,1506.8z M483.4,1500.7c-0.5-0.5-1.2-0.8-2.2-0.8
			c-1,0-1.7,0.3-2.2,0.8c-0.4,0.4-0.7,1-0.7,1.6h5.7C483.9,1501.7,483.8,1501.2,483.4,1500.7z"/>
		<path d="M498.9,1501.9c0-1.1-0.4-1.8-2-1.8c-1.2,0-2.1,0.7-2.1,1.9v5.5h-1.6c0-0.2,0-4.8,0-5.7c0-1.1-0.7-1.7-1.9-1.7
			c-1.3,0-2.2,1-2.2,1.9v5.5h-1.7v-8.8h1.7v1.3c0.4-0.9,1.6-1.5,2.9-1.5s2.3,0.5,2.6,1.6c0.4-1.1,1.6-1.6,3-1.6c2.1,0,3,1.2,3,2.9
			c0,6,0,6.1,0.1,6.1H499C498.9,1507.5,498.9,1507.4,498.9,1501.9z"/>
		<path d="M510.9,1499.7c0.7,0.7,1.1,1.8,1.1,3.2c0,1.6-0.4,2.7-1.2,3.4c-0.8,0.8-1.9,1.2-3.1,1.2c-1.4,0-2.5-0.4-3.1-1.2l-0.1,1.2
			h-1.6v-12.8h1.7v5.3c0.3-0.8,1.5-1.6,3.3-1.6C509.2,1498.5,510.2,1498.9,510.9,1499.7z M504.7,1501.6c-0.1,0.4-0.2,0.8-0.2,1.6
			c0,0.8,0.1,1.2,0.3,1.5c0.4,0.8,1.2,1.4,2.6,1.4c1.1,0,1.8-0.4,2.3-1c0.4-0.5,0.6-1.2,0.6-2.1c0-0.8-0.1-1.6-0.5-2
			c-0.5-0.6-1.2-1-2.4-1C505.9,1500,505,1500.7,504.7,1501.6z"/>
		<path d="M521.1,1506.8c-0.7,0.5-1.7,0.8-3.1,0.8c-1.6,0-2.9-0.5-3.8-1.6c-0.6-0.8-0.9-1.7-0.9-3c0-1.2,0.3-2.2,0.9-2.9
			c0.8-1,2-1.6,3.7-1.6c1.8,0,3,0.6,3.7,1.6c0.7,0.8,0.9,2.3,0.8,3.6H515c0,0.7,0.3,1.2,0.8,1.7c0.5,0.5,1.3,0.8,2.2,0.8
			c0.9,0,1.6-0.2,2-0.5c0.5-0.3,0.7-0.8,0.7-1h1.7C522.4,1505.3,521.9,1506.2,521.1,1506.8z M520.2,1500.7c-0.5-0.5-1.2-0.8-2.2-0.8
			c-1,0-1.7,0.3-2.2,0.8c-0.4,0.4-0.7,1-0.7,1.6h5.7C520.7,1501.7,520.6,1501.2,520.2,1500.7z"/>
		<path d="M530.5,1500.5c-0.5-0.2-1.2-0.3-2-0.3c-1.5,0-2.6,1-2.6,2.7v4.6h-1.7v-8.8h1.7v1.5c0.2-1,1.6-1.7,3-1.7
			c0.8,0,1.3,0.1,1.6,0.2V1500.5z"/>
		<path d="M535.6,1507.6c-2.7,0-4-0.5-4.3-1.9c-0.1-0.4-0.1-0.6-0.1-0.9h1.7c0,0.1,0,0.3,0.1,0.6c0.2,0.6,1,0.8,2.7,0.8
			c1.7,0,2.3-0.4,2.3-1.2c0-0.8-0.6-1-2.1-1.2c-0.2,0-1.5-0.2-1.8-0.3c-2-0.3-2.8-1-2.8-2.5c0-1.4,1.2-2.5,4-2.5
			c2.3,0,3.6,0.6,4,1.8c0.1,0.4,0.1,0.9,0.1,1.1h-1.7c0-0.1,0-0.5-0.1-0.6c-0.2-0.4-0.8-0.7-2.4-0.7c-1.7,0-2.2,0.4-2.2,1
			c0,0.6,0.4,0.8,1.8,1.1c0.2,0,1.7,0.2,1.9,0.3c2.1,0.3,3,1,3,2.6C539.7,1506.7,538.5,1507.6,535.6,1507.6z"/>
		<path d="M552.8,1507.5c-0.1,0-0.2-0.5-0.2-1.1c-0.5,0.7-1.5,1.2-3.5,1.2c-2.1,0-3.4-0.8-3.4-2.3c0-0.1,0-0.3,0-0.5
			c0-1.4,1.2-2.7,4.4-2.7c0.8,0,1.6,0,2.5,0.1c0-0.2,0-0.7,0-1c-0.1-0.8-0.8-1.3-2.3-1.3c-1,0-1.6,0.2-2,0.5
			c-0.4,0.3-0.5,0.7-0.5,1.2h-1.6c0-0.6,0.3-1.4,0.6-1.8c0.7-0.9,1.8-1.3,3.5-1.3c2.6,0,3.8,1,3.9,2.4c0,0.4,0.1,1.7,0,2.4
			c0,0.6,0,1.8,0,2.4c0,0.7,0.1,1.6,0.2,1.8H552.8z M550.7,1503.4c-1.1,0-2,0.1-2.6,0.5c-0.4,0.2-0.6,0.6-0.6,1
			c0,0.4,0.1,0.6,0.3,0.8c0.3,0.3,1,0.5,1.9,0.5c0.8,0,1.4-0.1,2.1-0.5c0.4-0.2,0.8-0.7,0.9-1.4c0-0.4,0.1-0.7,0.1-0.9
			C552,1503.4,551.3,1503.4,550.7,1503.4z"/>
		<path d="M562.9,1500.5c-0.5-0.2-1.2-0.3-2-0.3c-1.5,0-2.6,1-2.6,2.7v4.6h-1.7v-8.8h1.7v1.5c0.2-1,1.6-1.7,3-1.7
			c0.8,0,1.3,0.1,1.6,0.2V1500.5z"/>
		<path d="M571.2,1506.8c-0.7,0.5-1.7,0.8-3.1,0.8c-1.6,0-2.9-0.5-3.8-1.6c-0.6-0.8-0.9-1.7-0.9-3c0-1.2,0.3-2.2,0.9-2.9
			c0.8-1,2-1.6,3.7-1.6c1.8,0,3,0.6,3.7,1.6c0.7,0.8,0.9,2.3,0.8,3.6h-7.5c0,0.7,0.3,1.2,0.8,1.7c0.5,0.5,1.3,0.8,2.2,0.8
			c0.9,0,1.6-0.2,2-0.5c0.5-0.3,0.7-0.8,0.7-1h1.7C572.5,1505.3,572,1506.2,571.2,1506.8z M570.3,1500.7c-0.5-0.5-1.2-0.8-2.2-0.8
			c-1,0-1.7,0.3-2.2,0.8c-0.4,0.4-0.7,1-0.7,1.6h5.7C570.8,1501.7,570.7,1501.2,570.3,1500.7z"/>
		<path d="M585.7,1502c0-0.3-0.1-0.9-0.4-1.2c-0.4-0.5-1.2-0.8-2.3-0.8c-1,0-1.7,0.3-2.2,0.8c-0.5,0.5-0.7,1.3-0.7,2.3
			c0,1.1,0.2,1.9,0.8,2.4c0.5,0.5,1.2,0.7,2.2,0.7c1.1,0,1.8-0.3,2.2-0.7c0.3-0.3,0.5-0.8,0.5-1.1h1.7c0,0.8-0.3,1.6-1,2.2
			c-0.7,0.6-1.8,1.1-3.4,1.1c-1.5,0-2.6-0.4-3.4-1.1c-0.8-0.8-1.3-1.9-1.3-3.5c0-1.5,0.4-2.6,1.2-3.3c0.8-0.8,2-1.3,3.6-1.3
			c2,0,3.1,0.7,3.8,1.8c0.4,0.6,0.4,1.3,0.4,1.7H585.7z"/>
		<path d="M597,1506.3c-0.8,0.8-2,1.3-3.5,1.3c-1.6,0-2.8-0.4-3.6-1.3c-0.7-0.8-1.2-1.8-1.2-3.3c0-1.3,0.4-2.4,1.2-3.2
			c0.8-0.8,1.9-1.3,3.6-1.3c1.6,0,2.8,0.5,3.6,1.3c0.8,0.8,1.2,2,1.2,3.3C598.2,1504.5,597.7,1505.5,597,1506.3z M595.8,1500.8
			c-0.5-0.5-1.2-0.8-2.4-0.8c-1.1,0-1.8,0.4-2.3,0.9c-0.5,0.6-0.7,1.3-0.7,2.2c0,1,0.2,1.8,0.6,2.2c0.5,0.6,1.3,0.9,2.4,0.9
			c1,0,1.8-0.3,2.3-0.9c0.4-0.5,0.7-1.2,0.7-2.2C596.5,1502.2,596.3,1501.3,595.8,1500.8z"/>
		<path d="M611.5,1501.9c0-1.1-0.4-1.8-2-1.8c-1.2,0-2.1,0.7-2.1,1.9v5.5h-1.6c0-0.2,0-4.8,0-5.7c0-1.1-0.7-1.7-1.9-1.7
			c-1.3,0-2.2,1-2.2,1.9v5.5H600v-8.8h1.7v1.3c0.4-0.9,1.6-1.5,2.9-1.5c1.3,0,2.3,0.5,2.6,1.6c0.4-1.1,1.6-1.6,3-1.6
			c2.1,0,3,1.2,3,2.9c0,6,0,6.1,0.1,6.1h-1.6C611.5,1507.5,611.5,1507.4,611.5,1501.9z"/>
		<path d="M617.9,1500.2v7.3h-1.7v-7.3h-1.6v-1.5h1.6v-1.6c0-1.4,1-2.4,3-2.4c0.6,0,1.2,0.1,1.4,0.1v1.5c-0.3,0-0.8-0.1-1.3-0.1
			c-1,0-1.3,0.6-1.3,1.3v1.2h2.6v1.5H617.9z"/>
		<path d="M629.4,1506.3c-0.8,0.8-2,1.3-3.5,1.3c-1.6,0-2.8-0.4-3.6-1.3c-0.7-0.8-1.2-1.8-1.2-3.3c0-1.3,0.4-2.4,1.2-3.2
			c0.8-0.8,1.9-1.3,3.6-1.3c1.6,0,2.8,0.5,3.6,1.3c0.8,0.8,1.2,2,1.2,3.3C630.6,1504.5,630.1,1505.5,629.4,1506.3z M628.2,1500.8
			c-0.5-0.5-1.2-0.8-2.4-0.8c-1.1,0-1.8,0.4-2.3,0.9c-0.5,0.6-0.7,1.3-0.7,2.2c0,1,0.2,1.8,0.6,2.2c0.5,0.6,1.3,0.9,2.4,0.9
			c1,0,1.8-0.3,2.3-0.9c0.4-0.5,0.7-1.2,0.7-2.2C628.9,1502.2,628.7,1501.3,628.2,1500.8z"/>
		<path d="M638.7,1500.5c-0.5-0.2-1.2-0.3-2-0.3c-1.5,0-2.6,1-2.6,2.7v4.6h-1.7v-8.8h1.7v1.5c0.2-1,1.6-1.7,3-1.7
			c0.8,0,1.3,0.1,1.6,0.2V1500.5z"/>
		<path d="M642.7,1500.2c0,0.9,0,3.8,0,4.6c0,1,0.4,1.3,1.4,1.3c0.4,0,1,0,1.2-0.1v1.5c-0.4,0.1-1.1,0.2-1.9,0.2
			c-1.4,0-2.5-0.5-2.5-2.3c0-1,0-4,0-5.2h-1.5v-1.5h1.5c0.1-0.1,0.1-1.9,0.1-1.9l1.7,0c0,0,0,1.7,0,1.9h2.7v1.5H642.7z"/>
		<path d="M653.6,1507.5c-0.1,0-0.2-0.5-0.2-1.1c-0.5,0.7-1.5,1.2-3.5,1.2c-2.1,0-3.4-0.8-3.4-2.3c0-0.1,0-0.3,0-0.5
			c0-1.4,1.2-2.7,4.4-2.7c0.8,0,1.6,0,2.5,0.1c0-0.2,0-0.7,0-1c-0.1-0.8-0.8-1.3-2.3-1.3c-1,0-1.6,0.2-2,0.5
			c-0.4,0.3-0.5,0.7-0.5,1.2H647c0-0.6,0.3-1.4,0.6-1.8c0.7-0.9,1.8-1.3,3.5-1.3c2.6,0,3.8,1,3.9,2.4c0,0.4,0.1,1.7,0,2.4
			c0,0.6,0,1.8,0,2.4c0,0.7,0.1,1.6,0.2,1.8H653.6z M651.5,1503.4c-1.1,0-2,0.1-2.6,0.5c-0.4,0.2-0.6,0.6-0.6,1
			c0,0.4,0.1,0.6,0.3,0.8c0.3,0.3,1,0.5,1.9,0.5c0.8,0,1.4-0.1,2.1-0.5c0.4-0.2,0.8-0.7,0.9-1.4c0-0.4,0.1-0.7,0.1-0.9
			C652.8,1503.4,652.1,1503.4,651.5,1503.4z"/>
		<path d="M665.4,1499.7c0.7,0.7,1.1,1.8,1.1,3.2c0,1.6-0.4,2.7-1.2,3.4c-0.8,0.8-1.9,1.2-3.1,1.2c-1.4,0-2.5-0.4-3.1-1.2l-0.1,1.2
			h-1.6v-12.8h1.7v5.3c0.3-0.8,1.5-1.6,3.3-1.6C663.7,1498.5,664.7,1498.9,665.4,1499.7z M659.2,1501.6c-0.1,0.4-0.2,0.8-0.2,1.6
			c0,0.8,0.1,1.2,0.3,1.5c0.4,0.8,1.2,1.4,2.6,1.4c1.1,0,1.8-0.4,2.3-1c0.4-0.5,0.6-1.2,0.6-2.1c0-0.8-0.1-1.6-0.5-2
			c-0.5-0.6-1.2-1-2.4-1C660.4,1500,659.5,1500.7,659.2,1501.6z"/>
		<path d="M668.3,1507.5c0,0,0-0.1,0-0.6c0-1.2,0-9.7,0-11.2c0-0.4,0-0.8,0-0.9h1.7c0,0.1,0,0.4,0,0.8c0,1.3,0,9.2,0,11.2
			c0,0.4,0,0.7,0,0.8H668.3z"/>
		<path d="M679.6,1506.8c-0.7,0.5-1.7,0.8-3.1,0.8c-1.6,0-2.9-0.5-3.8-1.6c-0.6-0.8-0.9-1.7-0.9-3c0-1.2,0.3-2.2,0.9-2.9
			c0.8-1,2-1.6,3.7-1.6c1.8,0,3,0.6,3.7,1.6c0.7,0.8,0.9,2.3,0.8,3.6h-7.5c0,0.7,0.3,1.2,0.8,1.7c0.5,0.5,1.3,0.8,2.2,0.8
			c0.9,0,1.6-0.2,2-0.5c0.5-0.3,0.7-0.8,0.7-1h1.7C680.9,1505.3,680.4,1506.2,679.6,1506.8z M678.7,1500.7c-0.5-0.5-1.2-0.8-2.2-0.8
			c-1,0-1.7,0.3-2.2,0.8c-0.4,0.4-0.7,1-0.7,1.6h5.7C679.2,1501.7,679.1,1501.2,678.7,1500.7z"/>
		<path d="M698.3,1507.5h-2c0,0-2.2-6.1-2.2-6.3c0-0.1-0.1-0.7-0.1-0.7s-0.1,0.6-0.1,0.7c0,0.2-2.2,6.3-2.2,6.3h-2.1l-3.3-8.8h1.8
			l2.5,7.2l2.4-7.2h1.9l2.4,7.2l2.5-7.2h1.7L698.3,1507.5z"/>
		<path d="M702.8,1497.6v-2h1.8v2H702.8z M703,1507.5c-0.1,0-0.1-0.2-0.1-0.8c0-1.7,0-8,0-8h1.7c0,0,0,6.6,0,8c0,0.6,0,0.8,0.1,0.8
			H703z"/>
		<path d="M709.1,1500.2c0,0.9,0,3.8,0,4.6c0,1,0.4,1.3,1.4,1.3c0.4,0,1,0,1.2-0.1v1.5c-0.4,0.1-1.1,0.2-1.9,0.2
			c-1.4,0-2.5-0.5-2.5-2.3c0-1,0-4,0-5.2h-1.5v-1.5h1.5c0.1-0.1,0.1-1.9,0.1-1.9l1.7,0c0,0,0,1.7,0,1.9h2.7v1.5H709.1z"/>
		<path d="M721.6,1507.5h-1.7c-0.1,0,0-0.2,0-5.5c0-1.1-0.6-1.9-2.2-1.9c-1.4,0-2.5,0.8-2.5,2v5.4h-1.7v-12.8h1.7v5.3
			c0.4-0.9,1.5-1.5,3.1-1.5c2.2,0,3.3,1.2,3.3,3.2C721.5,1507.3,721.5,1507.5,721.6,1507.5z"/>
	</g>
	<g class="st2">
		<path d="M532.6,1526.5H531l0-1.1c-0.6,1-1.9,1.3-3.1,1.3c-2,0-3.4-1.1-3.4-3c0-5.5,0-6,0-6h1.7c0,0,0,0.1,0,5.5c0,1.4,0.9,2,2.4,2
			c1.4,0,2.3-0.7,2.3-1.9v-5.6h1.7v7.3C532.6,1526.3,532.6,1526.5,532.6,1526.5z"/>
		<path d="M538.9,1526.6c-2.7,0-4-0.5-4.3-1.9c-0.1-0.4-0.1-0.6-0.1-0.9h1.7c0,0.1,0,0.3,0.1,0.6c0.2,0.6,1,0.8,2.7,0.8
			c1.7,0,2.3-0.4,2.3-1.2c0-0.8-0.6-1-2.1-1.2c-0.2,0-1.5-0.2-1.8-0.3c-2-0.3-2.8-1-2.8-2.5c0-1.4,1.2-2.5,4-2.5
			c2.3,0,3.6,0.6,4,1.8c0.1,0.4,0.1,0.9,0.1,1.1h-1.7c0-0.1,0-0.5-0.1-0.6c-0.2-0.4-0.8-0.7-2.4-0.7c-1.7,0-2.2,0.4-2.2,1
			c0,0.6,0.4,0.8,1.8,1.1c0.2,0,1.7,0.2,1.9,0.3c2.1,0.3,3,1,3,2.6C542.9,1525.7,541.8,1526.6,538.9,1526.6z"/>
		<path d="M544.8,1516.6v-2h1.8v2H544.8z M545,1526.5c-0.1,0-0.1-0.2-0.1-0.8c0-1.7,0-8,0-8h1.7c0,0,0,6.6,0,8c0,0.6,0,0.8,0.1,0.8
			H545z"/>
		<path d="M557.2,1526.5h-1.7c-0.1,0-0.1-0.1-0.1-5.5c0-1.2-0.7-1.9-2.2-1.9c-1.3,0-2.5,0.7-2.5,2v5.3H549v-8.8h1.7v1.4
			c0.5-1.1,1.9-1.6,3.2-1.6c2.4,0,3.3,1.4,3.3,3.1C557.2,1526.2,557.2,1526.5,557.2,1526.5z"/>
		<path d="M566,1518.2c0.5-0.4,1.6-0.6,2.3-0.6v1.3c-0.3,0-1.3,0-1.6,0.2c0.1,0.2,0.4,0.7,0.4,1.3c0,0.2,0,0.4,0,0.6
			c-0.3,1.8-1.9,2.6-4,2.6c-0.9,0-1.8-0.3-2.2-0.5c-0.3,0-0.4,0.2-0.4,0.5c0,0.5,0.5,0.7,2.8,0.7c3.7,0,4.8,0.8,4.8,2.3
			c0,1.6-1.3,2.5-4.9,2.5c-3.4,0-4.6-0.7-4.6-2.1c0-1.1,1-1.5,1.5-1.7c-0.6,0-1.1-0.7-1.1-1.3c0-0.6,0.4-1.2,1-1.3
			c-0.5-0.3-1-1.1-1-1.9c0-0.2,0-0.5,0-0.7c0.1-1.4,1.4-2.8,4-2.8C564.6,1517.5,565.5,1517.9,566,1518.2z M566.4,1526.7
			c0-0.7-0.5-0.9-2.9-1c-0.9,0-1.8,0-2,0c-0.7,0.1-1.3,0.5-1.3,1c0,0.6,0.7,1.2,3,1.2S566.4,1527.4,566.4,1526.7z M560.7,1520.4
			c0,0.2,0,0.4,0,0.5c0,0.8,0.7,1.5,2.4,1.5c1.7,0,2.2-0.7,2.4-1.5c0-0.2,0-0.3,0-0.5c-0.1-0.9-0.8-1.5-2.4-1.5
			C561.6,1518.9,560.7,1519.7,560.7,1520.4z"/>
		<path d="M576,1519.2c0,0.9,0,3.8,0,4.6c0,1,0.4,1.3,1.4,1.3c0.4,0,1,0,1.2-0.1v1.5c-0.4,0.1-1.1,0.2-1.9,0.2
			c-1.4,0-2.5-0.5-2.5-2.3c0-1,0-4,0-5.2h-1.5v-1.5h1.5c0.1-0.1,0.1-1.9,0.1-1.9l1.7,0c0,0,0,1.7,0,1.9h2.7v1.5H576z"/>
		<path d="M588.5,1526.5h-1.7c-0.1,0,0-0.2,0-5.5c0-1.1-0.6-1.9-2.2-1.9c-1.4,0-2.5,0.8-2.5,2v5.4h-1.7v-12.8h1.7v5.3
			c0.4-0.9,1.5-1.5,3.1-1.5c2.2,0,3.3,1.2,3.3,3.2C588.4,1526.3,588.4,1526.5,588.5,1526.5z"/>
		<path d="M598,1525.8c-0.7,0.5-1.7,0.8-3.1,0.8c-1.6,0-2.9-0.5-3.8-1.6c-0.6-0.8-0.9-1.7-0.9-3c0-1.2,0.3-2.2,0.9-2.9
			c0.8-1,2-1.6,3.7-1.6c1.8,0,3,0.6,3.7,1.6c0.7,0.8,0.9,2.3,0.8,3.6h-7.5c0,0.7,0.3,1.2,0.8,1.7c0.5,0.5,1.3,0.8,2.2,0.8
			c0.9,0,1.6-0.2,2-0.5c0.5-0.3,0.7-0.8,0.7-1h1.7C599.3,1524.3,598.8,1525.2,598,1525.8z M597,1519.7c-0.5-0.5-1.2-0.8-2.2-0.8
			c-1,0-1.7,0.3-2.2,0.8c-0.4,0.4-0.7,1-0.7,1.6h5.7C597.6,1520.7,597.4,1520.2,597,1519.7z"/>
		<path d="M601,1516.6v-2h1.8v2H601z M601.2,1526.5c-0.1,0-0.1-0.2-0.1-0.8c0-1.7,0-8,0-8h1.7c0,0,0,6.6,0,8c0,0.6,0,0.8,0.1,0.8
			H601.2z"/>
		<path d="M611.5,1519.5c-0.5-0.2-1.2-0.3-2-0.3c-1.5,0-2.6,1-2.6,2.7v4.6h-1.7v-8.8h1.7v1.5c0.2-1,1.6-1.7,3-1.7
			c0.8,0,1.3,0.1,1.6,0.2V1519.5z"/>
		<path d="M625.6,1518.7c0.7,0.7,1.1,1.8,1.1,3.2c0,1.6-0.4,2.7-1.2,3.4c-0.8,0.8-1.9,1.2-3.1,1.2c-1.4,0-2.5-0.4-3.1-1.2l-0.1,1.2
			h-1.6v-12.8h1.7v5.3c0.3-0.8,1.5-1.6,3.3-1.6C623.9,1517.5,624.9,1517.9,625.6,1518.7z M619.4,1520.6c-0.1,0.4-0.2,0.8-0.2,1.6
			c0,0.8,0.1,1.2,0.3,1.5c0.4,0.8,1.2,1.4,2.6,1.4c1.1,0,1.8-0.4,2.3-1c0.4-0.5,0.6-1.2,0.6-2.1c0-0.8-0.1-1.6-0.5-2
			c-0.5-0.6-1.2-1-2.4-1C620.6,1519,619.7,1519.7,619.4,1520.6z"/>
		<path d="M636.2,1525.3c-0.8,0.8-2,1.3-3.5,1.3c-1.6,0-2.8-0.4-3.6-1.3c-0.7-0.8-1.2-1.8-1.2-3.3c0-1.3,0.4-2.4,1.2-3.2
			c0.8-0.8,1.9-1.3,3.6-1.3c1.6,0,2.8,0.5,3.6,1.3c0.8,0.8,1.2,2,1.2,3.3C637.4,1523.5,637,1524.5,636.2,1525.3z M635.1,1519.8
			c-0.5-0.5-1.2-0.8-2.4-0.8c-1.1,0-1.8,0.4-2.3,0.9c-0.5,0.6-0.7,1.3-0.7,2.2c0,1,0.2,1.8,0.6,2.2c0.5,0.6,1.3,0.9,2.4,0.9
			c1,0,1.8-0.3,2.3-0.9c0.4-0.5,0.7-1.2,0.7-2.2C635.7,1521.2,635.6,1520.3,635.1,1519.8z"/>
		<path d="M641.4,1519.2c0,0.9,0,3.8,0,4.6c0,1,0.4,1.3,1.4,1.3c0.4,0,1,0,1.2-0.1v1.5c-0.4,0.1-1.1,0.2-1.9,0.2
			c-1.4,0-2.5-0.5-2.5-2.3c0-1,0-4,0-5.2h-1.5v-1.5h1.5c0.1-0.1,0.1-1.9,0.1-1.9l1.7,0c0,0,0,1.7,0,1.9h2.7v1.5H641.4z"/>
		<path d="M649.7,1526.6c-2.7,0-4-0.5-4.3-1.9c-0.1-0.4-0.1-0.6-0.1-0.9h1.7c0,0.1,0,0.3,0.1,0.6c0.2,0.6,1,0.8,2.7,0.8
			c1.7,0,2.3-0.4,2.3-1.2c0-0.8-0.6-1-2.1-1.2c-0.2,0-1.5-0.2-1.8-0.3c-2-0.3-2.8-1-2.8-2.5c0-1.4,1.2-2.5,4-2.5
			c2.3,0,3.6,0.6,4,1.8c0.1,0.4,0.1,0.9,0.1,1.1h-1.7c0-0.1,0-0.5-0.1-0.6c-0.2-0.4-0.8-0.7-2.4-0.7c-1.7,0-2.2,0.4-2.2,1
			c0,0.6,0.4,0.8,1.8,1.1c0.2,0,1.7,0.2,1.9,0.3c2.1,0.3,3,1,3,2.6C653.7,1525.7,652.6,1526.6,649.7,1526.6z"/>
		<path d="M655.9,1526.5v-2.6h2.2v2.6H655.9z"/>
	</g>
	<g class="st2">
		<path d="M464.7,1404.5h-5.4l-8.1-12.5h5.3l5.7,9l5.9-9h4.8L464.7,1404.5z"/>
		<path d="M475.7,1404.5V1392h4.8v12.5H475.7z"/>
		<path d="M495.5,1404.5h-10.6V1392h10.6c3.7,0,5.9,1.1,6.8,3c0.5,0.9,0.7,1.9,0.7,3.1c0,1.2-0.2,2.4-0.7,3.3
			C501.4,1403.3,499.3,1404.5,495.5,1404.5z M498.3,1398.2c0-0.7-0.1-1.2-0.3-1.6c-0.5-1-1.5-1.4-3.2-1.4h-5.2v6.1h5.1
			c1.7,0,2.8-0.4,3.2-1.3C498.2,1399.5,498.3,1398.9,498.3,1398.2z"/>
		<path d="M506.5,1404.5V1392H522v3.3h-10.8v1.4h10.5v3.1h-10.5v1.4h11v3.3H506.5z"/>
		<path d="M543.6,1394.2c1.1,1.1,1.6,2.4,1.6,4c0,1.7-0.6,3-1.6,4c-1.6,1.7-4.6,2.5-8.5,2.5c-3.8,0-6.7-0.8-8.4-2.5
			c-1.1-1-1.7-2.3-1.7-4c0-1.5,0.5-2.8,1.6-3.8c1.9-1.9,4.7-2.7,8.5-2.7C539,1391.7,541.8,1392.5,543.6,1394.2z M540.4,1398.2
			c0-1.4-1.4-3-5.3-3c-3.8,0-5.3,1.6-5.3,3c0,1.6,1.6,3,5.3,3C538.8,1401.2,540.4,1399.8,540.4,1398.2z"/>
		<path d="M567.4,1395.3v9.2h-4.8v-9.2h-6.6v-3.3H574v3.3H567.4z"/>
		<path d="M585.8,1404.7c-5.2,0-8.8-1.9-8.8-6.2c0-0.8,0-6.5,0-6.5h4.7c0,0,0,6.4,0,6.6c0,1.6,1.5,2.6,4.3,2.6c2.7,0,4.3-1,4.3-2.6
			c0-0.2,0-6.6,0-6.6h4.7c0,0,0,6.4,0,7C595,1402.8,591.5,1404.7,585.8,1404.7z"/>
		<path d="M609.4,1395.3v9.2h-4.8v-9.2H598v-3.3h17.9v3.3H609.4z"/>
		<path d="M636.3,1394.2c1.1,1.1,1.6,2.4,1.6,4c0,1.7-0.6,3-1.6,4c-1.6,1.7-4.6,2.5-8.5,2.5c-3.8,0-6.7-0.8-8.4-2.5
			c-1.1-1-1.7-2.3-1.7-4c0-1.5,0.5-2.8,1.6-3.8c1.9-1.9,4.7-2.7,8.5-2.7C631.7,1391.7,634.5,1392.5,636.3,1394.2z M633.1,1398.2
			c0-1.4-1.4-3-5.3-3c-3.8,0-5.3,1.6-5.3,3c0,1.6,1.6,3,5.3,3C631.5,1401.2,633.1,1399.8,633.1,1398.2z"/>
		<path d="M658.3,1398c-0.5,0.6-1.3,1.2-2.4,1.3l4.6,5.2h-5.2l-4-4.6h-5.2v4.6h-4.7V1392h12c2.3,0,3.8,0.5,4.6,1.2
			c0.6,0.6,1,1.3,1,2.4C659,1396.6,658.7,1397.5,658.3,1398z M654.3,1395.6c-0.3-0.4-0.8-0.5-1.6-0.5h-6.6v2h6.7
			c0.9,0,1.3-0.1,1.5-0.5c0.1-0.2,0.1-0.4,0.1-0.5C654.5,1395.9,654.4,1395.8,654.3,1395.6z"/>
		<path d="M663.5,1404.5V1392h4.8v12.5H663.5z"/>
		<path d="M676,1404.5h-5l8.5-12.5h5.4l8,12.5h-5.2l-1.3-2h-9.1L676,1404.5z M682.6,1396.5l-0.6-1.1l-0.7,1.1l-2,3.1h5.4
			C684.6,1399.6,682.6,1396.5,682.6,1396.5z"/>
		<path d="M695.6,1404.5V1392h4.7v8.9h9.2v3.6H695.6z"/>
		<path d="M720.9,1404.7c-5.5,0-7.9-1.5-9-3.3c-0.2-0.4-0.3-0.8-0.4-1.2h5.2c0.1,0.2,0.2,0.4,0.4,0.6c0.5,0.5,2,0.8,4.3,0.8
			c3.2,0,3.8-0.3,3.8-0.9c0-0.6-0.4-0.7-3.1-0.9c-1.2-0.1-2.8-0.2-3.6-0.2c-5.3-0.3-6.8-1.7-6.8-3.6c0-2.3,3.1-4.1,8.9-4.1
			c5.1,0,7.4,1.4,8.4,2.9c0.3,0.5,0.5,1,0.6,1.5l-5.2,0c0-0.2-0.1-0.3-0.4-0.5c-0.5-0.4-1.7-0.8-3.7-0.8c-2.9,0-3.7,0.2-3.7,0.8
			c0,0.5,0.5,0.6,3.6,0.9c1.4,0.1,3.9,0.3,4.4,0.3c4,0.3,5.4,1.5,5.4,3.6C730.1,1403.3,727.1,1404.7,720.9,1404.7z"/>
	</g>
	<path id="Path_144" class="st1" d="M572.5,1429h37.7"/>
	<g id="Group_184" transform="translate(102.976 775.094)">
		<g id="Group_74" transform="translate(413.024 440.407)">
			<rect id="Rectangle_36" x="13.7" y="11.7" class="st3" width="118.9" height="63.9"/>
			<rect id="Rectangle_37" x="0" y="0" class="st4" width="146.2" height="103.9"/>
			<line id="Line_19" class="st4" x1="0" y1="87.6" x2="146.2" y2="87.6"/>
			<g id="Group_73" transform="translate(55.655 103.863)">
				<line id="Line_20" class="st4" x1="3.9" y1="0" x2="0" y2="21"/>
				<line id="Line_21" class="st4" x1="31" y1="0" x2="34.9" y2="21"/>
			</g>
			<line id="Line_22" class="st4" x1="33.8" y1="124.8" x2="112.4" y2="124.8"/>
		</g>
		<circle id="Ellipse_19" class="st4" cx="486.1" cy="484.1" r="18.1"/>
		<path id="Path_66" class="st4" d="M481,492l14.1-7.9l-14.1-7.9V492z"/>
	</g>
</g>
</svg>
