<?xml version="1.0" encoding="utf-8"?>
<!-- Generator: Adobe Illustrator 23.1.0, SVG Export Plug-In . SVG Version: 6.00 Build 0)  -->
<svg version="1.1" id="Layer_1" xmlns="http://www.w3.org/2000/svg" xmlns:xlink="http://www.w3.org/1999/xlink" x="0px" y="0px"
	 viewBox="0 0 96.7 24.6" style="enable-background:new 0 0 96.7 24.6;" xml:space="preserve">
<style type="text/css">
	.st0{fill:#93F5CC;}
</style>
<path class="st0" d="M5,6.6l-2.8-2l15,0L20,0H4.9C1.6,0,0,1.6,0,4.9v14.8c0,3.3,1.6,4.9,4.9,4.9h10.2c3.3,0,4.9-1.6,4.9-4.9V11H13
	l-2.6,4.4H15v3.8c0,0.5-0.2,0.7-0.7,0.7H5.8c-0.5,0-0.7-0.2-0.7-0.7L5,6.6z"/>
<path class="st0" d="M63.4,0H48.2v24.6h5.1l0-18l-2.8-2l12.1,0c0.4,0,0.7,0.3,0.7,0.7v0v19.2h5.1V4.9C68.4,2.2,66.2,0,63.4,0z"/>
<path class="st0" d="M74,0v24.6h5.1V14.5h5.3l2.9-4.6h-8.2V6.5l-2.7-1.9l14.2,0L93.4,0L74,0z"/>
<path class="st0" d="M25.7,24.6h5.1V14.5H36l2.9-4.6h-8.2l0-3.4l-2.8-2l14.3,0L45,0H25.7L25.7,24.6z"/>
</svg>
