<?xml version="1.0" encoding="utf-8"?>
<!-- Generator: Adobe Illustrator 23.1.0, SVG Export Plug-In . SVG Version: 6.00 Build 0)  -->
<svg version="1.1" id="Layer_1" xmlns="http://www.w3.org/2000/svg" xmlns:xlink="http://www.w3.org/1999/xlink" x="0px" y="0px"
	 viewBox="0 0 168 46.8" style="enable-background:new 0 0 168 46.8;" xml:space="preserve">
<style type="text/css">
	.st0{fill:#FFFFFF;}
</style>
<path class="st0" d="M78.2,19.7c0-3.8,0-7.3,0-10.9c0-1.1,0.4-1.3,1.3-1.3c5.3,0,10.7,0,16,0c1.4,0,1.6-0.3,1.7-1.6
	c0-1.4,0-2.8,0-4.2c0-1.3-0.3-1.6-1.6-1.6C87.8,0,80,0,72.2,0c-1.2,0-1.6,0.3-1.6,1.6c0,3.7,0,7.3,0,11c0,10.8,0,21.6,0,32.5
	c0,1.3,0.3,1.7,1.3,1.7c8,0,15.9,0,23.9,0c0.7,0.1,1.3-0.4,1.4-1c0-0.1,0-0.2,0-0.4c0-1.4,0-2.9,0-4.3c0-1.5-0.2-1.7-1.7-1.7
	c-5.3,0-10.6,0-15.9,0c-0.4,0-0.9,0-1.3-0.1V27.2h1.4c4.8,0,9.6,0,14.3,0c1.5,0,1.7-0.3,1.7-1.8c0-1.3,0-2.7,0-4
	c0-1.5-0.3-1.7-1.8-1.7c-4.8,0-9.6,0-14.3,0L78.2,19.7z M44.6,7.5h1.5c5.3,0,10.5,0,15.8,0c1.3,0,1.7-0.3,1.7-1.6c0-1.4,0-2.9,0-4.3
	c0-1-0.4-1.5-1.4-1.5c-7.9,0-15.9,0-23.8,0c-0.7-0.1-1.3,0.4-1.4,1c0,0.1,0,0.2,0,0.3c0,14.6,0,29.3,0,43.9c0,1.2,0.4,1.5,1.6,1.5
	c1.6,0,3.1,0,4.7,0c6.2,0,12.4,0,18.6,0c1.5,0,1.8-0.3,1.8-1.7c0-1.3,0-2.7,0-4c0-1.5-0.3-1.7-1.8-1.7c-5.3,0-10.5,0-15.8,0h-1.3
	V27.2h1.4c4.8,0,9.6,0,14.5,0c1.2,0,1.5-0.3,1.5-1.5c0-1.4,0-2.9,0-4.3c0-1.4-0.3-1.7-1.7-1.7c-4.8,0-9.6,0-14.5,0h-1.3L44.6,7.5z
	 M111.1,27.2c-0.2,0.4-0.3,0.7-0.5,1c-2,3.8-4.1,7.7-6.1,11.5c-0.3,0.5-0.4,1-0.5,1.6c-0.1,1.4,0,2.7,0,4.1c0,1,0.4,1.5,1.4,1.5
	c8.2,0,16.4,0,24.6,0c0.7,0.1,1.3-0.4,1.4-1c0-0.1,0-0.3,0-0.4c0-1.4,0-2.9,0-4.3c0-1.6-0.2-1.8-1.8-1.8c-5,0-9.9,0-14.9,0h-1.4
	c0-0.2,0.1-0.4,0.1-0.6c1.9-3.6,3.8-7.3,5.7-10.9c0.3-0.3,0.7-0.6,1.1-0.6c2-0.1,3.9,0,5.9,0c1.2,0,1.5-0.4,1.6-1.5c0-1.5,0-3,0-4.4
	c0-1.2-0.4-1.5-1.6-1.6c-0.9,0-1.8,0-2.8,0c0.2-0.4,0.3-0.6,0.3-0.7c2.1-4,4.2-8,6.3-12c0.3-0.4,0.4-0.9,0.5-1.5
	c0.1-1.4,0-2.7,0-4.1c0.1-0.7-0.4-1.3-1-1.3c-0.1,0-0.2,0-0.3,0c-7.6,0-15.1,0-22.7,0c-1.1,0-1.5,0.4-1.5,1.6c0,1.4,0,2.8,0,4.2
	c0,1.4,0.3,1.8,1.8,1.8H120h1.2c0,0.1,0,0.3-0.1,0.4c-1.9,3.7-3.9,7.4-5.9,11.1c-0.3,0.3-0.7,0.5-1.1,0.5c-2,0-3.9,0-5.9,0
	c-1,0-1.5,0.5-1.5,1.5c0,1.6,0,3.1,0,4.7c-0.1,0.6,0.3,1.3,1,1.4c0.1,0,0.2,0,0.4,0C109.2,27.2,110.1,27.2,111.1,27.2L111.1,27.2z
	 M15.4,17.1c-0.2-0.5-0.4-0.7-0.5-1c-2.2-4.9-4.4-9.8-6.6-14.7C8.1,0.5,7.1-0.1,6.2,0c-1.5,0.1-3,0.1-4.6,0c-1.4-0.1-2,0.7-1.4,2
	c3.7,7.9,7.3,15.8,10.8,23.8c0.3,0.8,0.5,1.6,0.5,2.4c0,5.6,0,11.2,0,16.8c0,1.5,0.2,1.8,1.8,1.8c1.3,0,2.6,0,3.9,0
	c1.7,0,1.9-0.2,1.9-1.8c0-5.4,0-10.7,0-16.1c0-1.1,0.3-2.3,0.7-3.3c3.5-8,7.2-15.9,10.8-23.8c0.5-1.1,0.1-1.7-1.1-1.7
	c-1.8,0-3.6,0-5.3,0C23.7,0,23,0.4,22.8,1c-0.8,1.7-1.5,3.4-2.3,5.1C18.9,9.7,17.2,13.3,15.4,17.1L15.4,17.1z M152.4,17.2
	c-0.3-0.6-0.4-0.9-0.6-1.3c-2.2-4.9-4.4-9.7-6.5-14.6c-0.3-0.8-1.1-1.4-2-1.2c-1.6,0.1-3.3,0-4.9,0c-1.5,0-1.8,0.5-1.2,1.8
	c3.7,8.1,7.3,16.1,11,24.2c0.3,0.6,0.4,1.3,0.4,2c0,5.7,0,11.3,0,17c0,1.5,0.2,1.7,1.7,1.7c1.4,0,2.7,0,4.1,0c1.6,0,1.8-0.2,1.8-1.8
	c0-5.6,0-11.2,0-16.8c0-0.7,0.2-1.5,0.5-2.1c3.6-8.1,7.3-16.2,11-24.3c0.5-1.2,0.1-1.8-1.1-1.8c-1.7,0-3.4,0-5.1,0
	c-0.8-0.1-1.5,0.4-1.8,1.2c-1.2,2.8-2.5,5.5-3.8,8.3C154.8,12,153.7,14.5,152.4,17.2L152.4,17.2z"/>
</svg>
