<svg xmlns="http://www.w3.org/2000/svg" width="21.744" height="17.719" viewBox="0 0 21.744 17.719">
  <path id="Path_99" data-name="Path 99" d="M-.592-.277A8.713,8.713,0,0,1-2.8,2.029v.554a12.974,12.974,0,0,1-3.478,8.791,11.71,11.71,0,0,1-9.237,3.945,12.292,12.292,0,0,1-6.817-2.03,9.823,9.823,0,0,0,1.059.092,8.655,8.655,0,0,0,5.528-1.938,4.479,4.479,0,0,1-2.58-.9,4.223,4.223,0,0,1-1.566-2.192,5.486,5.486,0,0,0,.829.093,5.182,5.182,0,0,0,1.2-.185,4.5,4.5,0,0,1-2.556-1.545,4.258,4.258,0,0,1-1.037-2.838V3.829a4.2,4.2,0,0,0,2.027.554A4.191,4.191,0,0,1-21.415.645a4.447,4.447,0,0,1,.6-2.215,12.071,12.071,0,0,0,9.168,4.66,3.99,3.99,0,0,1-.092-1.014,4.332,4.332,0,0,1,1.29-3.184A4.315,4.315,0,0,1-7.272-2.4,4.254,4.254,0,0,1-4.047-.97,8.282,8.282,0,0,0-1.191-2.077,4.094,4.094,0,0,1-3.172.415,7.621,7.621,0,0,0-.592-.277" transform="translate(22.336 2.4)"/>
</svg>
